<?xml version="1.0" encoding="utf-8" standalone="no"?>
<!DOCTYPE svg PUBLIC "-//W3C//DTD SVG 1.1//EN"
  "http://www.w3.org/Graphics/SVG/1.1/DTD/svg11.dtd">
<svg xmlns:xlink="http://www.w3.org/1999/xlink" width="274.18125pt" height="213.998125pt" viewBox="0 0 274.18125 213.998125" xmlns="http://www.w3.org/2000/svg" version="1.1">
 <metadata>
  <rdf:RDF xmlns:dc="http://purl.org/dc/elements/1.1/" xmlns:cc="http://creativecommons.org/ns#" xmlns:rdf="http://www.w3.org/1999/02/22-rdf-syntax-ns#">
   <cc:Work>
    <dc:type rdf:resource="http://purl.org/dc/dcmitype/StillImage"/>
    <dc:date>2025-05-15T04:06:20.156868</dc:date>
    <dc:format>image/svg+xml</dc:format>
    <dc:creator>
     <cc:Agent>
      <dc:title>Matplotlib v3.7.2, https://matplotlib.org/</dc:title>
     </cc:Agent>
    </dc:creator>
   </cc:Work>
  </rdf:RDF>
 </metadata>
 <defs>
  <style type="text/css">*{stroke-linejoin: round; stroke-linecap: butt}</style>
 </defs>
 <g id="figure_1">
  <g id="patch_1">
   <path d="M 0 213.998125 
L 274.18125 213.998125 
L 274.18125 0 
L 0 0 
z
" style="fill: #ffffff"/>
  </g>
  <g id="axes_1">
   <g id="patch_2">
    <path d="M 43.78125 173.52 
L 266.98125 173.52 
L 266.98125 7.2 
L 43.78125 7.2 
z
" style="fill: #ffffff"/>
   </g>
   <g id="matplotlib.axis_1">
    <g id="xtick_1">
     <g id="line2d_1">
      <defs>
       <path id="medfeafebd0" d="M 0 0 
L 0 3.5 
" style="stroke: #000000; stroke-width: 0.8"/>
      </defs>
      <g>
       <use xlink:href="#medfeafebd0" x="53.926705" y="173.52" style="stroke: #000000; stroke-width: 0.8"/>
      </g>
     </g>
     <g id="text_1">
      <!-- −2 -->
      <g transform="translate(46.555611 188.118438) scale(0.1 -0.1)">
       <defs>
        <path id="DejaVuSans-2212" d="M 678 2272 
L 4684 2272 
L 4684 1741 
L 678 1741 
L 678 2272 
z
" transform="scale(0.015625)"/>
        <path id="DejaVuSans-32" d="M 1228 531 
L 3431 531 
L 3431 0 
L 469 0 
L 469 531 
Q 828 903 1448 1529 
Q 2069 2156 2228 2338 
Q 2531 2678 2651 2914 
Q 2772 3150 2772 3378 
Q 2772 3750 2511 3984 
Q 2250 4219 1831 4219 
Q 1534 4219 1204 4116 
Q 875 4013 500 3803 
L 500 4441 
Q 881 4594 1212 4672 
Q 1544 4750 1819 4750 
Q 2544 4750 2975 4387 
Q 3406 4025 3406 3419 
Q 3406 3131 3298 2873 
Q 3191 2616 2906 2266 
Q 2828 2175 2409 1742 
Q 1991 1309 1228 531 
z
" transform="scale(0.015625)"/>
       </defs>
       <use xlink:href="#DejaVuSans-2212"/>
       <use xlink:href="#DejaVuSans-32" x="83.789062"/>
      </g>
     </g>
    </g>
    <g id="xtick_2">
     <g id="line2d_2">
      <g>
       <use xlink:href="#medfeafebd0" x="104.653977" y="173.52" style="stroke: #000000; stroke-width: 0.8"/>
      </g>
     </g>
     <g id="text_2">
      <!-- −1 -->
      <g transform="translate(97.282884 188.118438) scale(0.1 -0.1)">
       <defs>
        <path id="DejaVuSans-31" d="M 794 531 
L 1825 531 
L 1825 4091 
L 703 3866 
L 703 4441 
L 1819 4666 
L 2450 4666 
L 2450 531 
L 3481 531 
L 3481 0 
L 794 0 
L 794 531 
z
" transform="scale(0.015625)"/>
       </defs>
       <use xlink:href="#DejaVuSans-2212"/>
       <use xlink:href="#DejaVuSans-31" x="83.789062"/>
      </g>
     </g>
    </g>
    <g id="xtick_3">
     <g id="line2d_3">
      <g>
       <use xlink:href="#medfeafebd0" x="155.38125" y="173.52" style="stroke: #000000; stroke-width: 0.8"/>
      </g>
     </g>
     <g id="text_3">
      <!-- 0 -->
      <g transform="translate(152.2 188.118438) scale(0.1 -0.1)">
       <defs>
        <path id="DejaVuSans-30" d="M 2034 4250 
Q 1547 4250 1301 3770 
Q 1056 3291 1056 2328 
Q 1056 1369 1301 889 
Q 1547 409 2034 409 
Q 2525 409 2770 889 
Q 3016 1369 3016 2328 
Q 3016 3291 2770 3770 
Q 2525 4250 2034 4250 
z
M 2034 4750 
Q 2819 4750 3233 4129 
Q 3647 3509 3647 2328 
Q 3647 1150 3233 529 
Q 2819 -91 2034 -91 
Q 1250 -91 836 529 
Q 422 1150 422 2328 
Q 422 3509 836 4129 
Q 1250 4750 2034 4750 
z
" transform="scale(0.015625)"/>
       </defs>
       <use xlink:href="#DejaVuSans-30"/>
      </g>
     </g>
    </g>
    <g id="xtick_4">
     <g id="line2d_4">
      <g>
       <use xlink:href="#medfeafebd0" x="206.108523" y="173.52" style="stroke: #000000; stroke-width: 0.8"/>
      </g>
     </g>
     <g id="text_4">
      <!-- 1 -->
      <g transform="translate(202.927273 188.118438) scale(0.1 -0.1)">
       <use xlink:href="#DejaVuSans-31"/>
      </g>
     </g>
    </g>
    <g id="xtick_5">
     <g id="line2d_5">
      <g>
       <use xlink:href="#medfeafebd0" x="256.835795" y="173.52" style="stroke: #000000; stroke-width: 0.8"/>
      </g>
     </g>
     <g id="text_5">
      <!-- 2 -->
      <g transform="translate(253.654545 188.118438) scale(0.1 -0.1)">
       <use xlink:href="#DejaVuSans-32"/>
      </g>
     </g>
    </g>
    <g id="text_6">
     <!-- $\frac{b}{a}$ constant -->
     <g transform="translate(129.18125 203.998125) scale(0.1 -0.1)">
      <defs>
       <path id="DejaVuSans-Oblique-62" d="M 3169 2138 
Q 3169 2591 2961 2847 
Q 2753 3103 2388 3103 
Q 2122 3103 1889 2973 
Q 1656 2844 1484 2597 
Q 1303 2338 1198 1995 
Q 1094 1653 1094 1313 
Q 1094 881 1298 636 
Q 1503 391 1863 391 
Q 2134 391 2365 517 
Q 2597 644 2772 891 
Q 2950 1147 3059 1487 
Q 3169 1828 3169 2138 
z
M 1381 2969 
Q 1594 3256 1914 3420 
Q 2234 3584 2584 3584 
Q 3122 3584 3439 3221 
Q 3756 2859 3756 2241 
Q 3756 1734 3570 1259 
Q 3384 784 3041 416 
Q 2816 172 2522 40 
Q 2228 -91 1906 -91 
Q 1566 -91 1316 65 
Q 1066 222 909 531 
L 806 0 
L 231 0 
L 1178 4863 
L 1753 4863 
L 1381 2969 
z
" transform="scale(0.015625)"/>
       <path id="DejaVuSans-Oblique-61" d="M 3438 1997 
L 3047 0 
L 2472 0 
L 2578 531 
Q 2325 219 2001 64 
Q 1678 -91 1281 -91 
Q 834 -91 548 182 
Q 263 456 263 884 
Q 263 1497 752 1853 
Q 1241 2209 2100 2209 
L 2900 2209 
L 2931 2363 
Q 2938 2388 2941 2417 
Q 2944 2447 2944 2509 
Q 2944 2788 2717 2942 
Q 2491 3097 2081 3097 
Q 1800 3097 1504 3025 
Q 1209 2953 897 2809 
L 997 3341 
Q 1322 3463 1633 3523 
Q 1944 3584 2234 3584 
Q 2853 3584 3176 3315 
Q 3500 3047 3500 2534 
Q 3500 2431 3484 2292 
Q 3469 2153 3438 1997 
z
M 2816 1759 
L 2241 1759 
Q 1534 1759 1195 1570 
Q 856 1381 856 984 
Q 856 709 1029 553 
Q 1203 397 1509 397 
Q 1978 397 2328 733 
Q 2678 1069 2791 1631 
L 2816 1759 
z
" transform="scale(0.015625)"/>
       <path id="DejaVuSans-20" transform="scale(0.015625)"/>
       <path id="DejaVuSans-63" d="M 3122 3366 
L 3122 2828 
Q 2878 2963 2633 3030 
Q 2388 3097 2138 3097 
Q 1578 3097 1268 2742 
Q 959 2388 959 1747 
Q 959 1106 1268 751 
Q 1578 397 2138 397 
Q 2388 397 2633 464 
Q 2878 531 3122 666 
L 3122 134 
Q 2881 22 2623 -34 
Q 2366 -91 2075 -91 
Q 1284 -91 818 406 
Q 353 903 353 1747 
Q 353 2603 823 3093 
Q 1294 3584 2113 3584 
Q 2378 3584 2631 3529 
Q 2884 3475 3122 3366 
z
" transform="scale(0.015625)"/>
       <path id="DejaVuSans-6f" d="M 1959 3097 
Q 1497 3097 1228 2736 
Q 959 2375 959 1747 
Q 959 1119 1226 758 
Q 1494 397 1959 397 
Q 2419 397 2687 759 
Q 2956 1122 2956 1747 
Q 2956 2369 2687 2733 
Q 2419 3097 1959 3097 
z
M 1959 3584 
Q 2709 3584 3137 3096 
Q 3566 2609 3566 1747 
Q 3566 888 3137 398 
Q 2709 -91 1959 -91 
Q 1206 -91 779 398 
Q 353 888 353 1747 
Q 353 2609 779 3096 
Q 1206 3584 1959 3584 
z
" transform="scale(0.015625)"/>
       <path id="DejaVuSans-6e" d="M 3513 2113 
L 3513 0 
L 2938 0 
L 2938 2094 
Q 2938 2591 2744 2837 
Q 2550 3084 2163 3084 
Q 1697 3084 1428 2787 
Q 1159 2491 1159 1978 
L 1159 0 
L 581 0 
L 581 3500 
L 1159 3500 
L 1159 2956 
Q 1366 3272 1645 3428 
Q 1925 3584 2291 3584 
Q 2894 3584 3203 3211 
Q 3513 2838 3513 2113 
z
" transform="scale(0.015625)"/>
       <path id="DejaVuSans-73" d="M 2834 3397 
L 2834 2853 
Q 2591 2978 2328 3040 
Q 2066 3103 1784 3103 
Q 1356 3103 1142 2972 
Q 928 2841 928 2578 
Q 928 2378 1081 2264 
Q 1234 2150 1697 2047 
L 1894 2003 
Q 2506 1872 2764 1633 
Q 3022 1394 3022 966 
Q 3022 478 2636 193 
Q 2250 -91 1575 -91 
Q 1294 -91 989 -36 
Q 684 19 347 128 
L 347 722 
Q 666 556 975 473 
Q 1284 391 1588 391 
Q 1994 391 2212 530 
Q 2431 669 2431 922 
Q 2431 1156 2273 1281 
Q 2116 1406 1581 1522 
L 1381 1569 
Q 847 1681 609 1914 
Q 372 2147 372 2553 
Q 372 3047 722 3315 
Q 1072 3584 1716 3584 
Q 2034 3584 2315 3537 
Q 2597 3491 2834 3397 
z
" transform="scale(0.015625)"/>
       <path id="DejaVuSans-74" d="M 1172 4494 
L 1172 3500 
L 2356 3500 
L 2356 3053 
L 1172 3053 
L 1172 1153 
Q 1172 725 1289 603 
Q 1406 481 1766 481 
L 2356 481 
L 2356 0 
L 1766 0 
Q 1100 0 847 248 
Q 594 497 594 1153 
L 594 3053 
L 172 3053 
L 172 3500 
L 594 3500 
L 594 4494 
L 1172 4494 
z
" transform="scale(0.015625)"/>
       <path id="DejaVuSans-61" d="M 2194 1759 
Q 1497 1759 1228 1600 
Q 959 1441 959 1056 
Q 959 750 1161 570 
Q 1363 391 1709 391 
Q 2188 391 2477 730 
Q 2766 1069 2766 1631 
L 2766 1759 
L 2194 1759 
z
M 3341 1997 
L 3341 0 
L 2766 0 
L 2766 531 
Q 2569 213 2275 61 
Q 1981 -91 1556 -91 
Q 1019 -91 701 211 
Q 384 513 384 1019 
Q 384 1609 779 1909 
Q 1175 2209 1959 2209 
L 2766 2209 
L 2766 2266 
Q 2766 2663 2505 2880 
Q 2244 3097 1772 3097 
Q 1472 3097 1187 3025 
Q 903 2953 641 2809 
L 641 3341 
Q 956 3463 1253 3523 
Q 1550 3584 1831 3584 
Q 2591 3584 2966 3190 
Q 3341 2797 3341 1997 
z
" transform="scale(0.015625)"/>
      </defs>
      <use xlink:href="#DejaVuSans-Oblique-62" transform="translate(0 44.810938) scale(0.7)"/>
      <use xlink:href="#DejaVuSans-Oblique-61" transform="translate(1 -26.634375) scale(0.7)"/>
      <use xlink:href="#DejaVuSans-20" transform="translate(56.933594 0.01875)"/>
      <use xlink:href="#DejaVuSans-63" transform="translate(88.720703 0.01875)"/>
      <use xlink:href="#DejaVuSans-6f" transform="translate(143.701172 0.01875)"/>
      <use xlink:href="#DejaVuSans-6e" transform="translate(204.882812 0.01875)"/>
      <use xlink:href="#DejaVuSans-73" transform="translate(268.261719 0.01875)"/>
      <use xlink:href="#DejaVuSans-74" transform="translate(320.361328 0.01875)"/>
      <use xlink:href="#DejaVuSans-61" transform="translate(359.570312 0.01875)"/>
      <use xlink:href="#DejaVuSans-6e" transform="translate(420.849609 0.01875)"/>
      <use xlink:href="#DejaVuSans-74" transform="translate(484.228516 0.01875)"/>
      <path d="M 0 18.815625 
L 0 25.065625 
L 44.433594 25.065625 
L 44.433594 18.815625 
L 0 18.815625 
z
"/>
     </g>
    </g>
   </g>
   <g id="matplotlib.axis_2">
    <g id="ytick_1">
     <g id="line2d_6">
      <defs>
       <path id="m3503262f26" d="M 0 0 
L -3.5 0 
" style="stroke: #000000; stroke-width: 0.8"/>
      </defs>
      <g>
       <use xlink:href="#m3503262f26" x="43.78125" y="165.9616" style="stroke: #000000; stroke-width: 0.8"/>
      </g>
     </g>
     <g id="text_7">
      <!-- 0.0 -->
      <g transform="translate(20.878125 169.760819) scale(0.1 -0.1)">
       <defs>
        <path id="DejaVuSans-2e" d="M 684 794 
L 1344 794 
L 1344 0 
L 684 0 
L 684 794 
z
" transform="scale(0.015625)"/>
       </defs>
       <use xlink:href="#DejaVuSans-30"/>
       <use xlink:href="#DejaVuSans-2e" x="63.623047"/>
       <use xlink:href="#DejaVuSans-30" x="95.410156"/>
      </g>
     </g>
    </g>
    <g id="ytick_2">
     <g id="line2d_7">
      <g>
       <use xlink:href="#m3503262f26" x="43.78125" y="133.63252" style="stroke: #000000; stroke-width: 0.8"/>
      </g>
     </g>
     <g id="text_8">
      <!-- 0.2 -->
      <g transform="translate(20.878125 137.431739) scale(0.1 -0.1)">
       <use xlink:href="#DejaVuSans-30"/>
       <use xlink:href="#DejaVuSans-2e" x="63.623047"/>
       <use xlink:href="#DejaVuSans-32" x="95.410156"/>
      </g>
     </g>
    </g>
    <g id="ytick_3">
     <g id="line2d_8">
      <g>
       <use xlink:href="#m3503262f26" x="43.78125" y="101.30344" style="stroke: #000000; stroke-width: 0.8"/>
      </g>
     </g>
     <g id="text_9">
      <!-- 0.4 -->
      <g transform="translate(20.878125 105.102658) scale(0.1 -0.1)">
       <defs>
        <path id="DejaVuSans-34" d="M 2419 4116 
L 825 1625 
L 2419 1625 
L 2419 4116 
z
M 2253 4666 
L 3047 4666 
L 3047 1625 
L 3713 1625 
L 3713 1100 
L 3047 1100 
L 3047 0 
L 2419 0 
L 2419 1100 
L 313 1100 
L 313 1709 
L 2253 4666 
z
" transform="scale(0.015625)"/>
       </defs>
       <use xlink:href="#DejaVuSans-30"/>
       <use xlink:href="#DejaVuSans-2e" x="63.623047"/>
       <use xlink:href="#DejaVuSans-34" x="95.410156"/>
      </g>
     </g>
    </g>
    <g id="ytick_4">
     <g id="line2d_9">
      <g>
       <use xlink:href="#m3503262f26" x="43.78125" y="68.974359" style="stroke: #000000; stroke-width: 0.8"/>
      </g>
     </g>
     <g id="text_10">
      <!-- 0.6 -->
      <g transform="translate(20.878125 72.773578) scale(0.1 -0.1)">
       <defs>
        <path id="DejaVuSans-36" d="M 2113 2584 
Q 1688 2584 1439 2293 
Q 1191 2003 1191 1497 
Q 1191 994 1439 701 
Q 1688 409 2113 409 
Q 2538 409 2786 701 
Q 3034 994 3034 1497 
Q 3034 2003 2786 2293 
Q 2538 2584 2113 2584 
z
M 3366 4563 
L 3366 3988 
Q 3128 4100 2886 4159 
Q 2644 4219 2406 4219 
Q 1781 4219 1451 3797 
Q 1122 3375 1075 2522 
Q 1259 2794 1537 2939 
Q 1816 3084 2150 3084 
Q 2853 3084 3261 2657 
Q 3669 2231 3669 1497 
Q 3669 778 3244 343 
Q 2819 -91 2113 -91 
Q 1303 -91 875 529 
Q 447 1150 447 2328 
Q 447 3434 972 4092 
Q 1497 4750 2381 4750 
Q 2619 4750 2861 4703 
Q 3103 4656 3366 4563 
z
" transform="scale(0.015625)"/>
       </defs>
       <use xlink:href="#DejaVuSans-30"/>
       <use xlink:href="#DejaVuSans-2e" x="63.623047"/>
       <use xlink:href="#DejaVuSans-36" x="95.410156"/>
      </g>
     </g>
    </g>
    <g id="ytick_5">
     <g id="line2d_10">
      <g>
       <use xlink:href="#m3503262f26" x="43.78125" y="36.645279" style="stroke: #000000; stroke-width: 0.8"/>
      </g>
     </g>
     <g id="text_11">
      <!-- 0.8 -->
      <g transform="translate(20.878125 40.444498) scale(0.1 -0.1)">
       <defs>
        <path id="DejaVuSans-38" d="M 2034 2216 
Q 1584 2216 1326 1975 
Q 1069 1734 1069 1313 
Q 1069 891 1326 650 
Q 1584 409 2034 409 
Q 2484 409 2743 651 
Q 3003 894 3003 1313 
Q 3003 1734 2745 1975 
Q 2488 2216 2034 2216 
z
M 1403 2484 
Q 997 2584 770 2862 
Q 544 3141 544 3541 
Q 544 4100 942 4425 
Q 1341 4750 2034 4750 
Q 2731 4750 3128 4425 
Q 3525 4100 3525 3541 
Q 3525 3141 3298 2862 
Q 3072 2584 2669 2484 
Q 3125 2378 3379 2068 
Q 3634 1759 3634 1313 
Q 3634 634 3220 271 
Q 2806 -91 2034 -91 
Q 1263 -91 848 271 
Q 434 634 434 1313 
Q 434 1759 690 2068 
Q 947 2378 1403 2484 
z
M 1172 3481 
Q 1172 3119 1398 2916 
Q 1625 2713 2034 2713 
Q 2441 2713 2670 2916 
Q 2900 3119 2900 3481 
Q 2900 3844 2670 4047 
Q 2441 4250 2034 4250 
Q 1625 4250 1398 4047 
Q 1172 3844 1172 3481 
z
" transform="scale(0.015625)"/>
       </defs>
       <use xlink:href="#DejaVuSans-30"/>
       <use xlink:href="#DejaVuSans-2e" x="63.623047"/>
       <use xlink:href="#DejaVuSans-38" x="95.410156"/>
      </g>
     </g>
    </g>
    <g id="text_12">
     <!-- $R^2$ -->
     <g transform="translate(14.798437 96.56) rotate(-90) scale(0.1 -0.1)">
      <defs>
       <path id="DejaVuSans-Oblique-52" d="M 1613 4147 
L 1294 2491 
L 2106 2491 
Q 2584 2491 2879 2755 
Q 3175 3019 3175 3444 
Q 3175 3784 2976 3965 
Q 2778 4147 2406 4147 
L 1613 4147 
z
M 2772 2241 
Q 2972 2194 3105 2009 
Q 3238 1825 3413 1275 
L 3809 0 
L 3144 0 
L 2778 1197 
Q 2638 1659 2453 1815 
Q 2269 1972 1888 1972 
L 1191 1972 
L 806 0 
L 172 0 
L 1081 4666 
L 2503 4666 
Q 3150 4666 3495 4373 
Q 3841 4081 3841 3531 
Q 3841 3044 3547 2687 
Q 3253 2331 2772 2241 
z
" transform="scale(0.015625)"/>
      </defs>
      <use xlink:href="#DejaVuSans-Oblique-52" transform="translate(0 0.765625)"/>
      <use xlink:href="#DejaVuSans-32" transform="translate(76.499193 39.046875) scale(0.7)"/>
     </g>
    </g>
   </g>
   <g id="LineCollection_1">
    <path d="M 124.944886 60.892089 
L 124.944886 18.326654 
" clip-path="url(#p6e231d7e2e)" style="fill: none; stroke: #1f77b4; stroke-width: 1.5"/>
   </g>
   <g id="line2d_11">
    <path d="M 53.926705 29.852568 
L 55.955795 29.593703 
L 57.984886 29.330536 
L 60.013977 29.063002 
L 62.043068 28.791039 
L 64.072159 28.514587 
L 66.10125 28.233588 
L 68.130341 27.947992 
L 70.159432 27.65775 
L 72.188523 27.362821 
L 74.217614 27.063171 
L 76.246705 26.758772 
L 78.275795 26.449606 
L 80.304886 26.135666 
L 82.333977 25.816958 
L 84.363068 25.493501 
L 86.392159 25.16533 
L 88.42125 24.832499 
L 90.450341 24.495084 
L 92.479432 24.153184 
L 94.508523 23.806927 
L 96.537614 23.456472 
L 98.566705 23.102015 
L 100.595795 22.743792 
L 102.624886 22.382086 
L 104.653977 22.017236 
L 106.683068 21.649639 
L 108.712159 21.279763 
L 110.74125 20.908153 
L 112.770341 20.535447 
L 114.799432 20.162383 
L 116.828523 19.789815 
L 118.857614 19.418732 
L 120.886705 19.050271 
L 122.915795 18.685743 
L 124.944886 18.326654 
L 126.973977 17.974731 
L 129.003068 17.631958 
L 131.032159 17.300606 
L 133.06125 16.983275 
L 135.090341 16.682943 
L 137.119432 16.40301 
L 139.148523 16.147367 
L 141.177614 15.920455 
L 143.206705 15.727343 
L 145.235795 15.573814 
L 147.264886 15.466461 
L 149.293977 15.412789 
L 151.323068 15.42134 
L 153.352159 15.501818 
L 155.38125 15.665231 
L 157.410341 15.924046 
L 159.439432 16.292348 
L 161.468523 16.786006 
L 163.497614 17.422836 
L 165.526705 18.222759 
L 167.555795 19.207929 
L 169.584886 20.402831 
L 171.613977 21.83431 
L 173.643068 23.531508 
L 175.672159 25.525674 
L 177.70125 27.849797 
L 179.730341 30.537995 
L 181.759432 33.624629 
L 183.788523 37.143043 
L 185.817614 41.123909 
L 187.846705 45.593119 
L 189.875795 50.569234 
L 191.904886 56.060563 
L 193.933977 62.061999 
L 195.963068 68.551868 
L 197.992159 75.489154 
L 200.02125 82.81152 
L 202.050341 90.434635 
L 204.079432 98.25323 
L 206.108523 106.144203 
L 208.137614 113.971773 
L 210.166705 121.594422 
L 212.195795 128.872942 
L 214.224886 135.678717 
L 216.253977 141.901204 
L 218.283068 147.453737 
L 220.312159 152.277032 
L 222.34125 156.340162 
L 224.370341 159.639189 
L 226.399432 162.193917 
L 228.428523 164.043442 
L 230.457614 165.241152 
L 232.486705 165.849784 
L 234.515795 165.936957 
L 236.544886 165.571439 
L 238.573977 164.820259 
L 240.603068 163.746643 
L 242.632159 162.408678 
L 244.66125 160.858589 
L 246.690341 159.142487 
L 248.719432 157.30045 
L 250.748523 155.366838 
L 252.777614 153.370744 
L 254.806705 151.336521 
L 256.835795 149.284327 
" clip-path="url(#p6e231d7e2e)" style="fill: none; stroke: #000000; stroke-width: 1.5; stroke-linecap: square"/>
   </g>
   <g id="line2d_12">
    <path d="M 53.926705 20.841979 
L 55.955795 20.724189 
L 57.984886 20.605992 
L 60.013977 20.487476 
L 62.043068 20.368741 
L 64.072159 20.249896 
L 66.10125 20.131063 
L 68.130341 20.012378 
L 70.159432 19.893991 
L 72.188523 19.776067 
L 74.217614 19.658792 
L 76.246705 19.542368 
L 78.275795 19.427021 
L 80.304886 19.312999 
L 82.333977 19.200577 
L 84.363068 19.090059 
L 86.392159 18.981781 
L 88.42125 18.876115 
L 90.450341 18.773469 
L 92.479432 18.674298 
L 94.508523 18.579103 
L 96.537614 18.488437 
L 98.566705 18.402914 
L 100.595795 18.323211 
L 102.624886 18.250079 
L 104.653977 18.184347 
L 106.683068 18.126936 
L 108.712159 18.078863 
L 110.74125 18.041259 
L 112.770341 18.015375 
L 114.799432 18.0026 
L 116.828523 18.004476 
L 118.857614 18.022715 
L 120.886705 18.05922 
L 122.915795 18.116105 
L 124.944886 18.195722 
L 126.973977 18.300687 
L 129.003068 18.433915 
L 131.032159 18.598647 
L 133.06125 18.7985 
L 135.090341 19.037499 
L 137.119432 19.320134 
L 139.148523 19.651409 
L 141.177614 20.036904 
L 143.206705 20.482836 
L 145.235795 20.996137 
L 147.264886 21.584526 
L 149.293977 22.256593 
L 151.323068 23.021894 
L 153.352159 23.891035 
L 155.38125 24.875776 
L 157.410341 25.989117 
L 159.439432 27.245395 
L 161.468523 28.660359 
L 163.497614 30.251225 
L 165.526705 32.036709 
L 167.555795 34.037006 
L 169.584886 36.273704 
L 171.613977 38.769607 
L 173.643068 41.548447 
L 175.672159 44.634426 
L 177.70125 48.051569 
L 179.730341 51.822839 
L 181.759432 55.968962 
L 183.788523 60.506944 
L 185.817614 65.448244 
L 187.846705 70.796637 
L 189.875795 76.545807 
L 191.904886 82.676814 
L 193.933977 89.155628 
L 195.963068 95.931027 
L 197.992159 102.933228 
L 200.02125 110.073649 
L 202.050341 117.246198 
L 204.079432 124.330347 
L 206.108523 131.196065 
L 208.137614 137.710365 
L 210.166705 143.744935 
L 212.195795 149.18402 
L 214.224886 153.931609 
L 216.253977 157.917021 
L 218.283068 161.098212 
L 220.312159 163.462514 
L 222.34125 165.024909 
L 224.370341 165.824311 
L 226.399432 165.918543 
L 228.428523 165.378725 
L 230.457614 164.283773 
L 232.486705 162.71547 
L 234.515795 160.754438 
L 236.544886 158.477102 
L 238.573977 155.953642 
L 240.603068 153.246798 
L 242.632159 150.411377 
L 244.66125 147.494277 
L 246.690341 144.534876 
L 248.719432 141.565645 
L 250.748523 138.612882 
L 252.777614 135.697482 
L 254.806705 132.835701 
L 256.835795 130.039875 
" clip-path="url(#p6e231d7e2e)" style="fill: none; stroke: #ff0000; stroke-width: 1.5; stroke-linecap: square"/>
   </g>
   <g id="line2d_13">
    <path d="M 53.926705 35.628477 
L 55.955795 35.32557 
L 57.984886 35.017047 
L 60.013977 34.702787 
L 62.043068 34.38267 
L 64.072159 34.056573 
L 66.10125 33.724376 
L 68.130341 33.385957 
L 70.159432 33.041197 
L 72.188523 32.689977 
L 74.217614 32.332181 
L 76.246705 31.967698 
L 78.275795 31.596418 
L 80.304886 31.218238 
L 82.333977 30.833063 
L 84.363068 30.440803 
L 86.392159 30.041381 
L 88.42125 29.634729 
L 90.450341 29.220794 
L 92.479432 28.79954 
L 94.508523 28.37095 
L 96.537614 27.935029 
L 98.566705 27.491809 
L 100.595795 27.041353 
L 102.624886 26.583759 
L 104.653977 26.119167 
L 106.683068 25.647768 
L 108.712159 25.169803 
L 110.74125 24.685583 
L 112.770341 24.19549 
L 114.799432 23.699993 
L 116.828523 23.199659 
L 118.857614 22.695169 
L 120.886705 22.187336 
L 122.915795 21.677122 
L 124.944886 21.165663 
L 126.973977 20.654294 
L 129.003068 20.144579 
L 131.032159 19.638348 
L 133.06125 19.137729 
L 135.090341 18.645201 
L 137.119432 18.163641 
L 139.148523 17.696384 
L 141.177614 17.247292 
L 143.206705 16.820827 
L 145.235795 16.422141 
L 147.264886 16.057176 
L 149.293977 15.73277 
L 151.323068 15.456788 
L 153.352159 15.23826 
L 155.38125 15.087533 
L 157.410341 15.016442 
L 159.439432 15.03849 
L 161.468523 15.169043 
L 163.497614 15.425527 
L 165.526705 15.827626 
L 167.555795 16.397466 
L 169.584886 17.159773 
L 171.613977 18.14198 
L 173.643068 19.374257 
L 175.672159 20.889421 
L 177.70125 22.722683 
L 179.730341 24.911176 
L 181.759432 27.493193 
L 183.788523 30.507063 
L 185.817614 33.989614 
L 187.846705 37.974149 
L 189.875795 42.487935 
L 191.904886 47.549226 
L 193.933977 53.163954 
L 195.963068 59.322296 
L 197.992159 65.995456 
L 200.02125 73.13311 
L 202.050341 80.662012 
L 204.079432 88.486267 
L 206.108523 96.489625 
L 208.137614 104.539952 
L 210.166705 112.495657 
L 212.195795 120.213538 
L 214.224886 127.557174 
L 216.253977 134.404869 
L 218.283068 140.656195 
L 220.312159 146.236407 
L 222.34125 151.098404 
L 224.370341 155.222285 
L 226.399432 158.612894 
L 228.428523 161.295945 
L 230.457614 163.313393 
L 232.486705 164.718653 
L 234.515795 165.572124 
L 236.544886 165.937321 
L 238.573977 165.877775 
L 240.603068 165.454706 
L 242.632159 164.725427 
L 244.66125 163.742361 
L 246.690341 162.552551 
L 248.719432 161.19755 
L 250.748523 159.713556 
L 252.777614 158.131739 
L 254.806705 156.478648 
L 256.835795 154.776686 
" clip-path="url(#p6e231d7e2e)" style="fill: none; stroke-dasharray: 5.55,2.4; stroke-dashoffset: 0; stroke: #000000; stroke-width: 1.5"/>
   </g>
   <g id="line2d_14">
    <path d="M 53.926705 25.687587 
L 55.955795 25.587868 
L 57.984886 25.488119 
L 60.013977 25.388441 
L 62.043068 25.288943 
L 64.072159 25.189745 
L 66.10125 25.090982 
L 68.130341 24.992801 
L 70.159432 24.895363 
L 72.188523 24.798847 
L 74.217614 24.703449 
L 76.246705 24.609386 
L 78.275795 24.516895 
L 80.304886 24.426239 
L 82.333977 24.337706 
L 84.363068 24.251613 
L 86.392159 24.16831 
L 88.42125 24.088181 
L 90.450341 24.011651 
L 92.479432 23.939185 
L 94.508523 23.8713 
L 96.537614 23.808561 
L 98.566705 23.751595 
L 100.595795 23.701092 
L 102.624886 23.657812 
L 104.653977 23.622597 
L 106.683068 23.596376 
L 108.712159 23.580175 
L 110.74125 23.57513 
L 112.770341 23.582497 
L 114.799432 23.603666 
L 116.828523 23.640178 
L 118.857614 23.693739 
L 120.886705 23.766242 
L 122.915795 23.859786 
L 124.944886 23.976702 
L 126.973977 24.119578 
L 129.003068 24.291291 
L 131.032159 24.495036 
L 133.06125 24.734369 
L 135.090341 25.013243 
L 137.119432 25.336058 
L 139.148523 25.70771 
L 141.177614 26.133647 
L 143.206705 26.61993 
L 145.235795 27.173303 
L 147.264886 27.801262 
L 149.293977 28.512137 
L 151.323068 29.315168 
L 153.352159 30.220599 
L 155.38125 31.239759 
L 157.410341 32.385149 
L 159.439432 33.67052 
L 161.468523 35.110942 
L 163.497614 36.722848 
L 165.526705 38.524048 
L 167.555795 40.5337 
L 169.584886 42.772207 
L 171.613977 45.261036 
L 173.643068 48.022408 
L 175.672159 51.078847 
L 177.70125 54.45253 
L 179.730341 58.164412 
L 181.759432 62.233078 
L 183.788523 66.673296 
L 185.817614 71.494261 
L 187.846705 76.697536 
L 189.875795 82.274767 
L 191.904886 88.205289 
L 193.933977 94.453834 
L 195.963068 100.96861 
L 197.992159 107.680124 
L 200.02125 114.501115 
L 202.050341 121.327968 
L 204.079432 128.043849 
L 206.108523 134.523593 
L 208.137614 140.640108 
L 210.166705 146.271742 
L 212.195795 151.309819 
L 214.224886 155.665422 
L 216.253977 159.274558 
L 218.283068 162.101104 
L 220.312159 164.137247 
L 222.34125 165.401592 
L 224.370341 165.935379 
L 226.399432 165.797502 
L 228.428523 165.05904 
L 230.457614 163.797929 
L 232.486705 162.094255 
L 234.515795 160.026427 
L 236.544886 157.668342 
L 238.573977 155.087498 
L 240.603068 152.343933 
L 242.632159 149.489827 
L 244.66125 146.569597 
L 246.690341 143.620327 
L 248.719432 140.672409 
L 250.748523 137.750277 
L 252.777614 134.873181 
L 254.806705 132.05594 
L 256.835795 129.309638 
" clip-path="url(#p6e231d7e2e)" style="fill: none; stroke-dasharray: 5.55,2.4; stroke-dashoffset: 0; stroke: #ff0000; stroke-width: 1.5"/>
   </g>
   <g id="line2d_15">
    <path d="M 53.926705 31.980219 
L 55.955795 31.79207 
L 57.984886 31.601468 
L 60.013977 31.408417 
L 62.043068 31.212927 
L 64.072159 31.015014 
L 66.10125 30.814701 
L 68.130341 30.61202 
L 70.159432 30.407011 
L 72.188523 30.199723 
L 74.217614 29.990219 
L 76.246705 29.778572 
L 78.275795 29.564872 
L 80.304886 29.349221 
L 82.333977 29.131744 
L 84.363068 28.912581 
L 86.392159 28.691897 
L 88.42125 28.469883 
L 90.450341 28.246757 
L 92.479432 28.022768 
L 94.508523 27.798201 
L 96.537614 27.573382 
L 98.566705 27.34868 
L 100.595795 27.124516 
L 102.624886 26.901364 
L 104.653977 26.679765 
L 106.683068 26.460328 
L 108.712159 26.243744 
L 110.74125 26.030793 
L 112.770341 25.822355 
L 114.799432 25.619425 
L 116.828523 25.423124 
L 118.857614 25.234721 
L 120.886705 25.055643 
L 122.915795 24.887502 
L 124.944886 24.732118 
L 126.973977 24.591542 
L 129.003068 24.46809 
L 131.032159 24.364371 
L 133.06125 24.283335 
L 135.090341 24.228304 
L 137.119432 24.20303 
L 139.148523 24.211746 
L 141.177614 24.259225 
L 143.206705 24.350854 
L 145.235795 24.492702 
L 147.264886 24.691613 
L 149.293977 24.955293 
L 151.323068 25.292411 
L 153.352159 25.712711 
L 155.38125 26.227129 
L 157.410341 26.847911 
L 159.439432 27.588739 
L 161.468523 28.464853 
L 163.497614 29.493161 
L 165.526705 30.692337 
L 167.555795 32.082879 
L 169.584886 33.687122 
L 171.613977 35.52918 
L 173.643068 37.634785 
L 175.672159 40.030989 
L 177.70125 42.745685 
L 179.730341 45.806905 
L 181.759432 49.241835 
L 183.788523 53.075508 
L 185.817614 57.329131 
L 187.846705 62.018043 
L 189.875795 67.14932 
L 191.904886 72.719127 
L 193.933977 78.709971 
L 195.963068 85.088127 
L 197.992159 91.801565 
L 200.02125 98.778809 
L 202.050341 105.929133 
L 204.079432 113.144464 
L 206.108523 120.303158 
L 208.137614 127.275585 
L 210.166705 133.931106 
L 212.195795 140.145764 
L 214.224886 145.809786 
L 216.253977 150.83397 
L 218.283068 155.154191 
L 220.312159 158.733577 
L 222.34125 161.562277 
L 224.370341 163.65512 
L 226.399432 165.047711 
L 228.428523 165.791646 
L 230.457614 165.949465 
L 232.486705 165.589904 
L 234.515795 164.783775 
L 236.544886 163.600676 
L 238.573977 162.10657 
L 240.603068 160.362174 
L 242.632159 158.42204 
L 244.66125 156.334179 
L 246.690341 154.140102 
L 248.719432 151.875124 
L 250.748523 149.568852 
L 252.777614 147.245761 
L 254.806705 144.925799 
L 256.835795 142.624992 
" clip-path="url(#p6e231d7e2e)" style="fill: none; stroke-dasharray: 1.5,2.475; stroke-dashoffset: 0; stroke: #000000; stroke-width: 1.5"/>
   </g>
   <g id="line2d_16">
    <path d="M 53.926705 18.262766 
L 55.955795 18.130666 
L 57.984886 17.997835 
L 60.013977 17.864352 
L 62.043068 17.730304 
L 64.072159 17.595792 
L 66.10125 17.460925 
L 68.130341 17.325828 
L 70.159432 17.190639 
L 72.188523 17.055511 
L 74.217614 16.920615 
L 76.246705 16.786142 
L 78.275795 16.652301 
L 80.304886 16.519329 
L 82.333977 16.387485 
L 84.363068 16.257057 
L 86.392159 16.128366 
L 88.42125 16.001767 
L 90.450341 15.877653 
L 92.479432 15.75646 
L 94.508523 15.638673 
L 96.537614 15.524826 
L 98.566705 15.415516 
L 100.595795 15.311401 
L 102.624886 15.213212 
L 104.653977 15.121762 
L 106.683068 15.037951 
L 108.712159 14.962778 
L 110.74125 14.897355 
L 112.770341 14.842916 
L 114.799432 14.800831 
L 116.828523 14.772627 
L 118.857614 14.76 
L 120.886705 14.764839 
L 122.915795 14.789247 
L 124.944886 14.835566 
L 126.973977 14.906408 
L 129.003068 15.004684 
L 131.032159 15.133642 
L 133.06125 15.296903 
L 135.090341 15.498514 
L 137.119432 15.742987 
L 139.148523 16.035363 
L 141.177614 16.38127 
L 143.206705 16.78699 
L 145.235795 17.259536 
L 147.264886 17.80673 
L 149.293977 18.437292 
L 151.323068 19.160935 
L 153.352159 19.98846 
L 155.38125 20.93186 
L 157.410341 22.004422 
L 159.439432 23.220821 
L 161.468523 24.597211 
L 163.497614 26.151289 
L 165.526705 27.90234 
L 167.555795 29.871222 
L 169.584886 32.080299 
L 171.613977 34.553274 
L 173.643068 37.31491 
L 175.672159 40.390583 
L 177.70125 43.805645 
L 179.730341 47.584533 
L 181.759432 51.74959 
L 183.788523 56.319563 
L 185.817614 61.307748 
L 187.846705 66.719791 
L 189.875795 72.551221 
L 191.904886 78.784814 
L 193.933977 85.388011 
L 195.963068 92.310682 
L 197.992159 99.483604 
L 200.02125 106.818081 
L 202.050341 114.207107 
L 204.079432 121.528353 
L 206.108523 128.649077 
L 208.137614 135.432726 
L 210.166705 141.746703 
L 212.195795 147.470455 
L 214.224886 152.502936 
L 216.253977 156.768483 
L 218.283068 160.220405 
L 220.312159 162.841964 
L 222.34125 164.644824 
L 224.370341 165.665431 
L 226.399432 165.96 
L 228.428523 165.598863 
L 230.457614 164.660864 
L 232.486705 163.22831 
L 234.515795 161.3828 
L 236.544886 159.202065 
L 238.573977 156.757794 
L 240.603068 154.114344 
L 242.632159 151.328161 
L 244.66125 148.447752 
L 246.690341 145.514025 
L 248.719432 142.56088 
L 250.748523 139.615923 
L 252.777614 136.701234 
L 254.806705 133.834131 
L 256.835795 131.027885 
" clip-path="url(#p6e231d7e2e)" style="fill: none; stroke-dasharray: 1.5,2.475; stroke-dashoffset: 0; stroke: #ff0000; stroke-width: 1.5"/>
   </g>
   <g id="line2d_17"/>
   <g id="line2d_18"/>
   <g id="line2d_19"/>
   <g id="patch_3">
    <path d="M 43.78125 173.52 
L 43.78125 7.2 
" style="fill: none; stroke: #000000; stroke-width: 0.8; stroke-linejoin: miter; stroke-linecap: square"/>
   </g>
   <g id="patch_4">
    <path d="M 266.98125 173.52 
L 266.98125 7.2 
" style="fill: none; stroke: #000000; stroke-width: 0.8; stroke-linejoin: miter; stroke-linecap: square"/>
   </g>
   <g id="patch_5">
    <path d="M 43.78125 173.52 
L 266.98125 173.52 
" style="fill: none; stroke: #000000; stroke-width: 0.8; stroke-linejoin: miter; stroke-linecap: square"/>
   </g>
   <g id="patch_6">
    <path d="M 43.78125 7.2 
L 266.98125 7.2 
" style="fill: none; stroke: #000000; stroke-width: 0.8; stroke-linejoin: miter; stroke-linecap: square"/>
   </g>
   <g id="text_13">
    <!-- -0.60 -->
    <g transform="translate(114.799432 63.31677) scale(0.1 -0.1)">
     <defs>
      <path id="DejaVuSans-2d" d="M 313 2009 
L 1997 2009 
L 1997 1497 
L 313 1497 
L 313 2009 
z
" transform="scale(0.015625)"/>
     </defs>
     <use xlink:href="#DejaVuSans-2d"/>
     <use xlink:href="#DejaVuSans-30" x="36.083984"/>
     <use xlink:href="#DejaVuSans-2e" x="99.707031"/>
     <use xlink:href="#DejaVuSans-36" x="131.494141"/>
     <use xlink:href="#DejaVuSans-30" x="195.117188"/>
    </g>
   </g>
   <g id="legend_1">
    <g id="patch_7">
     <path d="M 175.909375 168.52 
L 259.98125 168.52 
Q 261.98125 168.52 261.98125 166.52 
L 261.98125 138.16375 
Q 261.98125 136.16375 259.98125 136.16375 
L 175.909375 136.16375 
Q 173.909375 136.16375 173.909375 138.16375 
L 173.909375 166.52 
Q 173.909375 168.52 175.909375 168.52 
z
" style="fill: #ffffff; opacity: 0.8; stroke: #cccccc; stroke-linejoin: miter"/>
    </g>
    <g id="line2d_20">
     <path d="M 177.909375 144.262188 
L 187.909375 144.262188 
L 197.909375 144.262188 
" style="fill: none; stroke: #000000; stroke-width: 1.5; stroke-linecap: square"/>
    </g>
    <g id="text_14">
     <!-- Volmer -->
     <g transform="translate(205.909375 147.762188) scale(0.1 -0.1)">
      <defs>
       <path id="DejaVuSans-56" d="M 1831 0 
L 50 4666 
L 709 4666 
L 2188 738 
L 3669 4666 
L 4325 4666 
L 2547 0 
L 1831 0 
z
" transform="scale(0.015625)"/>
       <path id="DejaVuSans-6c" d="M 603 4863 
L 1178 4863 
L 1178 0 
L 603 0 
L 603 4863 
z
" transform="scale(0.015625)"/>
       <path id="DejaVuSans-6d" d="M 3328 2828 
Q 3544 3216 3844 3400 
Q 4144 3584 4550 3584 
Q 5097 3584 5394 3201 
Q 5691 2819 5691 2113 
L 5691 0 
L 5113 0 
L 5113 2094 
Q 5113 2597 4934 2840 
Q 4756 3084 4391 3084 
Q 3944 3084 3684 2787 
Q 3425 2491 3425 1978 
L 3425 0 
L 2847 0 
L 2847 2094 
Q 2847 2600 2669 2842 
Q 2491 3084 2119 3084 
Q 1678 3084 1418 2786 
Q 1159 2488 1159 1978 
L 1159 0 
L 581 0 
L 581 3500 
L 1159 3500 
L 1159 2956 
Q 1356 3278 1631 3431 
Q 1906 3584 2284 3584 
Q 2666 3584 2933 3390 
Q 3200 3197 3328 2828 
z
" transform="scale(0.015625)"/>
       <path id="DejaVuSans-65" d="M 3597 1894 
L 3597 1613 
L 953 1613 
Q 991 1019 1311 708 
Q 1631 397 2203 397 
Q 2534 397 2845 478 
Q 3156 559 3463 722 
L 3463 178 
Q 3153 47 2828 -22 
Q 2503 -91 2169 -91 
Q 1331 -91 842 396 
Q 353 884 353 1716 
Q 353 2575 817 3079 
Q 1281 3584 2069 3584 
Q 2775 3584 3186 3129 
Q 3597 2675 3597 1894 
z
M 3022 2063 
Q 3016 2534 2758 2815 
Q 2500 3097 2075 3097 
Q 1594 3097 1305 2825 
Q 1016 2553 972 2059 
L 3022 2063 
z
" transform="scale(0.015625)"/>
       <path id="DejaVuSans-72" d="M 2631 2963 
Q 2534 3019 2420 3045 
Q 2306 3072 2169 3072 
Q 1681 3072 1420 2755 
Q 1159 2438 1159 1844 
L 1159 0 
L 581 0 
L 581 3500 
L 1159 3500 
L 1159 2956 
Q 1341 3275 1631 3429 
Q 1922 3584 2338 3584 
Q 2397 3584 2469 3576 
Q 2541 3569 2628 3553 
L 2631 2963 
z
" transform="scale(0.015625)"/>
      </defs>
      <use xlink:href="#DejaVuSans-56"/>
      <use xlink:href="#DejaVuSans-6f" x="60.658203"/>
      <use xlink:href="#DejaVuSans-6c" x="121.839844"/>
      <use xlink:href="#DejaVuSans-6d" x="149.623047"/>
      <use xlink:href="#DejaVuSans-65" x="247.035156"/>
      <use xlink:href="#DejaVuSans-72" x="308.558594"/>
     </g>
    </g>
    <g id="line2d_21">
     <path d="M 177.909375 158.940313 
L 187.909375 158.940313 
L 197.909375 158.940313 
" style="fill: none; stroke: #ff0000; stroke-width: 1.5; stroke-linecap: square"/>
    </g>
    <g id="text_15">
     <!-- Heyrovsky -->
     <g transform="translate(205.909375 162.440313) scale(0.1 -0.1)">
      <defs>
       <path id="DejaVuSans-48" d="M 628 4666 
L 1259 4666 
L 1259 2753 
L 3553 2753 
L 3553 4666 
L 4184 4666 
L 4184 0 
L 3553 0 
L 3553 2222 
L 1259 2222 
L 1259 0 
L 628 0 
L 628 4666 
z
" transform="scale(0.015625)"/>
       <path id="DejaVuSans-79" d="M 2059 -325 
Q 1816 -950 1584 -1140 
Q 1353 -1331 966 -1331 
L 506 -1331 
L 506 -850 
L 844 -850 
Q 1081 -850 1212 -737 
Q 1344 -625 1503 -206 
L 1606 56 
L 191 3500 
L 800 3500 
L 1894 763 
L 2988 3500 
L 3597 3500 
L 2059 -325 
z
" transform="scale(0.015625)"/>
       <path id="DejaVuSans-76" d="M 191 3500 
L 800 3500 
L 1894 563 
L 2988 3500 
L 3597 3500 
L 2284 0 
L 1503 0 
L 191 3500 
z
" transform="scale(0.015625)"/>
       <path id="DejaVuSans-6b" d="M 581 4863 
L 1159 4863 
L 1159 1991 
L 2875 3500 
L 3609 3500 
L 1753 1863 
L 3688 0 
L 2938 0 
L 1159 1709 
L 1159 0 
L 581 0 
L 581 4863 
z
" transform="scale(0.015625)"/>
      </defs>
      <use xlink:href="#DejaVuSans-48"/>
      <use xlink:href="#DejaVuSans-65" x="75.195312"/>
      <use xlink:href="#DejaVuSans-79" x="136.71875"/>
      <use xlink:href="#DejaVuSans-72" x="195.898438"/>
      <use xlink:href="#DejaVuSans-6f" x="234.761719"/>
      <use xlink:href="#DejaVuSans-76" x="295.943359"/>
      <use xlink:href="#DejaVuSans-73" x="355.123047"/>
      <use xlink:href="#DejaVuSans-6b" x="407.222656"/>
      <use xlink:href="#DejaVuSans-79" x="461.507812"/>
     </g>
    </g>
   </g>
   <g id="legend_2">
    <g id="patch_8">
     <path d="M 198.451562 59.234375 
L 259.98125 59.234375 
Q 261.98125 59.234375 261.98125 57.234375 
L 261.98125 14.2 
Q 261.98125 12.2 259.98125 12.2 
L 198.451562 12.2 
Q 196.451562 12.2 196.451562 14.2 
L 196.451562 57.234375 
Q 196.451562 59.234375 198.451562 59.234375 
z
" style="fill: #ffffff; opacity: 0.8; stroke: #cccccc; stroke-linejoin: miter"/>
    </g>
    <g id="line2d_22">
     <path d="M 200.451562 20.298438 
L 210.451562 20.298438 
L 220.451562 20.298438 
" style="fill: none; stroke: #000000; stroke-width: 1.5; stroke-linecap: square"/>
    </g>
    <g id="text_16">
     <!-- -1.0 V -->
     <g transform="translate(228.451562 23.798438) scale(0.1 -0.1)">
      <use xlink:href="#DejaVuSans-2d"/>
      <use xlink:href="#DejaVuSans-31" x="36.083984"/>
      <use xlink:href="#DejaVuSans-2e" x="99.707031"/>
      <use xlink:href="#DejaVuSans-30" x="131.494141"/>
      <use xlink:href="#DejaVuSans-20" x="195.117188"/>
      <use xlink:href="#DejaVuSans-56" x="226.904297"/>
     </g>
    </g>
    <g id="line2d_23">
     <path d="M 200.451562 34.976563 
L 210.451562 34.976563 
L 220.451562 34.976563 
" style="fill: none; stroke-dasharray: 5.55,2.4; stroke-dashoffset: 0; stroke: #000000; stroke-width: 1.5"/>
    </g>
    <g id="text_17">
     <!-- -1.5 V -->
     <g transform="translate(228.451562 38.476563) scale(0.1 -0.1)">
      <defs>
       <path id="DejaVuSans-35" d="M 691 4666 
L 3169 4666 
L 3169 4134 
L 1269 4134 
L 1269 2991 
Q 1406 3038 1543 3061 
Q 1681 3084 1819 3084 
Q 2600 3084 3056 2656 
Q 3513 2228 3513 1497 
Q 3513 744 3044 326 
Q 2575 -91 1722 -91 
Q 1428 -91 1123 -41 
Q 819 9 494 109 
L 494 744 
Q 775 591 1075 516 
Q 1375 441 1709 441 
Q 2250 441 2565 725 
Q 2881 1009 2881 1497 
Q 2881 1984 2565 2268 
Q 2250 2553 1709 2553 
Q 1456 2553 1204 2497 
Q 953 2441 691 2322 
L 691 4666 
z
" transform="scale(0.015625)"/>
      </defs>
      <use xlink:href="#DejaVuSans-2d"/>
      <use xlink:href="#DejaVuSans-31" x="36.083984"/>
      <use xlink:href="#DejaVuSans-2e" x="99.707031"/>
      <use xlink:href="#DejaVuSans-35" x="131.494141"/>
      <use xlink:href="#DejaVuSans-20" x="195.117188"/>
      <use xlink:href="#DejaVuSans-56" x="226.904297"/>
     </g>
    </g>
    <g id="line2d_24">
     <path d="M 200.451562 49.654688 
L 210.451562 49.654688 
L 220.451562 49.654688 
" style="fill: none; stroke-dasharray: 1.5,2.475; stroke-dashoffset: 0; stroke: #000000; stroke-width: 1.5"/>
    </g>
    <g id="text_18">
     <!-- -0.5 V -->
     <g transform="translate(228.451562 53.154688) scale(0.1 -0.1)">
      <use xlink:href="#DejaVuSans-2d"/>
      <use xlink:href="#DejaVuSans-30" x="36.083984"/>
      <use xlink:href="#DejaVuSans-2e" x="99.707031"/>
      <use xlink:href="#DejaVuSans-35" x="131.494141"/>
      <use xlink:href="#DejaVuSans-20" x="195.117188"/>
      <use xlink:href="#DejaVuSans-56" x="226.904297"/>
     </g>
    </g>
   </g>
  </g>
 </g>
 <defs>
  <clipPath id="p6e231d7e2e">
   <rect x="43.78125" y="7.2" width="223.2" height="166.32"/>
  </clipPath>
 </defs>
</svg>
