<?xml version="1.0" encoding="utf-8" standalone="no"?>
<!DOCTYPE svg PUBLIC "-//W3C//DTD SVG 1.1//EN"
  "http://www.w3.org/Graphics/SVG/1.1/DTD/svg11.dtd">
<svg xmlns:xlink="http://www.w3.org/1999/xlink" width="864pt" height="504pt" viewBox="0 0 864 504" xmlns="http://www.w3.org/2000/svg" version="1.1">
 <metadata>
  <rdf:RDF xmlns:dc="http://purl.org/dc/elements/1.1/" xmlns:cc="http://creativecommons.org/ns#" xmlns:rdf="http://www.w3.org/1999/02/22-rdf-syntax-ns#">
   <cc:Work>
    <dc:type rdf:resource="http://purl.org/dc/dcmitype/StillImage"/>
    <dc:date>2025-05-21T01:08:24.829178</dc:date>
    <dc:format>image/svg+xml</dc:format>
    <dc:creator>
     <cc:Agent>
      <dc:title>Matplotlib v3.7.2, https://matplotlib.org/</dc:title>
     </cc:Agent>
    </dc:creator>
   </cc:Work>
  </rdf:RDF>
 </metadata>
 <defs>
  <style type="text/css">*{stroke-linejoin: round; stroke-linecap: butt}</style>
 </defs>
 <g id="figure_1">
  <g id="patch_1">
   <path d="M 0 504 
L 864 504 
L 864 0 
L 0 0 
z
" style="fill: #ffffff"/>
  </g>
  <g id="axes_1">
   <g id="patch_2">
    <path d="M 108 448.56 
L 777.6 448.56 
L 777.6 60.48 
L 108 60.48 
z
" style="fill: #ffffff"/>
   </g>
   <g id="matplotlib.axis_1">
    <g id="xtick_1">
     <g id="line2d_1">
      <defs>
       <path id="mfff3b82f78" d="M 0 0 
L 0 3.5 
" style="stroke: #000000; stroke-width: 0.8"/>
      </defs>
      <g>
       <use xlink:href="#mfff3b82f78" x="138.436364" y="448.56" style="stroke: #000000; stroke-width: 0.8"/>
      </g>
     </g>
     <g id="text_1">
      <!-- 0.0 -->
      <g transform="translate(124.123551 469.237188) scale(0.18 -0.18)">
       <defs>
        <path id="DejaVuSerif-30" d="M 2034 219 
Q 2513 219 2750 744 
Q 2988 1269 2988 2328 
Q 2988 3391 2750 3916 
Q 2513 4441 2034 4441 
Q 1556 4441 1318 3916 
Q 1081 3391 1081 2328 
Q 1081 1269 1318 744 
Q 1556 219 2034 219 
z
M 2034 -91 
Q 1275 -91 848 546 
Q 422 1184 422 2328 
Q 422 3475 848 4112 
Q 1275 4750 2034 4750 
Q 2797 4750 3222 4112 
Q 3647 3475 3647 2328 
Q 3647 1184 3222 546 
Q 2797 -91 2034 -91 
z
" transform="scale(0.015625)"/>
        <path id="DejaVuSerif-2e" d="M 603 325 
Q 603 500 722 622 
Q 841 744 1019 744 
Q 1191 744 1312 622 
Q 1434 500 1434 325 
Q 1434 153 1312 31 
Q 1191 -91 1019 -91 
Q 841 -91 722 29 
Q 603 150 603 325 
z
" transform="scale(0.015625)"/>
       </defs>
       <use xlink:href="#DejaVuSerif-30"/>
       <use xlink:href="#DejaVuSerif-2e" x="63.623047"/>
       <use xlink:href="#DejaVuSerif-30" x="95.410156"/>
      </g>
     </g>
    </g>
    <g id="xtick_2">
     <g id="line2d_2">
      <g>
       <use xlink:href="#mfff3b82f78" x="225.397403" y="448.56" style="stroke: #000000; stroke-width: 0.8"/>
      </g>
     </g>
     <g id="text_2">
      <!-- 0.5 -->
      <g transform="translate(211.08459 469.237188) scale(0.18 -0.18)">
       <defs>
        <path id="DejaVuSerif-35" d="M 3219 4666 
L 3219 4153 
L 1081 4153 
L 1081 2816 
Q 1244 2928 1461 2984 
Q 1678 3041 1947 3041 
Q 2703 3041 3140 2622 
Q 3578 2203 3578 1478 
Q 3578 738 3136 323 
Q 2694 -91 1894 -91 
Q 1572 -91 1234 -12 
Q 897 66 544 225 
L 544 1131 
L 897 1131 
Q 925 688 1179 453 
Q 1434 219 1894 219 
Q 2388 219 2653 544 
Q 2919 869 2919 1478 
Q 2919 2084 2655 2407 
Q 2391 2731 1894 2731 
Q 1613 2731 1398 2631 
Q 1184 2531 1019 2322 
L 750 2322 
L 750 4666 
L 3219 4666 
z
" transform="scale(0.015625)"/>
       </defs>
       <use xlink:href="#DejaVuSerif-30"/>
       <use xlink:href="#DejaVuSerif-2e" x="63.623047"/>
       <use xlink:href="#DejaVuSerif-35" x="95.410156"/>
      </g>
     </g>
    </g>
    <g id="xtick_3">
     <g id="line2d_3">
      <g>
       <use xlink:href="#mfff3b82f78" x="312.358442" y="448.56" style="stroke: #000000; stroke-width: 0.8"/>
      </g>
     </g>
     <g id="text_3">
      <!-- 1.0 -->
      <g transform="translate(298.045629 469.237188) scale(0.18 -0.18)">
       <defs>
        <path id="DejaVuSerif-31" d="M 909 0 
L 909 331 
L 1722 331 
L 1722 4213 
L 781 3603 
L 781 4013 
L 1919 4750 
L 2350 4750 
L 2350 331 
L 3163 331 
L 3163 0 
L 909 0 
z
" transform="scale(0.015625)"/>
       </defs>
       <use xlink:href="#DejaVuSerif-31"/>
       <use xlink:href="#DejaVuSerif-2e" x="63.623047"/>
       <use xlink:href="#DejaVuSerif-30" x="95.410156"/>
      </g>
     </g>
    </g>
    <g id="xtick_4">
     <g id="line2d_4">
      <g>
       <use xlink:href="#mfff3b82f78" x="399.319481" y="448.56" style="stroke: #000000; stroke-width: 0.8"/>
      </g>
     </g>
     <g id="text_4">
      <!-- 1.5 -->
      <g transform="translate(385.006668 469.237188) scale(0.18 -0.18)">
       <use xlink:href="#DejaVuSerif-31"/>
       <use xlink:href="#DejaVuSerif-2e" x="63.623047"/>
       <use xlink:href="#DejaVuSerif-35" x="95.410156"/>
      </g>
     </g>
    </g>
    <g id="xtick_5">
     <g id="line2d_5">
      <g>
       <use xlink:href="#mfff3b82f78" x="486.280519" y="448.56" style="stroke: #000000; stroke-width: 0.8"/>
      </g>
     </g>
     <g id="text_5">
      <!-- 2.0 -->
      <g transform="translate(471.967707 469.237188) scale(0.18 -0.18)">
       <defs>
        <path id="DejaVuSerif-32" d="M 819 3553 
L 469 3553 
L 469 4384 
Q 803 4563 1142 4656 
Q 1481 4750 1806 4750 
Q 2534 4750 2956 4397 
Q 3378 4044 3378 3438 
Q 3378 2753 2422 1800 
Q 2347 1728 2309 1691 
L 1131 513 
L 3078 513 
L 3078 1088 
L 3444 1088 
L 3444 0 
L 434 0 
L 434 341 
L 1850 1753 
Q 2319 2222 2519 2614 
Q 2719 3006 2719 3438 
Q 2719 3909 2473 4175 
Q 2228 4441 1797 4441 
Q 1350 4441 1106 4219 
Q 863 3997 819 3553 
z
" transform="scale(0.015625)"/>
       </defs>
       <use xlink:href="#DejaVuSerif-32"/>
       <use xlink:href="#DejaVuSerif-2e" x="63.623047"/>
       <use xlink:href="#DejaVuSerif-30" x="95.410156"/>
      </g>
     </g>
    </g>
    <g id="xtick_6">
     <g id="line2d_6">
      <g>
       <use xlink:href="#mfff3b82f78" x="573.241558" y="448.56" style="stroke: #000000; stroke-width: 0.8"/>
      </g>
     </g>
     <g id="text_6">
      <!-- 2.5 -->
      <g transform="translate(558.928746 469.237188) scale(0.18 -0.18)">
       <use xlink:href="#DejaVuSerif-32"/>
       <use xlink:href="#DejaVuSerif-2e" x="63.623047"/>
       <use xlink:href="#DejaVuSerif-35" x="95.410156"/>
      </g>
     </g>
    </g>
    <g id="xtick_7">
     <g id="line2d_7">
      <g>
       <use xlink:href="#mfff3b82f78" x="660.202597" y="448.56" style="stroke: #000000; stroke-width: 0.8"/>
      </g>
     </g>
     <g id="text_7">
      <!-- 3.0 -->
      <g transform="translate(645.889785 469.237188) scale(0.18 -0.18)">
       <defs>
        <path id="DejaVuSerif-33" d="M 622 4469 
Q 988 4606 1323 4678 
Q 1659 4750 1953 4750 
Q 2638 4750 3022 4454 
Q 3406 4159 3406 3634 
Q 3406 3213 3140 2930 
Q 2875 2647 2388 2547 
Q 2963 2466 3280 2130 
Q 3597 1794 3597 1259 
Q 3597 606 3158 257 
Q 2719 -91 1894 -91 
Q 1528 -91 1179 -12 
Q 831 66 488 225 
L 488 1131 
L 838 1131 
Q 869 681 1141 450 
Q 1413 219 1906 219 
Q 2384 219 2661 495 
Q 2938 772 2938 1253 
Q 2938 1803 2653 2086 
Q 2369 2369 1819 2369 
L 1522 2369 
L 1522 2688 
L 1678 2688 
Q 2225 2688 2498 2914 
Q 2772 3141 2772 3597 
Q 2772 4006 2547 4223 
Q 2322 4441 1900 4441 
Q 1478 4441 1245 4241 
Q 1013 4041 972 3647 
L 622 3647 
L 622 4469 
z
" transform="scale(0.015625)"/>
       </defs>
       <use xlink:href="#DejaVuSerif-33"/>
       <use xlink:href="#DejaVuSerif-2e" x="63.623047"/>
       <use xlink:href="#DejaVuSerif-30" x="95.410156"/>
      </g>
     </g>
    </g>
    <g id="xtick_8">
     <g id="line2d_8">
      <g>
       <use xlink:href="#mfff3b82f78" x="747.163636" y="448.56" style="stroke: #000000; stroke-width: 0.8"/>
      </g>
     </g>
     <g id="text_8">
      <!-- 3.5 -->
      <g transform="translate(732.850824 469.237188) scale(0.18 -0.18)">
       <use xlink:href="#DejaVuSerif-33"/>
       <use xlink:href="#DejaVuSerif-2e" x="63.623047"/>
       <use xlink:href="#DejaVuSerif-35" x="95.410156"/>
      </g>
     </g>
    </g>
   </g>
   <g id="matplotlib.axis_2">
    <g id="ytick_1">
     <g id="line2d_9">
      <defs>
       <path id="m2818c3f505" d="M 0 0 
L -3.5 0 
" style="stroke: #000000; stroke-width: 0.8"/>
      </defs>
      <g>
       <use xlink:href="#m2818c3f505" x="108" y="416.171746" style="stroke: #000000; stroke-width: 0.8"/>
      </g>
     </g>
     <g id="text_9">
      <!-- −2.0 -->
      <g transform="translate(57.290937 423.01034) scale(0.18 -0.18)">
       <defs>
        <path id="DejaVuSerif-2212" d="M 678 2259 
L 4684 2259 
L 4684 1753 
L 678 1753 
L 678 2259 
z
" transform="scale(0.015625)"/>
       </defs>
       <use xlink:href="#DejaVuSerif-2212"/>
       <use xlink:href="#DejaVuSerif-32" x="83.789062"/>
       <use xlink:href="#DejaVuSerif-2e" x="147.412109"/>
       <use xlink:href="#DejaVuSerif-30" x="179.199219"/>
      </g>
     </g>
    </g>
    <g id="ytick_2">
     <g id="line2d_10">
      <g>
       <use xlink:href="#m2818c3f505" x="108" y="371.757157" style="stroke: #000000; stroke-width: 0.8"/>
      </g>
     </g>
     <g id="text_10">
      <!-- −1.5 -->
      <g transform="translate(57.290937 378.59575) scale(0.18 -0.18)">
       <use xlink:href="#DejaVuSerif-2212"/>
       <use xlink:href="#DejaVuSerif-31" x="83.789062"/>
       <use xlink:href="#DejaVuSerif-2e" x="147.412109"/>
       <use xlink:href="#DejaVuSerif-35" x="179.199219"/>
      </g>
     </g>
    </g>
    <g id="ytick_3">
     <g id="line2d_11">
      <g>
       <use xlink:href="#m2818c3f505" x="108" y="327.342567" style="stroke: #000000; stroke-width: 0.8"/>
      </g>
     </g>
     <g id="text_11">
      <!-- −1.0 -->
      <g transform="translate(57.290937 334.181161) scale(0.18 -0.18)">
       <use xlink:href="#DejaVuSerif-2212"/>
       <use xlink:href="#DejaVuSerif-31" x="83.789062"/>
       <use xlink:href="#DejaVuSerif-2e" x="147.412109"/>
       <use xlink:href="#DejaVuSerif-30" x="179.199219"/>
      </g>
     </g>
    </g>
    <g id="ytick_4">
     <g id="line2d_12">
      <g>
       <use xlink:href="#m2818c3f505" x="108" y="282.927977" style="stroke: #000000; stroke-width: 0.8"/>
      </g>
     </g>
     <g id="text_12">
      <!-- −0.5 -->
      <g transform="translate(57.290937 289.766571) scale(0.18 -0.18)">
       <use xlink:href="#DejaVuSerif-2212"/>
       <use xlink:href="#DejaVuSerif-30" x="83.789062"/>
       <use xlink:href="#DejaVuSerif-2e" x="147.412109"/>
       <use xlink:href="#DejaVuSerif-35" x="179.199219"/>
      </g>
     </g>
    </g>
    <g id="ytick_5">
     <g id="line2d_13">
      <g>
       <use xlink:href="#m2818c3f505" x="108" y="238.513387" style="stroke: #000000; stroke-width: 0.8"/>
      </g>
     </g>
     <g id="text_13">
      <!-- 0.0 -->
      <g transform="translate(72.374375 245.351981) scale(0.18 -0.18)">
       <use xlink:href="#DejaVuSerif-30"/>
       <use xlink:href="#DejaVuSerif-2e" x="63.623047"/>
       <use xlink:href="#DejaVuSerif-30" x="95.410156"/>
      </g>
     </g>
    </g>
    <g id="ytick_6">
     <g id="line2d_14">
      <g>
       <use xlink:href="#m2818c3f505" x="108" y="194.098798" style="stroke: #000000; stroke-width: 0.8"/>
      </g>
     </g>
     <g id="text_14">
      <!-- 0.5 -->
      <g transform="translate(72.374375 200.937391) scale(0.18 -0.18)">
       <use xlink:href="#DejaVuSerif-30"/>
       <use xlink:href="#DejaVuSerif-2e" x="63.623047"/>
       <use xlink:href="#DejaVuSerif-35" x="95.410156"/>
      </g>
     </g>
    </g>
    <g id="ytick_7">
     <g id="line2d_15">
      <g>
       <use xlink:href="#m2818c3f505" x="108" y="149.684208" style="stroke: #000000; stroke-width: 0.8"/>
      </g>
     </g>
     <g id="text_15">
      <!-- 1.0 -->
      <g transform="translate(72.374375 156.522802) scale(0.18 -0.18)">
       <use xlink:href="#DejaVuSerif-31"/>
       <use xlink:href="#DejaVuSerif-2e" x="63.623047"/>
       <use xlink:href="#DejaVuSerif-30" x="95.410156"/>
      </g>
     </g>
    </g>
    <g id="ytick_8">
     <g id="line2d_16">
      <g>
       <use xlink:href="#m2818c3f505" x="108" y="105.269618" style="stroke: #000000; stroke-width: 0.8"/>
      </g>
     </g>
     <g id="text_16">
      <!-- 1.5 -->
      <g transform="translate(72.374375 112.108212) scale(0.18 -0.18)">
       <use xlink:href="#DejaVuSerif-31"/>
       <use xlink:href="#DejaVuSerif-2e" x="63.623047"/>
       <use xlink:href="#DejaVuSerif-35" x="95.410156"/>
      </g>
     </g>
    </g>
    <g id="ytick_9">
     <g id="line2d_17">
      <g>
       <use xlink:href="#m2818c3f505" x="108" y="60.855028" style="stroke: #000000; stroke-width: 0.8"/>
      </g>
     </g>
     <g id="text_17">
      <!-- 2.0 -->
      <g transform="translate(72.374375 67.693622) scale(0.18 -0.18)">
       <use xlink:href="#DejaVuSerif-32"/>
       <use xlink:href="#DejaVuSerif-2e" x="63.623047"/>
       <use xlink:href="#DejaVuSerif-30" x="95.410156"/>
      </g>
     </g>
    </g>
    <g id="text_18">
     <!-- $\Delta G$ [eV] -->
     <g transform="translate(49.963437 285.56) rotate(-90) scale(0.16 -0.16)">
      <defs>
       <path id="DejaVuSans-394" d="M 2188 4044 
L 906 525 
L 3472 525 
L 2188 4044 
z
M 50 0 
L 1831 4666 
L 2547 4666 
L 4325 0 
L 50 0 
z
" transform="scale(0.015625)"/>
       <path id="DejaVuSans-Oblique-47" d="M 3494 697 
L 3738 1919 
L 2700 1919 
L 2797 2438 
L 4453 2438 
L 4050 384 
Q 3634 156 3143 32 
Q 2653 -91 2156 -91 
Q 1278 -91 783 396 
Q 288 884 288 1753 
Q 288 2475 589 3126 
Q 891 3778 1422 4213 
Q 1756 4484 2153 4617 
Q 2550 4750 3034 4750 
Q 3472 4750 3873 4639 
Q 4275 4528 4641 4306 
L 4513 3634 
Q 4231 3928 3853 4083 
Q 3475 4238 3047 4238 
Q 2550 4238 2172 4048 
Q 1794 3859 1497 3463 
Q 1244 3125 1098 2667 
Q 953 2209 953 1734 
Q 953 1081 1287 751 
Q 1622 422 2284 422 
Q 2616 422 2925 492 
Q 3234 563 3494 697 
z
" transform="scale(0.015625)"/>
       <path id="DejaVuSerif-20" transform="scale(0.015625)"/>
       <path id="DejaVuSerif-5b" d="M 550 4863 
L 2003 4863 
L 2003 4531 
L 1147 4531 
L 1147 -513 
L 2003 -513 
L 2003 -844 
L 550 -844 
L 550 4863 
z
" transform="scale(0.015625)"/>
       <path id="DejaVuSerif-65" d="M 3469 1600 
L 991 1600 
L 991 1575 
Q 991 903 1244 561 
Q 1497 219 1991 219 
Q 2369 219 2611 417 
Q 2853 616 2950 1006 
L 3413 1006 
Q 3275 459 2904 184 
Q 2534 -91 1931 -91 
Q 1203 -91 761 389 
Q 319 869 319 1663 
Q 319 2450 753 2931 
Q 1188 3413 1894 3413 
Q 2647 3413 3050 2948 
Q 3453 2484 3469 1600 
z
M 2791 1931 
Q 2772 2513 2545 2808 
Q 2319 3103 1894 3103 
Q 1497 3103 1269 2806 
Q 1041 2509 991 1931 
L 2791 1931 
z
" transform="scale(0.015625)"/>
       <path id="DejaVuSerif-56" d="M 1119 4331 
L 2497 750 
L 3872 4331 
L 3347 4331 
L 3347 4666 
L 4716 4666 
L 4716 4331 
L 4263 4331 
L 2597 0 
L 2059 0 
L 403 4331 
L -63 4331 
L -63 4666 
L 1638 4666 
L 1638 4331 
L 1119 4331 
z
" transform="scale(0.015625)"/>
       <path id="DejaVuSerif-5d" d="M 1947 4863 
L 1947 -844 
L 494 -844 
L 494 -513 
L 1350 -513 
L 1350 4531 
L 494 4531 
L 494 4863 
L 1947 4863 
z
" transform="scale(0.015625)"/>
      </defs>
      <use xlink:href="#DejaVuSans-394" transform="translate(0 0.015625)"/>
      <use xlink:href="#DejaVuSans-Oblique-47" transform="translate(68.408203 0.015625)"/>
      <use xlink:href="#DejaVuSerif-20" transform="translate(145.898438 0.015625)"/>
      <use xlink:href="#DejaVuSerif-5b" transform="translate(177.685547 0.015625)"/>
      <use xlink:href="#DejaVuSerif-65" transform="translate(216.699219 0.015625)"/>
      <use xlink:href="#DejaVuSerif-56" transform="translate(275.878906 0.015625)"/>
      <use xlink:href="#DejaVuSerif-5d" transform="translate(348.095703 0.015625)"/>
     </g>
    </g>
   </g>
   <g id="line2d_18">
    <path d="M 138.436364 238.513387 
L 225.397403 238.513387 
" clip-path="url(#p1808cd3812)" style="fill: none; stroke: #1f77b4; stroke-width: 2; stroke-linecap: square"/>
   </g>
   <g id="line2d_19">
    <path d="M 312.358442 285.611945 
L 399.319481 285.611945 
" clip-path="url(#p1808cd3812)" style="fill: none; stroke: #1f77b4; stroke-width: 2; stroke-linecap: square"/>
   </g>
   <g id="line2d_20">
    <path d="M 486.280519 332.710502 
L 573.241558 332.710502 
" clip-path="url(#p1808cd3812)" style="fill: none; stroke: #1f77b4; stroke-width: 2; stroke-linecap: square"/>
   </g>
   <g id="line2d_21">
    <path d="M 660.202597 430.92 
L 747.163636 430.92 
" clip-path="url(#p1808cd3812)" style="fill: none; stroke: #1f77b4; stroke-width: 2; stroke-linecap: square"/>
   </g>
   <g id="line2d_22">
    <path d="M 225.397403 238.513387 
L 229.974299 218.731141 
L 234.551196 201.422353 
L 239.128093 186.587022 
L 243.70499 174.225149 
L 248.281887 164.336733 
L 252.858783 156.921774 
L 257.43568 151.980273 
L 262.012577 149.51223 
L 266.589474 149.517644 
L 271.16637 151.996515 
L 275.743267 156.948844 
L 280.320164 164.37463 
L 284.897061 174.273874 
L 289.473958 186.646575 
L 294.050854 201.492734 
L 298.627751 218.812351 
L 303.204648 238.605424 
L 307.781545 260.871956 
L 312.358442 285.611945 
" clip-path="url(#p1808cd3812)" style="fill: none; stroke-dasharray: 7.4,3.2; stroke-dashoffset: 0; stroke: #1f77b4; stroke-width: 2"/>
   </g>
   <g id="line2d_23">
    <path d="M 399.319481 285.611945 
L 403.896377 265.829699 
L 408.473274 248.52091 
L 413.050171 233.685579 
L 417.627068 221.323706 
L 422.203964 211.43529 
L 426.780861 204.020331 
L 431.357758 199.07883 
L 435.934655 196.610787 
L 440.511552 196.616201 
L 445.088448 199.095072 
L 449.665345 204.047401 
L 454.242242 211.473187 
L 458.819139 221.372431 
L 463.396036 233.745133 
L 467.972932 248.591292 
L 472.549829 265.910908 
L 477.126726 285.703982 
L 481.703623 307.970513 
L 486.280519 332.710502 
" clip-path="url(#p1808cd3812)" style="fill: none; stroke-dasharray: 7.4,3.2; stroke-dashoffset: 0; stroke: #1f77b4; stroke-width: 2"/>
   </g>
   <g id="line2d_24">
    <path d="M 573.241558 332.710502 
L 577.818455 313.929356 
L 582.395352 297.809329 
L 586.972249 284.35042 
L 591.549146 273.55263 
L 596.126042 265.415959 
L 600.702939 259.940406 
L 605.279836 257.125971 
L 609.856733 256.972655 
L 614.43363 259.480457 
L 619.010526 264.649378 
L 623.587423 272.479418 
L 628.16432 282.970576 
L 632.741217 296.122852 
L 637.318113 311.936247 
L 641.89501 330.410761 
L 646.471907 351.546393 
L 651.048804 375.343143 
L 655.625701 401.801012 
L 660.202597 430.92 
" clip-path="url(#p1808cd3812)" style="fill: none; stroke-dasharray: 12.8,3.2,2,3.2; stroke-dashoffset: 0; stroke: #1f77b4; stroke-width: 2"/>
   </g>
   <g id="line2d_25">
    <path d="M 138.436364 238.513387 
L 225.397403 238.513387 
" clip-path="url(#p1808cd3812)" style="fill: none; stroke: #ff7f0e; stroke-width: 2; stroke-linecap: square"/>
   </g>
   <g id="line2d_26">
    <path d="M 312.358442 241.197355 
L 399.319481 241.197355 
" clip-path="url(#p1808cd3812)" style="fill: none; stroke: #ff7f0e; stroke-width: 2; stroke-linecap: square"/>
   </g>
   <g id="line2d_27">
    <path d="M 486.280519 243.881322 
L 573.241558 243.881322 
" clip-path="url(#p1808cd3812)" style="fill: none; stroke: #ff7f0e; stroke-width: 2; stroke-linecap: square"/>
   </g>
   <g id="line2d_28">
    <path d="M 660.202597 342.090821 
L 747.163636 342.090821 
" clip-path="url(#p1808cd3812)" style="fill: none; stroke: #ff7f0e; stroke-width: 2; stroke-linecap: square"/>
   </g>
   <g id="line2d_29">
    <path d="M 225.397403 238.513387 
L 229.974299 217.624009 
L 234.551196 199.071369 
L 239.128093 182.855467 
L 243.70499 168.976302 
L 248.281887 157.433875 
L 252.858783 148.228186 
L 257.43568 141.359234 
L 262.012577 136.82702 
L 266.589474 134.631544 
L 271.16637 134.772805 
L 275.743267 137.250804 
L 280.320164 142.065541 
L 284.897061 149.217016 
L 289.473958 158.705228 
L 294.050854 170.530178 
L 298.627751 184.691866 
L 303.204648 201.190291 
L 307.781545 220.025454 
L 312.358442 241.197355 
" clip-path="url(#p1808cd3812)" style="fill: none; stroke-dasharray: 7.4,3.2; stroke-dashoffset: 0; stroke: #ff7f0e; stroke-width: 2"/>
   </g>
   <g id="line2d_30">
    <path d="M 399.319481 241.197355 
L 403.896377 220.307977 
L 408.473274 201.755337 
L 413.050171 185.539434 
L 417.627068 171.66027 
L 422.203964 160.117842 
L 426.780861 150.912153 
L 431.357758 144.043201 
L 435.934655 139.510987 
L 440.511552 137.315511 
L 445.088448 137.456773 
L 449.665345 139.934772 
L 454.242242 144.749509 
L 458.819139 151.900983 
L 463.396036 161.389195 
L 467.972932 173.214145 
L 472.549829 187.375833 
L 477.126726 203.874258 
L 481.703623 222.709422 
L 486.280519 243.881322 
" clip-path="url(#p1808cd3812)" style="fill: none; stroke-dasharray: 7.4,3.2; stroke-dashoffset: 0; stroke: #ff7f0e; stroke-width: 2"/>
   </g>
   <g id="line2d_31">
    <path d="M 573.241558 243.881322 
L 577.818455 225.100177 
L 582.395352 208.98015 
L 586.972249 195.521241 
L 591.549146 184.723451 
L 596.126042 176.586779 
L 600.702939 171.111226 
L 605.279836 168.296792 
L 609.856733 168.143476 
L 614.43363 170.651278 
L 619.010526 175.820199 
L 623.587423 183.650238 
L 628.16432 194.141396 
L 632.741217 207.293673 
L 637.318113 223.107068 
L 641.89501 241.581581 
L 646.471907 262.717213 
L 651.048804 286.513964 
L 655.625701 312.971833 
L 660.202597 342.090821 
" clip-path="url(#p1808cd3812)" style="fill: none; stroke-dasharray: 12.8,3.2,2,3.2; stroke-dashoffset: 0; stroke: #ff7f0e; stroke-width: 2"/>
   </g>
   <g id="line2d_32">
    <path d="M 138.436364 238.513387 
L 225.397403 238.513387 
" clip-path="url(#p1808cd3812)" style="fill: none; stroke: #2ca02c; stroke-width: 2; stroke-linecap: square"/>
   </g>
   <g id="line2d_33">
    <path d="M 312.358442 196.782765 
L 399.319481 196.782765 
" clip-path="url(#p1808cd3812)" style="fill: none; stroke: #2ca02c; stroke-width: 2; stroke-linecap: square"/>
   </g>
   <g id="line2d_34">
    <path d="M 486.280519 155.052143 
L 573.241558 155.052143 
" clip-path="url(#p1808cd3812)" style="fill: none; stroke: #2ca02c; stroke-width: 2; stroke-linecap: square"/>
   </g>
   <g id="line2d_35">
    <path d="M 660.202597 253.261641 
L 747.163636 253.261641 
" clip-path="url(#p1808cd3812)" style="fill: none; stroke: #2ca02c; stroke-width: 2; stroke-linecap: square"/>
   </g>
   <g id="line2d_36">
    <path d="M 225.397403 238.513387 
L 229.974299 216.986894 
L 234.551196 197.608194 
L 239.128093 180.377288 
L 243.70499 165.294176 
L 248.281887 152.358858 
L 252.858783 141.571334 
L 257.43568 132.931604 
L 262.012577 126.439668 
L 266.589474 122.095525 
L 271.16637 119.899177 
L 275.743267 119.850622 
L 280.320164 121.949861 
L 284.897061 126.196895 
L 289.473958 132.591722 
L 294.050854 141.134343 
L 298.627751 151.824757 
L 303.204648 164.662966 
L 307.781545 179.648969 
L 312.358442 196.782765 
" clip-path="url(#p1808cd3812)" style="fill: none; stroke-dasharray: 7.4,3.2; stroke-dashoffset: 0; stroke: #2ca02c; stroke-width: 2"/>
   </g>
   <g id="line2d_37">
    <path d="M 399.319481 196.782765 
L 403.896377 175.256272 
L 408.473274 155.877572 
L 413.050171 138.646666 
L 417.627068 123.563554 
L 422.203964 110.628236 
L 426.780861 99.840712 
L 431.357758 91.200982 
L 435.934655 84.709046 
L 440.511552 80.364903 
L 445.088448 78.168555 
L 449.665345 78.12 
L 454.242242 80.219239 
L 458.819139 84.466272 
L 463.396036 90.861099 
L 467.972932 99.40372 
L 472.549829 110.094135 
L 477.126726 122.932344 
L 481.703623 137.918346 
L 486.280519 155.052143 
" clip-path="url(#p1808cd3812)" style="fill: none; stroke-dasharray: 7.4,3.2; stroke-dashoffset: 0; stroke: #2ca02c; stroke-width: 2"/>
   </g>
   <g id="line2d_38">
    <path d="M 573.241558 155.052143 
L 577.818455 136.270997 
L 582.395352 120.15097 
L 586.972249 106.692062 
L 591.549146 95.894271 
L 596.126042 87.7576 
L 600.702939 82.282047 
L 605.279836 79.467612 
L 609.856733 79.314296 
L 614.43363 81.822099 
L 619.010526 86.991019 
L 623.587423 94.821059 
L 628.16432 105.312217 
L 632.741217 118.464493 
L 637.318113 134.277888 
L 641.89501 152.752402 
L 646.471907 173.888034 
L 651.048804 197.684785 
L 655.625701 224.142654 
L 660.202597 253.261641 
" clip-path="url(#p1808cd3812)" style="fill: none; stroke-dasharray: 12.8,3.2,2,3.2; stroke-dashoffset: 0; stroke: #2ca02c; stroke-width: 2"/>
   </g>
   <g id="line2d_39">
    <path d="M 138.436364 238.513387 
L 225.397403 238.513387 
" clip-path="url(#p1808cd3812)" style="fill: none; stroke: #1f77b4; stroke-width: 2; stroke-linecap: square"/>
   </g>
   <g id="line2d_40">
    <path d="M 312.358442 285.611945 
L 399.319481 285.611945 
" clip-path="url(#p1808cd3812)" style="fill: none; stroke: #1f77b4; stroke-width: 2; stroke-linecap: square"/>
   </g>
   <g id="line2d_41">
    <path d="M 486.280519 430.92 
L 573.241558 430.92 
" clip-path="url(#p1808cd3812)" style="fill: none; stroke: #1f77b4; stroke-width: 2; stroke-linecap: square"/>
   </g>
   <g id="line2d_42">
    <path d="M 225.397403 238.513387 
L 229.974299 218.731141 
L 234.551196 201.422353 
L 239.128093 186.587022 
L 243.70499 174.225149 
L 248.281887 164.336733 
L 252.858783 156.921774 
L 257.43568 151.980273 
L 262.012577 149.51223 
L 266.589474 149.517644 
L 271.16637 151.996515 
L 275.743267 156.948844 
L 280.320164 164.37463 
L 284.897061 174.273874 
L 289.473958 186.646575 
L 294.050854 201.492734 
L 298.627751 218.812351 
L 303.204648 238.605424 
L 307.781545 260.871956 
L 312.358442 285.611945 
" clip-path="url(#p1808cd3812)" style="fill: none; stroke-dasharray: 7.4,3.2; stroke-dashoffset: 0; stroke: #1f77b4; stroke-width: 2"/>
   </g>
   <g id="line2d_43">
    <path d="M 399.319481 285.611945 
L 403.896377 281.66875 
L 408.473274 279.013443 
L 413.050171 277.646023 
L 417.627068 277.566491 
L 422.203964 278.774846 
L 426.780861 281.271089 
L 431.357758 285.055219 
L 435.934655 290.127236 
L 440.511552 296.487141 
L 445.088448 304.134933 
L 449.665345 313.070613 
L 454.242242 323.294181 
L 458.819139 334.805635 
L 463.396036 347.604977 
L 467.972932 361.692207 
L 472.549829 377.067324 
L 477.126726 393.730329 
L 481.703623 411.681221 
L 486.280519 430.92 
" clip-path="url(#p1808cd3812)" style="fill: none; stroke-dasharray: 2,3.3; stroke-dashoffset: 0; stroke: #1f77b4; stroke-width: 2"/>
   </g>
   <g id="line2d_44">
    <path d="M 138.436364 238.513387 
L 225.397403 238.513387 
" clip-path="url(#p1808cd3812)" style="fill: none; stroke: #ff7f0e; stroke-width: 2; stroke-linecap: square"/>
   </g>
   <g id="line2d_45">
    <path d="M 312.358442 241.197355 
L 399.319481 241.197355 
" clip-path="url(#p1808cd3812)" style="fill: none; stroke: #ff7f0e; stroke-width: 2; stroke-linecap: square"/>
   </g>
   <g id="line2d_46">
    <path d="M 486.280519 342.090821 
L 573.241558 342.090821 
" clip-path="url(#p1808cd3812)" style="fill: none; stroke: #ff7f0e; stroke-width: 2; stroke-linecap: square"/>
   </g>
   <g id="line2d_47">
    <path d="M 225.397403 238.513387 
L 229.974299 217.624009 
L 234.551196 199.071369 
L 239.128093 182.855467 
L 243.70499 168.976302 
L 248.281887 157.433875 
L 252.858783 148.228186 
L 257.43568 141.359234 
L 262.012577 136.82702 
L 266.589474 134.631544 
L 271.16637 134.772805 
L 275.743267 137.250804 
L 280.320164 142.065541 
L 284.897061 149.217016 
L 289.473958 158.705228 
L 294.050854 170.530178 
L 298.627751 184.691866 
L 303.204648 201.190291 
L 307.781545 220.025454 
L 312.358442 241.197355 
" clip-path="url(#p1808cd3812)" style="fill: none; stroke-dasharray: 7.4,3.2; stroke-dashoffset: 0; stroke: #ff7f0e; stroke-width: 2"/>
   </g>
   <g id="line2d_48">
    <path d="M 399.319481 241.197355 
L 403.896377 231.826371 
L 408.473274 224.086628 
L 413.050171 217.978125 
L 417.627068 213.500863 
L 422.203964 210.654842 
L 426.780861 209.440062 
L 431.357758 209.856522 
L 435.934655 211.904223 
L 440.511552 215.583165 
L 445.088448 220.893347 
L 449.665345 227.83477 
L 454.242242 236.407434 
L 458.819139 246.611339 
L 463.396036 258.446484 
L 467.972932 271.91287 
L 472.549829 287.010496 
L 477.126726 303.739364 
L 481.703623 322.099472 
L 486.280519 342.090821 
" clip-path="url(#p1808cd3812)" style="fill: none; stroke-dasharray: 2,3.3; stroke-dashoffset: 0; stroke: #ff7f0e; stroke-width: 2"/>
   </g>
   <g id="line2d_49">
    <path d="M 138.436364 238.513387 
L 225.397403 238.513387 
" clip-path="url(#p1808cd3812)" style="fill: none; stroke: #2ca02c; stroke-width: 2; stroke-linecap: square"/>
   </g>
   <g id="line2d_50">
    <path d="M 312.358442 196.782765 
L 399.319481 196.782765 
" clip-path="url(#p1808cd3812)" style="fill: none; stroke: #2ca02c; stroke-width: 2; stroke-linecap: square"/>
   </g>
   <g id="line2d_51">
    <path d="M 486.280519 253.261641 
L 573.241558 253.261641 
" clip-path="url(#p1808cd3812)" style="fill: none; stroke: #2ca02c; stroke-width: 2; stroke-linecap: square"/>
   </g>
   <g id="line2d_52">
    <path d="M 225.397403 238.513387 
L 229.974299 216.986894 
L 234.551196 197.608194 
L 239.128093 180.377288 
L 243.70499 165.294176 
L 248.281887 152.358858 
L 252.858783 141.571334 
L 257.43568 132.931604 
L 262.012577 126.439668 
L 266.589474 122.095525 
L 271.16637 119.899177 
L 275.743267 119.850622 
L 280.320164 121.949861 
L 284.897061 126.196895 
L 289.473958 132.591722 
L 294.050854 141.134343 
L 298.627751 151.824757 
L 303.204648 164.662966 
L 307.781545 179.648969 
L 312.358442 196.782765 
" clip-path="url(#p1808cd3812)" style="fill: none; stroke-dasharray: 7.4,3.2; stroke-dashoffset: 0; stroke: #2ca02c; stroke-width: 2"/>
   </g>
   <g id="line2d_53">
    <path d="M 399.319481 196.782765 
L 403.896377 183.554706 
L 408.473274 172.126717 
L 413.050171 162.498798 
L 417.627068 154.670949 
L 422.203964 148.64317 
L 426.780861 144.415462 
L 431.357758 141.987824 
L 435.934655 141.360256 
L 440.511552 142.532758 
L 445.088448 145.50533 
L 449.665345 150.277973 
L 454.242242 156.850686 
L 458.819139 165.223469 
L 463.396036 175.396322 
L 467.972932 187.369245 
L 472.549829 201.142239 
L 477.126726 216.715303 
L 481.703623 234.088437 
L 486.280519 253.261641 
" clip-path="url(#p1808cd3812)" style="fill: none; stroke-dasharray: 2,3.3; stroke-dashoffset: 0; stroke: #2ca02c; stroke-width: 2"/>
   </g>
   <g id="patch_3">
    <path d="M 108 448.56 
L 108 60.48 
" style="fill: none; stroke: #000000; stroke-width: 0.8; stroke-linejoin: miter; stroke-linecap: square"/>
   </g>
   <g id="patch_4">
    <path d="M 777.6 448.56 
L 777.6 60.48 
" style="fill: none; stroke: #000000; stroke-width: 0.8; stroke-linejoin: miter; stroke-linecap: square"/>
   </g>
   <g id="patch_5">
    <path d="M 108 448.56 
L 777.6 448.56 
" style="fill: none; stroke: #000000; stroke-width: 0.8; stroke-linejoin: miter; stroke-linecap: square"/>
   </g>
   <g id="patch_6">
    <path d="M 108 60.48 
L 777.6 60.48 
" style="fill: none; stroke: #000000; stroke-width: 0.8; stroke-linejoin: miter; stroke-linecap: square"/>
   </g>
  </g>
 </g>
 <defs>
  <clipPath id="p1808cd3812">
   <rect x="108" y="60.48" width="669.6" height="388.08"/>
  </clipPath>
 </defs>
</svg>
