<?xml version="1.0" encoding="utf-8" standalone="no"?>
<!DOCTYPE svg PUBLIC "-//W3C//DTD SVG 1.1//EN"
  "http://www.w3.org/Graphics/SVG/1.1/DTD/svg11.dtd">
<svg xmlns:xlink="http://www.w3.org/1999/xlink" width="864pt" height="504pt" viewBox="0 0 864 504" xmlns="http://www.w3.org/2000/svg" version="1.1">
 <metadata>
  <rdf:RDF xmlns:dc="http://purl.org/dc/elements/1.1/" xmlns:cc="http://creativecommons.org/ns#" xmlns:rdf="http://www.w3.org/1999/02/22-rdf-syntax-ns#">
   <cc:Work>
    <dc:type rdf:resource="http://purl.org/dc/dcmitype/StillImage"/>
    <dc:date>2025-05-21T01:08:41.852312</dc:date>
    <dc:format>image/svg+xml</dc:format>
    <dc:creator>
     <cc:Agent>
      <dc:title>Matplotlib v3.7.2, https://matplotlib.org/</dc:title>
     </cc:Agent>
    </dc:creator>
   </cc:Work>
  </rdf:RDF>
 </metadata>
 <defs>
  <style type="text/css">*{stroke-linejoin: round; stroke-linecap: butt}</style>
 </defs>
 <g id="figure_1">
  <g id="patch_1">
   <path d="M 0 504 
L 864 504 
L 864 0 
L 0 0 
z
" style="fill: #ffffff"/>
  </g>
  <g id="axes_1">
   <g id="patch_2">
    <path d="M 108 448.56 
L 777.6 448.56 
L 777.6 60.48 
L 108 60.48 
z
" style="fill: #ffffff"/>
   </g>
   <g id="matplotlib.axis_1">
    <g id="xtick_1">
     <g id="line2d_1">
      <defs>
       <path id="m9f915c8f4c" d="M 0 0 
L 0 3.5 
" style="stroke: #000000; stroke-width: 0.8"/>
      </defs>
      <g>
       <use xlink:href="#m9f915c8f4c" x="138.436364" y="448.56" style="stroke: #000000; stroke-width: 0.8"/>
      </g>
     </g>
     <g id="text_1">
      <!-- 0.0 -->
      <g transform="translate(124.123551 469.237188) scale(0.18 -0.18)">
       <defs>
        <path id="DejaVuSerif-30" d="M 2034 219 
Q 2513 219 2750 744 
Q 2988 1269 2988 2328 
Q 2988 3391 2750 3916 
Q 2513 4441 2034 4441 
Q 1556 4441 1318 3916 
Q 1081 3391 1081 2328 
Q 1081 1269 1318 744 
Q 1556 219 2034 219 
z
M 2034 -91 
Q 1275 -91 848 546 
Q 422 1184 422 2328 
Q 422 3475 848 4112 
Q 1275 4750 2034 4750 
Q 2797 4750 3222 4112 
Q 3647 3475 3647 2328 
Q 3647 1184 3222 546 
Q 2797 -91 2034 -91 
z
" transform="scale(0.015625)"/>
        <path id="DejaVuSerif-2e" d="M 603 325 
Q 603 500 722 622 
Q 841 744 1019 744 
Q 1191 744 1312 622 
Q 1434 500 1434 325 
Q 1434 153 1312 31 
Q 1191 -91 1019 -91 
Q 841 -91 722 29 
Q 603 150 603 325 
z
" transform="scale(0.015625)"/>
       </defs>
       <use xlink:href="#DejaVuSerif-30"/>
       <use xlink:href="#DejaVuSerif-2e" x="63.623047"/>
       <use xlink:href="#DejaVuSerif-30" x="95.410156"/>
      </g>
     </g>
    </g>
    <g id="xtick_2">
     <g id="line2d_2">
      <g>
       <use xlink:href="#m9f915c8f4c" x="225.397403" y="448.56" style="stroke: #000000; stroke-width: 0.8"/>
      </g>
     </g>
     <g id="text_2">
      <!-- 0.5 -->
      <g transform="translate(211.08459 469.237188) scale(0.18 -0.18)">
       <defs>
        <path id="DejaVuSerif-35" d="M 3219 4666 
L 3219 4153 
L 1081 4153 
L 1081 2816 
Q 1244 2928 1461 2984 
Q 1678 3041 1947 3041 
Q 2703 3041 3140 2622 
Q 3578 2203 3578 1478 
Q 3578 738 3136 323 
Q 2694 -91 1894 -91 
Q 1572 -91 1234 -12 
Q 897 66 544 225 
L 544 1131 
L 897 1131 
Q 925 688 1179 453 
Q 1434 219 1894 219 
Q 2388 219 2653 544 
Q 2919 869 2919 1478 
Q 2919 2084 2655 2407 
Q 2391 2731 1894 2731 
Q 1613 2731 1398 2631 
Q 1184 2531 1019 2322 
L 750 2322 
L 750 4666 
L 3219 4666 
z
" transform="scale(0.015625)"/>
       </defs>
       <use xlink:href="#DejaVuSerif-30"/>
       <use xlink:href="#DejaVuSerif-2e" x="63.623047"/>
       <use xlink:href="#DejaVuSerif-35" x="95.410156"/>
      </g>
     </g>
    </g>
    <g id="xtick_3">
     <g id="line2d_3">
      <g>
       <use xlink:href="#m9f915c8f4c" x="312.358442" y="448.56" style="stroke: #000000; stroke-width: 0.8"/>
      </g>
     </g>
     <g id="text_3">
      <!-- 1.0 -->
      <g transform="translate(298.045629 469.237188) scale(0.18 -0.18)">
       <defs>
        <path id="DejaVuSerif-31" d="M 909 0 
L 909 331 
L 1722 331 
L 1722 4213 
L 781 3603 
L 781 4013 
L 1919 4750 
L 2350 4750 
L 2350 331 
L 3163 331 
L 3163 0 
L 909 0 
z
" transform="scale(0.015625)"/>
       </defs>
       <use xlink:href="#DejaVuSerif-31"/>
       <use xlink:href="#DejaVuSerif-2e" x="63.623047"/>
       <use xlink:href="#DejaVuSerif-30" x="95.410156"/>
      </g>
     </g>
    </g>
    <g id="xtick_4">
     <g id="line2d_4">
      <g>
       <use xlink:href="#m9f915c8f4c" x="399.319481" y="448.56" style="stroke: #000000; stroke-width: 0.8"/>
      </g>
     </g>
     <g id="text_4">
      <!-- 1.5 -->
      <g transform="translate(385.006668 469.237188) scale(0.18 -0.18)">
       <use xlink:href="#DejaVuSerif-31"/>
       <use xlink:href="#DejaVuSerif-2e" x="63.623047"/>
       <use xlink:href="#DejaVuSerif-35" x="95.410156"/>
      </g>
     </g>
    </g>
    <g id="xtick_5">
     <g id="line2d_5">
      <g>
       <use xlink:href="#m9f915c8f4c" x="486.280519" y="448.56" style="stroke: #000000; stroke-width: 0.8"/>
      </g>
     </g>
     <g id="text_5">
      <!-- 2.0 -->
      <g transform="translate(471.967707 469.237188) scale(0.18 -0.18)">
       <defs>
        <path id="DejaVuSerif-32" d="M 819 3553 
L 469 3553 
L 469 4384 
Q 803 4563 1142 4656 
Q 1481 4750 1806 4750 
Q 2534 4750 2956 4397 
Q 3378 4044 3378 3438 
Q 3378 2753 2422 1800 
Q 2347 1728 2309 1691 
L 1131 513 
L 3078 513 
L 3078 1088 
L 3444 1088 
L 3444 0 
L 434 0 
L 434 341 
L 1850 1753 
Q 2319 2222 2519 2614 
Q 2719 3006 2719 3438 
Q 2719 3909 2473 4175 
Q 2228 4441 1797 4441 
Q 1350 4441 1106 4219 
Q 863 3997 819 3553 
z
" transform="scale(0.015625)"/>
       </defs>
       <use xlink:href="#DejaVuSerif-32"/>
       <use xlink:href="#DejaVuSerif-2e" x="63.623047"/>
       <use xlink:href="#DejaVuSerif-30" x="95.410156"/>
      </g>
     </g>
    </g>
    <g id="xtick_6">
     <g id="line2d_6">
      <g>
       <use xlink:href="#m9f915c8f4c" x="573.241558" y="448.56" style="stroke: #000000; stroke-width: 0.8"/>
      </g>
     </g>
     <g id="text_6">
      <!-- 2.5 -->
      <g transform="translate(558.928746 469.237188) scale(0.18 -0.18)">
       <use xlink:href="#DejaVuSerif-32"/>
       <use xlink:href="#DejaVuSerif-2e" x="63.623047"/>
       <use xlink:href="#DejaVuSerif-35" x="95.410156"/>
      </g>
     </g>
    </g>
    <g id="xtick_7">
     <g id="line2d_7">
      <g>
       <use xlink:href="#m9f915c8f4c" x="660.202597" y="448.56" style="stroke: #000000; stroke-width: 0.8"/>
      </g>
     </g>
     <g id="text_7">
      <!-- 3.0 -->
      <g transform="translate(645.889785 469.237188) scale(0.18 -0.18)">
       <defs>
        <path id="DejaVuSerif-33" d="M 622 4469 
Q 988 4606 1323 4678 
Q 1659 4750 1953 4750 
Q 2638 4750 3022 4454 
Q 3406 4159 3406 3634 
Q 3406 3213 3140 2930 
Q 2875 2647 2388 2547 
Q 2963 2466 3280 2130 
Q 3597 1794 3597 1259 
Q 3597 606 3158 257 
Q 2719 -91 1894 -91 
Q 1528 -91 1179 -12 
Q 831 66 488 225 
L 488 1131 
L 838 1131 
Q 869 681 1141 450 
Q 1413 219 1906 219 
Q 2384 219 2661 495 
Q 2938 772 2938 1253 
Q 2938 1803 2653 2086 
Q 2369 2369 1819 2369 
L 1522 2369 
L 1522 2688 
L 1678 2688 
Q 2225 2688 2498 2914 
Q 2772 3141 2772 3597 
Q 2772 4006 2547 4223 
Q 2322 4441 1900 4441 
Q 1478 4441 1245 4241 
Q 1013 4041 972 3647 
L 622 3647 
L 622 4469 
z
" transform="scale(0.015625)"/>
       </defs>
       <use xlink:href="#DejaVuSerif-33"/>
       <use xlink:href="#DejaVuSerif-2e" x="63.623047"/>
       <use xlink:href="#DejaVuSerif-30" x="95.410156"/>
      </g>
     </g>
    </g>
    <g id="xtick_8">
     <g id="line2d_8">
      <g>
       <use xlink:href="#m9f915c8f4c" x="747.163636" y="448.56" style="stroke: #000000; stroke-width: 0.8"/>
      </g>
     </g>
     <g id="text_8">
      <!-- 3.5 -->
      <g transform="translate(732.850824 469.237188) scale(0.18 -0.18)">
       <use xlink:href="#DejaVuSerif-33"/>
       <use xlink:href="#DejaVuSerif-2e" x="63.623047"/>
       <use xlink:href="#DejaVuSerif-35" x="95.410156"/>
      </g>
     </g>
    </g>
   </g>
   <g id="matplotlib.axis_2">
    <g id="ytick_1">
     <g id="line2d_9">
      <defs>
       <path id="m4f0b4b9218" d="M 0 0 
L -3.5 0 
" style="stroke: #000000; stroke-width: 0.8"/>
      </defs>
      <g>
       <use xlink:href="#m4f0b4b9218" x="108" y="414.386156" style="stroke: #000000; stroke-width: 0.8"/>
      </g>
     </g>
     <g id="text_9">
      <!-- −2.0 -->
      <g transform="translate(57.290937 421.22475) scale(0.18 -0.18)">
       <defs>
        <path id="DejaVuSerif-2212" d="M 678 2259 
L 4684 2259 
L 4684 1753 
L 678 1753 
L 678 2259 
z
" transform="scale(0.015625)"/>
       </defs>
       <use xlink:href="#DejaVuSerif-2212"/>
       <use xlink:href="#DejaVuSerif-32" x="83.789062"/>
       <use xlink:href="#DejaVuSerif-2e" x="147.412109"/>
       <use xlink:href="#DejaVuSerif-30" x="179.199219"/>
      </g>
     </g>
    </g>
    <g id="ytick_2">
     <g id="line2d_10">
      <g>
       <use xlink:href="#m4f0b4b9218" x="108" y="364.594234" style="stroke: #000000; stroke-width: 0.8"/>
      </g>
     </g>
     <g id="text_10">
      <!-- −1.5 -->
      <g transform="translate(57.290937 371.432827) scale(0.18 -0.18)">
       <use xlink:href="#DejaVuSerif-2212"/>
       <use xlink:href="#DejaVuSerif-31" x="83.789062"/>
       <use xlink:href="#DejaVuSerif-2e" x="147.412109"/>
       <use xlink:href="#DejaVuSerif-35" x="179.199219"/>
      </g>
     </g>
    </g>
    <g id="ytick_3">
     <g id="line2d_11">
      <g>
       <use xlink:href="#m4f0b4b9218" x="108" y="314.802312" style="stroke: #000000; stroke-width: 0.8"/>
      </g>
     </g>
     <g id="text_11">
      <!-- −1.0 -->
      <g transform="translate(57.290937 321.640905) scale(0.18 -0.18)">
       <use xlink:href="#DejaVuSerif-2212"/>
       <use xlink:href="#DejaVuSerif-31" x="83.789062"/>
       <use xlink:href="#DejaVuSerif-2e" x="147.412109"/>
       <use xlink:href="#DejaVuSerif-30" x="179.199219"/>
      </g>
     </g>
    </g>
    <g id="ytick_4">
     <g id="line2d_12">
      <g>
       <use xlink:href="#m4f0b4b9218" x="108" y="265.010389" style="stroke: #000000; stroke-width: 0.8"/>
      </g>
     </g>
     <g id="text_12">
      <!-- −0.5 -->
      <g transform="translate(57.290937 271.848983) scale(0.18 -0.18)">
       <use xlink:href="#DejaVuSerif-2212"/>
       <use xlink:href="#DejaVuSerif-30" x="83.789062"/>
       <use xlink:href="#DejaVuSerif-2e" x="147.412109"/>
       <use xlink:href="#DejaVuSerif-35" x="179.199219"/>
      </g>
     </g>
    </g>
    <g id="ytick_5">
     <g id="line2d_13">
      <g>
       <use xlink:href="#m4f0b4b9218" x="108" y="215.218467" style="stroke: #000000; stroke-width: 0.8"/>
      </g>
     </g>
     <g id="text_13">
      <!-- 0.0 -->
      <g transform="translate(72.374375 222.057061) scale(0.18 -0.18)">
       <use xlink:href="#DejaVuSerif-30"/>
       <use xlink:href="#DejaVuSerif-2e" x="63.623047"/>
       <use xlink:href="#DejaVuSerif-30" x="95.410156"/>
      </g>
     </g>
    </g>
    <g id="ytick_6">
     <g id="line2d_14">
      <g>
       <use xlink:href="#m4f0b4b9218" x="108" y="165.426545" style="stroke: #000000; stroke-width: 0.8"/>
      </g>
     </g>
     <g id="text_14">
      <!-- 0.5 -->
      <g transform="translate(72.374375 172.265139) scale(0.18 -0.18)">
       <use xlink:href="#DejaVuSerif-30"/>
       <use xlink:href="#DejaVuSerif-2e" x="63.623047"/>
       <use xlink:href="#DejaVuSerif-35" x="95.410156"/>
      </g>
     </g>
    </g>
    <g id="ytick_7">
     <g id="line2d_15">
      <g>
       <use xlink:href="#m4f0b4b9218" x="108" y="115.634623" style="stroke: #000000; stroke-width: 0.8"/>
      </g>
     </g>
     <g id="text_15">
      <!-- 1.0 -->
      <g transform="translate(72.374375 122.473217) scale(0.18 -0.18)">
       <use xlink:href="#DejaVuSerif-31"/>
       <use xlink:href="#DejaVuSerif-2e" x="63.623047"/>
       <use xlink:href="#DejaVuSerif-30" x="95.410156"/>
      </g>
     </g>
    </g>
    <g id="ytick_8">
     <g id="line2d_16">
      <g>
       <use xlink:href="#m4f0b4b9218" x="108" y="65.842701" style="stroke: #000000; stroke-width: 0.8"/>
      </g>
     </g>
     <g id="text_16">
      <!-- 1.5 -->
      <g transform="translate(72.374375 72.681295) scale(0.18 -0.18)">
       <use xlink:href="#DejaVuSerif-31"/>
       <use xlink:href="#DejaVuSerif-2e" x="63.623047"/>
       <use xlink:href="#DejaVuSerif-35" x="95.410156"/>
      </g>
     </g>
    </g>
    <g id="text_17">
     <!-- $\Delta G$ [eV] -->
     <g transform="translate(49.963437 285.56) rotate(-90) scale(0.16 -0.16)">
      <defs>
       <path id="DejaVuSans-394" d="M 2188 4044 
L 906 525 
L 3472 525 
L 2188 4044 
z
M 50 0 
L 1831 4666 
L 2547 4666 
L 4325 0 
L 50 0 
z
" transform="scale(0.015625)"/>
       <path id="DejaVuSans-Oblique-47" d="M 3494 697 
L 3738 1919 
L 2700 1919 
L 2797 2438 
L 4453 2438 
L 4050 384 
Q 3634 156 3143 32 
Q 2653 -91 2156 -91 
Q 1278 -91 783 396 
Q 288 884 288 1753 
Q 288 2475 589 3126 
Q 891 3778 1422 4213 
Q 1756 4484 2153 4617 
Q 2550 4750 3034 4750 
Q 3472 4750 3873 4639 
Q 4275 4528 4641 4306 
L 4513 3634 
Q 4231 3928 3853 4083 
Q 3475 4238 3047 4238 
Q 2550 4238 2172 4048 
Q 1794 3859 1497 3463 
Q 1244 3125 1098 2667 
Q 953 2209 953 1734 
Q 953 1081 1287 751 
Q 1622 422 2284 422 
Q 2616 422 2925 492 
Q 3234 563 3494 697 
z
" transform="scale(0.015625)"/>
       <path id="DejaVuSerif-20" transform="scale(0.015625)"/>
       <path id="DejaVuSerif-5b" d="M 550 4863 
L 2003 4863 
L 2003 4531 
L 1147 4531 
L 1147 -513 
L 2003 -513 
L 2003 -844 
L 550 -844 
L 550 4863 
z
" transform="scale(0.015625)"/>
       <path id="DejaVuSerif-65" d="M 3469 1600 
L 991 1600 
L 991 1575 
Q 991 903 1244 561 
Q 1497 219 1991 219 
Q 2369 219 2611 417 
Q 2853 616 2950 1006 
L 3413 1006 
Q 3275 459 2904 184 
Q 2534 -91 1931 -91 
Q 1203 -91 761 389 
Q 319 869 319 1663 
Q 319 2450 753 2931 
Q 1188 3413 1894 3413 
Q 2647 3413 3050 2948 
Q 3453 2484 3469 1600 
z
M 2791 1931 
Q 2772 2513 2545 2808 
Q 2319 3103 1894 3103 
Q 1497 3103 1269 2806 
Q 1041 2509 991 1931 
L 2791 1931 
z
" transform="scale(0.015625)"/>
       <path id="DejaVuSerif-56" d="M 1119 4331 
L 2497 750 
L 3872 4331 
L 3347 4331 
L 3347 4666 
L 4716 4666 
L 4716 4331 
L 4263 4331 
L 2597 0 
L 2059 0 
L 403 4331 
L -63 4331 
L -63 4666 
L 1638 4666 
L 1638 4331 
L 1119 4331 
z
" transform="scale(0.015625)"/>
       <path id="DejaVuSerif-5d" d="M 1947 4863 
L 1947 -844 
L 494 -844 
L 494 -513 
L 1350 -513 
L 1350 4531 
L 494 4531 
L 494 4863 
L 1947 4863 
z
" transform="scale(0.015625)"/>
      </defs>
      <use xlink:href="#DejaVuSans-394" transform="translate(0 0.015625)"/>
      <use xlink:href="#DejaVuSans-Oblique-47" transform="translate(68.408203 0.015625)"/>
      <use xlink:href="#DejaVuSerif-20" transform="translate(145.898438 0.015625)"/>
      <use xlink:href="#DejaVuSerif-5b" transform="translate(177.685547 0.015625)"/>
      <use xlink:href="#DejaVuSerif-65" transform="translate(216.699219 0.015625)"/>
      <use xlink:href="#DejaVuSerif-56" transform="translate(275.878906 0.015625)"/>
      <use xlink:href="#DejaVuSerif-5d" transform="translate(348.095703 0.015625)"/>
     </g>
    </g>
   </g>
   <g id="line2d_17">
    <path d="M 138.436364 215.218467 
L 225.397403 215.218467 
" clip-path="url(#p7acdcfca7d)" style="fill: none; stroke: #1f77b4; stroke-width: 2; stroke-linecap: square"/>
   </g>
   <g id="line2d_18">
    <path d="M 312.358442 305.031577 
L 399.319481 305.031577 
" clip-path="url(#p7acdcfca7d)" style="fill: none; stroke: #1f77b4; stroke-width: 2; stroke-linecap: square"/>
   </g>
   <g id="line2d_19">
    <path d="M 486.280519 394.844688 
L 573.241558 394.844688 
" clip-path="url(#p7acdcfca7d)" style="fill: none; stroke: #1f77b4; stroke-width: 2; stroke-linecap: square"/>
   </g>
   <g id="line2d_20">
    <path d="M 660.202597 430.92 
L 747.163636 430.92 
" clip-path="url(#p7acdcfca7d)" style="fill: none; stroke: #1f77b4; stroke-width: 2; stroke-linecap: square"/>
   </g>
   <g id="line2d_21">
    <path d="M 225.397403 215.218467 
L 229.974299 193.614987 
L 234.551196 174.937117 
L 239.128093 159.184856 
L 243.70499 146.358205 
L 248.281887 136.457163 
L 252.858783 129.48173 
L 257.43568 125.431908 
L 262.012577 124.307694 
L 266.589474 126.109091 
L 271.16637 130.836097 
L 275.743267 138.488712 
L 280.320164 149.066937 
L 284.897061 162.570771 
L 289.473958 179.000215 
L 294.050854 198.355268 
L 298.627751 220.635931 
L 303.204648 245.842204 
L 307.781545 273.974086 
L 312.358442 305.031577 
" clip-path="url(#p7acdcfca7d)" style="fill: none; stroke-dasharray: 7.4,3.2; stroke-dashoffset: 0; stroke: #1f77b4; stroke-width: 2"/>
   </g>
   <g id="line2d_22">
    <path d="M 399.319481 305.031577 
L 403.896377 283.428097 
L 408.473274 264.750227 
L 413.050171 248.997966 
L 417.627068 236.171315 
L 422.203964 226.270273 
L 426.780861 219.294841 
L 431.357758 215.245018 
L 435.934655 214.120805 
L 440.511552 215.922201 
L 445.088448 220.649207 
L 449.665345 228.301822 
L 454.242242 238.880047 
L 458.819139 252.383881 
L 463.396036 268.813325 
L 467.972932 288.168379 
L 472.549829 310.449042 
L 477.126726 335.655314 
L 481.703623 363.787196 
L 486.280519 394.844688 
" clip-path="url(#p7acdcfca7d)" style="fill: none; stroke-dasharray: 7.4,3.2; stroke-dashoffset: 0; stroke: #1f77b4; stroke-width: 2"/>
   </g>
   <g id="line2d_23">
    <path d="M 573.241558 394.844688 
L 577.818455 372.601332 
L 582.395352 353.040426 
L 586.972249 336.161972 
L 591.549146 321.965968 
L 596.126042 310.452415 
L 600.702939 301.621312 
L 605.279836 295.472661 
L 609.856733 292.00646 
L 614.43363 291.22271 
L 619.010526 293.12141 
L 623.587423 297.702562 
L 628.16432 304.966164 
L 632.741217 314.912217 
L 637.318113 327.54072 
L 641.89501 342.851675 
L 646.471907 360.84508 
L 651.048804 381.520936 
L 655.625701 404.879243 
L 660.202597 430.92 
" clip-path="url(#p7acdcfca7d)" style="fill: none; stroke-dasharray: 12.8,3.2,2,3.2; stroke-dashoffset: 0; stroke: #1f77b4; stroke-width: 2"/>
   </g>
   <g id="line2d_24">
    <path d="M 138.436364 215.218467 
L 225.397403 215.218467 
" clip-path="url(#p7acdcfca7d)" style="fill: none; stroke: #ff7f0e; stroke-width: 2; stroke-linecap: square"/>
   </g>
   <g id="line2d_25">
    <path d="M 312.358442 255.239655 
L 399.319481 255.239655 
" clip-path="url(#p7acdcfca7d)" style="fill: none; stroke: #ff7f0e; stroke-width: 2; stroke-linecap: square"/>
   </g>
   <g id="line2d_26">
    <path d="M 486.280519 295.260843 
L 573.241558 295.260843 
" clip-path="url(#p7acdcfca7d)" style="fill: none; stroke: #ff7f0e; stroke-width: 2; stroke-linecap: square"/>
   </g>
   <g id="line2d_27">
    <path d="M 660.202597 331.336156 
L 747.163636 331.336156 
" clip-path="url(#p7acdcfca7d)" style="fill: none; stroke: #ff7f0e; stroke-width: 2; stroke-linecap: square"/>
   </g>
   <g id="line2d_28">
    <path d="M 225.397403 215.218467 
L 229.974299 191.710866 
L 234.551196 171.049263 
L 239.128093 153.233657 
L 243.70499 138.26405 
L 248.281887 126.140439 
L 252.858783 116.862827 
L 257.43568 110.431212 
L 262.012577 106.845595 
L 266.589474 106.105976 
L 271.16637 108.212354 
L 275.743267 113.16473 
L 280.320164 120.963104 
L 284.897061 131.607475 
L 289.473958 145.097844 
L 294.050854 161.434211 
L 298.627751 180.616576 
L 303.204648 202.644938 
L 307.781545 227.519298 
L 312.358442 255.239655 
" clip-path="url(#p7acdcfca7d)" style="fill: none; stroke-dasharray: 7.4,3.2; stroke-dashoffset: 0; stroke: #ff7f0e; stroke-width: 2"/>
   </g>
   <g id="line2d_29">
    <path d="M 399.319481 255.239655 
L 403.896377 231.732054 
L 408.473274 211.070451 
L 413.050171 193.254845 
L 417.627068 178.285238 
L 422.203964 166.161627 
L 426.780861 156.884015 
L 431.357758 150.4524 
L 435.934655 146.866783 
L 440.511552 146.127164 
L 445.088448 148.233542 
L 449.665345 153.185918 
L 454.242242 160.984292 
L 458.819139 171.628663 
L 463.396036 185.119032 
L 467.972932 201.455399 
L 472.549829 220.637764 
L 477.126726 242.666126 
L 481.703623 267.540486 
L 486.280519 295.260843 
" clip-path="url(#p7acdcfca7d)" style="fill: none; stroke-dasharray: 7.4,3.2; stroke-dashoffset: 0; stroke: #ff7f0e; stroke-width: 2"/>
   </g>
   <g id="line2d_30">
    <path d="M 573.241558 295.260843 
L 577.818455 273.017487 
L 582.395352 253.456582 
L 586.972249 236.578127 
L 591.549146 222.382123 
L 596.126042 210.86857 
L 600.702939 202.037468 
L 605.279836 195.888816 
L 609.856733 192.422616 
L 614.43363 191.638865 
L 619.010526 193.537566 
L 623.587423 198.118717 
L 628.16432 205.38232 
L 632.741217 215.328373 
L 637.318113 227.956876 
L 641.89501 243.267831 
L 646.471907 261.261236 
L 651.048804 281.937092 
L 655.625701 305.295398 
L 660.202597 331.336156 
" clip-path="url(#p7acdcfca7d)" style="fill: none; stroke-dasharray: 12.8,3.2,2,3.2; stroke-dashoffset: 0; stroke: #ff7f0e; stroke-width: 2"/>
   </g>
   <g id="line2d_31">
    <path d="M 138.436364 215.218467 
L 225.397403 215.218467 
" clip-path="url(#p7acdcfca7d)" style="fill: none; stroke: #2ca02c; stroke-width: 2; stroke-linecap: square"/>
   </g>
   <g id="line2d_32">
    <path d="M 312.358442 205.447733 
L 399.319481 205.447733 
" clip-path="url(#p7acdcfca7d)" style="fill: none; stroke: #2ca02c; stroke-width: 2; stroke-linecap: square"/>
   </g>
   <g id="line2d_33">
    <path d="M 486.280519 195.676999 
L 573.241558 195.676999 
" clip-path="url(#p7acdcfca7d)" style="fill: none; stroke: #2ca02c; stroke-width: 2; stroke-linecap: square"/>
   </g>
   <g id="line2d_34">
    <path d="M 660.202597 231.752311 
L 747.163636 231.752311 
" clip-path="url(#p7acdcfca7d)" style="fill: none; stroke: #2ca02c; stroke-width: 2; stroke-linecap: square"/>
   </g>
   <g id="line2d_35">
    <path d="M 225.397403 215.218467 
L 229.974299 190.26717 
L 234.551196 168.0311 
L 239.128093 148.510258 
L 243.70499 131.704643 
L 248.281887 117.614256 
L 252.858783 106.239096 
L 257.43568 97.579164 
L 262.012577 91.63446 
L 266.589474 88.404983 
L 271.16637 87.890734 
L 275.743267 90.091713 
L 280.320164 95.007919 
L 284.897061 102.639352 
L 289.473958 112.986013 
L 294.050854 126.047902 
L 298.627751 141.825019 
L 303.204648 160.317362 
L 307.781545 181.524934 
L 312.358442 205.447733 
" clip-path="url(#p7acdcfca7d)" style="fill: none; stroke-dasharray: 7.4,3.2; stroke-dashoffset: 0; stroke: #2ca02c; stroke-width: 2"/>
   </g>
   <g id="line2d_36">
    <path d="M 399.319481 205.447733 
L 403.896377 180.496436 
L 408.473274 158.260366 
L 413.050171 138.739524 
L 417.627068 121.933909 
L 422.203964 107.843522 
L 426.780861 96.468362 
L 431.357758 87.80843 
L 435.934655 81.863726 
L 440.511552 78.634249 
L 445.088448 78.12 
L 449.665345 80.320978 
L 454.242242 85.237184 
L 458.819139 92.868618 
L 463.396036 103.215279 
L 467.972932 116.277168 
L 472.549829 132.054284 
L 477.126726 150.546628 
L 481.703623 171.7542 
L 486.280519 195.676999 
" clip-path="url(#p7acdcfca7d)" style="fill: none; stroke-dasharray: 7.4,3.2; stroke-dashoffset: 0; stroke: #2ca02c; stroke-width: 2"/>
   </g>
   <g id="line2d_37">
    <path d="M 573.241558 195.676999 
L 577.818455 173.433643 
L 582.395352 153.872738 
L 586.972249 136.994283 
L 591.549146 122.798279 
L 596.126042 111.284726 
L 600.702939 102.453624 
L 605.279836 96.304972 
L 609.856733 92.838771 
L 614.43363 92.055021 
L 619.010526 93.953722 
L 623.587423 98.534873 
L 628.16432 105.798475 
L 632.741217 115.744528 
L 637.318113 128.373032 
L 641.89501 143.683986 
L 646.471907 161.677391 
L 651.048804 182.353247 
L 655.625701 205.711554 
L 660.202597 231.752311 
" clip-path="url(#p7acdcfca7d)" style="fill: none; stroke-dasharray: 12.8,3.2,2,3.2; stroke-dashoffset: 0; stroke: #2ca02c; stroke-width: 2"/>
   </g>
   <g id="line2d_38">
    <path d="M 138.436364 215.218467 
L 225.397403 215.218467 
" clip-path="url(#p7acdcfca7d)" style="fill: none; stroke: #1f77b4; stroke-width: 2; stroke-linecap: square"/>
   </g>
   <g id="line2d_39">
    <path d="M 312.358442 305.031577 
L 399.319481 305.031577 
" clip-path="url(#p7acdcfca7d)" style="fill: none; stroke: #1f77b4; stroke-width: 2; stroke-linecap: square"/>
   </g>
   <g id="line2d_40">
    <path d="M 486.280519 430.92 
L 573.241558 430.92 
" clip-path="url(#p7acdcfca7d)" style="fill: none; stroke: #1f77b4; stroke-width: 2; stroke-linecap: square"/>
   </g>
   <g id="line2d_41">
    <path d="M 225.397403 215.218467 
L 229.974299 193.614987 
L 234.551196 174.937117 
L 239.128093 159.184856 
L 243.70499 146.358205 
L 248.281887 136.457163 
L 252.858783 129.48173 
L 257.43568 125.431908 
L 262.012577 124.307694 
L 266.589474 126.109091 
L 271.16637 130.836097 
L 275.743267 138.488712 
L 280.320164 149.066937 
L 284.897061 162.570771 
L 289.473958 179.000215 
L 294.050854 198.355268 
L 298.627751 220.635931 
L 303.204648 245.842204 
L 307.781545 273.974086 
L 312.358442 305.031577 
" clip-path="url(#p7acdcfca7d)" style="fill: none; stroke-dasharray: 7.4,3.2; stroke-dashoffset: 0; stroke: #1f77b4; stroke-width: 2"/>
   </g>
   <g id="line2d_42">
    <path d="M 399.319481 305.031577 
L 403.896377 289.273485 
L 408.473274 276.002482 
L 413.050171 265.218567 
L 417.627068 256.921741 
L 422.203964 251.112003 
L 426.780861 247.789355 
L 431.357758 246.953795 
L 435.934655 248.605324 
L 440.511552 252.743942 
L 445.088448 259.369648 
L 449.665345 268.482443 
L 454.242242 280.082327 
L 458.819139 294.1693 
L 463.396036 310.743361 
L 467.972932 329.804512 
L 472.549829 351.352751 
L 477.126726 375.388078 
L 481.703623 401.910495 
L 486.280519 430.92 
" clip-path="url(#p7acdcfca7d)" style="fill: none; stroke-dasharray: 2,3.3; stroke-dashoffset: 0; stroke: #1f77b4; stroke-width: 2"/>
   </g>
   <g id="line2d_43">
    <path d="M 138.436364 215.218467 
L 225.397403 215.218467 
" clip-path="url(#p7acdcfca7d)" style="fill: none; stroke: #ff7f0e; stroke-width: 2; stroke-linecap: square"/>
   </g>
   <g id="line2d_44">
    <path d="M 312.358442 255.239655 
L 399.319481 255.239655 
" clip-path="url(#p7acdcfca7d)" style="fill: none; stroke: #ff7f0e; stroke-width: 2; stroke-linecap: square"/>
   </g>
   <g id="line2d_45">
    <path d="M 486.280519 331.336156 
L 573.241558 331.336156 
" clip-path="url(#p7acdcfca7d)" style="fill: none; stroke: #ff7f0e; stroke-width: 2; stroke-linecap: square"/>
   </g>
   <g id="line2d_46">
    <path d="M 225.397403 215.218467 
L 229.974299 191.710866 
L 234.551196 171.049263 
L 239.128093 153.233657 
L 243.70499 138.26405 
L 248.281887 126.140439 
L 252.858783 116.862827 
L 257.43568 110.431212 
L 262.012577 106.845595 
L 266.589474 106.105976 
L 271.16637 108.212354 
L 275.743267 113.16473 
L 280.320164 120.963104 
L 284.897061 131.607475 
L 289.473958 145.097844 
L 294.050854 161.434211 
L 298.627751 180.616576 
L 303.204648 202.644938 
L 307.781545 227.519298 
L 312.358442 255.239655 
" clip-path="url(#p7acdcfca7d)" style="fill: none; stroke-dasharray: 7.4,3.2; stroke-dashoffset: 0; stroke: #ff7f0e; stroke-width: 2"/>
   </g>
   <g id="line2d_47">
    <path d="M 399.319481 255.239655 
L 403.896377 236.356212 
L 408.473274 220.015937 
L 413.050171 206.218832 
L 417.627068 194.964896 
L 422.203964 186.254129 
L 426.780861 180.086531 
L 431.357758 176.462103 
L 435.934655 175.380843 
L 440.511552 176.842753 
L 445.088448 180.847832 
L 449.665345 187.39608 
L 454.242242 196.487497 
L 458.819139 208.122084 
L 463.396036 222.29984 
L 467.972932 239.020764 
L 472.549829 258.284858 
L 477.126726 280.092122 
L 481.703623 304.442554 
L 486.280519 331.336156 
" clip-path="url(#p7acdcfca7d)" style="fill: none; stroke-dasharray: 2,3.3; stroke-dashoffset: 0; stroke: #ff7f0e; stroke-width: 2"/>
   </g>
   <g id="line2d_48">
    <path d="M 138.436364 215.218467 
L 225.397403 215.218467 
" clip-path="url(#p7acdcfca7d)" style="fill: none; stroke: #2ca02c; stroke-width: 2; stroke-linecap: square"/>
   </g>
   <g id="line2d_49">
    <path d="M 312.358442 205.447733 
L 399.319481 205.447733 
" clip-path="url(#p7acdcfca7d)" style="fill: none; stroke: #2ca02c; stroke-width: 2; stroke-linecap: square"/>
   </g>
   <g id="line2d_50">
    <path d="M 486.280519 231.752311 
L 573.241558 231.752311 
" clip-path="url(#p7acdcfca7d)" style="fill: none; stroke: #2ca02c; stroke-width: 2; stroke-linecap: square"/>
   </g>
   <g id="line2d_51">
    <path d="M 225.397403 215.218467 
L 229.974299 190.26717 
L 234.551196 168.0311 
L 239.128093 148.510258 
L 243.70499 131.704643 
L 248.281887 117.614256 
L 252.858783 106.239096 
L 257.43568 97.579164 
L 262.012577 91.63446 
L 266.589474 88.404983 
L 271.16637 87.890734 
L 275.743267 90.091713 
L 280.320164 95.007919 
L 284.897061 102.639352 
L 289.473958 112.986013 
L 294.050854 126.047902 
L 298.627751 141.825019 
L 303.204648 160.317362 
L 307.781545 181.524934 
L 312.358442 205.447733 
" clip-path="url(#p7acdcfca7d)" style="fill: none; stroke-dasharray: 7.4,3.2; stroke-dashoffset: 0; stroke: #2ca02c; stroke-width: 2"/>
   </g>
   <g id="line2d_52">
    <path d="M 399.319481 205.447733 
L 403.896377 184.016587 
L 408.473274 165.120507 
L 413.050171 148.759493 
L 417.627068 134.933546 
L 422.203964 123.642665 
L 426.780861 114.886851 
L 431.357758 108.666103 
L 435.934655 104.980422 
L 440.511552 103.829807 
L 445.088448 105.214259 
L 449.665345 109.133777 
L 454.242242 115.588361 
L 458.819139 124.578012 
L 463.396036 136.102729 
L 467.972932 150.162513 
L 472.549829 166.757363 
L 477.126726 185.887279 
L 481.703623 207.552262 
L 486.280519 231.752311 
" clip-path="url(#p7acdcfca7d)" style="fill: none; stroke-dasharray: 2,3.3; stroke-dashoffset: 0; stroke: #2ca02c; stroke-width: 2"/>
   </g>
   <g id="patch_3">
    <path d="M 108 448.56 
L 108 60.48 
" style="fill: none; stroke: #000000; stroke-width: 0.8; stroke-linejoin: miter; stroke-linecap: square"/>
   </g>
   <g id="patch_4">
    <path d="M 777.6 448.56 
L 777.6 60.48 
" style="fill: none; stroke: #000000; stroke-width: 0.8; stroke-linejoin: miter; stroke-linecap: square"/>
   </g>
   <g id="patch_5">
    <path d="M 108 448.56 
L 777.6 448.56 
" style="fill: none; stroke: #000000; stroke-width: 0.8; stroke-linejoin: miter; stroke-linecap: square"/>
   </g>
   <g id="patch_6">
    <path d="M 108 60.48 
L 777.6 60.48 
" style="fill: none; stroke: #000000; stroke-width: 0.8; stroke-linejoin: miter; stroke-linecap: square"/>
   </g>
  </g>
 </g>
 <defs>
  <clipPath id="p7acdcfca7d">
   <rect x="108" y="60.48" width="669.6" height="388.08"/>
  </clipPath>
 </defs>
</svg>
