<?xml version="1.0" encoding="utf-8" standalone="no"?>
<!DOCTYPE svg PUBLIC "-//W3C//DTD SVG 1.1//EN"
  "http://www.w3.org/Graphics/SVG/1.1/DTD/svg11.dtd">
<svg xmlns:xlink="http://www.w3.org/1999/xlink" width="864pt" height="504pt" viewBox="0 0 864 504" xmlns="http://www.w3.org/2000/svg" version="1.1">
 <metadata>
  <rdf:RDF xmlns:dc="http://purl.org/dc/elements/1.1/" xmlns:cc="http://creativecommons.org/ns#" xmlns:rdf="http://www.w3.org/1999/02/22-rdf-syntax-ns#">
   <cc:Work>
    <dc:type rdf:resource="http://purl.org/dc/dcmitype/StillImage"/>
    <dc:date>2025-05-21T01:09:12.675758</dc:date>
    <dc:format>image/svg+xml</dc:format>
    <dc:creator>
     <cc:Agent>
      <dc:title>Matplotlib v3.7.2, https://matplotlib.org/</dc:title>
     </cc:Agent>
    </dc:creator>
   </cc:Work>
  </rdf:RDF>
 </metadata>
 <defs>
  <style type="text/css">*{stroke-linejoin: round; stroke-linecap: butt}</style>
 </defs>
 <g id="figure_1">
  <g id="patch_1">
   <path d="M 0 504 
L 864 504 
L 864 0 
L 0 0 
z
" style="fill: #ffffff"/>
  </g>
  <g id="axes_1">
   <g id="patch_2">
    <path d="M 108 448.56 
L 777.6 448.56 
L 777.6 60.48 
L 108 60.48 
z
" style="fill: #ffffff"/>
   </g>
   <g id="matplotlib.axis_1">
    <g id="xtick_1">
     <g id="line2d_1">
      <defs>
       <path id="m7f02473f4a" d="M 0 0 
L 0 3.5 
" style="stroke: #000000; stroke-width: 0.8"/>
      </defs>
      <g>
       <use xlink:href="#m7f02473f4a" x="138.436364" y="448.56" style="stroke: #000000; stroke-width: 0.8"/>
      </g>
     </g>
     <g id="text_1">
      <!-- 0.0 -->
      <g transform="translate(124.123551 469.237188) scale(0.18 -0.18)">
       <defs>
        <path id="DejaVuSerif-30" d="M 2034 219 
Q 2513 219 2750 744 
Q 2988 1269 2988 2328 
Q 2988 3391 2750 3916 
Q 2513 4441 2034 4441 
Q 1556 4441 1318 3916 
Q 1081 3391 1081 2328 
Q 1081 1269 1318 744 
Q 1556 219 2034 219 
z
M 2034 -91 
Q 1275 -91 848 546 
Q 422 1184 422 2328 
Q 422 3475 848 4112 
Q 1275 4750 2034 4750 
Q 2797 4750 3222 4112 
Q 3647 3475 3647 2328 
Q 3647 1184 3222 546 
Q 2797 -91 2034 -91 
z
" transform="scale(0.015625)"/>
        <path id="DejaVuSerif-2e" d="M 603 325 
Q 603 500 722 622 
Q 841 744 1019 744 
Q 1191 744 1312 622 
Q 1434 500 1434 325 
Q 1434 153 1312 31 
Q 1191 -91 1019 -91 
Q 841 -91 722 29 
Q 603 150 603 325 
z
" transform="scale(0.015625)"/>
       </defs>
       <use xlink:href="#DejaVuSerif-30"/>
       <use xlink:href="#DejaVuSerif-2e" x="63.623047"/>
       <use xlink:href="#DejaVuSerif-30" x="95.410156"/>
      </g>
     </g>
    </g>
    <g id="xtick_2">
     <g id="line2d_2">
      <g>
       <use xlink:href="#m7f02473f4a" x="225.397403" y="448.56" style="stroke: #000000; stroke-width: 0.8"/>
      </g>
     </g>
     <g id="text_2">
      <!-- 0.5 -->
      <g transform="translate(211.08459 469.237188) scale(0.18 -0.18)">
       <defs>
        <path id="DejaVuSerif-35" d="M 3219 4666 
L 3219 4153 
L 1081 4153 
L 1081 2816 
Q 1244 2928 1461 2984 
Q 1678 3041 1947 3041 
Q 2703 3041 3140 2622 
Q 3578 2203 3578 1478 
Q 3578 738 3136 323 
Q 2694 -91 1894 -91 
Q 1572 -91 1234 -12 
Q 897 66 544 225 
L 544 1131 
L 897 1131 
Q 925 688 1179 453 
Q 1434 219 1894 219 
Q 2388 219 2653 544 
Q 2919 869 2919 1478 
Q 2919 2084 2655 2407 
Q 2391 2731 1894 2731 
Q 1613 2731 1398 2631 
Q 1184 2531 1019 2322 
L 750 2322 
L 750 4666 
L 3219 4666 
z
" transform="scale(0.015625)"/>
       </defs>
       <use xlink:href="#DejaVuSerif-30"/>
       <use xlink:href="#DejaVuSerif-2e" x="63.623047"/>
       <use xlink:href="#DejaVuSerif-35" x="95.410156"/>
      </g>
     </g>
    </g>
    <g id="xtick_3">
     <g id="line2d_3">
      <g>
       <use xlink:href="#m7f02473f4a" x="312.358442" y="448.56" style="stroke: #000000; stroke-width: 0.8"/>
      </g>
     </g>
     <g id="text_3">
      <!-- 1.0 -->
      <g transform="translate(298.045629 469.237188) scale(0.18 -0.18)">
       <defs>
        <path id="DejaVuSerif-31" d="M 909 0 
L 909 331 
L 1722 331 
L 1722 4213 
L 781 3603 
L 781 4013 
L 1919 4750 
L 2350 4750 
L 2350 331 
L 3163 331 
L 3163 0 
L 909 0 
z
" transform="scale(0.015625)"/>
       </defs>
       <use xlink:href="#DejaVuSerif-31"/>
       <use xlink:href="#DejaVuSerif-2e" x="63.623047"/>
       <use xlink:href="#DejaVuSerif-30" x="95.410156"/>
      </g>
     </g>
    </g>
    <g id="xtick_4">
     <g id="line2d_4">
      <g>
       <use xlink:href="#m7f02473f4a" x="399.319481" y="448.56" style="stroke: #000000; stroke-width: 0.8"/>
      </g>
     </g>
     <g id="text_4">
      <!-- 1.5 -->
      <g transform="translate(385.006668 469.237188) scale(0.18 -0.18)">
       <use xlink:href="#DejaVuSerif-31"/>
       <use xlink:href="#DejaVuSerif-2e" x="63.623047"/>
       <use xlink:href="#DejaVuSerif-35" x="95.410156"/>
      </g>
     </g>
    </g>
    <g id="xtick_5">
     <g id="line2d_5">
      <g>
       <use xlink:href="#m7f02473f4a" x="486.280519" y="448.56" style="stroke: #000000; stroke-width: 0.8"/>
      </g>
     </g>
     <g id="text_5">
      <!-- 2.0 -->
      <g transform="translate(471.967707 469.237188) scale(0.18 -0.18)">
       <defs>
        <path id="DejaVuSerif-32" d="M 819 3553 
L 469 3553 
L 469 4384 
Q 803 4563 1142 4656 
Q 1481 4750 1806 4750 
Q 2534 4750 2956 4397 
Q 3378 4044 3378 3438 
Q 3378 2753 2422 1800 
Q 2347 1728 2309 1691 
L 1131 513 
L 3078 513 
L 3078 1088 
L 3444 1088 
L 3444 0 
L 434 0 
L 434 341 
L 1850 1753 
Q 2319 2222 2519 2614 
Q 2719 3006 2719 3438 
Q 2719 3909 2473 4175 
Q 2228 4441 1797 4441 
Q 1350 4441 1106 4219 
Q 863 3997 819 3553 
z
" transform="scale(0.015625)"/>
       </defs>
       <use xlink:href="#DejaVuSerif-32"/>
       <use xlink:href="#DejaVuSerif-2e" x="63.623047"/>
       <use xlink:href="#DejaVuSerif-30" x="95.410156"/>
      </g>
     </g>
    </g>
    <g id="xtick_6">
     <g id="line2d_6">
      <g>
       <use xlink:href="#m7f02473f4a" x="573.241558" y="448.56" style="stroke: #000000; stroke-width: 0.8"/>
      </g>
     </g>
     <g id="text_6">
      <!-- 2.5 -->
      <g transform="translate(558.928746 469.237188) scale(0.18 -0.18)">
       <use xlink:href="#DejaVuSerif-32"/>
       <use xlink:href="#DejaVuSerif-2e" x="63.623047"/>
       <use xlink:href="#DejaVuSerif-35" x="95.410156"/>
      </g>
     </g>
    </g>
    <g id="xtick_7">
     <g id="line2d_7">
      <g>
       <use xlink:href="#m7f02473f4a" x="660.202597" y="448.56" style="stroke: #000000; stroke-width: 0.8"/>
      </g>
     </g>
     <g id="text_7">
      <!-- 3.0 -->
      <g transform="translate(645.889785 469.237188) scale(0.18 -0.18)">
       <defs>
        <path id="DejaVuSerif-33" d="M 622 4469 
Q 988 4606 1323 4678 
Q 1659 4750 1953 4750 
Q 2638 4750 3022 4454 
Q 3406 4159 3406 3634 
Q 3406 3213 3140 2930 
Q 2875 2647 2388 2547 
Q 2963 2466 3280 2130 
Q 3597 1794 3597 1259 
Q 3597 606 3158 257 
Q 2719 -91 1894 -91 
Q 1528 -91 1179 -12 
Q 831 66 488 225 
L 488 1131 
L 838 1131 
Q 869 681 1141 450 
Q 1413 219 1906 219 
Q 2384 219 2661 495 
Q 2938 772 2938 1253 
Q 2938 1803 2653 2086 
Q 2369 2369 1819 2369 
L 1522 2369 
L 1522 2688 
L 1678 2688 
Q 2225 2688 2498 2914 
Q 2772 3141 2772 3597 
Q 2772 4006 2547 4223 
Q 2322 4441 1900 4441 
Q 1478 4441 1245 4241 
Q 1013 4041 972 3647 
L 622 3647 
L 622 4469 
z
" transform="scale(0.015625)"/>
       </defs>
       <use xlink:href="#DejaVuSerif-33"/>
       <use xlink:href="#DejaVuSerif-2e" x="63.623047"/>
       <use xlink:href="#DejaVuSerif-30" x="95.410156"/>
      </g>
     </g>
    </g>
    <g id="xtick_8">
     <g id="line2d_8">
      <g>
       <use xlink:href="#m7f02473f4a" x="747.163636" y="448.56" style="stroke: #000000; stroke-width: 0.8"/>
      </g>
     </g>
     <g id="text_8">
      <!-- 3.5 -->
      <g transform="translate(732.850824 469.237188) scale(0.18 -0.18)">
       <use xlink:href="#DejaVuSerif-33"/>
       <use xlink:href="#DejaVuSerif-2e" x="63.623047"/>
       <use xlink:href="#DejaVuSerif-35" x="95.410156"/>
      </g>
     </g>
    </g>
   </g>
   <g id="matplotlib.axis_2">
    <g id="ytick_1">
     <g id="line2d_9">
      <defs>
       <path id="me6924072e1" d="M 0 0 
L -3.5 0 
" style="stroke: #000000; stroke-width: 0.8"/>
      </defs>
      <g>
       <use xlink:href="#me6924072e1" x="108" y="400.901699" style="stroke: #000000; stroke-width: 0.8"/>
      </g>
     </g>
     <g id="text_9">
      <!-- −2 -->
      <g transform="translate(74.464062 407.740292) scale(0.18 -0.18)">
       <defs>
        <path id="DejaVuSerif-2212" d="M 678 2259 
L 4684 2259 
L 4684 1753 
L 678 1753 
L 678 2259 
z
" transform="scale(0.015625)"/>
       </defs>
       <use xlink:href="#DejaVuSerif-2212"/>
       <use xlink:href="#DejaVuSerif-32" x="83.789062"/>
      </g>
     </g>
    </g>
    <g id="ytick_2">
     <g id="line2d_10">
      <g>
       <use xlink:href="#me6924072e1" x="108" y="320.100329" style="stroke: #000000; stroke-width: 0.8"/>
      </g>
     </g>
     <g id="text_10">
      <!-- −1 -->
      <g transform="translate(74.464062 326.938923) scale(0.18 -0.18)">
       <use xlink:href="#DejaVuSerif-2212"/>
       <use xlink:href="#DejaVuSerif-31" x="83.789062"/>
      </g>
     </g>
    </g>
    <g id="ytick_3">
     <g id="line2d_11">
      <g>
       <use xlink:href="#me6924072e1" x="108" y="239.29896" style="stroke: #000000; stroke-width: 0.8"/>
      </g>
     </g>
     <g id="text_11">
      <!-- 0 -->
      <g transform="translate(89.5475 246.137554) scale(0.18 -0.18)">
       <use xlink:href="#DejaVuSerif-30"/>
      </g>
     </g>
    </g>
    <g id="ytick_4">
     <g id="line2d_12">
      <g>
       <use xlink:href="#me6924072e1" x="108" y="158.497591" style="stroke: #000000; stroke-width: 0.8"/>
      </g>
     </g>
     <g id="text_12">
      <!-- 1 -->
      <g transform="translate(89.5475 165.336184) scale(0.18 -0.18)">
       <use xlink:href="#DejaVuSerif-31"/>
      </g>
     </g>
    </g>
    <g id="ytick_5">
     <g id="line2d_13">
      <g>
       <use xlink:href="#me6924072e1" x="108" y="77.696221" style="stroke: #000000; stroke-width: 0.8"/>
      </g>
     </g>
     <g id="text_13">
      <!-- 2 -->
      <g transform="translate(89.5475 84.534815) scale(0.18 -0.18)">
       <use xlink:href="#DejaVuSerif-32"/>
      </g>
     </g>
    </g>
    <g id="text_14">
     <!-- $\Delta G$ [eV] -->
     <g transform="translate(67.136562 285.56) rotate(-90) scale(0.16 -0.16)">
      <defs>
       <path id="DejaVuSans-394" d="M 2188 4044 
L 906 525 
L 3472 525 
L 2188 4044 
z
M 50 0 
L 1831 4666 
L 2547 4666 
L 4325 0 
L 50 0 
z
" transform="scale(0.015625)"/>
       <path id="DejaVuSans-Oblique-47" d="M 3494 697 
L 3738 1919 
L 2700 1919 
L 2797 2438 
L 4453 2438 
L 4050 384 
Q 3634 156 3143 32 
Q 2653 -91 2156 -91 
Q 1278 -91 783 396 
Q 288 884 288 1753 
Q 288 2475 589 3126 
Q 891 3778 1422 4213 
Q 1756 4484 2153 4617 
Q 2550 4750 3034 4750 
Q 3472 4750 3873 4639 
Q 4275 4528 4641 4306 
L 4513 3634 
Q 4231 3928 3853 4083 
Q 3475 4238 3047 4238 
Q 2550 4238 2172 4048 
Q 1794 3859 1497 3463 
Q 1244 3125 1098 2667 
Q 953 2209 953 1734 
Q 953 1081 1287 751 
Q 1622 422 2284 422 
Q 2616 422 2925 492 
Q 3234 563 3494 697 
z
" transform="scale(0.015625)"/>
       <path id="DejaVuSerif-20" transform="scale(0.015625)"/>
       <path id="DejaVuSerif-5b" d="M 550 4863 
L 2003 4863 
L 2003 4531 
L 1147 4531 
L 1147 -513 
L 2003 -513 
L 2003 -844 
L 550 -844 
L 550 4863 
z
" transform="scale(0.015625)"/>
       <path id="DejaVuSerif-65" d="M 3469 1600 
L 991 1600 
L 991 1575 
Q 991 903 1244 561 
Q 1497 219 1991 219 
Q 2369 219 2611 417 
Q 2853 616 2950 1006 
L 3413 1006 
Q 3275 459 2904 184 
Q 2534 -91 1931 -91 
Q 1203 -91 761 389 
Q 319 869 319 1663 
Q 319 2450 753 2931 
Q 1188 3413 1894 3413 
Q 2647 3413 3050 2948 
Q 3453 2484 3469 1600 
z
M 2791 1931 
Q 2772 2513 2545 2808 
Q 2319 3103 1894 3103 
Q 1497 3103 1269 2806 
Q 1041 2509 991 1931 
L 2791 1931 
z
" transform="scale(0.015625)"/>
       <path id="DejaVuSerif-56" d="M 1119 4331 
L 2497 750 
L 3872 4331 
L 3347 4331 
L 3347 4666 
L 4716 4666 
L 4716 4331 
L 4263 4331 
L 2597 0 
L 2059 0 
L 403 4331 
L -63 4331 
L -63 4666 
L 1638 4666 
L 1638 4331 
L 1119 4331 
z
" transform="scale(0.015625)"/>
       <path id="DejaVuSerif-5d" d="M 1947 4863 
L 1947 -844 
L 494 -844 
L 494 -513 
L 1350 -513 
L 1350 4531 
L 494 4531 
L 494 4863 
L 1947 4863 
z
" transform="scale(0.015625)"/>
      </defs>
      <use xlink:href="#DejaVuSans-394" transform="translate(0 0.015625)"/>
      <use xlink:href="#DejaVuSans-Oblique-47" transform="translate(68.408203 0.015625)"/>
      <use xlink:href="#DejaVuSerif-20" transform="translate(145.898438 0.015625)"/>
      <use xlink:href="#DejaVuSerif-5b" transform="translate(177.685547 0.015625)"/>
      <use xlink:href="#DejaVuSerif-65" transform="translate(216.699219 0.015625)"/>
      <use xlink:href="#DejaVuSerif-56" transform="translate(275.878906 0.015625)"/>
      <use xlink:href="#DejaVuSerif-5d" transform="translate(348.095703 0.015625)"/>
     </g>
    </g>
   </g>
   <g id="line2d_14">
    <path d="M 138.436364 239.29896 
L 225.397403 239.29896 
" clip-path="url(#pe9bc8c794c)" style="fill: none; stroke: #1f77b4; stroke-width: 2; stroke-linecap: square"/>
   </g>
   <g id="line2d_15">
    <path d="M 312.358442 335.10948 
L 399.319481 335.10948 
" clip-path="url(#pe9bc8c794c)" style="fill: none; stroke: #1f77b4; stroke-width: 2; stroke-linecap: square"/>
   </g>
   <g id="line2d_16">
    <path d="M 486.280519 430.92 
L 573.241558 430.92 
" clip-path="url(#pe9bc8c794c)" style="fill: none; stroke: #1f77b4; stroke-width: 2; stroke-linecap: square"/>
   </g>
   <g id="line2d_17">
    <path d="M 660.202597 414.3171 
L 747.163636 414.3171 
" clip-path="url(#pe9bc8c794c)" style="fill: none; stroke: #1f77b4; stroke-width: 2; stroke-linecap: square"/>
   </g>
   <g id="line2d_18">
    <path d="M 225.397403 239.29896 
L 229.974299 228.667241 
L 234.551196 219.777119 
L 239.128093 212.628595 
L 243.70499 207.221669 
L 248.281887 203.55634 
L 252.858783 201.632609 
L 257.43568 201.450475 
L 262.012577 203.009939 
L 266.589474 206.311 
L 271.16637 211.353659 
L 275.743267 218.137916 
L 280.320164 226.66377 
L 284.897061 236.931221 
L 289.473958 248.940271 
L 294.050854 262.690917 
L 298.627751 278.183162 
L 303.204648 295.417004 
L 307.781545 314.392443 
L 312.358442 335.10948 
" clip-path="url(#pe9bc8c794c)" style="fill: none; stroke-dasharray: 7.4,3.2; stroke-dashoffset: 0; stroke: #1f77b4; stroke-width: 2"/>
   </g>
   <g id="line2d_19">
    <path d="M 399.319481 335.10948 
L 403.896377 324.477761 
L 408.473274 315.587639 
L 413.050171 308.439115 
L 417.627068 303.032189 
L 422.203964 299.36686 
L 426.780861 297.443129 
L 431.357758 297.260995 
L 435.934655 298.820459 
L 440.511552 302.12152 
L 445.088448 307.164179 
L 449.665345 313.948436 
L 454.242242 322.47429 
L 458.819139 332.741741 
L 463.396036 344.750791 
L 467.972932 358.501437 
L 472.549829 373.993682 
L 477.126726 391.227524 
L 481.703623 410.202963 
L 486.280519 430.92 
" clip-path="url(#pe9bc8c794c)" style="fill: none; stroke-dasharray: 7.4,3.2; stroke-dashoffset: 0; stroke: #1f77b4; stroke-width: 2"/>
   </g>
   <g id="line2d_20">
    <path d="M 573.241558 430.92 
L 577.818455 419.21384 
L 582.395352 408.711272 
L 586.972249 399.412295 
L 591.549146 391.316909 
L 596.126042 384.425115 
L 600.702939 378.736913 
L 605.279836 374.252302 
L 609.856733 370.971282 
L 614.43363 368.893854 
L 619.010526 368.020017 
L 623.587423 368.349771 
L 628.16432 369.883117 
L 632.741217 372.620055 
L 637.318113 376.560584 
L 641.89501 381.704704 
L 646.471907 388.052416 
L 651.048804 395.603719 
L 655.625701 404.358614 
L 660.202597 414.3171 
" clip-path="url(#pe9bc8c794c)" style="fill: none; stroke-dasharray: 12.8,3.2,2,3.2; stroke-dashoffset: 0; stroke: #1f77b4; stroke-width: 2"/>
   </g>
   <g id="line2d_21">
    <path d="M 138.436364 239.29896 
L 225.397403 239.29896 
" clip-path="url(#pe9bc8c794c)" style="fill: none; stroke: #ff7f0e; stroke-width: 2; stroke-linecap: square"/>
   </g>
   <g id="line2d_22">
    <path d="M 312.358442 294.708795 
L 399.319481 294.708795 
" clip-path="url(#pe9bc8c794c)" style="fill: none; stroke: #ff7f0e; stroke-width: 2; stroke-linecap: square"/>
   </g>
   <g id="line2d_23">
    <path d="M 486.280519 350.118631 
L 573.241558 350.118631 
" clip-path="url(#pe9bc8c794c)" style="fill: none; stroke: #ff7f0e; stroke-width: 2; stroke-linecap: square"/>
   </g>
   <g id="line2d_24">
    <path d="M 660.202597 333.515731 
L 747.163636 333.515731 
" clip-path="url(#pe9bc8c794c)" style="fill: none; stroke: #ff7f0e; stroke-width: 2; stroke-linecap: square"/>
   </g>
   <g id="line2d_25">
    <path d="M 225.397403 239.29896 
L 229.974299 226.061538 
L 234.551196 214.618975 
L 239.128093 204.971271 
L 243.70499 197.118425 
L 248.281887 191.060439 
L 252.858783 186.797311 
L 257.43568 184.329042 
L 262.012577 183.655631 
L 266.589474 184.77708 
L 271.16637 187.693387 
L 275.743267 192.404553 
L 280.320164 198.910577 
L 284.897061 207.211461 
L 289.473958 217.307203 
L 294.050854 229.197804 
L 298.627751 242.883264 
L 303.204648 258.363582 
L 307.781545 275.638759 
L 312.358442 294.708795 
" clip-path="url(#pe9bc8c794c)" style="fill: none; stroke-dasharray: 7.4,3.2; stroke-dashoffset: 0; stroke: #ff7f0e; stroke-width: 2"/>
   </g>
   <g id="line2d_26">
    <path d="M 399.319481 294.708795 
L 403.896377 281.471374 
L 408.473274 270.028811 
L 413.050171 260.381106 
L 417.627068 252.528261 
L 422.203964 246.470274 
L 426.780861 242.207146 
L 431.357758 239.738877 
L 435.934655 239.065466 
L 440.511552 240.186915 
L 445.088448 243.103222 
L 449.665345 247.814388 
L 454.242242 254.320413 
L 458.819139 262.621296 
L 463.396036 272.717038 
L 467.972932 284.607639 
L 472.549829 298.293099 
L 477.126726 313.773417 
L 481.703623 331.048595 
L 486.280519 350.118631 
" clip-path="url(#pe9bc8c794c)" style="fill: none; stroke-dasharray: 7.4,3.2; stroke-dashoffset: 0; stroke: #ff7f0e; stroke-width: 2"/>
   </g>
   <g id="line2d_27">
    <path d="M 573.241558 350.118631 
L 577.818455 338.412471 
L 582.395352 327.909903 
L 586.972249 318.610926 
L 591.549146 310.51554 
L 596.126042 303.623746 
L 600.702939 297.935543 
L 605.279836 293.450932 
L 609.856733 290.169913 
L 614.43363 288.092484 
L 619.010526 287.218648 
L 623.587423 287.548402 
L 628.16432 289.081748 
L 632.741217 291.818686 
L 637.318113 295.759215 
L 641.89501 300.903335 
L 646.471907 307.251047 
L 651.048804 314.80235 
L 655.625701 323.557245 
L 660.202597 333.515731 
" clip-path="url(#pe9bc8c794c)" style="fill: none; stroke-dasharray: 12.8,3.2,2,3.2; stroke-dashoffset: 0; stroke: #ff7f0e; stroke-width: 2"/>
   </g>
   <g id="line2d_28">
    <path d="M 138.436364 239.29896 
L 225.397403 239.29896 
" clip-path="url(#pe9bc8c794c)" style="fill: none; stroke: #2ca02c; stroke-width: 2; stroke-linecap: square"/>
   </g>
   <g id="line2d_29">
    <path d="M 312.358442 254.308111 
L 399.319481 254.308111 
" clip-path="url(#pe9bc8c794c)" style="fill: none; stroke: #2ca02c; stroke-width: 2; stroke-linecap: square"/>
   </g>
   <g id="line2d_30">
    <path d="M 486.280519 269.317261 
L 573.241558 269.317261 
" clip-path="url(#pe9bc8c794c)" style="fill: none; stroke: #2ca02c; stroke-width: 2; stroke-linecap: square"/>
   </g>
   <g id="line2d_31">
    <path d="M 660.202597 252.714361 
L 747.163636 252.714361 
" clip-path="url(#pe9bc8c794c)" style="fill: none; stroke: #2ca02c; stroke-width: 2; stroke-linecap: square"/>
   </g>
   <g id="line2d_32">
    <path d="M 225.397403 239.29896 
L 229.974299 224.001603 
L 234.551196 210.491725 
L 239.128093 198.769327 
L 243.70499 188.834407 
L 248.281887 180.686967 
L 252.858783 174.327006 
L 257.43568 169.754523 
L 262.012577 166.96952 
L 266.589474 165.971997 
L 271.16637 166.761952 
L 275.743267 169.339386 
L 280.320164 173.7043 
L 284.897061 179.856693 
L 289.473958 187.796564 
L 294.050854 197.523915 
L 298.627751 209.038746 
L 303.204648 222.341055 
L 307.781545 237.430843 
L 312.358442 254.308111 
" clip-path="url(#pe9bc8c794c)" style="fill: none; stroke-dasharray: 7.4,3.2; stroke-dashoffset: 0; stroke: #2ca02c; stroke-width: 2"/>
   </g>
   <g id="line2d_33">
    <path d="M 399.319481 254.308111 
L 403.896377 239.010754 
L 408.473274 225.500876 
L 413.050171 213.778477 
L 417.627068 203.843558 
L 422.203964 195.696117 
L 426.780861 189.336156 
L 431.357758 184.763674 
L 435.934655 181.978671 
L 440.511552 180.981147 
L 445.088448 181.771103 
L 449.665345 184.348537 
L 454.242242 188.713451 
L 458.819139 194.865843 
L 463.396036 202.805715 
L 467.972932 212.533066 
L 472.549829 224.047896 
L 477.126726 237.350205 
L 481.703623 252.439994 
L 486.280519 269.317261 
" clip-path="url(#pe9bc8c794c)" style="fill: none; stroke-dasharray: 7.4,3.2; stroke-dashoffset: 0; stroke: #2ca02c; stroke-width: 2"/>
   </g>
   <g id="line2d_34">
    <path d="M 573.241558 269.317261 
L 577.818455 257.611102 
L 582.395352 247.108533 
L 586.972249 237.809556 
L 591.549146 229.714171 
L 596.126042 222.822377 
L 600.702939 217.134174 
L 605.279836 212.649563 
L 609.856733 209.368543 
L 614.43363 207.291115 
L 619.010526 206.417278 
L 623.587423 206.747033 
L 628.16432 208.280379 
L 632.741217 211.017316 
L 637.318113 214.957845 
L 641.89501 220.101966 
L 646.471907 226.449677 
L 651.048804 234.000981 
L 655.625701 242.755875 
L 660.202597 252.714361 
" clip-path="url(#pe9bc8c794c)" style="fill: none; stroke-dasharray: 12.8,3.2,2,3.2; stroke-dashoffset: 0; stroke: #2ca02c; stroke-width: 2"/>
   </g>
   <g id="line2d_35">
    <path d="M 138.436364 239.29896 
L 225.397403 239.29896 
" clip-path="url(#pe9bc8c794c)" style="fill: none; stroke: #1f77b4; stroke-width: 2; stroke-linecap: square"/>
   </g>
   <g id="line2d_36">
    <path d="M 312.358442 335.10948 
L 399.319481 335.10948 
" clip-path="url(#pe9bc8c794c)" style="fill: none; stroke: #1f77b4; stroke-width: 2; stroke-linecap: square"/>
   </g>
   <g id="line2d_37">
    <path d="M 486.280519 414.3171 
L 573.241558 414.3171 
" clip-path="url(#pe9bc8c794c)" style="fill: none; stroke: #1f77b4; stroke-width: 2; stroke-linecap: square"/>
   </g>
   <g id="line2d_38">
    <path d="M 225.397403 239.29896 
L 229.974299 228.667241 
L 234.551196 219.777119 
L 239.128093 212.628595 
L 243.70499 207.221669 
L 248.281887 203.55634 
L 252.858783 201.632609 
L 257.43568 201.450475 
L 262.012577 203.009939 
L 266.589474 206.311 
L 271.16637 211.353659 
L 275.743267 218.137916 
L 280.320164 226.66377 
L 284.897061 236.931221 
L 289.473958 248.940271 
L 294.050854 262.690917 
L 298.627751 278.183162 
L 303.204648 295.417004 
L 307.781545 314.392443 
L 312.358442 335.10948 
" clip-path="url(#pe9bc8c794c)" style="fill: none; stroke-dasharray: 7.4,3.2; stroke-dashoffset: 0; stroke: #1f77b4; stroke-width: 2"/>
   </g>
   <g id="line2d_39">
    <path d="M 399.319481 335.10948 
L 403.896377 306.161988 
L 408.473274 280.894087 
L 413.050171 259.305776 
L 417.627068 241.397056 
L 422.203964 227.167926 
L 426.780861 216.618386 
L 431.357758 209.748437 
L 435.934655 206.558078 
L 440.511552 207.04731 
L 445.088448 211.216132 
L 449.665345 219.064544 
L 454.242242 230.592547 
L 458.819139 245.800141 
L 463.396036 264.687325 
L 467.972932 287.254099 
L 472.549829 313.500463 
L 477.126726 343.426419 
L 481.703623 377.031964 
L 486.280519 414.3171 
" clip-path="url(#pe9bc8c794c)" style="fill: none; stroke-dasharray: 2,3.3; stroke-dashoffset: 0; stroke: #1f77b4; stroke-width: 2"/>
   </g>
   <g id="line2d_40">
    <path d="M 138.436364 239.29896 
L 225.397403 239.29896 
" clip-path="url(#pe9bc8c794c)" style="fill: none; stroke: #ff7f0e; stroke-width: 2; stroke-linecap: square"/>
   </g>
   <g id="line2d_41">
    <path d="M 312.358442 294.708795 
L 399.319481 294.708795 
" clip-path="url(#pe9bc8c794c)" style="fill: none; stroke: #ff7f0e; stroke-width: 2; stroke-linecap: square"/>
   </g>
   <g id="line2d_42">
    <path d="M 486.280519 333.515731 
L 573.241558 333.515731 
" clip-path="url(#pe9bc8c794c)" style="fill: none; stroke: #ff7f0e; stroke-width: 2; stroke-linecap: square"/>
   </g>
   <g id="line2d_43">
    <path d="M 225.397403 239.29896 
L 229.974299 226.061538 
L 234.551196 214.618975 
L 239.128093 204.971271 
L 243.70499 197.118425 
L 248.281887 191.060439 
L 252.858783 186.797311 
L 257.43568 184.329042 
L 262.012577 183.655631 
L 266.589474 184.77708 
L 271.16637 187.693387 
L 275.743267 192.404553 
L 280.320164 198.910577 
L 284.897061 207.211461 
L 289.473958 217.307203 
L 294.050854 229.197804 
L 298.627751 242.883264 
L 303.204648 258.363582 
L 307.781545 275.638759 
L 312.358442 294.708795 
" clip-path="url(#pe9bc8c794c)" style="fill: none; stroke-dasharray: 7.4,3.2; stroke-dashoffset: 0; stroke: #ff7f0e; stroke-width: 2"/>
   </g>
   <g id="line2d_44">
    <path d="M 399.319481 294.708795 
L 403.896377 262.532004 
L 408.473274 234.157352 
L 413.050171 209.584841 
L 417.627068 188.81447 
L 422.203964 171.846239 
L 426.780861 158.680149 
L 431.357758 149.316198 
L 435.934655 143.754388 
L 440.511552 141.994718 
L 445.088448 144.037189 
L 449.665345 149.881799 
L 454.242242 159.52855 
L 458.819139 172.977441 
L 463.396036 190.228472 
L 467.972932 211.281643 
L 472.549829 236.136955 
L 477.126726 264.794407 
L 481.703623 297.253999 
L 486.280519 333.515731 
" clip-path="url(#pe9bc8c794c)" style="fill: none; stroke-dasharray: 2,3.3; stroke-dashoffset: 0; stroke: #ff7f0e; stroke-width: 2"/>
   </g>
   <g id="line2d_45">
    <path d="M 138.436364 239.29896 
L 225.397403 239.29896 
" clip-path="url(#pe9bc8c794c)" style="fill: none; stroke: #2ca02c; stroke-width: 2; stroke-linecap: square"/>
   </g>
   <g id="line2d_46">
    <path d="M 312.358442 254.308111 
L 399.319481 254.308111 
" clip-path="url(#pe9bc8c794c)" style="fill: none; stroke: #2ca02c; stroke-width: 2; stroke-linecap: square"/>
   </g>
   <g id="line2d_47">
    <path d="M 486.280519 252.714361 
L 573.241558 252.714361 
" clip-path="url(#pe9bc8c794c)" style="fill: none; stroke: #2ca02c; stroke-width: 2; stroke-linecap: square"/>
   </g>
   <g id="line2d_48">
    <path d="M 225.397403 239.29896 
L 229.974299 224.001603 
L 234.551196 210.491725 
L 239.128093 198.769327 
L 243.70499 188.834407 
L 248.281887 180.686967 
L 252.858783 174.327006 
L 257.43568 169.754523 
L 262.012577 166.96952 
L 266.589474 165.971997 
L 271.16637 166.761952 
L 275.743267 169.339386 
L 280.320164 173.7043 
L 284.897061 179.856693 
L 289.473958 187.796564 
L 294.050854 197.523915 
L 298.627751 209.038746 
L 303.204648 222.341055 
L 307.781545 237.430843 
L 312.358442 254.308111 
" clip-path="url(#pe9bc8c794c)" style="fill: none; stroke-dasharray: 7.4,3.2; stroke-dashoffset: 0; stroke: #2ca02c; stroke-width: 2"/>
   </g>
   <g id="line2d_49">
    <path d="M 399.319481 254.308111 
L 403.896377 219.15437 
L 408.473274 187.89728 
L 413.050171 160.536842 
L 417.627068 137.073054 
L 422.203964 117.505918 
L 426.780861 101.835432 
L 431.357758 90.061598 
L 435.934655 82.184414 
L 440.511552 78.203882 
L 445.088448 78.12 
L 449.665345 81.932769 
L 454.242242 89.64219 
L 458.819139 101.248261 
L 463.396036 116.750984 
L 467.972932 136.150357 
L 472.549829 159.446382 
L 477.126726 186.639057 
L 481.703623 217.728384 
L 486.280519 252.714361 
" clip-path="url(#pe9bc8c794c)" style="fill: none; stroke-dasharray: 2,3.3; stroke-dashoffset: 0; stroke: #2ca02c; stroke-width: 2"/>
   </g>
   <g id="patch_3">
    <path d="M 108 448.56 
L 108 60.48 
" style="fill: none; stroke: #000000; stroke-width: 0.8; stroke-linejoin: miter; stroke-linecap: square"/>
   </g>
   <g id="patch_4">
    <path d="M 777.6 448.56 
L 777.6 60.48 
" style="fill: none; stroke: #000000; stroke-width: 0.8; stroke-linejoin: miter; stroke-linecap: square"/>
   </g>
   <g id="patch_5">
    <path d="M 108 448.56 
L 777.6 448.56 
" style="fill: none; stroke: #000000; stroke-width: 0.8; stroke-linejoin: miter; stroke-linecap: square"/>
   </g>
   <g id="patch_6">
    <path d="M 108 60.48 
L 777.6 60.48 
" style="fill: none; stroke: #000000; stroke-width: 0.8; stroke-linejoin: miter; stroke-linecap: square"/>
   </g>
  </g>
 </g>
 <defs>
  <clipPath id="pe9bc8c794c">
   <rect x="108" y="60.48" width="669.6" height="388.08"/>
  </clipPath>
 </defs>
</svg>
