<?xml version="1.0" encoding="utf-8" standalone="no"?>
<!DOCTYPE svg PUBLIC "-//W3C//DTD SVG 1.1//EN"
  "http://www.w3.org/Graphics/SVG/1.1/DTD/svg11.dtd">
<svg xmlns:xlink="http://www.w3.org/1999/xlink" width="864pt" height="504pt" viewBox="0 0 864 504" xmlns="http://www.w3.org/2000/svg" version="1.1">
 <metadata>
  <rdf:RDF xmlns:dc="http://purl.org/dc/elements/1.1/" xmlns:cc="http://creativecommons.org/ns#" xmlns:rdf="http://www.w3.org/1999/02/22-rdf-syntax-ns#">
   <cc:Work>
    <dc:type rdf:resource="http://purl.org/dc/dcmitype/StillImage"/>
    <dc:date>2025-05-21T01:09:08.389026</dc:date>
    <dc:format>image/svg+xml</dc:format>
    <dc:creator>
     <cc:Agent>
      <dc:title>Matplotlib v3.7.2, https://matplotlib.org/</dc:title>
     </cc:Agent>
    </dc:creator>
   </cc:Work>
  </rdf:RDF>
 </metadata>
 <defs>
  <style type="text/css">*{stroke-linejoin: round; stroke-linecap: butt}</style>
 </defs>
 <g id="figure_1">
  <g id="patch_1">
   <path d="M 0 504 
L 864 504 
L 864 0 
L 0 0 
z
" style="fill: #ffffff"/>
  </g>
  <g id="axes_1">
   <g id="patch_2">
    <path d="M 108 448.56 
L 777.6 448.56 
L 777.6 60.48 
L 108 60.48 
z
" style="fill: #ffffff"/>
   </g>
   <g id="matplotlib.axis_1">
    <g id="xtick_1">
     <g id="line2d_1">
      <defs>
       <path id="ma0a5175c87" d="M 0 0 
L 0 3.5 
" style="stroke: #000000; stroke-width: 0.8"/>
      </defs>
      <g>
       <use xlink:href="#ma0a5175c87" x="138.436364" y="448.56" style="stroke: #000000; stroke-width: 0.8"/>
      </g>
     </g>
     <g id="text_1">
      <!-- 0.0 -->
      <g transform="translate(124.123551 469.237188) scale(0.18 -0.18)">
       <defs>
        <path id="DejaVuSerif-30" d="M 2034 219 
Q 2513 219 2750 744 
Q 2988 1269 2988 2328 
Q 2988 3391 2750 3916 
Q 2513 4441 2034 4441 
Q 1556 4441 1318 3916 
Q 1081 3391 1081 2328 
Q 1081 1269 1318 744 
Q 1556 219 2034 219 
z
M 2034 -91 
Q 1275 -91 848 546 
Q 422 1184 422 2328 
Q 422 3475 848 4112 
Q 1275 4750 2034 4750 
Q 2797 4750 3222 4112 
Q 3647 3475 3647 2328 
Q 3647 1184 3222 546 
Q 2797 -91 2034 -91 
z
" transform="scale(0.015625)"/>
        <path id="DejaVuSerif-2e" d="M 603 325 
Q 603 500 722 622 
Q 841 744 1019 744 
Q 1191 744 1312 622 
Q 1434 500 1434 325 
Q 1434 153 1312 31 
Q 1191 -91 1019 -91 
Q 841 -91 722 29 
Q 603 150 603 325 
z
" transform="scale(0.015625)"/>
       </defs>
       <use xlink:href="#DejaVuSerif-30"/>
       <use xlink:href="#DejaVuSerif-2e" x="63.623047"/>
       <use xlink:href="#DejaVuSerif-30" x="95.410156"/>
      </g>
     </g>
    </g>
    <g id="xtick_2">
     <g id="line2d_2">
      <g>
       <use xlink:href="#ma0a5175c87" x="225.397403" y="448.56" style="stroke: #000000; stroke-width: 0.8"/>
      </g>
     </g>
     <g id="text_2">
      <!-- 0.5 -->
      <g transform="translate(211.08459 469.237188) scale(0.18 -0.18)">
       <defs>
        <path id="DejaVuSerif-35" d="M 3219 4666 
L 3219 4153 
L 1081 4153 
L 1081 2816 
Q 1244 2928 1461 2984 
Q 1678 3041 1947 3041 
Q 2703 3041 3140 2622 
Q 3578 2203 3578 1478 
Q 3578 738 3136 323 
Q 2694 -91 1894 -91 
Q 1572 -91 1234 -12 
Q 897 66 544 225 
L 544 1131 
L 897 1131 
Q 925 688 1179 453 
Q 1434 219 1894 219 
Q 2388 219 2653 544 
Q 2919 869 2919 1478 
Q 2919 2084 2655 2407 
Q 2391 2731 1894 2731 
Q 1613 2731 1398 2631 
Q 1184 2531 1019 2322 
L 750 2322 
L 750 4666 
L 3219 4666 
z
" transform="scale(0.015625)"/>
       </defs>
       <use xlink:href="#DejaVuSerif-30"/>
       <use xlink:href="#DejaVuSerif-2e" x="63.623047"/>
       <use xlink:href="#DejaVuSerif-35" x="95.410156"/>
      </g>
     </g>
    </g>
    <g id="xtick_3">
     <g id="line2d_3">
      <g>
       <use xlink:href="#ma0a5175c87" x="312.358442" y="448.56" style="stroke: #000000; stroke-width: 0.8"/>
      </g>
     </g>
     <g id="text_3">
      <!-- 1.0 -->
      <g transform="translate(298.045629 469.237188) scale(0.18 -0.18)">
       <defs>
        <path id="DejaVuSerif-31" d="M 909 0 
L 909 331 
L 1722 331 
L 1722 4213 
L 781 3603 
L 781 4013 
L 1919 4750 
L 2350 4750 
L 2350 331 
L 3163 331 
L 3163 0 
L 909 0 
z
" transform="scale(0.015625)"/>
       </defs>
       <use xlink:href="#DejaVuSerif-31"/>
       <use xlink:href="#DejaVuSerif-2e" x="63.623047"/>
       <use xlink:href="#DejaVuSerif-30" x="95.410156"/>
      </g>
     </g>
    </g>
    <g id="xtick_4">
     <g id="line2d_4">
      <g>
       <use xlink:href="#ma0a5175c87" x="399.319481" y="448.56" style="stroke: #000000; stroke-width: 0.8"/>
      </g>
     </g>
     <g id="text_4">
      <!-- 1.5 -->
      <g transform="translate(385.006668 469.237188) scale(0.18 -0.18)">
       <use xlink:href="#DejaVuSerif-31"/>
       <use xlink:href="#DejaVuSerif-2e" x="63.623047"/>
       <use xlink:href="#DejaVuSerif-35" x="95.410156"/>
      </g>
     </g>
    </g>
    <g id="xtick_5">
     <g id="line2d_5">
      <g>
       <use xlink:href="#ma0a5175c87" x="486.280519" y="448.56" style="stroke: #000000; stroke-width: 0.8"/>
      </g>
     </g>
     <g id="text_5">
      <!-- 2.0 -->
      <g transform="translate(471.967707 469.237188) scale(0.18 -0.18)">
       <defs>
        <path id="DejaVuSerif-32" d="M 819 3553 
L 469 3553 
L 469 4384 
Q 803 4563 1142 4656 
Q 1481 4750 1806 4750 
Q 2534 4750 2956 4397 
Q 3378 4044 3378 3438 
Q 3378 2753 2422 1800 
Q 2347 1728 2309 1691 
L 1131 513 
L 3078 513 
L 3078 1088 
L 3444 1088 
L 3444 0 
L 434 0 
L 434 341 
L 1850 1753 
Q 2319 2222 2519 2614 
Q 2719 3006 2719 3438 
Q 2719 3909 2473 4175 
Q 2228 4441 1797 4441 
Q 1350 4441 1106 4219 
Q 863 3997 819 3553 
z
" transform="scale(0.015625)"/>
       </defs>
       <use xlink:href="#DejaVuSerif-32"/>
       <use xlink:href="#DejaVuSerif-2e" x="63.623047"/>
       <use xlink:href="#DejaVuSerif-30" x="95.410156"/>
      </g>
     </g>
    </g>
    <g id="xtick_6">
     <g id="line2d_6">
      <g>
       <use xlink:href="#ma0a5175c87" x="573.241558" y="448.56" style="stroke: #000000; stroke-width: 0.8"/>
      </g>
     </g>
     <g id="text_6">
      <!-- 2.5 -->
      <g transform="translate(558.928746 469.237188) scale(0.18 -0.18)">
       <use xlink:href="#DejaVuSerif-32"/>
       <use xlink:href="#DejaVuSerif-2e" x="63.623047"/>
       <use xlink:href="#DejaVuSerif-35" x="95.410156"/>
      </g>
     </g>
    </g>
    <g id="xtick_7">
     <g id="line2d_7">
      <g>
       <use xlink:href="#ma0a5175c87" x="660.202597" y="448.56" style="stroke: #000000; stroke-width: 0.8"/>
      </g>
     </g>
     <g id="text_7">
      <!-- 3.0 -->
      <g transform="translate(645.889785 469.237188) scale(0.18 -0.18)">
       <defs>
        <path id="DejaVuSerif-33" d="M 622 4469 
Q 988 4606 1323 4678 
Q 1659 4750 1953 4750 
Q 2638 4750 3022 4454 
Q 3406 4159 3406 3634 
Q 3406 3213 3140 2930 
Q 2875 2647 2388 2547 
Q 2963 2466 3280 2130 
Q 3597 1794 3597 1259 
Q 3597 606 3158 257 
Q 2719 -91 1894 -91 
Q 1528 -91 1179 -12 
Q 831 66 488 225 
L 488 1131 
L 838 1131 
Q 869 681 1141 450 
Q 1413 219 1906 219 
Q 2384 219 2661 495 
Q 2938 772 2938 1253 
Q 2938 1803 2653 2086 
Q 2369 2369 1819 2369 
L 1522 2369 
L 1522 2688 
L 1678 2688 
Q 2225 2688 2498 2914 
Q 2772 3141 2772 3597 
Q 2772 4006 2547 4223 
Q 2322 4441 1900 4441 
Q 1478 4441 1245 4241 
Q 1013 4041 972 3647 
L 622 3647 
L 622 4469 
z
" transform="scale(0.015625)"/>
       </defs>
       <use xlink:href="#DejaVuSerif-33"/>
       <use xlink:href="#DejaVuSerif-2e" x="63.623047"/>
       <use xlink:href="#DejaVuSerif-30" x="95.410156"/>
      </g>
     </g>
    </g>
    <g id="xtick_8">
     <g id="line2d_8">
      <g>
       <use xlink:href="#ma0a5175c87" x="747.163636" y="448.56" style="stroke: #000000; stroke-width: 0.8"/>
      </g>
     </g>
     <g id="text_8">
      <!-- 3.5 -->
      <g transform="translate(732.850824 469.237188) scale(0.18 -0.18)">
       <use xlink:href="#DejaVuSerif-33"/>
       <use xlink:href="#DejaVuSerif-2e" x="63.623047"/>
       <use xlink:href="#DejaVuSerif-35" x="95.410156"/>
      </g>
     </g>
    </g>
   </g>
   <g id="matplotlib.axis_2">
    <g id="ytick_1">
     <g id="line2d_9">
      <defs>
       <path id="md53aa7eaab" d="M 0 0 
L -3.5 0 
" style="stroke: #000000; stroke-width: 0.8"/>
      </defs>
      <g>
       <use xlink:href="#md53aa7eaab" x="108" y="427.406536" style="stroke: #000000; stroke-width: 0.8"/>
      </g>
     </g>
     <g id="text_9">
      <!-- −2.5 -->
      <g transform="translate(57.290937 434.24513) scale(0.18 -0.18)">
       <defs>
        <path id="DejaVuSerif-2212" d="M 678 2259 
L 4684 2259 
L 4684 1753 
L 678 1753 
L 678 2259 
z
" transform="scale(0.015625)"/>
       </defs>
       <use xlink:href="#DejaVuSerif-2212"/>
       <use xlink:href="#DejaVuSerif-32" x="83.789062"/>
       <use xlink:href="#DejaVuSerif-2e" x="147.412109"/>
       <use xlink:href="#DejaVuSerif-35" x="179.199219"/>
      </g>
     </g>
    </g>
    <g id="ytick_2">
     <g id="line2d_10">
      <g>
       <use xlink:href="#md53aa7eaab" x="108" y="379.672964" style="stroke: #000000; stroke-width: 0.8"/>
      </g>
     </g>
     <g id="text_10">
      <!-- −2.0 -->
      <g transform="translate(57.290937 386.511558) scale(0.18 -0.18)">
       <use xlink:href="#DejaVuSerif-2212"/>
       <use xlink:href="#DejaVuSerif-32" x="83.789062"/>
       <use xlink:href="#DejaVuSerif-2e" x="147.412109"/>
       <use xlink:href="#DejaVuSerif-30" x="179.199219"/>
      </g>
     </g>
    </g>
    <g id="ytick_3">
     <g id="line2d_11">
      <g>
       <use xlink:href="#md53aa7eaab" x="108" y="331.939392" style="stroke: #000000; stroke-width: 0.8"/>
      </g>
     </g>
     <g id="text_11">
      <!-- −1.5 -->
      <g transform="translate(57.290937 338.777985) scale(0.18 -0.18)">
       <use xlink:href="#DejaVuSerif-2212"/>
       <use xlink:href="#DejaVuSerif-31" x="83.789062"/>
       <use xlink:href="#DejaVuSerif-2e" x="147.412109"/>
       <use xlink:href="#DejaVuSerif-35" x="179.199219"/>
      </g>
     </g>
    </g>
    <g id="ytick_4">
     <g id="line2d_12">
      <g>
       <use xlink:href="#md53aa7eaab" x="108" y="284.205819" style="stroke: #000000; stroke-width: 0.8"/>
      </g>
     </g>
     <g id="text_12">
      <!-- −1.0 -->
      <g transform="translate(57.290937 291.044413) scale(0.18 -0.18)">
       <use xlink:href="#DejaVuSerif-2212"/>
       <use xlink:href="#DejaVuSerif-31" x="83.789062"/>
       <use xlink:href="#DejaVuSerif-2e" x="147.412109"/>
       <use xlink:href="#DejaVuSerif-30" x="179.199219"/>
      </g>
     </g>
    </g>
    <g id="ytick_5">
     <g id="line2d_13">
      <g>
       <use xlink:href="#md53aa7eaab" x="108" y="236.472247" style="stroke: #000000; stroke-width: 0.8"/>
      </g>
     </g>
     <g id="text_13">
      <!-- −0.5 -->
      <g transform="translate(57.290937 243.310841) scale(0.18 -0.18)">
       <use xlink:href="#DejaVuSerif-2212"/>
       <use xlink:href="#DejaVuSerif-30" x="83.789062"/>
       <use xlink:href="#DejaVuSerif-2e" x="147.412109"/>
       <use xlink:href="#DejaVuSerif-35" x="179.199219"/>
      </g>
     </g>
    </g>
    <g id="ytick_6">
     <g id="line2d_14">
      <g>
       <use xlink:href="#md53aa7eaab" x="108" y="188.738674" style="stroke: #000000; stroke-width: 0.8"/>
      </g>
     </g>
     <g id="text_14">
      <!-- 0.0 -->
      <g transform="translate(72.374375 195.577268) scale(0.18 -0.18)">
       <use xlink:href="#DejaVuSerif-30"/>
       <use xlink:href="#DejaVuSerif-2e" x="63.623047"/>
       <use xlink:href="#DejaVuSerif-30" x="95.410156"/>
      </g>
     </g>
    </g>
    <g id="ytick_7">
     <g id="line2d_15">
      <g>
       <use xlink:href="#md53aa7eaab" x="108" y="141.005102" style="stroke: #000000; stroke-width: 0.8"/>
      </g>
     </g>
     <g id="text_15">
      <!-- 0.5 -->
      <g transform="translate(72.374375 147.843696) scale(0.18 -0.18)">
       <use xlink:href="#DejaVuSerif-30"/>
       <use xlink:href="#DejaVuSerif-2e" x="63.623047"/>
       <use xlink:href="#DejaVuSerif-35" x="95.410156"/>
      </g>
     </g>
    </g>
    <g id="ytick_8">
     <g id="line2d_16">
      <g>
       <use xlink:href="#md53aa7eaab" x="108" y="93.27153" style="stroke: #000000; stroke-width: 0.8"/>
      </g>
     </g>
     <g id="text_16">
      <!-- 1.0 -->
      <g transform="translate(72.374375 100.110124) scale(0.18 -0.18)">
       <use xlink:href="#DejaVuSerif-31"/>
       <use xlink:href="#DejaVuSerif-2e" x="63.623047"/>
       <use xlink:href="#DejaVuSerif-30" x="95.410156"/>
      </g>
     </g>
    </g>
    <g id="text_17">
     <!-- $\Delta G$ [eV] -->
     <g transform="translate(49.963437 285.56) rotate(-90) scale(0.16 -0.16)">
      <defs>
       <path id="DejaVuSans-394" d="M 2188 4044 
L 906 525 
L 3472 525 
L 2188 4044 
z
M 50 0 
L 1831 4666 
L 2547 4666 
L 4325 0 
L 50 0 
z
" transform="scale(0.015625)"/>
       <path id="DejaVuSans-Oblique-47" d="M 3494 697 
L 3738 1919 
L 2700 1919 
L 2797 2438 
L 4453 2438 
L 4050 384 
Q 3634 156 3143 32 
Q 2653 -91 2156 -91 
Q 1278 -91 783 396 
Q 288 884 288 1753 
Q 288 2475 589 3126 
Q 891 3778 1422 4213 
Q 1756 4484 2153 4617 
Q 2550 4750 3034 4750 
Q 3472 4750 3873 4639 
Q 4275 4528 4641 4306 
L 4513 3634 
Q 4231 3928 3853 4083 
Q 3475 4238 3047 4238 
Q 2550 4238 2172 4048 
Q 1794 3859 1497 3463 
Q 1244 3125 1098 2667 
Q 953 2209 953 1734 
Q 953 1081 1287 751 
Q 1622 422 2284 422 
Q 2616 422 2925 492 
Q 3234 563 3494 697 
z
" transform="scale(0.015625)"/>
       <path id="DejaVuSerif-20" transform="scale(0.015625)"/>
       <path id="DejaVuSerif-5b" d="M 550 4863 
L 2003 4863 
L 2003 4531 
L 1147 4531 
L 1147 -513 
L 2003 -513 
L 2003 -844 
L 550 -844 
L 550 4863 
z
" transform="scale(0.015625)"/>
       <path id="DejaVuSerif-65" d="M 3469 1600 
L 991 1600 
L 991 1575 
Q 991 903 1244 561 
Q 1497 219 1991 219 
Q 2369 219 2611 417 
Q 2853 616 2950 1006 
L 3413 1006 
Q 3275 459 2904 184 
Q 2534 -91 1931 -91 
Q 1203 -91 761 389 
Q 319 869 319 1663 
Q 319 2450 753 2931 
Q 1188 3413 1894 3413 
Q 2647 3413 3050 2948 
Q 3453 2484 3469 1600 
z
M 2791 1931 
Q 2772 2513 2545 2808 
Q 2319 3103 1894 3103 
Q 1497 3103 1269 2806 
Q 1041 2509 991 1931 
L 2791 1931 
z
" transform="scale(0.015625)"/>
       <path id="DejaVuSerif-56" d="M 1119 4331 
L 2497 750 
L 3872 4331 
L 3347 4331 
L 3347 4666 
L 4716 4666 
L 4716 4331 
L 4263 4331 
L 2597 0 
L 2059 0 
L 403 4331 
L -63 4331 
L -63 4666 
L 1638 4666 
L 1638 4331 
L 1119 4331 
z
" transform="scale(0.015625)"/>
       <path id="DejaVuSerif-5d" d="M 1947 4863 
L 1947 -844 
L 494 -844 
L 494 -513 
L 1350 -513 
L 1350 4531 
L 494 4531 
L 494 4863 
L 1947 4863 
z
" transform="scale(0.015625)"/>
      </defs>
      <use xlink:href="#DejaVuSans-394" transform="translate(0 0.015625)"/>
      <use xlink:href="#DejaVuSans-Oblique-47" transform="translate(68.408203 0.015625)"/>
      <use xlink:href="#DejaVuSerif-20" transform="translate(145.898438 0.015625)"/>
      <use xlink:href="#DejaVuSerif-5b" transform="translate(177.685547 0.015625)"/>
      <use xlink:href="#DejaVuSerif-65" transform="translate(216.699219 0.015625)"/>
      <use xlink:href="#DejaVuSerif-56" transform="translate(275.878906 0.015625)"/>
      <use xlink:href="#DejaVuSerif-5d" transform="translate(348.095703 0.015625)"/>
     </g>
    </g>
   </g>
   <g id="line2d_17">
    <path d="M 138.436364 188.738674 
L 225.397403 188.738674 
" clip-path="url(#p8d8346aeba)" style="fill: none; stroke: #1f77b4; stroke-width: 2; stroke-linecap: square"/>
   </g>
   <g id="line2d_18">
    <path d="M 312.358442 309.829337 
L 399.319481 309.829337 
" clip-path="url(#p8d8346aeba)" style="fill: none; stroke: #1f77b4; stroke-width: 2; stroke-linecap: square"/>
   </g>
   <g id="line2d_19">
    <path d="M 486.280519 430.92 
L 573.241558 430.92 
" clip-path="url(#p8d8346aeba)" style="fill: none; stroke: #1f77b4; stroke-width: 2; stroke-linecap: square"/>
   </g>
   <g id="line2d_20">
    <path d="M 660.202597 395.523315 
L 747.163636 395.523315 
" clip-path="url(#p8d8346aeba)" style="fill: none; stroke: #1f77b4; stroke-width: 2; stroke-linecap: square"/>
   </g>
   <g id="line2d_21">
    <path d="M 225.397403 188.738674 
L 229.974299 171.712961 
L 234.551196 157.287126 
L 239.128093 145.46117 
L 243.70499 136.235092 
L 248.281887 129.608892 
L 252.858783 125.582571 
L 257.43568 124.156128 
L 262.012577 125.329564 
L 266.589474 129.102879 
L 271.16637 135.476071 
L 275.743267 144.449143 
L 280.320164 156.022092 
L 284.897061 170.194921 
L 289.473958 186.967627 
L 294.050854 206.340212 
L 298.627751 228.312676 
L 303.204648 252.885018 
L 307.781545 280.057238 
L 312.358442 309.829337 
" clip-path="url(#p8d8346aeba)" style="fill: none; stroke-dasharray: 7.4,3.2; stroke-dashoffset: 0; stroke: #1f77b4; stroke-width: 2"/>
   </g>
   <g id="line2d_22">
    <path d="M 399.319481 309.829337 
L 403.896377 292.803624 
L 408.473274 278.377789 
L 413.050171 266.551832 
L 417.627068 257.325754 
L 422.203964 250.699555 
L 426.780861 246.673234 
L 431.357758 245.246791 
L 435.934655 246.420227 
L 440.511552 250.193541 
L 445.088448 256.566734 
L 449.665345 265.539805 
L 454.242242 277.112755 
L 458.819139 291.285583 
L 463.396036 308.05829 
L 467.972932 327.430875 
L 472.549829 349.403339 
L 477.126726 373.975681 
L 481.703623 401.147901 
L 486.280519 430.92 
" clip-path="url(#p8d8346aeba)" style="fill: none; stroke-dasharray: 7.4,3.2; stroke-dashoffset: 0; stroke: #1f77b4; stroke-width: 2"/>
   </g>
   <g id="line2d_23">
    <path d="M 573.241558 430.92 
L 577.818455 412.462758 
L 582.395352 395.849323 
L 586.972249 381.079694 
L 591.549146 368.153871 
L 596.126042 357.071855 
L 600.702939 347.833646 
L 605.279836 340.439243 
L 609.856733 334.888646 
L 614.43363 331.181857 
L 619.010526 329.318873 
L 623.587423 329.299696 
L 628.16432 331.124326 
L 632.741217 334.792762 
L 637.318113 340.305004 
L 641.89501 347.661054 
L 646.471907 356.860909 
L 651.048804 367.904571 
L 655.625701 380.79204 
L 660.202597 395.523315 
" clip-path="url(#p8d8346aeba)" style="fill: none; stroke-dasharray: 12.8,3.2,2,3.2; stroke-dashoffset: 0; stroke: #1f77b4; stroke-width: 2"/>
   </g>
   <g id="line2d_24">
    <path d="M 138.436364 188.738674 
L 225.397403 188.738674 
" clip-path="url(#p8d8346aeba)" style="fill: none; stroke: #ff7f0e; stroke-width: 2; stroke-linecap: square"/>
   </g>
   <g id="line2d_25">
    <path d="M 312.358442 262.095765 
L 399.319481 262.095765 
" clip-path="url(#p8d8346aeba)" style="fill: none; stroke: #ff7f0e; stroke-width: 2; stroke-linecap: square"/>
   </g>
   <g id="line2d_26">
    <path d="M 486.280519 335.452855 
L 573.241558 335.452855 
" clip-path="url(#p8d8346aeba)" style="fill: none; stroke: #ff7f0e; stroke-width: 2; stroke-linecap: square"/>
   </g>
   <g id="line2d_27">
    <path d="M 660.202597 300.05617 
L 747.163636 300.05617 
" clip-path="url(#p8d8346aeba)" style="fill: none; stroke: #ff7f0e; stroke-width: 2; stroke-linecap: square"/>
   </g>
   <g id="line2d_28">
    <path d="M 225.397403 188.738674 
L 229.974299 170.150254 
L 234.551196 154.056202 
L 239.128093 140.45652 
L 243.70499 129.351206 
L 248.281887 120.740261 
L 252.858783 114.623685 
L 257.43568 111.001478 
L 262.012577 109.873639 
L 266.589474 111.24017 
L 271.16637 115.101069 
L 275.743267 121.456338 
L 280.320164 130.305975 
L 284.897061 141.649981 
L 289.473958 155.488356 
L 294.050854 171.8211 
L 298.627751 190.648213 
L 303.204648 211.969695 
L 307.781545 235.785545 
L 312.358442 262.095765 
" clip-path="url(#p8d8346aeba)" style="fill: none; stroke-dasharray: 7.4,3.2; stroke-dashoffset: 0; stroke: #ff7f0e; stroke-width: 2"/>
   </g>
   <g id="line2d_29">
    <path d="M 399.319481 262.095765 
L 403.896377 243.507344 
L 408.473274 227.413293 
L 413.050171 213.81361 
L 417.627068 202.708296 
L 422.203964 194.097351 
L 426.780861 187.980775 
L 431.357758 184.358568 
L 435.934655 183.23073 
L 440.511552 184.59726 
L 445.088448 188.45816 
L 449.665345 194.813428 
L 454.242242 203.663065 
L 458.819139 215.007072 
L 463.396036 228.845447 
L 467.972932 245.178191 
L 472.549829 264.005303 
L 477.126726 285.326785 
L 481.703623 309.142636 
L 486.280519 335.452855 
" clip-path="url(#p8d8346aeba)" style="fill: none; stroke-dasharray: 7.4,3.2; stroke-dashoffset: 0; stroke: #ff7f0e; stroke-width: 2"/>
   </g>
   <g id="line2d_30">
    <path d="M 573.241558 335.452855 
L 577.818455 316.995613 
L 582.395352 300.382178 
L 586.972249 285.612549 
L 591.549146 272.686726 
L 596.126042 261.604711 
L 600.702939 252.366501 
L 605.279836 244.972098 
L 609.856733 239.421502 
L 614.43363 235.714712 
L 619.010526 233.851728 
L 623.587423 233.832551 
L 628.16432 235.657181 
L 632.741217 239.325617 
L 637.318113 244.83786 
L 641.89501 252.193909 
L 646.471907 261.393764 
L 651.048804 272.437427 
L 655.625701 285.324895 
L 660.202597 300.05617 
" clip-path="url(#p8d8346aeba)" style="fill: none; stroke-dasharray: 12.8,3.2,2,3.2; stroke-dashoffset: 0; stroke: #ff7f0e; stroke-width: 2"/>
   </g>
   <g id="line2d_31">
    <path d="M 138.436364 188.738674 
L 225.397403 188.738674 
" clip-path="url(#p8d8346aeba)" style="fill: none; stroke: #2ca02c; stroke-width: 2; stroke-linecap: square"/>
   </g>
   <g id="line2d_32">
    <path d="M 312.358442 214.362193 
L 399.319481 214.362193 
" clip-path="url(#p8d8346aeba)" style="fill: none; stroke: #2ca02c; stroke-width: 2; stroke-linecap: square"/>
   </g>
   <g id="line2d_33">
    <path d="M 486.280519 239.985711 
L 573.241558 239.985711 
" clip-path="url(#p8d8346aeba)" style="fill: none; stroke: #2ca02c; stroke-width: 2; stroke-linecap: square"/>
   </g>
   <g id="line2d_34">
    <path d="M 660.202597 204.589026 
L 747.163636 204.589026 
" clip-path="url(#p8d8346aeba)" style="fill: none; stroke: #2ca02c; stroke-width: 2; stroke-linecap: square"/>
   </g>
   <g id="line2d_35">
    <path d="M 225.397403 188.738674 
L 229.974299 169.031125 
L 234.551196 151.663148 
L 239.128093 136.634744 
L 243.70499 123.945913 
L 248.281887 113.596655 
L 252.858783 105.58697 
L 257.43568 99.916857 
L 262.012577 96.586318 
L 266.589474 95.595351 
L 271.16637 96.943957 
L 275.743267 100.632136 
L 280.320164 106.659888 
L 284.897061 115.027213 
L 289.473958 125.734111 
L 294.050854 138.780582 
L 298.627751 154.166625 
L 303.204648 171.892241 
L 307.781545 191.95743 
L 312.358442 214.362193 
" clip-path="url(#p8d8346aeba)" style="fill: none; stroke-dasharray: 7.4,3.2; stroke-dashoffset: 0; stroke: #2ca02c; stroke-width: 2"/>
   </g>
   <g id="line2d_36">
    <path d="M 399.319481 214.362193 
L 403.896377 194.654643 
L 408.473274 177.286666 
L 413.050171 162.258262 
L 417.627068 149.569431 
L 422.203964 139.220173 
L 426.780861 131.210488 
L 431.357758 125.540375 
L 435.934655 122.209836 
L 440.511552 121.218869 
L 445.088448 122.567475 
L 449.665345 126.255655 
L 454.242242 132.283406 
L 458.819139 140.650731 
L 463.396036 151.357629 
L 467.972932 164.4041 
L 472.549829 179.790143 
L 477.126726 197.515759 
L 481.703623 217.580948 
L 486.280519 239.985711 
" clip-path="url(#p8d8346aeba)" style="fill: none; stroke-dasharray: 7.4,3.2; stroke-dashoffset: 0; stroke: #2ca02c; stroke-width: 2"/>
   </g>
   <g id="line2d_37">
    <path d="M 573.241558 239.985711 
L 577.818455 221.528469 
L 582.395352 204.915033 
L 586.972249 190.145404 
L 591.549146 177.219582 
L 596.126042 166.137566 
L 600.702939 156.899356 
L 605.279836 149.504953 
L 609.856733 143.954357 
L 614.43363 140.247567 
L 619.010526 138.384584 
L 623.587423 138.365407 
L 628.16432 140.190036 
L 632.741217 143.858472 
L 637.318113 149.370715 
L 641.89501 156.726764 
L 646.471907 165.92662 
L 651.048804 176.970282 
L 655.625701 189.85775 
L 660.202597 204.589026 
" clip-path="url(#p8d8346aeba)" style="fill: none; stroke-dasharray: 12.8,3.2,2,3.2; stroke-dashoffset: 0; stroke: #2ca02c; stroke-width: 2"/>
   </g>
   <g id="line2d_38">
    <path d="M 138.436364 188.738674 
L 225.397403 188.738674 
" clip-path="url(#p8d8346aeba)" style="fill: none; stroke: #1f77b4; stroke-width: 2; stroke-linecap: square"/>
   </g>
   <g id="line2d_39">
    <path d="M 312.358442 309.829337 
L 399.319481 309.829337 
" clip-path="url(#p8d8346aeba)" style="fill: none; stroke: #1f77b4; stroke-width: 2; stroke-linecap: square"/>
   </g>
   <g id="line2d_40">
    <path d="M 486.280519 395.523315 
L 573.241558 395.523315 
" clip-path="url(#p8d8346aeba)" style="fill: none; stroke: #1f77b4; stroke-width: 2; stroke-linecap: square"/>
   </g>
   <g id="line2d_41">
    <path d="M 225.397403 188.738674 
L 229.974299 171.712961 
L 234.551196 157.287126 
L 239.128093 145.46117 
L 243.70499 136.235092 
L 248.281887 129.608892 
L 252.858783 125.582571 
L 257.43568 124.156128 
L 262.012577 125.329564 
L 266.589474 129.102879 
L 271.16637 135.476071 
L 275.743267 144.449143 
L 280.320164 156.022092 
L 284.897061 170.194921 
L 289.473958 186.967627 
L 294.050854 206.340212 
L 298.627751 228.312676 
L 303.204648 252.885018 
L 307.781545 280.057238 
L 312.358442 309.829337 
" clip-path="url(#p8d8346aeba)" style="fill: none; stroke-dasharray: 7.4,3.2; stroke-dashoffset: 0; stroke: #1f77b4; stroke-width: 2"/>
   </g>
   <g id="line2d_42">
    <path d="M 399.319481 309.829337 
L 403.896377 286.834421 
L 408.473274 266.89563 
L 413.050171 250.012964 
L 417.627068 236.186423 
L 422.203964 225.416007 
L 426.780861 217.701716 
L 431.357758 213.04355 
L 435.934655 211.441509 
L 440.511552 212.895593 
L 445.088448 217.405803 
L 449.665345 224.972137 
L 454.242242 235.594596 
L 458.819139 249.273181 
L 463.396036 266.007891 
L 467.972932 285.798725 
L 472.549829 308.645685 
L 477.126726 334.54877 
L 481.703623 363.50798 
L 486.280519 395.523315 
" clip-path="url(#p8d8346aeba)" style="fill: none; stroke-dasharray: 2,3.3; stroke-dashoffset: 0; stroke: #1f77b4; stroke-width: 2"/>
   </g>
   <g id="line2d_43">
    <path d="M 138.436364 188.738674 
L 225.397403 188.738674 
" clip-path="url(#p8d8346aeba)" style="fill: none; stroke: #ff7f0e; stroke-width: 2; stroke-linecap: square"/>
   </g>
   <g id="line2d_44">
    <path d="M 312.358442 262.095765 
L 399.319481 262.095765 
" clip-path="url(#p8d8346aeba)" style="fill: none; stroke: #ff7f0e; stroke-width: 2; stroke-linecap: square"/>
   </g>
   <g id="line2d_45">
    <path d="M 486.280519 300.05617 
L 573.241558 300.05617 
" clip-path="url(#p8d8346aeba)" style="fill: none; stroke: #ff7f0e; stroke-width: 2; stroke-linecap: square"/>
   </g>
   <g id="line2d_46">
    <path d="M 225.397403 188.738674 
L 229.974299 170.150254 
L 234.551196 154.056202 
L 239.128093 140.45652 
L 243.70499 129.351206 
L 248.281887 120.740261 
L 252.858783 114.623685 
L 257.43568 111.001478 
L 262.012577 109.873639 
L 266.589474 111.24017 
L 271.16637 115.101069 
L 275.743267 121.456338 
L 280.320164 130.305975 
L 284.897061 141.649981 
L 289.473958 155.488356 
L 294.050854 171.8211 
L 298.627751 190.648213 
L 303.204648 211.969695 
L 307.781545 235.785545 
L 312.358442 262.095765 
" clip-path="url(#p8d8346aeba)" style="fill: none; stroke-dasharray: 7.4,3.2; stroke-dashoffset: 0; stroke: #ff7f0e; stroke-width: 2"/>
   </g>
   <g id="line2d_47">
    <path d="M 399.319481 262.095765 
L 403.896377 237.027224 
L 408.473274 214.966067 
L 413.050171 195.912295 
L 417.627068 179.865906 
L 422.203964 166.826901 
L 426.780861 156.795281 
L 431.357758 149.771045 
L 435.934655 145.754193 
L 440.511552 144.744725 
L 445.088448 146.742641 
L 449.665345 151.747941 
L 454.242242 159.760625 
L 458.819139 170.780694 
L 463.396036 184.808146 
L 467.972932 201.842983 
L 472.549829 221.885203 
L 477.126726 244.934808 
L 481.703623 270.991797 
L 486.280519 300.05617 
" clip-path="url(#p8d8346aeba)" style="fill: none; stroke-dasharray: 2,3.3; stroke-dashoffset: 0; stroke: #ff7f0e; stroke-width: 2"/>
   </g>
   <g id="line2d_48">
    <path d="M 138.436364 188.738674 
L 225.397403 188.738674 
" clip-path="url(#p8d8346aeba)" style="fill: none; stroke: #2ca02c; stroke-width: 2; stroke-linecap: square"/>
   </g>
   <g id="line2d_49">
    <path d="M 312.358442 214.362193 
L 399.319481 214.362193 
" clip-path="url(#p8d8346aeba)" style="fill: none; stroke: #2ca02c; stroke-width: 2; stroke-linecap: square"/>
   </g>
   <g id="line2d_50">
    <path d="M 486.280519 204.589026 
L 573.241558 204.589026 
" clip-path="url(#p8d8346aeba)" style="fill: none; stroke: #2ca02c; stroke-width: 2; stroke-linecap: square"/>
   </g>
   <g id="line2d_51">
    <path d="M 225.397403 188.738674 
L 229.974299 169.031125 
L 234.551196 151.663148 
L 239.128093 136.634744 
L 243.70499 123.945913 
L 248.281887 113.596655 
L 252.858783 105.58697 
L 257.43568 99.916857 
L 262.012577 96.586318 
L 266.589474 95.595351 
L 271.16637 96.943957 
L 275.743267 100.632136 
L 280.320164 106.659888 
L 284.897061 115.027213 
L 289.473958 125.734111 
L 294.050854 138.780582 
L 298.627751 154.166625 
L 303.204648 171.892241 
L 307.781545 191.95743 
L 312.358442 214.362193 
" clip-path="url(#p8d8346aeba)" style="fill: none; stroke-dasharray: 7.4,3.2; stroke-dashoffset: 0; stroke: #2ca02c; stroke-width: 2"/>
   </g>
   <g id="line2d_52">
    <path d="M 399.319481 214.362193 
L 403.896377 187.628131 
L 408.473274 163.807368 
L 413.050171 142.899903 
L 417.627068 124.905737 
L 422.203964 109.824868 
L 426.780861 97.657298 
L 431.357758 88.403026 
L 435.934655 82.062053 
L 440.511552 78.634377 
L 445.088448 78.12 
L 449.665345 80.518921 
L 454.242242 85.83114 
L 458.819139 94.056658 
L 463.396036 105.195473 
L 467.972932 119.247587 
L 472.549829 136.213 
L 477.126726 156.09171 
L 481.703623 178.883719 
L 486.280519 204.589026 
" clip-path="url(#p8d8346aeba)" style="fill: none; stroke-dasharray: 2,3.3; stroke-dashoffset: 0; stroke: #2ca02c; stroke-width: 2"/>
   </g>
   <g id="patch_3">
    <path d="M 108 448.56 
L 108 60.48 
" style="fill: none; stroke: #000000; stroke-width: 0.8; stroke-linejoin: miter; stroke-linecap: square"/>
   </g>
   <g id="patch_4">
    <path d="M 777.6 448.56 
L 777.6 60.48 
" style="fill: none; stroke: #000000; stroke-width: 0.8; stroke-linejoin: miter; stroke-linecap: square"/>
   </g>
   <g id="patch_5">
    <path d="M 108 448.56 
L 777.6 448.56 
" style="fill: none; stroke: #000000; stroke-width: 0.8; stroke-linejoin: miter; stroke-linecap: square"/>
   </g>
   <g id="patch_6">
    <path d="M 108 60.48 
L 777.6 60.48 
" style="fill: none; stroke: #000000; stroke-width: 0.8; stroke-linejoin: miter; stroke-linecap: square"/>
   </g>
  </g>
 </g>
 <defs>
  <clipPath id="p8d8346aeba">
   <rect x="108" y="60.48" width="669.6" height="388.08"/>
  </clipPath>
 </defs>
</svg>
