<?xml version="1.0" encoding="utf-8" standalone="no"?>
<!DOCTYPE svg PUBLIC "-//W3C//DTD SVG 1.1//EN"
  "http://www.w3.org/Graphics/SVG/1.1/DTD/svg11.dtd">
<svg xmlns:xlink="http://www.w3.org/1999/xlink" width="864pt" height="504pt" viewBox="0 0 864 504" xmlns="http://www.w3.org/2000/svg" version="1.1">
 <metadata>
  <rdf:RDF xmlns:dc="http://purl.org/dc/elements/1.1/" xmlns:cc="http://creativecommons.org/ns#" xmlns:rdf="http://www.w3.org/1999/02/22-rdf-syntax-ns#">
   <cc:Work>
    <dc:type rdf:resource="http://purl.org/dc/dcmitype/StillImage"/>
    <dc:date>2025-05-21T01:09:10.997632</dc:date>
    <dc:format>image/svg+xml</dc:format>
    <dc:creator>
     <cc:Agent>
      <dc:title>Matplotlib v3.7.2, https://matplotlib.org/</dc:title>
     </cc:Agent>
    </dc:creator>
   </cc:Work>
  </rdf:RDF>
 </metadata>
 <defs>
  <style type="text/css">*{stroke-linejoin: round; stroke-linecap: butt}</style>
 </defs>
 <g id="figure_1">
  <g id="patch_1">
   <path d="M 0 504 
L 864 504 
L 864 0 
L 0 0 
z
" style="fill: #ffffff"/>
  </g>
  <g id="axes_1">
   <g id="patch_2">
    <path d="M 108 448.56 
L 777.6 448.56 
L 777.6 60.48 
L 108 60.48 
z
" style="fill: #ffffff"/>
   </g>
   <g id="matplotlib.axis_1">
    <g id="xtick_1">
     <g id="line2d_1">
      <defs>
       <path id="m576b49964c" d="M 0 0 
L 0 3.5 
" style="stroke: #000000; stroke-width: 0.8"/>
      </defs>
      <g>
       <use xlink:href="#m576b49964c" x="138.436364" y="448.56" style="stroke: #000000; stroke-width: 0.8"/>
      </g>
     </g>
     <g id="text_1">
      <!-- 0.0 -->
      <g transform="translate(124.123551 469.237188) scale(0.18 -0.18)">
       <defs>
        <path id="DejaVuSerif-30" d="M 2034 219 
Q 2513 219 2750 744 
Q 2988 1269 2988 2328 
Q 2988 3391 2750 3916 
Q 2513 4441 2034 4441 
Q 1556 4441 1318 3916 
Q 1081 3391 1081 2328 
Q 1081 1269 1318 744 
Q 1556 219 2034 219 
z
M 2034 -91 
Q 1275 -91 848 546 
Q 422 1184 422 2328 
Q 422 3475 848 4112 
Q 1275 4750 2034 4750 
Q 2797 4750 3222 4112 
Q 3647 3475 3647 2328 
Q 3647 1184 3222 546 
Q 2797 -91 2034 -91 
z
" transform="scale(0.015625)"/>
        <path id="DejaVuSerif-2e" d="M 603 325 
Q 603 500 722 622 
Q 841 744 1019 744 
Q 1191 744 1312 622 
Q 1434 500 1434 325 
Q 1434 153 1312 31 
Q 1191 -91 1019 -91 
Q 841 -91 722 29 
Q 603 150 603 325 
z
" transform="scale(0.015625)"/>
       </defs>
       <use xlink:href="#DejaVuSerif-30"/>
       <use xlink:href="#DejaVuSerif-2e" x="63.623047"/>
       <use xlink:href="#DejaVuSerif-30" x="95.410156"/>
      </g>
     </g>
    </g>
    <g id="xtick_2">
     <g id="line2d_2">
      <g>
       <use xlink:href="#m576b49964c" x="225.397403" y="448.56" style="stroke: #000000; stroke-width: 0.8"/>
      </g>
     </g>
     <g id="text_2">
      <!-- 0.5 -->
      <g transform="translate(211.08459 469.237188) scale(0.18 -0.18)">
       <defs>
        <path id="DejaVuSerif-35" d="M 3219 4666 
L 3219 4153 
L 1081 4153 
L 1081 2816 
Q 1244 2928 1461 2984 
Q 1678 3041 1947 3041 
Q 2703 3041 3140 2622 
Q 3578 2203 3578 1478 
Q 3578 738 3136 323 
Q 2694 -91 1894 -91 
Q 1572 -91 1234 -12 
Q 897 66 544 225 
L 544 1131 
L 897 1131 
Q 925 688 1179 453 
Q 1434 219 1894 219 
Q 2388 219 2653 544 
Q 2919 869 2919 1478 
Q 2919 2084 2655 2407 
Q 2391 2731 1894 2731 
Q 1613 2731 1398 2631 
Q 1184 2531 1019 2322 
L 750 2322 
L 750 4666 
L 3219 4666 
z
" transform="scale(0.015625)"/>
       </defs>
       <use xlink:href="#DejaVuSerif-30"/>
       <use xlink:href="#DejaVuSerif-2e" x="63.623047"/>
       <use xlink:href="#DejaVuSerif-35" x="95.410156"/>
      </g>
     </g>
    </g>
    <g id="xtick_3">
     <g id="line2d_3">
      <g>
       <use xlink:href="#m576b49964c" x="312.358442" y="448.56" style="stroke: #000000; stroke-width: 0.8"/>
      </g>
     </g>
     <g id="text_3">
      <!-- 1.0 -->
      <g transform="translate(298.045629 469.237188) scale(0.18 -0.18)">
       <defs>
        <path id="DejaVuSerif-31" d="M 909 0 
L 909 331 
L 1722 331 
L 1722 4213 
L 781 3603 
L 781 4013 
L 1919 4750 
L 2350 4750 
L 2350 331 
L 3163 331 
L 3163 0 
L 909 0 
z
" transform="scale(0.015625)"/>
       </defs>
       <use xlink:href="#DejaVuSerif-31"/>
       <use xlink:href="#DejaVuSerif-2e" x="63.623047"/>
       <use xlink:href="#DejaVuSerif-30" x="95.410156"/>
      </g>
     </g>
    </g>
    <g id="xtick_4">
     <g id="line2d_4">
      <g>
       <use xlink:href="#m576b49964c" x="399.319481" y="448.56" style="stroke: #000000; stroke-width: 0.8"/>
      </g>
     </g>
     <g id="text_4">
      <!-- 1.5 -->
      <g transform="translate(385.006668 469.237188) scale(0.18 -0.18)">
       <use xlink:href="#DejaVuSerif-31"/>
       <use xlink:href="#DejaVuSerif-2e" x="63.623047"/>
       <use xlink:href="#DejaVuSerif-35" x="95.410156"/>
      </g>
     </g>
    </g>
    <g id="xtick_5">
     <g id="line2d_5">
      <g>
       <use xlink:href="#m576b49964c" x="486.280519" y="448.56" style="stroke: #000000; stroke-width: 0.8"/>
      </g>
     </g>
     <g id="text_5">
      <!-- 2.0 -->
      <g transform="translate(471.967707 469.237188) scale(0.18 -0.18)">
       <defs>
        <path id="DejaVuSerif-32" d="M 819 3553 
L 469 3553 
L 469 4384 
Q 803 4563 1142 4656 
Q 1481 4750 1806 4750 
Q 2534 4750 2956 4397 
Q 3378 4044 3378 3438 
Q 3378 2753 2422 1800 
Q 2347 1728 2309 1691 
L 1131 513 
L 3078 513 
L 3078 1088 
L 3444 1088 
L 3444 0 
L 434 0 
L 434 341 
L 1850 1753 
Q 2319 2222 2519 2614 
Q 2719 3006 2719 3438 
Q 2719 3909 2473 4175 
Q 2228 4441 1797 4441 
Q 1350 4441 1106 4219 
Q 863 3997 819 3553 
z
" transform="scale(0.015625)"/>
       </defs>
       <use xlink:href="#DejaVuSerif-32"/>
       <use xlink:href="#DejaVuSerif-2e" x="63.623047"/>
       <use xlink:href="#DejaVuSerif-30" x="95.410156"/>
      </g>
     </g>
    </g>
    <g id="xtick_6">
     <g id="line2d_6">
      <g>
       <use xlink:href="#m576b49964c" x="573.241558" y="448.56" style="stroke: #000000; stroke-width: 0.8"/>
      </g>
     </g>
     <g id="text_6">
      <!-- 2.5 -->
      <g transform="translate(558.928746 469.237188) scale(0.18 -0.18)">
       <use xlink:href="#DejaVuSerif-32"/>
       <use xlink:href="#DejaVuSerif-2e" x="63.623047"/>
       <use xlink:href="#DejaVuSerif-35" x="95.410156"/>
      </g>
     </g>
    </g>
    <g id="xtick_7">
     <g id="line2d_7">
      <g>
       <use xlink:href="#m576b49964c" x="660.202597" y="448.56" style="stroke: #000000; stroke-width: 0.8"/>
      </g>
     </g>
     <g id="text_7">
      <!-- 3.0 -->
      <g transform="translate(645.889785 469.237188) scale(0.18 -0.18)">
       <defs>
        <path id="DejaVuSerif-33" d="M 622 4469 
Q 988 4606 1323 4678 
Q 1659 4750 1953 4750 
Q 2638 4750 3022 4454 
Q 3406 4159 3406 3634 
Q 3406 3213 3140 2930 
Q 2875 2647 2388 2547 
Q 2963 2466 3280 2130 
Q 3597 1794 3597 1259 
Q 3597 606 3158 257 
Q 2719 -91 1894 -91 
Q 1528 -91 1179 -12 
Q 831 66 488 225 
L 488 1131 
L 838 1131 
Q 869 681 1141 450 
Q 1413 219 1906 219 
Q 2384 219 2661 495 
Q 2938 772 2938 1253 
Q 2938 1803 2653 2086 
Q 2369 2369 1819 2369 
L 1522 2369 
L 1522 2688 
L 1678 2688 
Q 2225 2688 2498 2914 
Q 2772 3141 2772 3597 
Q 2772 4006 2547 4223 
Q 2322 4441 1900 4441 
Q 1478 4441 1245 4241 
Q 1013 4041 972 3647 
L 622 3647 
L 622 4469 
z
" transform="scale(0.015625)"/>
       </defs>
       <use xlink:href="#DejaVuSerif-33"/>
       <use xlink:href="#DejaVuSerif-2e" x="63.623047"/>
       <use xlink:href="#DejaVuSerif-30" x="95.410156"/>
      </g>
     </g>
    </g>
    <g id="xtick_8">
     <g id="line2d_8">
      <g>
       <use xlink:href="#m576b49964c" x="747.163636" y="448.56" style="stroke: #000000; stroke-width: 0.8"/>
      </g>
     </g>
     <g id="text_8">
      <!-- 3.5 -->
      <g transform="translate(732.850824 469.237188) scale(0.18 -0.18)">
       <use xlink:href="#DejaVuSerif-33"/>
       <use xlink:href="#DejaVuSerif-2e" x="63.623047"/>
       <use xlink:href="#DejaVuSerif-35" x="95.410156"/>
      </g>
     </g>
    </g>
   </g>
   <g id="matplotlib.axis_2">
    <g id="ytick_1">
     <g id="line2d_9">
      <defs>
       <path id="mecdb87aadd" d="M 0 0 
L -3.5 0 
" style="stroke: #000000; stroke-width: 0.8"/>
      </defs>
      <g>
       <use xlink:href="#mecdb87aadd" x="108" y="429.290311" style="stroke: #000000; stroke-width: 0.8"/>
      </g>
     </g>
     <g id="text_9">
      <!-- −2.5 -->
      <g transform="translate(57.290937 436.128904) scale(0.18 -0.18)">
       <defs>
        <path id="DejaVuSerif-2212" d="M 678 2259 
L 4684 2259 
L 4684 1753 
L 678 1753 
L 678 2259 
z
" transform="scale(0.015625)"/>
       </defs>
       <use xlink:href="#DejaVuSerif-2212"/>
       <use xlink:href="#DejaVuSerif-32" x="83.789062"/>
       <use xlink:href="#DejaVuSerif-2e" x="147.412109"/>
       <use xlink:href="#DejaVuSerif-35" x="179.199219"/>
      </g>
     </g>
    </g>
    <g id="ytick_2">
     <g id="line2d_10">
      <g>
       <use xlink:href="#mecdb87aadd" x="108" y="381.32383" style="stroke: #000000; stroke-width: 0.8"/>
      </g>
     </g>
     <g id="text_10">
      <!-- −2.0 -->
      <g transform="translate(57.290937 388.162423) scale(0.18 -0.18)">
       <use xlink:href="#DejaVuSerif-2212"/>
       <use xlink:href="#DejaVuSerif-32" x="83.789062"/>
       <use xlink:href="#DejaVuSerif-2e" x="147.412109"/>
       <use xlink:href="#DejaVuSerif-30" x="179.199219"/>
      </g>
     </g>
    </g>
    <g id="ytick_3">
     <g id="line2d_11">
      <g>
       <use xlink:href="#mecdb87aadd" x="108" y="333.357349" style="stroke: #000000; stroke-width: 0.8"/>
      </g>
     </g>
     <g id="text_11">
      <!-- −1.5 -->
      <g transform="translate(57.290937 340.195942) scale(0.18 -0.18)">
       <use xlink:href="#DejaVuSerif-2212"/>
       <use xlink:href="#DejaVuSerif-31" x="83.789062"/>
       <use xlink:href="#DejaVuSerif-2e" x="147.412109"/>
       <use xlink:href="#DejaVuSerif-35" x="179.199219"/>
      </g>
     </g>
    </g>
    <g id="ytick_4">
     <g id="line2d_12">
      <g>
       <use xlink:href="#mecdb87aadd" x="108" y="285.390867" style="stroke: #000000; stroke-width: 0.8"/>
      </g>
     </g>
     <g id="text_12">
      <!-- −1.0 -->
      <g transform="translate(57.290937 292.229461) scale(0.18 -0.18)">
       <use xlink:href="#DejaVuSerif-2212"/>
       <use xlink:href="#DejaVuSerif-31" x="83.789062"/>
       <use xlink:href="#DejaVuSerif-2e" x="147.412109"/>
       <use xlink:href="#DejaVuSerif-30" x="179.199219"/>
      </g>
     </g>
    </g>
    <g id="ytick_5">
     <g id="line2d_13">
      <g>
       <use xlink:href="#mecdb87aadd" x="108" y="237.424386" style="stroke: #000000; stroke-width: 0.8"/>
      </g>
     </g>
     <g id="text_13">
      <!-- −0.5 -->
      <g transform="translate(57.290937 244.26298) scale(0.18 -0.18)">
       <use xlink:href="#DejaVuSerif-2212"/>
       <use xlink:href="#DejaVuSerif-30" x="83.789062"/>
       <use xlink:href="#DejaVuSerif-2e" x="147.412109"/>
       <use xlink:href="#DejaVuSerif-35" x="179.199219"/>
      </g>
     </g>
    </g>
    <g id="ytick_6">
     <g id="line2d_14">
      <g>
       <use xlink:href="#mecdb87aadd" x="108" y="189.457905" style="stroke: #000000; stroke-width: 0.8"/>
      </g>
     </g>
     <g id="text_14">
      <!-- 0.0 -->
      <g transform="translate(72.374375 196.296499) scale(0.18 -0.18)">
       <use xlink:href="#DejaVuSerif-30"/>
       <use xlink:href="#DejaVuSerif-2e" x="63.623047"/>
       <use xlink:href="#DejaVuSerif-30" x="95.410156"/>
      </g>
     </g>
    </g>
    <g id="ytick_7">
     <g id="line2d_15">
      <g>
       <use xlink:href="#mecdb87aadd" x="108" y="141.491424" style="stroke: #000000; stroke-width: 0.8"/>
      </g>
     </g>
     <g id="text_15">
      <!-- 0.5 -->
      <g transform="translate(72.374375 148.330018) scale(0.18 -0.18)">
       <use xlink:href="#DejaVuSerif-30"/>
       <use xlink:href="#DejaVuSerif-2e" x="63.623047"/>
       <use xlink:href="#DejaVuSerif-35" x="95.410156"/>
      </g>
     </g>
    </g>
    <g id="ytick_8">
     <g id="line2d_16">
      <g>
       <use xlink:href="#mecdb87aadd" x="108" y="93.524943" style="stroke: #000000; stroke-width: 0.8"/>
      </g>
     </g>
     <g id="text_16">
      <!-- 1.0 -->
      <g transform="translate(72.374375 100.363537) scale(0.18 -0.18)">
       <use xlink:href="#DejaVuSerif-31"/>
       <use xlink:href="#DejaVuSerif-2e" x="63.623047"/>
       <use xlink:href="#DejaVuSerif-30" x="95.410156"/>
      </g>
     </g>
    </g>
    <g id="text_17">
     <!-- $\Delta G$ [eV] -->
     <g transform="translate(49.963437 285.56) rotate(-90) scale(0.16 -0.16)">
      <defs>
       <path id="DejaVuSans-394" d="M 2188 4044 
L 906 525 
L 3472 525 
L 2188 4044 
z
M 50 0 
L 1831 4666 
L 2547 4666 
L 4325 0 
L 50 0 
z
" transform="scale(0.015625)"/>
       <path id="DejaVuSans-Oblique-47" d="M 3494 697 
L 3738 1919 
L 2700 1919 
L 2797 2438 
L 4453 2438 
L 4050 384 
Q 3634 156 3143 32 
Q 2653 -91 2156 -91 
Q 1278 -91 783 396 
Q 288 884 288 1753 
Q 288 2475 589 3126 
Q 891 3778 1422 4213 
Q 1756 4484 2153 4617 
Q 2550 4750 3034 4750 
Q 3472 4750 3873 4639 
Q 4275 4528 4641 4306 
L 4513 3634 
Q 4231 3928 3853 4083 
Q 3475 4238 3047 4238 
Q 2550 4238 2172 4048 
Q 1794 3859 1497 3463 
Q 1244 3125 1098 2667 
Q 953 2209 953 1734 
Q 953 1081 1287 751 
Q 1622 422 2284 422 
Q 2616 422 2925 492 
Q 3234 563 3494 697 
z
" transform="scale(0.015625)"/>
       <path id="DejaVuSerif-20" transform="scale(0.015625)"/>
       <path id="DejaVuSerif-5b" d="M 550 4863 
L 2003 4863 
L 2003 4531 
L 1147 4531 
L 1147 -513 
L 2003 -513 
L 2003 -844 
L 550 -844 
L 550 4863 
z
" transform="scale(0.015625)"/>
       <path id="DejaVuSerif-65" d="M 3469 1600 
L 991 1600 
L 991 1575 
Q 991 903 1244 561 
Q 1497 219 1991 219 
Q 2369 219 2611 417 
Q 2853 616 2950 1006 
L 3413 1006 
Q 3275 459 2904 184 
Q 2534 -91 1931 -91 
Q 1203 -91 761 389 
Q 319 869 319 1663 
Q 319 2450 753 2931 
Q 1188 3413 1894 3413 
Q 2647 3413 3050 2948 
Q 3453 2484 3469 1600 
z
M 2791 1931 
Q 2772 2513 2545 2808 
Q 2319 3103 1894 3103 
Q 1497 3103 1269 2806 
Q 1041 2509 991 1931 
L 2791 1931 
z
" transform="scale(0.015625)"/>
       <path id="DejaVuSerif-56" d="M 1119 4331 
L 2497 750 
L 3872 4331 
L 3347 4331 
L 3347 4666 
L 4716 4666 
L 4716 4331 
L 4263 4331 
L 2597 0 
L 2059 0 
L 403 4331 
L -63 4331 
L -63 4666 
L 1638 4666 
L 1638 4331 
L 1119 4331 
z
" transform="scale(0.015625)"/>
       <path id="DejaVuSerif-5d" d="M 1947 4863 
L 1947 -844 
L 494 -844 
L 494 -513 
L 1350 -513 
L 1350 4531 
L 494 4531 
L 494 4863 
L 1947 4863 
z
" transform="scale(0.015625)"/>
      </defs>
      <use xlink:href="#DejaVuSans-394" transform="translate(0 0.015625)"/>
      <use xlink:href="#DejaVuSans-Oblique-47" transform="translate(68.408203 0.015625)"/>
      <use xlink:href="#DejaVuSerif-20" transform="translate(145.898438 0.015625)"/>
      <use xlink:href="#DejaVuSerif-5b" transform="translate(177.685547 0.015625)"/>
      <use xlink:href="#DejaVuSerif-65" transform="translate(216.699219 0.015625)"/>
      <use xlink:href="#DejaVuSerif-56" transform="translate(275.878906 0.015625)"/>
      <use xlink:href="#DejaVuSerif-5d" transform="translate(348.095703 0.015625)"/>
     </g>
    </g>
   </g>
   <g id="line2d_17">
    <path d="M 138.436364 189.457905 
L 225.397403 189.457905 
" clip-path="url(#p6ea460acaa)" style="fill: none; stroke: #1f77b4; stroke-width: 2; stroke-linecap: square"/>
   </g>
   <g id="line2d_18">
    <path d="M 312.358442 310.188953 
L 399.319481 310.188953 
" clip-path="url(#p6ea460acaa)" style="fill: none; stroke: #1f77b4; stroke-width: 2; stroke-linecap: square"/>
   </g>
   <g id="line2d_19">
    <path d="M 486.280519 430.92 
L 573.241558 430.92 
" clip-path="url(#p6ea460acaa)" style="fill: none; stroke: #1f77b4; stroke-width: 2; stroke-linecap: square"/>
   </g>
   <g id="line2d_20">
    <path d="M 660.202597 397.25152 
L 747.163636 397.25152 
" clip-path="url(#p6ea460acaa)" style="fill: none; stroke: #1f77b4; stroke-width: 2; stroke-linecap: square"/>
   </g>
   <g id="line2d_21">
    <path d="M 225.397403 189.457905 
L 229.974299 175.324529 
L 234.551196 163.467557 
L 239.128093 153.88699 
L 243.70499 146.582827 
L 248.281887 141.555069 
L 252.858783 138.803716 
L 257.43568 138.328768 
L 262.012577 140.130224 
L 266.589474 144.208085 
L 271.16637 150.562351 
L 275.743267 159.193021 
L 280.320164 170.100096 
L 284.897061 183.283576 
L 289.473958 198.74346 
L 294.050854 216.479749 
L 298.627751 236.492443 
L 303.204648 258.781542 
L 307.781545 283.347045 
L 312.358442 310.188953 
" clip-path="url(#p6ea460acaa)" style="fill: none; stroke-dasharray: 7.4,3.2; stroke-dashoffset: 0; stroke: #1f77b4; stroke-width: 2"/>
   </g>
   <g id="line2d_22">
    <path d="M 399.319481 310.188953 
L 403.896377 296.055576 
L 408.473274 284.198604 
L 413.050171 274.618037 
L 417.627068 267.313874 
L 422.203964 262.286117 
L 426.780861 259.534764 
L 431.357758 259.059815 
L 435.934655 260.861271 
L 440.511552 264.939132 
L 445.088448 271.293398 
L 449.665345 279.924068 
L 454.242242 290.831143 
L 458.819139 304.014623 
L 463.396036 319.474508 
L 467.972932 337.210797 
L 472.549829 357.22349 
L 477.126726 379.512589 
L 481.703623 404.078092 
L 486.280519 430.92 
" clip-path="url(#p6ea460acaa)" style="fill: none; stroke-dasharray: 7.4,3.2; stroke-dashoffset: 0; stroke: #1f77b4; stroke-width: 2"/>
   </g>
   <g id="line2d_23">
    <path d="M 573.241558 430.92 
L 577.818455 415.633201 
L 582.395352 401.848044 
L 586.972249 389.564528 
L 591.549146 378.782654 
L 596.126042 369.502421 
L 600.702939 361.72383 
L 605.279836 355.44688 
L 609.856733 350.671572 
L 614.43363 347.397905 
L 619.010526 345.62588 
L 623.587423 345.355496 
L 628.16432 346.586754 
L 632.741217 349.319653 
L 637.318113 353.554194 
L 641.89501 359.290376 
L 646.471907 366.5282 
L 651.048804 375.267665 
L 655.625701 385.508772 
L 660.202597 397.25152 
" clip-path="url(#p6ea460acaa)" style="fill: none; stroke-dasharray: 12.8,3.2,2,3.2; stroke-dashoffset: 0; stroke: #1f77b4; stroke-width: 2"/>
   </g>
   <g id="line2d_24">
    <path d="M 138.436364 189.457905 
L 225.397403 189.457905 
" clip-path="url(#p6ea460acaa)" style="fill: none; stroke: #ff7f0e; stroke-width: 2; stroke-linecap: square"/>
   </g>
   <g id="line2d_25">
    <path d="M 312.358442 262.222472 
L 399.319481 262.222472 
" clip-path="url(#p6ea460acaa)" style="fill: none; stroke: #ff7f0e; stroke-width: 2; stroke-linecap: square"/>
   </g>
   <g id="line2d_26">
    <path d="M 486.280519 334.987038 
L 573.241558 334.987038 
" clip-path="url(#p6ea460acaa)" style="fill: none; stroke: #ff7f0e; stroke-width: 2; stroke-linecap: square"/>
   </g>
   <g id="line2d_27">
    <path d="M 660.202597 301.318558 
L 747.163636 301.318558 
" clip-path="url(#p6ea460acaa)" style="fill: none; stroke: #ff7f0e; stroke-width: 2; stroke-linecap: square"/>
   </g>
   <g id="line2d_28">
    <path d="M 225.397403 189.457905 
L 229.974299 171.721038 
L 234.551196 156.380457 
L 239.128093 143.436163 
L 243.70499 132.888156 
L 248.281887 124.736436 
L 252.858783 118.981002 
L 257.43568 115.621856 
L 262.012577 114.658996 
L 266.589474 116.092423 
L 271.16637 119.922138 
L 275.743267 126.148138 
L 280.320164 134.770426 
L 284.897061 145.789001 
L 289.473958 159.203862 
L 294.050854 175.01501 
L 298.627751 193.222445 
L 303.204648 213.826167 
L 307.781545 236.826176 
L 312.358442 262.222472 
" clip-path="url(#p6ea460acaa)" style="fill: none; stroke-dasharray: 7.4,3.2; stroke-dashoffset: 0; stroke: #ff7f0e; stroke-width: 2"/>
   </g>
   <g id="line2d_29">
    <path d="M 399.319481 262.222472 
L 403.896377 244.485604 
L 408.473274 229.145023 
L 413.050171 216.200729 
L 417.627068 205.652722 
L 422.203964 197.501002 
L 426.780861 191.745569 
L 431.357758 188.386422 
L 435.934655 187.423563 
L 440.511552 188.85699 
L 445.088448 192.686704 
L 449.665345 198.912705 
L 454.242242 207.534992 
L 458.819139 218.553567 
L 463.396036 231.968428 
L 467.972932 247.779577 
L 472.549829 265.987012 
L 477.126726 286.590733 
L 481.703623 309.590742 
L 486.280519 334.987038 
" clip-path="url(#p6ea460acaa)" style="fill: none; stroke-dasharray: 7.4,3.2; stroke-dashoffset: 0; stroke: #ff7f0e; stroke-width: 2"/>
   </g>
   <g id="line2d_30">
    <path d="M 573.241558 334.987038 
L 577.818455 319.700239 
L 582.395352 305.915082 
L 586.972249 293.631566 
L 591.549146 282.849692 
L 596.126042 273.569459 
L 600.702939 265.790868 
L 605.279836 259.513918 
L 609.856733 254.73861 
L 614.43363 251.464943 
L 619.010526 249.692918 
L 623.587423 249.422534 
L 628.16432 250.653792 
L 632.741217 253.386691 
L 637.318113 257.621232 
L 641.89501 263.357414 
L 646.471907 270.595238 
L 651.048804 279.334703 
L 655.625701 289.57581 
L 660.202597 301.318558 
" clip-path="url(#p6ea460acaa)" style="fill: none; stroke-dasharray: 12.8,3.2,2,3.2; stroke-dashoffset: 0; stroke: #ff7f0e; stroke-width: 2"/>
   </g>
   <g id="line2d_31">
    <path d="M 138.436364 189.457905 
L 225.397403 189.457905 
" clip-path="url(#p6ea460acaa)" style="fill: none; stroke: #2ca02c; stroke-width: 2; stroke-linecap: square"/>
   </g>
   <g id="line2d_32">
    <path d="M 312.358442 214.25599 
L 399.319481 214.25599 
" clip-path="url(#p6ea460acaa)" style="fill: none; stroke: #2ca02c; stroke-width: 2; stroke-linecap: square"/>
   </g>
   <g id="line2d_33">
    <path d="M 486.280519 239.054076 
L 573.241558 239.054076 
" clip-path="url(#p6ea460acaa)" style="fill: none; stroke: #2ca02c; stroke-width: 2; stroke-linecap: square"/>
   </g>
   <g id="line2d_34">
    <path d="M 660.202597 205.385596 
L 747.163636 205.385596 
" clip-path="url(#p6ea460acaa)" style="fill: none; stroke: #2ca02c; stroke-width: 2; stroke-linecap: square"/>
   </g>
   <g id="line2d_35">
    <path d="M 225.397403 189.457905 
L 229.974299 168.735014 
L 234.551196 150.459684 
L 239.128093 134.631916 
L 243.70499 121.25171 
L 248.281887 110.319065 
L 252.858783 101.833981 
L 257.43568 95.796459 
L 262.012577 92.206498 
L 266.589474 91.064099 
L 271.16637 92.369261 
L 275.743267 96.121985 
L 280.320164 102.322271 
L 284.897061 110.970118 
L 289.473958 122.065526 
L 294.050854 135.608496 
L 298.627751 151.599027 
L 303.204648 170.03712 
L 307.781545 190.922775 
L 312.358442 214.25599 
" clip-path="url(#p6ea460acaa)" style="fill: none; stroke-dasharray: 7.4,3.2; stroke-dashoffset: 0; stroke: #2ca02c; stroke-width: 2"/>
   </g>
   <g id="line2d_36">
    <path d="M 399.319481 214.25599 
L 403.896377 193.533099 
L 408.473274 175.25777 
L 413.050171 159.430001 
L 417.627068 146.049795 
L 422.203964 135.11715 
L 426.780861 126.632066 
L 431.357758 120.594544 
L 435.934655 117.004583 
L 440.511552 115.862184 
L 445.088448 117.167347 
L 449.665345 120.92007 
L 454.242242 127.120356 
L 458.819139 135.768203 
L 463.396036 146.863611 
L 467.972932 160.406581 
L 472.549829 176.397112 
L 477.126726 194.835205 
L 481.703623 215.72086 
L 486.280519 239.054076 
" clip-path="url(#p6ea460acaa)" style="fill: none; stroke-dasharray: 7.4,3.2; stroke-dashoffset: 0; stroke: #2ca02c; stroke-width: 2"/>
   </g>
   <g id="line2d_37">
    <path d="M 573.241558 239.054076 
L 577.818455 223.767277 
L 582.395352 209.98212 
L 586.972249 197.698604 
L 591.549146 186.91673 
L 596.126042 177.636497 
L 600.702939 169.857906 
L 605.279836 163.580956 
L 609.856733 158.805648 
L 614.43363 155.531981 
L 619.010526 153.759956 
L 623.587423 153.489572 
L 628.16432 154.72083 
L 632.741217 157.453729 
L 637.318113 161.68827 
L 641.89501 167.424452 
L 646.471907 174.662275 
L 651.048804 183.401741 
L 655.625701 193.642847 
L 660.202597 205.385596 
" clip-path="url(#p6ea460acaa)" style="fill: none; stroke-dasharray: 12.8,3.2,2,3.2; stroke-dashoffset: 0; stroke: #2ca02c; stroke-width: 2"/>
   </g>
   <g id="line2d_38">
    <path d="M 138.436364 189.457905 
L 225.397403 189.457905 
" clip-path="url(#p6ea460acaa)" style="fill: none; stroke: #1f77b4; stroke-width: 2; stroke-linecap: square"/>
   </g>
   <g id="line2d_39">
    <path d="M 312.358442 310.188953 
L 399.319481 310.188953 
" clip-path="url(#p6ea460acaa)" style="fill: none; stroke: #1f77b4; stroke-width: 2; stroke-linecap: square"/>
   </g>
   <g id="line2d_40">
    <path d="M 486.280519 397.25152 
L 573.241558 397.25152 
" clip-path="url(#p6ea460acaa)" style="fill: none; stroke: #1f77b4; stroke-width: 2; stroke-linecap: square"/>
   </g>
   <g id="line2d_41">
    <path d="M 225.397403 189.457905 
L 229.974299 175.324529 
L 234.551196 163.467557 
L 239.128093 153.88699 
L 243.70499 146.582827 
L 248.281887 141.555069 
L 252.858783 138.803716 
L 257.43568 138.328768 
L 262.012577 140.130224 
L 266.589474 144.208085 
L 271.16637 150.562351 
L 275.743267 159.193021 
L 280.320164 170.100096 
L 284.897061 183.283576 
L 289.473958 198.74346 
L 294.050854 216.479749 
L 298.627751 236.492443 
L 303.204648 258.781542 
L 307.781545 283.347045 
L 312.358442 310.188953 
" clip-path="url(#p6ea460acaa)" style="fill: none; stroke-dasharray: 7.4,3.2; stroke-dashoffset: 0; stroke: #1f77b4; stroke-width: 2"/>
   </g>
   <g id="line2d_42">
    <path d="M 399.319481 310.188953 
L 403.896377 290.872212 
L 408.473274 274.210914 
L 413.050171 260.205058 
L 417.627068 248.854644 
L 422.203964 240.159673 
L 426.780861 234.120144 
L 431.357758 230.736057 
L 435.934655 230.007413 
L 440.511552 231.934211 
L 445.088448 236.516451 
L 449.665345 243.754134 
L 454.242242 253.647259 
L 458.819139 266.195826 
L 463.396036 281.399836 
L 467.972932 299.259288 
L 472.549829 319.774183 
L 477.126726 342.944519 
L 481.703623 368.770299 
L 486.280519 397.25152 
" clip-path="url(#p6ea460acaa)" style="fill: none; stroke-dasharray: 2,3.3; stroke-dashoffset: 0; stroke: #1f77b4; stroke-width: 2"/>
   </g>
   <g id="line2d_43">
    <path d="M 138.436364 189.457905 
L 225.397403 189.457905 
" clip-path="url(#p6ea460acaa)" style="fill: none; stroke: #ff7f0e; stroke-width: 2; stroke-linecap: square"/>
   </g>
   <g id="line2d_44">
    <path d="M 312.358442 262.222472 
L 399.319481 262.222472 
" clip-path="url(#p6ea460acaa)" style="fill: none; stroke: #ff7f0e; stroke-width: 2; stroke-linecap: square"/>
   </g>
   <g id="line2d_45">
    <path d="M 486.280519 301.318558 
L 573.241558 301.318558 
" clip-path="url(#p6ea460acaa)" style="fill: none; stroke: #ff7f0e; stroke-width: 2; stroke-linecap: square"/>
   </g>
   <g id="line2d_46">
    <path d="M 225.397403 189.457905 
L 229.974299 171.721038 
L 234.551196 156.380457 
L 239.128093 143.436163 
L 243.70499 132.888156 
L 248.281887 124.736436 
L 252.858783 118.981002 
L 257.43568 115.621856 
L 262.012577 114.658996 
L 266.589474 116.092423 
L 271.16637 119.922138 
L 275.743267 126.148138 
L 280.320164 134.770426 
L 284.897061 145.789001 
L 289.473958 159.203862 
L 294.050854 175.01501 
L 298.627751 193.222445 
L 303.204648 213.826167 
L 307.781545 236.826176 
L 312.358442 262.222472 
" clip-path="url(#p6ea460acaa)" style="fill: none; stroke-dasharray: 7.4,3.2; stroke-dashoffset: 0; stroke: #ff7f0e; stroke-width: 2"/>
   </g>
   <g id="line2d_47">
    <path d="M 399.319481 262.222472 
L 403.896377 238.935892 
L 408.473274 218.465343 
L 413.050171 200.810823 
L 417.627068 185.972333 
L 422.203964 173.949873 
L 426.780861 164.743443 
L 431.357758 158.353042 
L 435.934655 154.778671 
L 440.511552 154.02033 
L 445.088448 156.078019 
L 449.665345 160.951738 
L 454.242242 168.641486 
L 458.819139 179.147264 
L 463.396036 192.469072 
L 467.972932 208.606909 
L 472.549829 227.560777 
L 477.126726 249.330674 
L 481.703623 273.916601 
L 486.280519 301.318558 
" clip-path="url(#p6ea460acaa)" style="fill: none; stroke-dasharray: 2,3.3; stroke-dashoffset: 0; stroke: #ff7f0e; stroke-width: 2"/>
   </g>
   <g id="line2d_48">
    <path d="M 138.436364 189.457905 
L 225.397403 189.457905 
" clip-path="url(#p6ea460acaa)" style="fill: none; stroke: #2ca02c; stroke-width: 2; stroke-linecap: square"/>
   </g>
   <g id="line2d_49">
    <path d="M 312.358442 214.25599 
L 399.319481 214.25599 
" clip-path="url(#p6ea460acaa)" style="fill: none; stroke: #2ca02c; stroke-width: 2; stroke-linecap: square"/>
   </g>
   <g id="line2d_50">
    <path d="M 486.280519 205.385596 
L 573.241558 205.385596 
" clip-path="url(#p6ea460acaa)" style="fill: none; stroke: #2ca02c; stroke-width: 2; stroke-linecap: square"/>
   </g>
   <g id="line2d_51">
    <path d="M 225.397403 189.457905 
L 229.974299 168.735014 
L 234.551196 150.459684 
L 239.128093 134.631916 
L 243.70499 121.25171 
L 248.281887 110.319065 
L 252.858783 101.833981 
L 257.43568 95.796459 
L 262.012577 92.206498 
L 266.589474 91.064099 
L 271.16637 92.369261 
L 275.743267 96.121985 
L 280.320164 102.322271 
L 284.897061 110.970118 
L 289.473958 122.065526 
L 294.050854 135.608496 
L 298.627751 151.599027 
L 303.204648 170.03712 
L 307.781545 190.922775 
L 312.358442 214.25599 
" clip-path="url(#p6ea460acaa)" style="fill: none; stroke-dasharray: 7.4,3.2; stroke-dashoffset: 0; stroke: #2ca02c; stroke-width: 2"/>
   </g>
   <g id="line2d_52">
    <path d="M 399.319481 214.25599 
L 403.896377 187.495655 
L 408.473274 163.656817 
L 413.050171 142.739476 
L 417.627068 124.743631 
L 422.203964 109.669284 
L 426.780861 97.516433 
L 431.357758 88.285079 
L 435.934655 81.975223 
L 440.511552 78.586863 
L 445.088448 78.12 
L 449.665345 80.574634 
L 454.242242 85.950765 
L 458.819139 94.248393 
L 463.396036 105.467518 
L 467.972932 119.608139 
L 472.549829 136.670258 
L 477.126726 156.653874 
L 481.703623 179.558986 
L 486.280519 205.385596 
" clip-path="url(#p6ea460acaa)" style="fill: none; stroke-dasharray: 2,3.3; stroke-dashoffset: 0; stroke: #2ca02c; stroke-width: 2"/>
   </g>
   <g id="patch_3">
    <path d="M 108 448.56 
L 108 60.48 
" style="fill: none; stroke: #000000; stroke-width: 0.8; stroke-linejoin: miter; stroke-linecap: square"/>
   </g>
   <g id="patch_4">
    <path d="M 777.6 448.56 
L 777.6 60.48 
" style="fill: none; stroke: #000000; stroke-width: 0.8; stroke-linejoin: miter; stroke-linecap: square"/>
   </g>
   <g id="patch_5">
    <path d="M 108 448.56 
L 777.6 448.56 
" style="fill: none; stroke: #000000; stroke-width: 0.8; stroke-linejoin: miter; stroke-linecap: square"/>
   </g>
   <g id="patch_6">
    <path d="M 108 60.48 
L 777.6 60.48 
" style="fill: none; stroke: #000000; stroke-width: 0.8; stroke-linejoin: miter; stroke-linecap: square"/>
   </g>
  </g>
 </g>
 <defs>
  <clipPath id="p6ea460acaa">
   <rect x="108" y="60.48" width="669.6" height="388.08"/>
  </clipPath>
 </defs>
</svg>
