<?xml version="1.0" encoding="utf-8" standalone="no"?>
<!DOCTYPE svg PUBLIC "-//W3C//DTD SVG 1.1//EN"
  "http://www.w3.org/Graphics/SVG/1.1/DTD/svg11.dtd">
<svg xmlns:xlink="http://www.w3.org/1999/xlink" width="864pt" height="504pt" viewBox="0 0 864 504" xmlns="http://www.w3.org/2000/svg" version="1.1">
 <metadata>
  <rdf:RDF xmlns:dc="http://purl.org/dc/elements/1.1/" xmlns:cc="http://creativecommons.org/ns#" xmlns:rdf="http://www.w3.org/1999/02/22-rdf-syntax-ns#">
   <cc:Work>
    <dc:type rdf:resource="http://purl.org/dc/dcmitype/StillImage"/>
    <dc:date>2025-05-21T01:09:23.158856</dc:date>
    <dc:format>image/svg+xml</dc:format>
    <dc:creator>
     <cc:Agent>
      <dc:title>Matplotlib v3.7.2, https://matplotlib.org/</dc:title>
     </cc:Agent>
    </dc:creator>
   </cc:Work>
  </rdf:RDF>
 </metadata>
 <defs>
  <style type="text/css">*{stroke-linejoin: round; stroke-linecap: butt}</style>
 </defs>
 <g id="figure_1">
  <g id="patch_1">
   <path d="M 0 504 
L 864 504 
L 864 0 
L 0 0 
z
" style="fill: #ffffff"/>
  </g>
  <g id="axes_1">
   <g id="patch_2">
    <path d="M 108 448.56 
L 777.6 448.56 
L 777.6 60.48 
L 108 60.48 
z
" style="fill: #ffffff"/>
   </g>
   <g id="matplotlib.axis_1">
    <g id="xtick_1">
     <g id="line2d_1">
      <defs>
       <path id="m1b6f67be48" d="M 0 0 
L 0 3.5 
" style="stroke: #000000; stroke-width: 0.8"/>
      </defs>
      <g>
       <use xlink:href="#m1b6f67be48" x="138.436364" y="448.56" style="stroke: #000000; stroke-width: 0.8"/>
      </g>
     </g>
     <g id="text_1">
      <!-- 0.0 -->
      <g transform="translate(124.123551 469.237188) scale(0.18 -0.18)">
       <defs>
        <path id="DejaVuSerif-30" d="M 2034 219 
Q 2513 219 2750 744 
Q 2988 1269 2988 2328 
Q 2988 3391 2750 3916 
Q 2513 4441 2034 4441 
Q 1556 4441 1318 3916 
Q 1081 3391 1081 2328 
Q 1081 1269 1318 744 
Q 1556 219 2034 219 
z
M 2034 -91 
Q 1275 -91 848 546 
Q 422 1184 422 2328 
Q 422 3475 848 4112 
Q 1275 4750 2034 4750 
Q 2797 4750 3222 4112 
Q 3647 3475 3647 2328 
Q 3647 1184 3222 546 
Q 2797 -91 2034 -91 
z
" transform="scale(0.015625)"/>
        <path id="DejaVuSerif-2e" d="M 603 325 
Q 603 500 722 622 
Q 841 744 1019 744 
Q 1191 744 1312 622 
Q 1434 500 1434 325 
Q 1434 153 1312 31 
Q 1191 -91 1019 -91 
Q 841 -91 722 29 
Q 603 150 603 325 
z
" transform="scale(0.015625)"/>
       </defs>
       <use xlink:href="#DejaVuSerif-30"/>
       <use xlink:href="#DejaVuSerif-2e" x="63.623047"/>
       <use xlink:href="#DejaVuSerif-30" x="95.410156"/>
      </g>
     </g>
    </g>
    <g id="xtick_2">
     <g id="line2d_2">
      <g>
       <use xlink:href="#m1b6f67be48" x="225.397403" y="448.56" style="stroke: #000000; stroke-width: 0.8"/>
      </g>
     </g>
     <g id="text_2">
      <!-- 0.5 -->
      <g transform="translate(211.08459 469.237188) scale(0.18 -0.18)">
       <defs>
        <path id="DejaVuSerif-35" d="M 3219 4666 
L 3219 4153 
L 1081 4153 
L 1081 2816 
Q 1244 2928 1461 2984 
Q 1678 3041 1947 3041 
Q 2703 3041 3140 2622 
Q 3578 2203 3578 1478 
Q 3578 738 3136 323 
Q 2694 -91 1894 -91 
Q 1572 -91 1234 -12 
Q 897 66 544 225 
L 544 1131 
L 897 1131 
Q 925 688 1179 453 
Q 1434 219 1894 219 
Q 2388 219 2653 544 
Q 2919 869 2919 1478 
Q 2919 2084 2655 2407 
Q 2391 2731 1894 2731 
Q 1613 2731 1398 2631 
Q 1184 2531 1019 2322 
L 750 2322 
L 750 4666 
L 3219 4666 
z
" transform="scale(0.015625)"/>
       </defs>
       <use xlink:href="#DejaVuSerif-30"/>
       <use xlink:href="#DejaVuSerif-2e" x="63.623047"/>
       <use xlink:href="#DejaVuSerif-35" x="95.410156"/>
      </g>
     </g>
    </g>
    <g id="xtick_3">
     <g id="line2d_3">
      <g>
       <use xlink:href="#m1b6f67be48" x="312.358442" y="448.56" style="stroke: #000000; stroke-width: 0.8"/>
      </g>
     </g>
     <g id="text_3">
      <!-- 1.0 -->
      <g transform="translate(298.045629 469.237188) scale(0.18 -0.18)">
       <defs>
        <path id="DejaVuSerif-31" d="M 909 0 
L 909 331 
L 1722 331 
L 1722 4213 
L 781 3603 
L 781 4013 
L 1919 4750 
L 2350 4750 
L 2350 331 
L 3163 331 
L 3163 0 
L 909 0 
z
" transform="scale(0.015625)"/>
       </defs>
       <use xlink:href="#DejaVuSerif-31"/>
       <use xlink:href="#DejaVuSerif-2e" x="63.623047"/>
       <use xlink:href="#DejaVuSerif-30" x="95.410156"/>
      </g>
     </g>
    </g>
    <g id="xtick_4">
     <g id="line2d_4">
      <g>
       <use xlink:href="#m1b6f67be48" x="399.319481" y="448.56" style="stroke: #000000; stroke-width: 0.8"/>
      </g>
     </g>
     <g id="text_4">
      <!-- 1.5 -->
      <g transform="translate(385.006668 469.237188) scale(0.18 -0.18)">
       <use xlink:href="#DejaVuSerif-31"/>
       <use xlink:href="#DejaVuSerif-2e" x="63.623047"/>
       <use xlink:href="#DejaVuSerif-35" x="95.410156"/>
      </g>
     </g>
    </g>
    <g id="xtick_5">
     <g id="line2d_5">
      <g>
       <use xlink:href="#m1b6f67be48" x="486.280519" y="448.56" style="stroke: #000000; stroke-width: 0.8"/>
      </g>
     </g>
     <g id="text_5">
      <!-- 2.0 -->
      <g transform="translate(471.967707 469.237188) scale(0.18 -0.18)">
       <defs>
        <path id="DejaVuSerif-32" d="M 819 3553 
L 469 3553 
L 469 4384 
Q 803 4563 1142 4656 
Q 1481 4750 1806 4750 
Q 2534 4750 2956 4397 
Q 3378 4044 3378 3438 
Q 3378 2753 2422 1800 
Q 2347 1728 2309 1691 
L 1131 513 
L 3078 513 
L 3078 1088 
L 3444 1088 
L 3444 0 
L 434 0 
L 434 341 
L 1850 1753 
Q 2319 2222 2519 2614 
Q 2719 3006 2719 3438 
Q 2719 3909 2473 4175 
Q 2228 4441 1797 4441 
Q 1350 4441 1106 4219 
Q 863 3997 819 3553 
z
" transform="scale(0.015625)"/>
       </defs>
       <use xlink:href="#DejaVuSerif-32"/>
       <use xlink:href="#DejaVuSerif-2e" x="63.623047"/>
       <use xlink:href="#DejaVuSerif-30" x="95.410156"/>
      </g>
     </g>
    </g>
    <g id="xtick_6">
     <g id="line2d_6">
      <g>
       <use xlink:href="#m1b6f67be48" x="573.241558" y="448.56" style="stroke: #000000; stroke-width: 0.8"/>
      </g>
     </g>
     <g id="text_6">
      <!-- 2.5 -->
      <g transform="translate(558.928746 469.237188) scale(0.18 -0.18)">
       <use xlink:href="#DejaVuSerif-32"/>
       <use xlink:href="#DejaVuSerif-2e" x="63.623047"/>
       <use xlink:href="#DejaVuSerif-35" x="95.410156"/>
      </g>
     </g>
    </g>
    <g id="xtick_7">
     <g id="line2d_7">
      <g>
       <use xlink:href="#m1b6f67be48" x="660.202597" y="448.56" style="stroke: #000000; stroke-width: 0.8"/>
      </g>
     </g>
     <g id="text_7">
      <!-- 3.0 -->
      <g transform="translate(645.889785 469.237188) scale(0.18 -0.18)">
       <defs>
        <path id="DejaVuSerif-33" d="M 622 4469 
Q 988 4606 1323 4678 
Q 1659 4750 1953 4750 
Q 2638 4750 3022 4454 
Q 3406 4159 3406 3634 
Q 3406 3213 3140 2930 
Q 2875 2647 2388 2547 
Q 2963 2466 3280 2130 
Q 3597 1794 3597 1259 
Q 3597 606 3158 257 
Q 2719 -91 1894 -91 
Q 1528 -91 1179 -12 
Q 831 66 488 225 
L 488 1131 
L 838 1131 
Q 869 681 1141 450 
Q 1413 219 1906 219 
Q 2384 219 2661 495 
Q 2938 772 2938 1253 
Q 2938 1803 2653 2086 
Q 2369 2369 1819 2369 
L 1522 2369 
L 1522 2688 
L 1678 2688 
Q 2225 2688 2498 2914 
Q 2772 3141 2772 3597 
Q 2772 4006 2547 4223 
Q 2322 4441 1900 4441 
Q 1478 4441 1245 4241 
Q 1013 4041 972 3647 
L 622 3647 
L 622 4469 
z
" transform="scale(0.015625)"/>
       </defs>
       <use xlink:href="#DejaVuSerif-33"/>
       <use xlink:href="#DejaVuSerif-2e" x="63.623047"/>
       <use xlink:href="#DejaVuSerif-30" x="95.410156"/>
      </g>
     </g>
    </g>
    <g id="xtick_8">
     <g id="line2d_8">
      <g>
       <use xlink:href="#m1b6f67be48" x="747.163636" y="448.56" style="stroke: #000000; stroke-width: 0.8"/>
      </g>
     </g>
     <g id="text_8">
      <!-- 3.5 -->
      <g transform="translate(732.850824 469.237188) scale(0.18 -0.18)">
       <use xlink:href="#DejaVuSerif-33"/>
       <use xlink:href="#DejaVuSerif-2e" x="63.623047"/>
       <use xlink:href="#DejaVuSerif-35" x="95.410156"/>
      </g>
     </g>
    </g>
   </g>
   <g id="matplotlib.axis_2">
    <g id="ytick_1">
     <g id="line2d_9">
      <defs>
       <path id="m0dcea5679b" d="M 0 0 
L -3.5 0 
" style="stroke: #000000; stroke-width: 0.8"/>
      </defs>
      <g>
       <use xlink:href="#m0dcea5679b" x="108" y="448.455181" style="stroke: #000000; stroke-width: 0.8"/>
      </g>
     </g>
     <g id="text_9">
      <!-- −2.5 -->
      <g transform="translate(57.290937 455.293775) scale(0.18 -0.18)">
       <defs>
        <path id="DejaVuSerif-2212" d="M 678 2259 
L 4684 2259 
L 4684 1753 
L 678 1753 
L 678 2259 
z
" transform="scale(0.015625)"/>
       </defs>
       <use xlink:href="#DejaVuSerif-2212"/>
       <use xlink:href="#DejaVuSerif-32" x="83.789062"/>
       <use xlink:href="#DejaVuSerif-2e" x="147.412109"/>
       <use xlink:href="#DejaVuSerif-35" x="179.199219"/>
      </g>
     </g>
    </g>
    <g id="ytick_2">
     <g id="line2d_10">
      <g>
       <use xlink:href="#m0dcea5679b" x="108" y="400.478031" style="stroke: #000000; stroke-width: 0.8"/>
      </g>
     </g>
     <g id="text_10">
      <!-- −2.0 -->
      <g transform="translate(57.290937 407.316624) scale(0.18 -0.18)">
       <use xlink:href="#DejaVuSerif-2212"/>
       <use xlink:href="#DejaVuSerif-32" x="83.789062"/>
       <use xlink:href="#DejaVuSerif-2e" x="147.412109"/>
       <use xlink:href="#DejaVuSerif-30" x="179.199219"/>
      </g>
     </g>
    </g>
    <g id="ytick_3">
     <g id="line2d_11">
      <g>
       <use xlink:href="#m0dcea5679b" x="108" y="352.50088" style="stroke: #000000; stroke-width: 0.8"/>
      </g>
     </g>
     <g id="text_11">
      <!-- −1.5 -->
      <g transform="translate(57.290937 359.339473) scale(0.18 -0.18)">
       <use xlink:href="#DejaVuSerif-2212"/>
       <use xlink:href="#DejaVuSerif-31" x="83.789062"/>
       <use xlink:href="#DejaVuSerif-2e" x="147.412109"/>
       <use xlink:href="#DejaVuSerif-35" x="179.199219"/>
      </g>
     </g>
    </g>
    <g id="ytick_4">
     <g id="line2d_12">
      <g>
       <use xlink:href="#m0dcea5679b" x="108" y="304.523729" style="stroke: #000000; stroke-width: 0.8"/>
      </g>
     </g>
     <g id="text_12">
      <!-- −1.0 -->
      <g transform="translate(57.290937 311.362322) scale(0.18 -0.18)">
       <use xlink:href="#DejaVuSerif-2212"/>
       <use xlink:href="#DejaVuSerif-31" x="83.789062"/>
       <use xlink:href="#DejaVuSerif-2e" x="147.412109"/>
       <use xlink:href="#DejaVuSerif-30" x="179.199219"/>
      </g>
     </g>
    </g>
    <g id="ytick_5">
     <g id="line2d_13">
      <g>
       <use xlink:href="#m0dcea5679b" x="108" y="256.546578" style="stroke: #000000; stroke-width: 0.8"/>
      </g>
     </g>
     <g id="text_13">
      <!-- −0.5 -->
      <g transform="translate(57.290937 263.385172) scale(0.18 -0.18)">
       <use xlink:href="#DejaVuSerif-2212"/>
       <use xlink:href="#DejaVuSerif-30" x="83.789062"/>
       <use xlink:href="#DejaVuSerif-2e" x="147.412109"/>
       <use xlink:href="#DejaVuSerif-35" x="179.199219"/>
      </g>
     </g>
    </g>
    <g id="ytick_6">
     <g id="line2d_14">
      <g>
       <use xlink:href="#m0dcea5679b" x="108" y="208.569427" style="stroke: #000000; stroke-width: 0.8"/>
      </g>
     </g>
     <g id="text_14">
      <!-- 0.0 -->
      <g transform="translate(72.374375 215.408021) scale(0.18 -0.18)">
       <use xlink:href="#DejaVuSerif-30"/>
       <use xlink:href="#DejaVuSerif-2e" x="63.623047"/>
       <use xlink:href="#DejaVuSerif-30" x="95.410156"/>
      </g>
     </g>
    </g>
    <g id="ytick_7">
     <g id="line2d_15">
      <g>
       <use xlink:href="#m0dcea5679b" x="108" y="160.592276" style="stroke: #000000; stroke-width: 0.8"/>
      </g>
     </g>
     <g id="text_15">
      <!-- 0.5 -->
      <g transform="translate(72.374375 167.43087) scale(0.18 -0.18)">
       <use xlink:href="#DejaVuSerif-30"/>
       <use xlink:href="#DejaVuSerif-2e" x="63.623047"/>
       <use xlink:href="#DejaVuSerif-35" x="95.410156"/>
      </g>
     </g>
    </g>
    <g id="ytick_8">
     <g id="line2d_16">
      <g>
       <use xlink:href="#m0dcea5679b" x="108" y="112.615125" style="stroke: #000000; stroke-width: 0.8"/>
      </g>
     </g>
     <g id="text_16">
      <!-- 1.0 -->
      <g transform="translate(72.374375 119.453719) scale(0.18 -0.18)">
       <use xlink:href="#DejaVuSerif-31"/>
       <use xlink:href="#DejaVuSerif-2e" x="63.623047"/>
       <use xlink:href="#DejaVuSerif-30" x="95.410156"/>
      </g>
     </g>
    </g>
    <g id="ytick_9">
     <g id="line2d_17">
      <g>
       <use xlink:href="#m0dcea5679b" x="108" y="64.637974" style="stroke: #000000; stroke-width: 0.8"/>
      </g>
     </g>
     <g id="text_17">
      <!-- 1.5 -->
      <g transform="translate(72.374375 71.476568) scale(0.18 -0.18)">
       <use xlink:href="#DejaVuSerif-31"/>
       <use xlink:href="#DejaVuSerif-2e" x="63.623047"/>
       <use xlink:href="#DejaVuSerif-35" x="95.410156"/>
      </g>
     </g>
    </g>
    <g id="text_18">
     <!-- $\Delta G$ [eV] -->
     <g transform="translate(49.963437 285.56) rotate(-90) scale(0.16 -0.16)">
      <defs>
       <path id="DejaVuSans-394" d="M 2188 4044 
L 906 525 
L 3472 525 
L 2188 4044 
z
M 50 0 
L 1831 4666 
L 2547 4666 
L 4325 0 
L 50 0 
z
" transform="scale(0.015625)"/>
       <path id="DejaVuSans-Oblique-47" d="M 3494 697 
L 3738 1919 
L 2700 1919 
L 2797 2438 
L 4453 2438 
L 4050 384 
Q 3634 156 3143 32 
Q 2653 -91 2156 -91 
Q 1278 -91 783 396 
Q 288 884 288 1753 
Q 288 2475 589 3126 
Q 891 3778 1422 4213 
Q 1756 4484 2153 4617 
Q 2550 4750 3034 4750 
Q 3472 4750 3873 4639 
Q 4275 4528 4641 4306 
L 4513 3634 
Q 4231 3928 3853 4083 
Q 3475 4238 3047 4238 
Q 2550 4238 2172 4048 
Q 1794 3859 1497 3463 
Q 1244 3125 1098 2667 
Q 953 2209 953 1734 
Q 953 1081 1287 751 
Q 1622 422 2284 422 
Q 2616 422 2925 492 
Q 3234 563 3494 697 
z
" transform="scale(0.015625)"/>
       <path id="DejaVuSerif-20" transform="scale(0.015625)"/>
       <path id="DejaVuSerif-5b" d="M 550 4863 
L 2003 4863 
L 2003 4531 
L 1147 4531 
L 1147 -513 
L 2003 -513 
L 2003 -844 
L 550 -844 
L 550 4863 
z
" transform="scale(0.015625)"/>
       <path id="DejaVuSerif-65" d="M 3469 1600 
L 991 1600 
L 991 1575 
Q 991 903 1244 561 
Q 1497 219 1991 219 
Q 2369 219 2611 417 
Q 2853 616 2950 1006 
L 3413 1006 
Q 3275 459 2904 184 
Q 2534 -91 1931 -91 
Q 1203 -91 761 389 
Q 319 869 319 1663 
Q 319 2450 753 2931 
Q 1188 3413 1894 3413 
Q 2647 3413 3050 2948 
Q 3453 2484 3469 1600 
z
M 2791 1931 
Q 2772 2513 2545 2808 
Q 2319 3103 1894 3103 
Q 1497 3103 1269 2806 
Q 1041 2509 991 1931 
L 2791 1931 
z
" transform="scale(0.015625)"/>
       <path id="DejaVuSerif-56" d="M 1119 4331 
L 2497 750 
L 3872 4331 
L 3347 4331 
L 3347 4666 
L 4716 4666 
L 4716 4331 
L 4263 4331 
L 2597 0 
L 2059 0 
L 403 4331 
L -63 4331 
L -63 4666 
L 1638 4666 
L 1638 4331 
L 1119 4331 
z
" transform="scale(0.015625)"/>
       <path id="DejaVuSerif-5d" d="M 1947 4863 
L 1947 -844 
L 494 -844 
L 494 -513 
L 1350 -513 
L 1350 4531 
L 494 4531 
L 494 4863 
L 1947 4863 
z
" transform="scale(0.015625)"/>
      </defs>
      <use xlink:href="#DejaVuSans-394" transform="translate(0 0.015625)"/>
      <use xlink:href="#DejaVuSans-Oblique-47" transform="translate(68.408203 0.015625)"/>
      <use xlink:href="#DejaVuSerif-20" transform="translate(145.898438 0.015625)"/>
      <use xlink:href="#DejaVuSerif-5b" transform="translate(177.685547 0.015625)"/>
      <use xlink:href="#DejaVuSerif-65" transform="translate(216.699219 0.015625)"/>
      <use xlink:href="#DejaVuSerif-56" transform="translate(275.878906 0.015625)"/>
      <use xlink:href="#DejaVuSerif-5d" transform="translate(348.095703 0.015625)"/>
     </g>
    </g>
   </g>
   <g id="line2d_18">
    <path d="M 138.436364 208.569427 
L 225.397403 208.569427 
" clip-path="url(#p7764418e97)" style="fill: none; stroke: #1f77b4; stroke-width: 2; stroke-linecap: square"/>
   </g>
   <g id="line2d_19">
    <path d="M 312.358442 319.744713 
L 399.319481 319.744713 
" clip-path="url(#p7764418e97)" style="fill: none; stroke: #1f77b4; stroke-width: 2; stroke-linecap: square"/>
   </g>
   <g id="line2d_20">
    <path d="M 486.280519 430.92 
L 573.241558 430.92 
" clip-path="url(#p7764418e97)" style="fill: none; stroke: #1f77b4; stroke-width: 2; stroke-linecap: square"/>
   </g>
   <g id="line2d_21">
    <path d="M 660.202597 416.409264 
L 747.163636 416.409264 
" clip-path="url(#p7764418e97)" style="fill: none; stroke: #1f77b4; stroke-width: 2; stroke-linecap: square"/>
   </g>
   <g id="line2d_22">
    <path d="M 225.397403 208.569427 
L 229.974299 198.868022 
L 234.551196 190.8947 
L 239.128093 184.649459 
L 243.70499 180.132299 
L 248.281887 177.343222 
L 252.858783 176.282226 
L 257.43568 176.949312 
L 262.012577 179.344479 
L 266.589474 183.467728 
L 271.16637 189.319059 
L 275.743267 196.898472 
L 280.320164 206.205966 
L 284.897061 217.241542 
L 289.473958 230.0052 
L 294.050854 244.496939 
L 298.627751 260.71676 
L 303.204648 278.664663 
L 307.781545 298.340647 
L 312.358442 319.744713 
" clip-path="url(#p7764418e97)" style="fill: none; stroke-dasharray: 7.4,3.2; stroke-dashoffset: 0; stroke: #1f77b4; stroke-width: 2"/>
   </g>
   <g id="line2d_23">
    <path d="M 399.319481 319.744713 
L 403.896377 310.043309 
L 408.473274 302.069986 
L 413.050171 295.824745 
L 417.627068 291.307586 
L 422.203964 288.518508 
L 426.780861 287.457512 
L 431.357758 288.124598 
L 435.934655 290.519766 
L 440.511552 294.643015 
L 445.088448 300.494346 
L 449.665345 308.073758 
L 454.242242 317.381253 
L 458.819139 328.416828 
L 463.396036 341.180486 
L 467.972932 355.672226 
L 472.549829 371.892047 
L 477.126726 389.839949 
L 481.703623 409.515934 
L 486.280519 430.92 
" clip-path="url(#p7764418e97)" style="fill: none; stroke-dasharray: 7.4,3.2; stroke-dashoffset: 0; stroke: #1f77b4; stroke-width: 2"/>
   </g>
   <g id="line2d_24">
    <path d="M 573.241558 430.92 
L 577.818455 417.010583 
L 582.395352 404.561799 
L 586.972249 393.573648 
L 591.549146 384.046129 
L 596.126042 375.979243 
L 600.702939 369.372989 
L 605.279836 364.227368 
L 609.856733 360.54238 
L 614.43363 358.318025 
L 619.010526 357.554302 
L 623.587423 358.251211 
L 628.16432 360.408754 
L 632.741217 364.026929 
L 637.318113 369.105736 
L 641.89501 375.645176 
L 646.471907 383.645249 
L 651.048804 393.105955 
L 655.625701 404.027293 
L 660.202597 416.409264 
" clip-path="url(#p7764418e97)" style="fill: none; stroke-dasharray: 12.8,3.2,2,3.2; stroke-dashoffset: 0; stroke: #1f77b4; stroke-width: 2"/>
   </g>
   <g id="line2d_25">
    <path d="M 138.436364 208.569427 
L 225.397403 208.569427 
" clip-path="url(#p7764418e97)" style="fill: none; stroke: #ff7f0e; stroke-width: 2; stroke-linecap: square"/>
   </g>
   <g id="line2d_26">
    <path d="M 312.358442 271.767562 
L 399.319481 271.767562 
" clip-path="url(#p7764418e97)" style="fill: none; stroke: #ff7f0e; stroke-width: 2; stroke-linecap: square"/>
   </g>
   <g id="line2d_27">
    <path d="M 486.280519 334.965698 
L 573.241558 334.965698 
" clip-path="url(#p7764418e97)" style="fill: none; stroke: #ff7f0e; stroke-width: 2; stroke-linecap: square"/>
   </g>
   <g id="line2d_28">
    <path d="M 660.202597 320.454962 
L 747.163636 320.454962 
" clip-path="url(#p7764418e97)" style="fill: none; stroke: #ff7f0e; stroke-width: 2; stroke-linecap: square"/>
   </g>
   <g id="line2d_29">
    <path d="M 225.397403 208.569427 
L 229.974299 195.101358 
L 234.551196 183.499321 
L 239.128093 173.763316 
L 243.70499 165.893343 
L 248.281887 159.889401 
L 252.858783 155.751492 
L 257.43568 153.479614 
L 262.012577 153.073768 
L 266.589474 154.533954 
L 271.16637 157.860171 
L 275.743267 163.052421 
L 280.320164 170.110702 
L 284.897061 179.035015 
L 289.473958 189.82536 
L 294.050854 202.481737 
L 298.627751 217.004146 
L 303.204648 233.392586 
L 307.781545 251.647058 
L 312.358442 271.767562 
" clip-path="url(#p7764418e97)" style="fill: none; stroke-dasharray: 7.4,3.2; stroke-dashoffset: 0; stroke: #ff7f0e; stroke-width: 2"/>
   </g>
   <g id="line2d_30">
    <path d="M 399.319481 271.767562 
L 403.896377 258.299494 
L 408.473274 246.697457 
L 413.050171 236.961452 
L 417.627068 229.091478 
L 422.203964 223.087537 
L 426.780861 218.949627 
L 431.357758 216.677749 
L 435.934655 216.271904 
L 440.511552 217.732089 
L 445.088448 221.058307 
L 449.665345 226.250557 
L 454.242242 233.308838 
L 458.819139 242.233151 
L 463.396036 253.023496 
L 467.972932 265.679873 
L 472.549829 280.202281 
L 477.126726 296.590722 
L 481.703623 314.845194 
L 486.280519 334.965698 
" clip-path="url(#p7764418e97)" style="fill: none; stroke-dasharray: 7.4,3.2; stroke-dashoffset: 0; stroke: #ff7f0e; stroke-width: 2"/>
   </g>
   <g id="line2d_31">
    <path d="M 573.241558 334.965698 
L 577.818455 321.056281 
L 582.395352 308.607497 
L 586.972249 297.619346 
L 591.549146 288.091827 
L 596.126042 280.024941 
L 600.702939 273.418687 
L 605.279836 268.273066 
L 609.856733 264.588078 
L 614.43363 262.363723 
L 619.010526 261.6 
L 623.587423 262.296909 
L 628.16432 264.454452 
L 632.741217 268.072627 
L 637.318113 273.151434 
L 641.89501 279.690875 
L 646.471907 287.690948 
L 651.048804 297.151653 
L 655.625701 308.072991 
L 660.202597 320.454962 
" clip-path="url(#p7764418e97)" style="fill: none; stroke-dasharray: 12.8,3.2,2,3.2; stroke-dashoffset: 0; stroke: #ff7f0e; stroke-width: 2"/>
   </g>
   <g id="line2d_32">
    <path d="M 138.436364 208.569427 
L 225.397403 208.569427 
" clip-path="url(#p7764418e97)" style="fill: none; stroke: #2ca02c; stroke-width: 2; stroke-linecap: square"/>
   </g>
   <g id="line2d_33">
    <path d="M 312.358442 223.790412 
L 399.319481 223.790412 
" clip-path="url(#p7764418e97)" style="fill: none; stroke: #2ca02c; stroke-width: 2; stroke-linecap: square"/>
   </g>
   <g id="line2d_34">
    <path d="M 486.280519 239.011396 
L 573.241558 239.011396 
" clip-path="url(#p7764418e97)" style="fill: none; stroke: #2ca02c; stroke-width: 2; stroke-linecap: square"/>
   </g>
   <g id="line2d_35">
    <path d="M 660.202597 224.50066 
L 747.163636 224.50066 
" clip-path="url(#p7764418e97)" style="fill: none; stroke: #2ca02c; stroke-width: 2; stroke-linecap: square"/>
   </g>
   <g id="line2d_36">
    <path d="M 225.397403 208.569427 
L 229.974299 192.161434 
L 234.551196 177.665564 
L 239.128093 165.081815 
L 243.70499 154.410188 
L 248.281887 145.650683 
L 252.858783 138.8033 
L 257.43568 133.868039 
L 262.012577 130.8449 
L 266.589474 129.733882 
L 271.16637 130.534987 
L 275.743267 133.248213 
L 280.320164 137.873561 
L 284.897061 144.411032 
L 289.473958 152.860624 
L 294.050854 163.222337 
L 298.627751 175.496173 
L 303.204648 189.682131 
L 307.781545 205.78021 
L 312.358442 223.790412 
" clip-path="url(#p7764418e97)" style="fill: none; stroke-dasharray: 7.4,3.2; stroke-dashoffset: 0; stroke: #2ca02c; stroke-width: 2"/>
   </g>
   <g id="line2d_37">
    <path d="M 399.319481 223.790412 
L 403.896377 207.382419 
L 408.473274 192.886549 
L 413.050171 180.3028 
L 417.627068 169.631173 
L 422.203964 160.871668 
L 426.780861 154.024285 
L 431.357758 149.089024 
L 435.934655 146.065885 
L 440.511552 144.954867 
L 445.088448 145.755972 
L 449.665345 148.469198 
L 454.242242 153.094546 
L 458.819139 159.632016 
L 463.396036 168.081608 
L 467.972932 178.443322 
L 472.549829 190.717158 
L 477.126726 204.903115 
L 481.703623 221.001195 
L 486.280519 239.011396 
" clip-path="url(#p7764418e97)" style="fill: none; stroke-dasharray: 7.4,3.2; stroke-dashoffset: 0; stroke: #2ca02c; stroke-width: 2"/>
   </g>
   <g id="line2d_38">
    <path d="M 573.241558 239.011396 
L 577.818455 225.10198 
L 582.395352 212.653195 
L 586.972249 201.665044 
L 591.549146 192.137525 
L 596.126042 184.070639 
L 600.702939 177.464386 
L 605.279836 172.318765 
L 609.856733 168.633776 
L 614.43363 166.409421 
L 619.010526 165.645698 
L 623.587423 166.342608 
L 628.16432 168.50015 
L 632.741217 172.118325 
L 637.318113 177.197133 
L 641.89501 183.736573 
L 646.471907 191.736646 
L 651.048804 201.197351 
L 655.625701 212.118689 
L 660.202597 224.50066 
" clip-path="url(#p7764418e97)" style="fill: none; stroke-dasharray: 12.8,3.2,2,3.2; stroke-dashoffset: 0; stroke: #2ca02c; stroke-width: 2"/>
   </g>
   <g id="line2d_39">
    <path d="M 138.436364 208.569427 
L 225.397403 208.569427 
" clip-path="url(#p7764418e97)" style="fill: none; stroke: #1f77b4; stroke-width: 2; stroke-linecap: square"/>
   </g>
   <g id="line2d_40">
    <path d="M 312.358442 319.744713 
L 399.319481 319.744713 
" clip-path="url(#p7764418e97)" style="fill: none; stroke: #1f77b4; stroke-width: 2; stroke-linecap: square"/>
   </g>
   <g id="line2d_41">
    <path d="M 486.280519 416.409264 
L 573.241558 416.409264 
" clip-path="url(#p7764418e97)" style="fill: none; stroke: #1f77b4; stroke-width: 2; stroke-linecap: square"/>
   </g>
   <g id="line2d_42">
    <path d="M 225.397403 208.569427 
L 229.974299 198.868022 
L 234.551196 190.8947 
L 239.128093 184.649459 
L 243.70499 180.132299 
L 248.281887 177.343222 
L 252.858783 176.282226 
L 257.43568 176.949312 
L 262.012577 179.344479 
L 266.589474 183.467728 
L 271.16637 189.319059 
L 275.743267 196.898472 
L 280.320164 206.205966 
L 284.897061 217.241542 
L 289.473958 230.0052 
L 294.050854 244.496939 
L 298.627751 260.71676 
L 303.204648 278.664663 
L 307.781545 298.340647 
L 312.358442 319.744713 
" clip-path="url(#p7764418e97)" style="fill: none; stroke-dasharray: 7.4,3.2; stroke-dashoffset: 0; stroke: #1f77b4; stroke-width: 2"/>
   </g>
   <g id="line2d_43">
    <path d="M 399.319481 319.744713 
L 403.896377 298.160406 
L 408.473274 279.539645 
L 413.050171 263.88243 
L 417.627068 251.188761 
L 422.203964 241.458638 
L 426.780861 234.692062 
L 431.357758 230.889031 
L 435.934655 230.049547 
L 440.511552 232.173609 
L 445.088448 237.261217 
L 449.665345 245.312371 
L 454.242242 256.327071 
L 458.819139 270.305317 
L 463.396036 287.24711 
L 467.972932 307.152448 
L 472.549829 330.021333 
L 477.126726 355.853764 
L 481.703623 384.649741 
L 486.280519 416.409264 
" clip-path="url(#p7764418e97)" style="fill: none; stroke-dasharray: 2,3.3; stroke-dashoffset: 0; stroke: #1f77b4; stroke-width: 2"/>
   </g>
   <g id="line2d_44">
    <path d="M 138.436364 208.569427 
L 225.397403 208.569427 
" clip-path="url(#p7764418e97)" style="fill: none; stroke: #ff7f0e; stroke-width: 2; stroke-linecap: square"/>
   </g>
   <g id="line2d_45">
    <path d="M 312.358442 271.767562 
L 399.319481 271.767562 
" clip-path="url(#p7764418e97)" style="fill: none; stroke: #ff7f0e; stroke-width: 2; stroke-linecap: square"/>
   </g>
   <g id="line2d_46">
    <path d="M 486.280519 320.454962 
L 573.241558 320.454962 
" clip-path="url(#p7764418e97)" style="fill: none; stroke: #ff7f0e; stroke-width: 2; stroke-linecap: square"/>
   </g>
   <g id="line2d_47">
    <path d="M 225.397403 208.569427 
L 229.974299 195.101358 
L 234.551196 183.499321 
L 239.128093 173.763316 
L 243.70499 165.893343 
L 248.281887 159.889401 
L 252.858783 155.751492 
L 257.43568 153.479614 
L 262.012577 153.073768 
L 266.589474 154.533954 
L 271.16637 157.860171 
L 275.743267 163.052421 
L 280.320164 170.110702 
L 284.897061 179.035015 
L 289.473958 189.82536 
L 294.050854 202.481737 
L 298.627751 217.004146 
L 303.204648 233.392586 
L 307.781545 251.647058 
L 312.358442 271.767562 
" clip-path="url(#p7764418e97)" style="fill: none; stroke-dasharray: 7.4,3.2; stroke-dashoffset: 0; stroke: #ff7f0e; stroke-width: 2"/>
   </g>
   <g id="line2d_48">
    <path d="M 399.319481 271.767562 
L 403.896377 246.167161 
L 408.473274 223.69597 
L 413.050171 204.35399 
L 417.627068 188.141221 
L 422.203964 175.057662 
L 426.780861 165.103314 
L 431.357758 158.278177 
L 435.934655 154.58225 
L 440.511552 154.015534 
L 445.088448 156.578029 
L 449.665345 162.269734 
L 454.242242 171.09065 
L 458.819139 183.040777 
L 463.396036 198.120114 
L 467.972932 216.328663 
L 472.549829 237.666421 
L 477.126726 262.133391 
L 481.703623 289.729571 
L 486.280519 320.454962 
" clip-path="url(#p7764418e97)" style="fill: none; stroke-dasharray: 2,3.3; stroke-dashoffset: 0; stroke: #ff7f0e; stroke-width: 2"/>
   </g>
   <g id="line2d_49">
    <path d="M 138.436364 208.569427 
L 225.397403 208.569427 
" clip-path="url(#p7764418e97)" style="fill: none; stroke: #2ca02c; stroke-width: 2; stroke-linecap: square"/>
   </g>
   <g id="line2d_50">
    <path d="M 312.358442 223.790412 
L 399.319481 223.790412 
" clip-path="url(#p7764418e97)" style="fill: none; stroke: #2ca02c; stroke-width: 2; stroke-linecap: square"/>
   </g>
   <g id="line2d_51">
    <path d="M 486.280519 224.50066 
L 573.241558 224.50066 
" clip-path="url(#p7764418e97)" style="fill: none; stroke: #2ca02c; stroke-width: 2; stroke-linecap: square"/>
   </g>
   <g id="line2d_52">
    <path d="M 225.397403 208.569427 
L 229.974299 192.161434 
L 234.551196 177.665564 
L 239.128093 165.081815 
L 243.70499 154.410188 
L 248.281887 145.650683 
L 252.858783 138.8033 
L 257.43568 133.868039 
L 262.012577 130.8449 
L 266.589474 129.733882 
L 271.16637 130.534987 
L 275.743267 133.248213 
L 280.320164 137.873561 
L 284.897061 144.411032 
L 289.473958 152.860624 
L 294.050854 163.222337 
L 298.627751 175.496173 
L 303.204648 189.682131 
L 307.781545 205.78021 
L 312.358442 223.790412 
" clip-path="url(#p7764418e97)" style="fill: none; stroke-dasharray: 7.4,3.2; stroke-dashoffset: 0; stroke: #2ca02c; stroke-width: 2"/>
   </g>
   <g id="line2d_53">
    <path d="M 399.319481 223.790412 
L 403.896377 194.626424 
L 408.473274 168.707033 
L 413.050171 146.032239 
L 417.627068 126.602041 
L 422.203964 110.41644 
L 426.780861 97.475435 
L 431.357758 87.779027 
L 435.934655 81.327215 
L 440.511552 78.12 
L 445.088448 78.157382 
L 449.665345 81.43936 
L 454.242242 87.965934 
L 458.819139 97.737105 
L 463.396036 110.752873 
L 467.972932 127.013237 
L 472.549829 146.518198 
L 477.126726 169.267756 
L 481.703623 195.26191 
L 486.280519 224.50066 
" clip-path="url(#p7764418e97)" style="fill: none; stroke-dasharray: 2,3.3; stroke-dashoffset: 0; stroke: #2ca02c; stroke-width: 2"/>
   </g>
   <g id="patch_3">
    <path d="M 108 448.56 
L 108 60.48 
" style="fill: none; stroke: #000000; stroke-width: 0.8; stroke-linejoin: miter; stroke-linecap: square"/>
   </g>
   <g id="patch_4">
    <path d="M 777.6 448.56 
L 777.6 60.48 
" style="fill: none; stroke: #000000; stroke-width: 0.8; stroke-linejoin: miter; stroke-linecap: square"/>
   </g>
   <g id="patch_5">
    <path d="M 108 448.56 
L 777.6 448.56 
" style="fill: none; stroke: #000000; stroke-width: 0.8; stroke-linejoin: miter; stroke-linecap: square"/>
   </g>
   <g id="patch_6">
    <path d="M 108 60.48 
L 777.6 60.48 
" style="fill: none; stroke: #000000; stroke-width: 0.8; stroke-linejoin: miter; stroke-linecap: square"/>
   </g>
  </g>
 </g>
 <defs>
  <clipPath id="p7764418e97">
   <rect x="108" y="60.48" width="669.6" height="388.08"/>
  </clipPath>
 </defs>
</svg>
