<?xml version="1.0" encoding="utf-8" standalone="no"?>
<!DOCTYPE svg PUBLIC "-//W3C//DTD SVG 1.1//EN"
  "http://www.w3.org/Graphics/SVG/1.1/DTD/svg11.dtd">
<svg xmlns:xlink="http://www.w3.org/1999/xlink" width="274.18125pt" height="213.998125pt" viewBox="0 0 274.18125 213.998125" xmlns="http://www.w3.org/2000/svg" version="1.1">
 <metadata>
  <rdf:RDF xmlns:dc="http://purl.org/dc/elements/1.1/" xmlns:cc="http://creativecommons.org/ns#" xmlns:rdf="http://www.w3.org/1999/02/22-rdf-syntax-ns#">
   <cc:Work>
    <dc:type rdf:resource="http://purl.org/dc/dcmitype/StillImage"/>
    <dc:date>2025-05-20T02:05:03.513079</dc:date>
    <dc:format>image/svg+xml</dc:format>
    <dc:creator>
     <cc:Agent>
      <dc:title>Matplotlib v3.7.2, https://matplotlib.org/</dc:title>
     </cc:Agent>
    </dc:creator>
   </cc:Work>
  </rdf:RDF>
 </metadata>
 <defs>
  <style type="text/css">*{stroke-linejoin: round; stroke-linecap: butt}</style>
 </defs>
 <g id="figure_1">
  <g id="patch_1">
   <path d="M 0 213.998125 
L 274.18125 213.998125 
L 274.18125 0 
L 0 0 
z
" style="fill: #ffffff"/>
  </g>
  <g id="axes_1">
   <g id="patch_2">
    <path d="M 43.78125 173.52 
L 266.98125 173.52 
L 266.98125 7.2 
L 43.78125 7.2 
z
" style="fill: #ffffff"/>
   </g>
   <g id="matplotlib.axis_1">
    <g id="xtick_1">
     <g id="line2d_1">
      <defs>
       <path id="me8e407aa69" d="M 0 0 
L 0 3.5 
" style="stroke: #000000; stroke-width: 0.8"/>
      </defs>
      <g>
       <use xlink:href="#me8e407aa69" x="53.926705" y="173.52" style="stroke: #000000; stroke-width: 0.8"/>
      </g>
     </g>
     <g id="text_1">
      <!-- 0.0 -->
      <g transform="translate(45.975142 188.118438) scale(0.1 -0.1)">
       <defs>
        <path id="DejaVuSans-30" d="M 2034 4250 
Q 1547 4250 1301 3770 
Q 1056 3291 1056 2328 
Q 1056 1369 1301 889 
Q 1547 409 2034 409 
Q 2525 409 2770 889 
Q 3016 1369 3016 2328 
Q 3016 3291 2770 3770 
Q 2525 4250 2034 4250 
z
M 2034 4750 
Q 2819 4750 3233 4129 
Q 3647 3509 3647 2328 
Q 3647 1150 3233 529 
Q 2819 -91 2034 -91 
Q 1250 -91 836 529 
Q 422 1150 422 2328 
Q 422 3509 836 4129 
Q 1250 4750 2034 4750 
z
" transform="scale(0.015625)"/>
        <path id="DejaVuSans-2e" d="M 684 794 
L 1344 794 
L 1344 0 
L 684 0 
L 684 794 
z
" transform="scale(0.015625)"/>
       </defs>
       <use xlink:href="#DejaVuSans-30"/>
       <use xlink:href="#DejaVuSans-2e" x="63.623047"/>
       <use xlink:href="#DejaVuSans-30" x="95.410156"/>
      </g>
     </g>
    </g>
    <g id="xtick_2">
     <g id="line2d_2">
      <g>
       <use xlink:href="#me8e407aa69" x="104.653977" y="173.52" style="stroke: #000000; stroke-width: 0.8"/>
      </g>
     </g>
     <g id="text_2">
      <!-- 0.5 -->
      <g transform="translate(96.702415 188.118438) scale(0.1 -0.1)">
       <defs>
        <path id="DejaVuSans-35" d="M 691 4666 
L 3169 4666 
L 3169 4134 
L 1269 4134 
L 1269 2991 
Q 1406 3038 1543 3061 
Q 1681 3084 1819 3084 
Q 2600 3084 3056 2656 
Q 3513 2228 3513 1497 
Q 3513 744 3044 326 
Q 2575 -91 1722 -91 
Q 1428 -91 1123 -41 
Q 819 9 494 109 
L 494 744 
Q 775 591 1075 516 
Q 1375 441 1709 441 
Q 2250 441 2565 725 
Q 2881 1009 2881 1497 
Q 2881 1984 2565 2268 
Q 2250 2553 1709 2553 
Q 1456 2553 1204 2497 
Q 953 2441 691 2322 
L 691 4666 
z
" transform="scale(0.015625)"/>
       </defs>
       <use xlink:href="#DejaVuSans-30"/>
       <use xlink:href="#DejaVuSans-2e" x="63.623047"/>
       <use xlink:href="#DejaVuSans-35" x="95.410156"/>
      </g>
     </g>
    </g>
    <g id="xtick_3">
     <g id="line2d_3">
      <g>
       <use xlink:href="#me8e407aa69" x="155.38125" y="173.52" style="stroke: #000000; stroke-width: 0.8"/>
      </g>
     </g>
     <g id="text_3">
      <!-- 1.0 -->
      <g transform="translate(147.429687 188.118438) scale(0.1 -0.1)">
       <defs>
        <path id="DejaVuSans-31" d="M 794 531 
L 1825 531 
L 1825 4091 
L 703 3866 
L 703 4441 
L 1819 4666 
L 2450 4666 
L 2450 531 
L 3481 531 
L 3481 0 
L 794 0 
L 794 531 
z
" transform="scale(0.015625)"/>
       </defs>
       <use xlink:href="#DejaVuSans-31"/>
       <use xlink:href="#DejaVuSans-2e" x="63.623047"/>
       <use xlink:href="#DejaVuSans-30" x="95.410156"/>
      </g>
     </g>
    </g>
    <g id="xtick_4">
     <g id="line2d_4">
      <g>
       <use xlink:href="#me8e407aa69" x="206.108523" y="173.52" style="stroke: #000000; stroke-width: 0.8"/>
      </g>
     </g>
     <g id="text_4">
      <!-- 1.5 -->
      <g transform="translate(198.15696 188.118438) scale(0.1 -0.1)">
       <use xlink:href="#DejaVuSans-31"/>
       <use xlink:href="#DejaVuSans-2e" x="63.623047"/>
       <use xlink:href="#DejaVuSans-35" x="95.410156"/>
      </g>
     </g>
    </g>
    <g id="xtick_5">
     <g id="line2d_5">
      <g>
       <use xlink:href="#me8e407aa69" x="256.835795" y="173.52" style="stroke: #000000; stroke-width: 0.8"/>
      </g>
     </g>
     <g id="text_5">
      <!-- 2.0 -->
      <g transform="translate(248.884233 188.118438) scale(0.1 -0.1)">
       <defs>
        <path id="DejaVuSans-32" d="M 1228 531 
L 3431 531 
L 3431 0 
L 469 0 
L 469 531 
Q 828 903 1448 1529 
Q 2069 2156 2228 2338 
Q 2531 2678 2651 2914 
Q 2772 3150 2772 3378 
Q 2772 3750 2511 3984 
Q 2250 4219 1831 4219 
Q 1534 4219 1204 4116 
Q 875 4013 500 3803 
L 500 4441 
Q 881 4594 1212 4672 
Q 1544 4750 1819 4750 
Q 2544 4750 2975 4387 
Q 3406 4025 3406 3419 
Q 3406 3131 3298 2873 
Q 3191 2616 2906 2266 
Q 2828 2175 2409 1742 
Q 1991 1309 1228 531 
z
" transform="scale(0.015625)"/>
       </defs>
       <use xlink:href="#DejaVuSans-32"/>
       <use xlink:href="#DejaVuSans-2e" x="63.623047"/>
       <use xlink:href="#DejaVuSans-30" x="95.410156"/>
      </g>
     </g>
    </g>
    <g id="text_6">
     <!-- $\frac{b}{a}$ constant -->
     <g transform="translate(129.18125 203.998125) scale(0.1 -0.1)">
      <defs>
       <path id="DejaVuSans-Oblique-62" d="M 3169 2138 
Q 3169 2591 2961 2847 
Q 2753 3103 2388 3103 
Q 2122 3103 1889 2973 
Q 1656 2844 1484 2597 
Q 1303 2338 1198 1995 
Q 1094 1653 1094 1313 
Q 1094 881 1298 636 
Q 1503 391 1863 391 
Q 2134 391 2365 517 
Q 2597 644 2772 891 
Q 2950 1147 3059 1487 
Q 3169 1828 3169 2138 
z
M 1381 2969 
Q 1594 3256 1914 3420 
Q 2234 3584 2584 3584 
Q 3122 3584 3439 3221 
Q 3756 2859 3756 2241 
Q 3756 1734 3570 1259 
Q 3384 784 3041 416 
Q 2816 172 2522 40 
Q 2228 -91 1906 -91 
Q 1566 -91 1316 65 
Q 1066 222 909 531 
L 806 0 
L 231 0 
L 1178 4863 
L 1753 4863 
L 1381 2969 
z
" transform="scale(0.015625)"/>
       <path id="DejaVuSans-Oblique-61" d="M 3438 1997 
L 3047 0 
L 2472 0 
L 2578 531 
Q 2325 219 2001 64 
Q 1678 -91 1281 -91 
Q 834 -91 548 182 
Q 263 456 263 884 
Q 263 1497 752 1853 
Q 1241 2209 2100 2209 
L 2900 2209 
L 2931 2363 
Q 2938 2388 2941 2417 
Q 2944 2447 2944 2509 
Q 2944 2788 2717 2942 
Q 2491 3097 2081 3097 
Q 1800 3097 1504 3025 
Q 1209 2953 897 2809 
L 997 3341 
Q 1322 3463 1633 3523 
Q 1944 3584 2234 3584 
Q 2853 3584 3176 3315 
Q 3500 3047 3500 2534 
Q 3500 2431 3484 2292 
Q 3469 2153 3438 1997 
z
M 2816 1759 
L 2241 1759 
Q 1534 1759 1195 1570 
Q 856 1381 856 984 
Q 856 709 1029 553 
Q 1203 397 1509 397 
Q 1978 397 2328 733 
Q 2678 1069 2791 1631 
L 2816 1759 
z
" transform="scale(0.015625)"/>
       <path id="DejaVuSans-20" transform="scale(0.015625)"/>
       <path id="DejaVuSans-63" d="M 3122 3366 
L 3122 2828 
Q 2878 2963 2633 3030 
Q 2388 3097 2138 3097 
Q 1578 3097 1268 2742 
Q 959 2388 959 1747 
Q 959 1106 1268 751 
Q 1578 397 2138 397 
Q 2388 397 2633 464 
Q 2878 531 3122 666 
L 3122 134 
Q 2881 22 2623 -34 
Q 2366 -91 2075 -91 
Q 1284 -91 818 406 
Q 353 903 353 1747 
Q 353 2603 823 3093 
Q 1294 3584 2113 3584 
Q 2378 3584 2631 3529 
Q 2884 3475 3122 3366 
z
" transform="scale(0.015625)"/>
       <path id="DejaVuSans-6f" d="M 1959 3097 
Q 1497 3097 1228 2736 
Q 959 2375 959 1747 
Q 959 1119 1226 758 
Q 1494 397 1959 397 
Q 2419 397 2687 759 
Q 2956 1122 2956 1747 
Q 2956 2369 2687 2733 
Q 2419 3097 1959 3097 
z
M 1959 3584 
Q 2709 3584 3137 3096 
Q 3566 2609 3566 1747 
Q 3566 888 3137 398 
Q 2709 -91 1959 -91 
Q 1206 -91 779 398 
Q 353 888 353 1747 
Q 353 2609 779 3096 
Q 1206 3584 1959 3584 
z
" transform="scale(0.015625)"/>
       <path id="DejaVuSans-6e" d="M 3513 2113 
L 3513 0 
L 2938 0 
L 2938 2094 
Q 2938 2591 2744 2837 
Q 2550 3084 2163 3084 
Q 1697 3084 1428 2787 
Q 1159 2491 1159 1978 
L 1159 0 
L 581 0 
L 581 3500 
L 1159 3500 
L 1159 2956 
Q 1366 3272 1645 3428 
Q 1925 3584 2291 3584 
Q 2894 3584 3203 3211 
Q 3513 2838 3513 2113 
z
" transform="scale(0.015625)"/>
       <path id="DejaVuSans-73" d="M 2834 3397 
L 2834 2853 
Q 2591 2978 2328 3040 
Q 2066 3103 1784 3103 
Q 1356 3103 1142 2972 
Q 928 2841 928 2578 
Q 928 2378 1081 2264 
Q 1234 2150 1697 2047 
L 1894 2003 
Q 2506 1872 2764 1633 
Q 3022 1394 3022 966 
Q 3022 478 2636 193 
Q 2250 -91 1575 -91 
Q 1294 -91 989 -36 
Q 684 19 347 128 
L 347 722 
Q 666 556 975 473 
Q 1284 391 1588 391 
Q 1994 391 2212 530 
Q 2431 669 2431 922 
Q 2431 1156 2273 1281 
Q 2116 1406 1581 1522 
L 1381 1569 
Q 847 1681 609 1914 
Q 372 2147 372 2553 
Q 372 3047 722 3315 
Q 1072 3584 1716 3584 
Q 2034 3584 2315 3537 
Q 2597 3491 2834 3397 
z
" transform="scale(0.015625)"/>
       <path id="DejaVuSans-74" d="M 1172 4494 
L 1172 3500 
L 2356 3500 
L 2356 3053 
L 1172 3053 
L 1172 1153 
Q 1172 725 1289 603 
Q 1406 481 1766 481 
L 2356 481 
L 2356 0 
L 1766 0 
Q 1100 0 847 248 
Q 594 497 594 1153 
L 594 3053 
L 172 3053 
L 172 3500 
L 594 3500 
L 594 4494 
L 1172 4494 
z
" transform="scale(0.015625)"/>
       <path id="DejaVuSans-61" d="M 2194 1759 
Q 1497 1759 1228 1600 
Q 959 1441 959 1056 
Q 959 750 1161 570 
Q 1363 391 1709 391 
Q 2188 391 2477 730 
Q 2766 1069 2766 1631 
L 2766 1759 
L 2194 1759 
z
M 3341 1997 
L 3341 0 
L 2766 0 
L 2766 531 
Q 2569 213 2275 61 
Q 1981 -91 1556 -91 
Q 1019 -91 701 211 
Q 384 513 384 1019 
Q 384 1609 779 1909 
Q 1175 2209 1959 2209 
L 2766 2209 
L 2766 2266 
Q 2766 2663 2505 2880 
Q 2244 3097 1772 3097 
Q 1472 3097 1187 3025 
Q 903 2953 641 2809 
L 641 3341 
Q 956 3463 1253 3523 
Q 1550 3584 1831 3584 
Q 2591 3584 2966 3190 
Q 3341 2797 3341 1997 
z
" transform="scale(0.015625)"/>
      </defs>
      <use xlink:href="#DejaVuSans-Oblique-62" transform="translate(0 44.810938) scale(0.7)"/>
      <use xlink:href="#DejaVuSans-Oblique-61" transform="translate(1 -26.634375) scale(0.7)"/>
      <use xlink:href="#DejaVuSans-20" transform="translate(56.933594 0.01875)"/>
      <use xlink:href="#DejaVuSans-63" transform="translate(88.720703 0.01875)"/>
      <use xlink:href="#DejaVuSans-6f" transform="translate(143.701172 0.01875)"/>
      <use xlink:href="#DejaVuSans-6e" transform="translate(204.882812 0.01875)"/>
      <use xlink:href="#DejaVuSans-73" transform="translate(268.261719 0.01875)"/>
      <use xlink:href="#DejaVuSans-74" transform="translate(320.361328 0.01875)"/>
      <use xlink:href="#DejaVuSans-61" transform="translate(359.570312 0.01875)"/>
      <use xlink:href="#DejaVuSans-6e" transform="translate(420.849609 0.01875)"/>
      <use xlink:href="#DejaVuSans-74" transform="translate(484.228516 0.01875)"/>
      <path d="M 0 18.815625 
L 0 25.065625 
L 44.433594 25.065625 
L 44.433594 18.815625 
L 0 18.815625 
z
"/>
     </g>
    </g>
   </g>
   <g id="matplotlib.axis_2">
    <g id="ytick_1">
     <g id="line2d_6">
      <defs>
       <path id="mac3d7ef5d2" d="M 0 0 
L -3.5 0 
" style="stroke: #000000; stroke-width: 0.8"/>
      </defs>
      <g>
       <use xlink:href="#mac3d7ef5d2" x="43.78125" y="155.00909" style="stroke: #000000; stroke-width: 0.8"/>
      </g>
     </g>
     <g id="text_7">
      <!-- 0.6 -->
      <g transform="translate(20.878125 158.808308) scale(0.1 -0.1)">
       <defs>
        <path id="DejaVuSans-36" d="M 2113 2584 
Q 1688 2584 1439 2293 
Q 1191 2003 1191 1497 
Q 1191 994 1439 701 
Q 1688 409 2113 409 
Q 2538 409 2786 701 
Q 3034 994 3034 1497 
Q 3034 2003 2786 2293 
Q 2538 2584 2113 2584 
z
M 3366 4563 
L 3366 3988 
Q 3128 4100 2886 4159 
Q 2644 4219 2406 4219 
Q 1781 4219 1451 3797 
Q 1122 3375 1075 2522 
Q 1259 2794 1537 2939 
Q 1816 3084 2150 3084 
Q 2853 3084 3261 2657 
Q 3669 2231 3669 1497 
Q 3669 778 3244 343 
Q 2819 -91 2113 -91 
Q 1303 -91 875 529 
Q 447 1150 447 2328 
Q 447 3434 972 4092 
Q 1497 4750 2381 4750 
Q 2619 4750 2861 4703 
Q 3103 4656 3366 4563 
z
" transform="scale(0.015625)"/>
       </defs>
       <use xlink:href="#DejaVuSans-30"/>
       <use xlink:href="#DejaVuSans-2e" x="63.623047"/>
       <use xlink:href="#DejaVuSans-36" x="95.410156"/>
      </g>
     </g>
    </g>
    <g id="ytick_2">
     <g id="line2d_7">
      <g>
       <use xlink:href="#mac3d7ef5d2" x="43.78125" y="116.760756" style="stroke: #000000; stroke-width: 0.8"/>
      </g>
     </g>
     <g id="text_8">
      <!-- 0.7 -->
      <g transform="translate(20.878125 120.559975) scale(0.1 -0.1)">
       <defs>
        <path id="DejaVuSans-37" d="M 525 4666 
L 3525 4666 
L 3525 4397 
L 1831 0 
L 1172 0 
L 2766 4134 
L 525 4134 
L 525 4666 
z
" transform="scale(0.015625)"/>
       </defs>
       <use xlink:href="#DejaVuSans-30"/>
       <use xlink:href="#DejaVuSans-2e" x="63.623047"/>
       <use xlink:href="#DejaVuSans-37" x="95.410156"/>
      </g>
     </g>
    </g>
    <g id="ytick_3">
     <g id="line2d_8">
      <g>
       <use xlink:href="#mac3d7ef5d2" x="43.78125" y="78.512423" style="stroke: #000000; stroke-width: 0.8"/>
      </g>
     </g>
     <g id="text_9">
      <!-- 0.8 -->
      <g transform="translate(20.878125 82.311641) scale(0.1 -0.1)">
       <defs>
        <path id="DejaVuSans-38" d="M 2034 2216 
Q 1584 2216 1326 1975 
Q 1069 1734 1069 1313 
Q 1069 891 1326 650 
Q 1584 409 2034 409 
Q 2484 409 2743 651 
Q 3003 894 3003 1313 
Q 3003 1734 2745 1975 
Q 2488 2216 2034 2216 
z
M 1403 2484 
Q 997 2584 770 2862 
Q 544 3141 544 3541 
Q 544 4100 942 4425 
Q 1341 4750 2034 4750 
Q 2731 4750 3128 4425 
Q 3525 4100 3525 3541 
Q 3525 3141 3298 2862 
Q 3072 2584 2669 2484 
Q 3125 2378 3379 2068 
Q 3634 1759 3634 1313 
Q 3634 634 3220 271 
Q 2806 -91 2034 -91 
Q 1263 -91 848 271 
Q 434 634 434 1313 
Q 434 1759 690 2068 
Q 947 2378 1403 2484 
z
M 1172 3481 
Q 1172 3119 1398 2916 
Q 1625 2713 2034 2713 
Q 2441 2713 2670 2916 
Q 2900 3119 2900 3481 
Q 2900 3844 2670 4047 
Q 2441 4250 2034 4250 
Q 1625 4250 1398 4047 
Q 1172 3844 1172 3481 
z
" transform="scale(0.015625)"/>
       </defs>
       <use xlink:href="#DejaVuSans-30"/>
       <use xlink:href="#DejaVuSans-2e" x="63.623047"/>
       <use xlink:href="#DejaVuSans-38" x="95.410156"/>
      </g>
     </g>
    </g>
    <g id="ytick_4">
     <g id="line2d_9">
      <g>
       <use xlink:href="#mac3d7ef5d2" x="43.78125" y="40.264089" style="stroke: #000000; stroke-width: 0.8"/>
      </g>
     </g>
     <g id="text_10">
      <!-- 0.9 -->
      <g transform="translate(20.878125 44.063308) scale(0.1 -0.1)">
       <defs>
        <path id="DejaVuSans-39" d="M 703 97 
L 703 672 
Q 941 559 1184 500 
Q 1428 441 1663 441 
Q 2288 441 2617 861 
Q 2947 1281 2994 2138 
Q 2813 1869 2534 1725 
Q 2256 1581 1919 1581 
Q 1219 1581 811 2004 
Q 403 2428 403 3163 
Q 403 3881 828 4315 
Q 1253 4750 1959 4750 
Q 2769 4750 3195 4129 
Q 3622 3509 3622 2328 
Q 3622 1225 3098 567 
Q 2575 -91 1691 -91 
Q 1453 -91 1209 -44 
Q 966 3 703 97 
z
M 1959 2075 
Q 2384 2075 2632 2365 
Q 2881 2656 2881 3163 
Q 2881 3666 2632 3958 
Q 2384 4250 1959 4250 
Q 1534 4250 1286 3958 
Q 1038 3666 1038 3163 
Q 1038 2656 1286 2365 
Q 1534 2075 1959 2075 
z
" transform="scale(0.015625)"/>
       </defs>
       <use xlink:href="#DejaVuSans-30"/>
       <use xlink:href="#DejaVuSans-2e" x="63.623047"/>
       <use xlink:href="#DejaVuSans-39" x="95.410156"/>
      </g>
     </g>
    </g>
    <g id="text_11">
     <!-- $R^2$ -->
     <g transform="translate(14.798437 96.56) rotate(-90) scale(0.1 -0.1)">
      <defs>
       <path id="DejaVuSans-Oblique-52" d="M 1613 4147 
L 1294 2491 
L 2106 2491 
Q 2584 2491 2879 2755 
Q 3175 3019 3175 3444 
Q 3175 3784 2976 3965 
Q 2778 4147 2406 4147 
L 1613 4147 
z
M 2772 2241 
Q 2972 2194 3105 2009 
Q 3238 1825 3413 1275 
L 3809 0 
L 3144 0 
L 2778 1197 
Q 2638 1659 2453 1815 
Q 2269 1972 1888 1972 
L 1191 1972 
L 806 0 
L 172 0 
L 1081 4666 
L 2503 4666 
Q 3150 4666 3495 4373 
Q 3841 4081 3841 3531 
Q 3841 3044 3547 2687 
Q 3253 2331 2772 2241 
z
" transform="scale(0.015625)"/>
      </defs>
      <use xlink:href="#DejaVuSans-Oblique-52" transform="translate(0 0.765625)"/>
      <use xlink:href="#DejaVuSans-32" transform="translate(76.499193 39.046875) scale(0.7)"/>
     </g>
    </g>
   </g>
   <g id="LineCollection_1">
    <path d="M 106.683068 135.884923 
L 106.683068 27.985697 
" clip-path="url(#p5b2f332202)" style="fill: none; stroke: #1f77b4; stroke-width: 1.5"/>
   </g>
   <g id="line2d_10">
    <path d="M 53.926705 147.854306 
L 55.955795 138.978087 
L 57.984886 130.502164 
L 60.013977 122.432476 
L 62.043068 114.770614 
L 64.072159 107.514406 
L 66.10125 100.658482 
L 68.130341 94.194807 
L 70.159432 88.113176 
L 72.188523 82.401671 
L 74.217614 77.047063 
L 76.246705 72.035167 
L 78.275795 67.351156 
L 80.304886 62.979822 
L 82.333977 58.905803 
L 84.363068 55.113766 
L 86.392159 51.588563 
L 88.42125 48.315346 
L 90.450341 45.27967 
L 92.479432 42.467558 
L 94.508523 39.865563 
L 96.537614 37.460795 
L 98.566705 35.240953 
L 100.595795 33.19433 
L 102.624886 31.309822 
L 104.653977 29.57692 
L 106.683068 27.985697 
L 108.712159 26.526801 
L 110.74125 25.191428 
L 112.770341 23.971309 
L 114.799432 22.858682 
L 116.828523 21.846271 
L 118.857614 20.927263 
L 120.886705 20.095282 
L 122.915795 19.344365 
L 124.944886 18.668942 
L 126.973977 18.063807 
L 129.003068 17.524102 
L 131.032159 17.045292 
L 133.06125 16.623146 
L 135.090341 16.253717 
L 137.119432 15.933325 
L 139.148523 15.658537 
L 141.177614 15.426154 
L 143.206705 15.233192 
L 145.235795 15.076869 
L 147.264886 14.954593 
L 149.293977 14.863946 
L 151.323068 14.802675 
L 153.352159 14.76868 
L 155.38125 14.76 
L 157.410341 14.77481 
L 159.439432 14.811406 
L 161.468523 14.868201 
L 163.497614 14.943711 
L 165.526705 15.036556 
L 167.555795 15.145446 
L 169.584886 15.269179 
L 171.613977 15.406632 
L 173.643068 15.556758 
L 175.672159 15.718579 
L 177.70125 15.891183 
L 179.730341 16.073719 
L 181.759432 16.265392 
L 183.788523 16.465458 
L 185.817614 16.673227 
L 187.846705 16.888049 
L 189.875795 17.109321 
L 191.904886 17.336479 
L 193.933977 17.568995 
L 195.963068 17.806378 
L 197.992159 18.048167 
L 200.02125 18.293933 
L 202.050341 18.543275 
L 204.079432 18.795819 
L 206.108523 19.051215 
L 208.137614 19.309136 
L 210.166705 19.569278 
L 212.195795 19.831355 
L 214.224886 20.095102 
L 216.253977 20.360271 
L 218.283068 20.626631 
L 220.312159 20.893965 
L 222.34125 21.162071 
L 224.370341 21.430763 
L 226.399432 21.699864 
L 228.428523 21.969212 
L 230.457614 22.238654 
L 232.486705 22.508049 
L 234.515795 22.777265 
L 236.544886 23.046179 
L 238.573977 23.314677 
L 240.603068 23.582653 
L 242.632159 23.850008 
L 244.66125 24.116652 
L 246.690341 24.3825 
L 248.719432 24.647472 
L 250.748523 24.911497 
L 252.777614 25.174506 
L 254.806705 25.436439 
L 256.835795 25.697238 
" clip-path="url(#p5b2f332202)" style="fill: none; stroke: #000000; stroke-width: 1.5; stroke-linecap: square"/>
   </g>
   <g id="line2d_11">
    <path d="M 53.926705 108.976226 
L 55.955795 101.527158 
L 57.984886 94.543757 
L 60.013977 88.019489 
L 62.043068 81.94439 
L 64.072159 76.305688 
L 66.10125 71.088382 
L 68.130341 66.275772 
L 70.159432 61.849926 
L 72.188523 57.792096 
L 74.217614 54.083071 
L 76.246705 50.703481 
L 78.275795 47.634044 
L 80.304886 44.855771 
L 82.333977 42.350129 
L 84.363068 40.099167 
L 86.392159 38.085609 
L 88.42125 36.29292 
L 90.450341 34.705354 
L 92.479432 33.307978 
L 94.508523 32.086679 
L 96.537614 31.028166 
L 98.566705 30.119957 
L 100.595795 29.350355 
L 102.624886 28.708428 
L 104.653977 28.183972 
L 106.683068 27.767488 
L 108.712159 27.450138 
L 110.74125 27.223714 
L 112.770341 27.080602 
L 114.799432 27.013745 
L 116.828523 27.016611 
L 118.857614 27.083156 
L 120.886705 27.207793 
L 122.915795 27.385361 
L 124.944886 27.611096 
L 126.973977 27.8806 
L 129.003068 28.189818 
L 131.032159 28.535012 
L 133.06125 28.912735 
L 135.090341 29.319814 
L 137.119432 29.753326 
L 139.148523 30.21058 
L 141.177614 30.689099 
L 143.206705 31.186606 
L 145.235795 31.701004 
L 147.264886 32.230367 
L 149.293977 32.772923 
L 151.323068 33.327045 
L 153.352159 33.891237 
L 155.38125 34.464127 
L 157.410341 35.044454 
L 159.439432 35.631062 
L 161.468523 36.22289 
L 163.497614 36.818966 
L 165.526705 37.418399 
L 167.555795 38.020372 
L 169.584886 38.624139 
L 171.613977 39.229017 
L 173.643068 39.834381 
L 175.672159 40.439662 
L 177.70125 41.04434 
L 179.730341 41.64794 
L 181.759432 42.250031 
L 183.788523 42.850221 
L 185.817614 43.448153 
L 187.846705 44.043505 
L 189.875795 44.635983 
L 191.904886 45.225325 
L 193.933977 45.811291 
L 195.963068 46.393669 
L 197.992159 46.972266 
L 200.02125 47.54691 
L 202.050341 48.117449 
L 204.079432 48.683748 
L 206.108523 49.245687 
L 208.137614 49.803161 
L 210.166705 50.356079 
L 212.195795 50.904363 
L 214.224886 51.447945 
L 216.253977 51.986767 
L 218.283068 52.520783 
L 220.312159 53.049955 
L 222.34125 53.574251 
L 224.370341 54.09365 
L 226.399432 54.608136 
L 228.428523 55.117698 
L 230.457614 55.622334 
L 232.486705 56.122044 
L 234.515795 56.616835 
L 236.544886 57.106718 
L 238.573977 57.591707 
L 240.603068 58.07182 
L 242.632159 58.547079 
L 244.66125 59.017508 
L 246.690341 59.483136 
L 248.719432 59.943991 
L 250.748523 60.400107 
L 252.777614 60.851516 
L 254.806705 61.298255 
L 256.835795 61.740361 
" clip-path="url(#p5b2f332202)" style="fill: none; stroke: #ff0000; stroke-width: 1.5; stroke-linecap: square"/>
   </g>
   <g id="LineCollection_2">
    <path d="M 122.915795 135.884923 
L 122.915795 33.108933 
" clip-path="url(#p5b2f332202)" style="fill: none; stroke-dasharray: 5.55,2.4; stroke-dashoffset: 0; stroke: #1f77b4; stroke-width: 1.5"/>
   </g>
   <g id="line2d_12">
    <path d="M 53.926705 165.96 
L 55.955795 157.190986 
L 57.984886 148.788316 
L 60.013977 140.760441 
L 62.043068 133.111469 
L 64.072159 125.841714 
L 66.10125 118.948225 
L 68.130341 112.425297 
L 70.159432 106.264953 
L 72.188523 100.457382 
L 74.217614 94.991334 
L 76.246705 89.854472 
L 78.275795 85.033681 
L 80.304886 80.515335 
L 82.333977 76.285525 
L 84.363068 72.330244 
L 86.392159 68.635548 
L 88.42125 65.187687 
L 90.450341 61.973201 
L 92.479432 58.979003 
L 94.508523 56.192441 
L 96.537614 53.601337 
L 98.566705 51.194022 
L 100.595795 48.959352 
L 102.624886 46.886719 
L 104.653977 44.96605 
L 106.683068 43.187803 
L 108.712159 41.542959 
L 110.74125 40.023005 
L 112.770341 38.619923 
L 114.799432 37.326166 
L 116.828523 36.134643 
L 118.857614 35.038695 
L 120.886705 34.032077 
L 122.915795 33.108933 
L 124.944886 32.263779 
L 126.973977 31.491481 
L 129.003068 30.787233 
L 131.032159 30.14654 
L 133.06125 29.565199 
L 135.090341 29.03928 
L 137.119432 28.565108 
L 139.148523 28.139252 
L 141.177614 27.758501 
L 143.206705 27.41986 
L 145.235795 27.120525 
L 147.264886 26.857881 
L 149.293977 26.62948 
L 151.323068 26.433038 
L 153.352159 26.266418 
L 155.38125 26.127625 
L 157.410341 26.014794 
L 159.439432 25.926179 
L 161.468523 25.860151 
L 163.497614 25.815186 
L 165.526705 25.789857 
L 167.555795 25.782832 
L 169.584886 25.792863 
L 171.613977 25.818784 
L 173.643068 25.859502 
L 175.672159 25.913996 
L 177.70125 25.981309 
L 179.730341 26.060547 
L 181.759432 26.150871 
L 183.788523 26.251495 
L 185.817614 26.361685 
L 187.846705 26.480752 
L 189.875795 26.608051 
L 191.904886 26.742977 
L 193.933977 26.884963 
L 195.963068 27.033479 
L 197.992159 27.188027 
L 200.02125 27.34814 
L 202.050341 27.513381 
L 204.079432 27.68334 
L 206.108523 27.857633 
L 208.137614 28.035897 
L 210.166705 28.217797 
L 212.195795 28.403013 
L 214.224886 28.591249 
L 216.253977 28.782226 
L 218.283068 28.975681 
L 220.312159 29.17137 
L 222.34125 29.369063 
L 224.370341 29.568542 
L 226.399432 29.769607 
L 228.428523 29.972066 
L 230.457614 30.175742 
L 232.486705 30.380468 
L 234.515795 30.586087 
L 236.544886 30.792453 
L 238.573977 30.999429 
L 240.603068 31.206884 
L 242.632159 31.4147 
L 244.66125 31.622762 
L 246.690341 31.830964 
L 248.719432 32.039209 
L 250.748523 32.247403 
L 252.777614 32.455459 
L 254.806705 32.663297 
L 256.835795 32.87084 
" clip-path="url(#p5b2f332202)" style="fill: none; stroke-dasharray: 5.55,2.4; stroke-dashoffset: 0; stroke: #000000; stroke-width: 1.5"/>
   </g>
   <g id="line2d_13">
    <path d="M 53.926705 117.05321 
L 55.955795 109.608402 
L 57.984886 102.616586 
L 60.013977 96.072334 
L 62.043068 89.966768 
L 64.072159 84.288171 
L 66.10125 79.022554 
L 68.130341 74.154179 
L 70.159432 69.66602 
L 72.188523 65.540176 
L 74.217614 61.758223 
L 76.246705 58.301516 
L 78.275795 55.151439 
L 80.304886 52.289608 
L 82.333977 49.698042 
L 84.363068 47.359285 
L 86.392159 45.256506 
L 88.42125 43.373572 
L 90.450341 41.695092 
L 92.479432 40.206446 
L 94.508523 38.893801 
L 96.537614 37.744111 
L 98.566705 36.745106 
L 100.595795 35.885276 
L 102.624886 35.153848 
L 104.653977 34.540758 
L 106.683068 34.036623 
L 108.712159 33.632705 
L 110.74125 33.32088 
L 112.770341 33.093601 
L 114.799432 32.943869 
L 116.828523 32.865195 
L 118.857614 32.851571 
L 120.886705 32.897434 
L 122.915795 32.997643 
L 124.944886 33.147443 
L 126.973977 33.342443 
L 129.003068 33.578587 
L 131.032159 33.852134 
L 133.06125 34.159628 
L 135.090341 34.497886 
L 137.119432 34.863969 
L 139.148523 35.25517 
L 141.177614 35.668994 
L 143.206705 36.103143 
L 145.235795 36.555499 
L 147.264886 37.024113 
L 149.293977 37.507189 
L 151.323068 38.003076 
L 153.352159 38.510254 
L 155.38125 39.027325 
L 157.410341 39.553003 
L 159.439432 40.086106 
L 161.468523 40.625548 
L 163.497614 41.170332 
L 165.526705 41.719541 
L 167.555795 42.272334 
L 169.584886 42.827939 
L 171.613977 43.38565 
L 173.643068 43.944817 
L 175.672159 44.504848 
L 177.70125 45.0652 
L 179.730341 45.625374 
L 181.759432 46.184919 
L 183.788523 46.743418 
L 185.817614 47.300496 
L 187.846705 47.855807 
L 189.875795 48.409039 
L 191.904886 48.959909 
L 193.933977 49.508158 
L 195.963068 50.053555 
L 197.992159 50.595888 
L 200.02125 51.134968 
L 202.050341 51.670625 
L 204.079432 52.202707 
L 206.108523 52.731077 
L 208.137614 53.255615 
L 210.166705 53.776214 
L 212.195795 54.292779 
L 214.224886 54.805229 
L 216.253977 55.313491 
L 218.283068 55.817505 
L 220.312159 56.317219 
L 222.34125 56.812589 
L 224.370341 57.30358 
L 226.399432 57.790163 
L 228.428523 58.272317 
L 230.457614 58.750025 
L 232.486705 59.223277 
L 234.515795 59.69207 
L 236.544886 60.156402 
L 238.573977 60.616278 
L 240.603068 61.071705 
L 242.632159 61.522696 
L 244.66125 61.969264 
L 246.690341 62.411429 
L 248.719432 62.849211 
L 250.748523 63.282632 
L 252.777614 63.711719 
L 254.806705 64.136498 
L 256.835795 64.556999 
" clip-path="url(#p5b2f332202)" style="fill: none; stroke-dasharray: 5.55,2.4; stroke-dashoffset: 0; stroke: #ff0000; stroke-width: 1.5"/>
   </g>
   <g id="LineCollection_3">
    <path d="M 122.915795 135.884923 
L 122.915795 27.144632 
" clip-path="url(#p5b2f332202)" style="fill: none; stroke-dasharray: 1.5,2.475; stroke-dashoffset: 0; stroke: #1f77b4; stroke-width: 1.5"/>
   </g>
   <g id="line2d_14">
    <path d="M 53.926705 141.589021 
L 55.955795 133.197509 
L 57.984886 125.219258 
L 60.013977 117.656789 
L 62.043068 110.508575 
L 64.072159 103.769623 
L 66.10125 97.432038 
L 68.130341 91.485553 
L 70.159432 85.918004 
L 72.188523 80.715778 
L 74.217614 75.86419 
L 76.246705 71.347827 
L 78.275795 67.150835 
L 80.304886 63.257165 
L 82.333977 59.650781 
L 84.363068 56.315822 
L 86.392159 53.236741 
L 88.42125 50.39841 
L 90.450341 47.786197 
L 92.479432 45.386031 
L 94.508523 43.184439 
L 96.537614 41.168572 
L 98.566705 39.326219 
L 100.595795 37.645812 
L 102.624886 36.116419 
L 104.653977 34.727733 
L 106.683068 33.470057 
L 108.712159 32.334282 
L 110.74125 31.311867 
L 112.770341 30.394812 
L 114.799432 29.575634 
L 116.828523 28.847339 
L 118.857614 28.2034 
L 120.886705 27.637723 
L 122.915795 27.144632 
L 124.944886 26.718834 
L 126.973977 26.355402 
L 129.003068 26.049748 
L 131.032159 25.797602 
L 133.06125 25.594994 
L 135.090341 25.438228 
L 137.119432 25.32387 
L 139.148523 25.248727 
L 141.177614 25.209827 
L 143.206705 25.204413 
L 145.235795 25.229918 
L 147.264886 25.283957 
L 149.293977 25.364315 
L 151.323068 25.468932 
L 153.352159 25.595894 
L 155.38125 25.743421 
L 157.410341 25.90986 
L 159.439432 26.093674 
L 161.468523 26.293434 
L 163.497614 26.507812 
L 165.526705 26.735575 
L 167.555795 26.975574 
L 169.584886 27.226743 
L 171.613977 27.48809 
L 173.643068 27.758694 
L 175.672159 28.037698 
L 177.70125 28.324305 
L 179.730341 28.617775 
L 181.759432 28.917419 
L 183.788523 29.222598 
L 185.817614 29.532717 
L 187.846705 29.847223 
L 189.875795 30.165603 
L 191.904886 30.487378 
L 193.933977 30.812107 
L 195.963068 31.139377 
L 197.992159 31.468805 
L 200.02125 31.800036 
L 202.050341 32.132741 
L 204.079432 32.466613 
L 206.108523 32.801368 
L 208.137614 33.136743 
L 210.166705 33.472495 
L 212.195795 33.808397 
L 214.224886 34.144238 
L 216.253977 34.479827 
L 218.283068 34.814982 
L 220.312159 35.149539 
L 222.34125 35.483343 
L 224.370341 35.816255 
L 226.399432 36.148142 
L 228.428523 36.478885 
L 230.457614 36.808374 
L 232.486705 37.136507 
L 234.515795 37.463191 
L 236.544886 37.788339 
L 238.573977 38.111874 
L 240.603068 38.433725 
L 242.632159 38.753826 
L 244.66125 39.072118 
L 246.690341 39.388547 
L 248.719432 39.703066 
L 250.748523 40.015629 
L 252.777614 40.326199 
L 254.806705 40.634739 
L 256.835795 40.941219 
" clip-path="url(#p5b2f332202)" style="fill: none; stroke-dasharray: 1.5,2.475; stroke-dashoffset: 0; stroke: #000000; stroke-width: 1.5"/>
   </g>
   <g id="line2d_15">
    <path d="M 53.926705 105.047784 
L 55.955795 97.676753 
L 57.984886 90.777063 
L 60.013977 84.341315 
L 62.043068 78.358727 
L 64.072159 72.815771 
L 66.10125 67.696751 
L 68.130341 62.98433 
L 70.159432 58.660002 
L 72.188523 54.704504 
L 74.217614 51.098168 
L 76.246705 47.821218 
L 78.275795 44.854017 
L 80.304886 42.177271 
L 82.333977 39.772181 
L 84.363068 37.620569 
L 86.392159 35.70497 
L 88.42125 34.008691 
L 90.450341 32.515857 
L 92.479432 31.211428 
L 94.508523 30.081212 
L 96.537614 29.111854 
L 98.566705 28.290827 
L 100.595795 27.606406 
L 102.624886 27.04764 
L 104.653977 26.604322 
L 106.683068 26.266955 
L 108.712159 26.026714 
L 110.74125 25.87541 
L 112.770341 25.805455 
L 114.799432 25.809821 
L 116.828523 25.882009 
L 118.857614 26.016013 
L 120.886705 26.206285 
L 122.915795 26.447705 
L 124.944886 26.735551 
L 126.973977 27.06547 
L 129.003068 27.433451 
L 131.032159 27.8358 
L 133.06125 28.269115 
L 135.090341 28.730268 
L 137.119432 29.21638 
L 139.148523 29.724802 
L 141.177614 30.253102 
L 143.206705 30.799044 
L 145.235795 31.360573 
L 147.264886 31.935803 
L 149.293977 32.523002 
L 151.323068 33.120581 
L 153.352159 33.727082 
L 155.38125 34.341169 
L 157.410341 34.961616 
L 159.439432 35.587302 
L 161.468523 36.217199 
L 163.497614 36.850367 
L 165.526705 37.485946 
L 167.555795 38.123151 
L 169.584886 38.761263 
L 171.613977 39.399628 
L 173.643068 40.037649 
L 175.672159 40.674782 
L 177.70125 41.310533 
L 179.730341 41.944451 
L 181.759432 42.576131 
L 183.788523 43.2052 
L 185.817614 43.831327 
L 187.846705 44.454208 
L 189.875795 45.073573 
L 191.904886 45.689176 
L 193.933977 46.300799 
L 195.963068 46.908247 
L 197.992159 47.511344 
L 200.02125 48.109938 
L 202.050341 48.703892 
L 204.079432 49.293086 
L 206.108523 49.877417 
L 208.137614 50.456794 
L 210.166705 51.03114 
L 212.195795 51.600392 
L 214.224886 52.164493 
L 216.253977 52.723402 
L 218.283068 53.277082 
L 220.312159 53.825508 
L 222.34125 54.36866 
L 224.370341 54.906528 
L 226.399432 55.439106 
L 228.428523 55.966396 
L 230.457614 56.488403 
L 232.486705 57.005138 
L 234.515795 57.516618 
L 236.544886 58.022862 
L 238.573977 58.523894 
L 240.603068 59.019741 
L 242.632159 59.510431 
L 244.66125 59.995999 
L 246.690341 60.476478 
L 248.719432 60.951907 
L 250.748523 61.422325 
L 252.777614 61.887772 
L 254.806705 62.348291 
L 256.835795 62.803927 
" clip-path="url(#p5b2f332202)" style="fill: none; stroke-dasharray: 1.5,2.475; stroke-dashoffset: 0; stroke: #ff0000; stroke-width: 1.5"/>
   </g>
   <g id="line2d_16"/>
   <g id="line2d_17"/>
   <g id="line2d_18"/>
   <g id="patch_3">
    <path d="M 43.78125 173.52 
L 43.78125 7.2 
" style="fill: none; stroke: #000000; stroke-width: 0.8; stroke-linejoin: miter; stroke-linecap: square"/>
   </g>
   <g id="patch_4">
    <path d="M 266.98125 173.52 
L 266.98125 7.2 
" style="fill: none; stroke: #000000; stroke-width: 0.8; stroke-linejoin: miter; stroke-linecap: square"/>
   </g>
   <g id="patch_5">
    <path d="M 43.78125 173.52 
L 266.98125 173.52 
" style="fill: none; stroke: #000000; stroke-width: 0.8; stroke-linejoin: miter; stroke-linecap: square"/>
   </g>
   <g id="patch_6">
    <path d="M 43.78125 7.2 
L 266.98125 7.2 
" style="fill: none; stroke: #000000; stroke-width: 0.8; stroke-linejoin: miter; stroke-linecap: square"/>
   </g>
   <g id="text_12">
    <!-- 0.52 -->
    <g transform="translate(86.392159 141.622173) scale(0.1 -0.1)">
     <use xlink:href="#DejaVuSans-30"/>
     <use xlink:href="#DejaVuSans-2e" x="63.623047"/>
     <use xlink:href="#DejaVuSans-35" x="95.410156"/>
     <use xlink:href="#DejaVuSans-32" x="159.033203"/>
    </g>
   </g>
   <g id="text_13">
    <!-- 0.68 -->
    <g transform="translate(133.06125 143.53459) scale(0.1 -0.1)">
     <use xlink:href="#DejaVuSans-30"/>
     <use xlink:href="#DejaVuSans-2e" x="63.623047"/>
     <use xlink:href="#DejaVuSans-36" x="95.410156"/>
     <use xlink:href="#DejaVuSans-38" x="159.033203"/>
    </g>
   </g>
   <g id="text_14">
    <!-- 0.68 -->
    <g transform="translate(112.770341 145.447006) scale(0.1 -0.1)">
     <use xlink:href="#DejaVuSans-30"/>
     <use xlink:href="#DejaVuSans-2e" x="63.623047"/>
     <use xlink:href="#DejaVuSans-36" x="95.410156"/>
     <use xlink:href="#DejaVuSans-38" x="159.033203"/>
    </g>
   </g>
   <g id="legend_1">
    <g id="patch_7">
     <path d="M 175.909375 168.52 
L 259.98125 168.52 
Q 261.98125 168.52 261.98125 166.52 
L 261.98125 138.16375 
Q 261.98125 136.16375 259.98125 136.16375 
L 175.909375 136.16375 
Q 173.909375 136.16375 173.909375 138.16375 
L 173.909375 166.52 
Q 173.909375 168.52 175.909375 168.52 
z
" style="fill: #ffffff; opacity: 0.8; stroke: #cccccc; stroke-linejoin: miter"/>
    </g>
    <g id="line2d_19">
     <path d="M 177.909375 144.262188 
L 187.909375 144.262188 
L 197.909375 144.262188 
" style="fill: none; stroke: #000000; stroke-width: 1.5; stroke-linecap: square"/>
    </g>
    <g id="text_15">
     <!-- Volmer -->
     <g transform="translate(205.909375 147.762188) scale(0.1 -0.1)">
      <defs>
       <path id="DejaVuSans-56" d="M 1831 0 
L 50 4666 
L 709 4666 
L 2188 738 
L 3669 4666 
L 4325 4666 
L 2547 0 
L 1831 0 
z
" transform="scale(0.015625)"/>
       <path id="DejaVuSans-6c" d="M 603 4863 
L 1178 4863 
L 1178 0 
L 603 0 
L 603 4863 
z
" transform="scale(0.015625)"/>
       <path id="DejaVuSans-6d" d="M 3328 2828 
Q 3544 3216 3844 3400 
Q 4144 3584 4550 3584 
Q 5097 3584 5394 3201 
Q 5691 2819 5691 2113 
L 5691 0 
L 5113 0 
L 5113 2094 
Q 5113 2597 4934 2840 
Q 4756 3084 4391 3084 
Q 3944 3084 3684 2787 
Q 3425 2491 3425 1978 
L 3425 0 
L 2847 0 
L 2847 2094 
Q 2847 2600 2669 2842 
Q 2491 3084 2119 3084 
Q 1678 3084 1418 2786 
Q 1159 2488 1159 1978 
L 1159 0 
L 581 0 
L 581 3500 
L 1159 3500 
L 1159 2956 
Q 1356 3278 1631 3431 
Q 1906 3584 2284 3584 
Q 2666 3584 2933 3390 
Q 3200 3197 3328 2828 
z
" transform="scale(0.015625)"/>
       <path id="DejaVuSans-65" d="M 3597 1894 
L 3597 1613 
L 953 1613 
Q 991 1019 1311 708 
Q 1631 397 2203 397 
Q 2534 397 2845 478 
Q 3156 559 3463 722 
L 3463 178 
Q 3153 47 2828 -22 
Q 2503 -91 2169 -91 
Q 1331 -91 842 396 
Q 353 884 353 1716 
Q 353 2575 817 3079 
Q 1281 3584 2069 3584 
Q 2775 3584 3186 3129 
Q 3597 2675 3597 1894 
z
M 3022 2063 
Q 3016 2534 2758 2815 
Q 2500 3097 2075 3097 
Q 1594 3097 1305 2825 
Q 1016 2553 972 2059 
L 3022 2063 
z
" transform="scale(0.015625)"/>
       <path id="DejaVuSans-72" d="M 2631 2963 
Q 2534 3019 2420 3045 
Q 2306 3072 2169 3072 
Q 1681 3072 1420 2755 
Q 1159 2438 1159 1844 
L 1159 0 
L 581 0 
L 581 3500 
L 1159 3500 
L 1159 2956 
Q 1341 3275 1631 3429 
Q 1922 3584 2338 3584 
Q 2397 3584 2469 3576 
Q 2541 3569 2628 3553 
L 2631 2963 
z
" transform="scale(0.015625)"/>
      </defs>
      <use xlink:href="#DejaVuSans-56"/>
      <use xlink:href="#DejaVuSans-6f" x="60.658203"/>
      <use xlink:href="#DejaVuSans-6c" x="121.839844"/>
      <use xlink:href="#DejaVuSans-6d" x="149.623047"/>
      <use xlink:href="#DejaVuSans-65" x="247.035156"/>
      <use xlink:href="#DejaVuSans-72" x="308.558594"/>
     </g>
    </g>
    <g id="line2d_20">
     <path d="M 177.909375 158.940313 
L 187.909375 158.940313 
L 197.909375 158.940313 
" style="fill: none; stroke: #ff0000; stroke-width: 1.5; stroke-linecap: square"/>
    </g>
    <g id="text_16">
     <!-- Heyrovsky -->
     <g transform="translate(205.909375 162.440313) scale(0.1 -0.1)">
      <defs>
       <path id="DejaVuSans-48" d="M 628 4666 
L 1259 4666 
L 1259 2753 
L 3553 2753 
L 3553 4666 
L 4184 4666 
L 4184 0 
L 3553 0 
L 3553 2222 
L 1259 2222 
L 1259 0 
L 628 0 
L 628 4666 
z
" transform="scale(0.015625)"/>
       <path id="DejaVuSans-79" d="M 2059 -325 
Q 1816 -950 1584 -1140 
Q 1353 -1331 966 -1331 
L 506 -1331 
L 506 -850 
L 844 -850 
Q 1081 -850 1212 -737 
Q 1344 -625 1503 -206 
L 1606 56 
L 191 3500 
L 800 3500 
L 1894 763 
L 2988 3500 
L 3597 3500 
L 2059 -325 
z
" transform="scale(0.015625)"/>
       <path id="DejaVuSans-76" d="M 191 3500 
L 800 3500 
L 1894 563 
L 2988 3500 
L 3597 3500 
L 2284 0 
L 1503 0 
L 191 3500 
z
" transform="scale(0.015625)"/>
       <path id="DejaVuSans-6b" d="M 581 4863 
L 1159 4863 
L 1159 1991 
L 2875 3500 
L 3609 3500 
L 1753 1863 
L 3688 0 
L 2938 0 
L 1159 1709 
L 1159 0 
L 581 0 
L 581 4863 
z
" transform="scale(0.015625)"/>
      </defs>
      <use xlink:href="#DejaVuSans-48"/>
      <use xlink:href="#DejaVuSans-65" x="75.195312"/>
      <use xlink:href="#DejaVuSans-79" x="136.71875"/>
      <use xlink:href="#DejaVuSans-72" x="195.898438"/>
      <use xlink:href="#DejaVuSans-6f" x="234.761719"/>
      <use xlink:href="#DejaVuSans-76" x="295.943359"/>
      <use xlink:href="#DejaVuSans-73" x="355.123047"/>
      <use xlink:href="#DejaVuSans-6b" x="407.222656"/>
      <use xlink:href="#DejaVuSans-79" x="461.507812"/>
     </g>
    </g>
   </g>
   <g id="legend_2">
    <g id="patch_8">
     <path d="M 198.451562 59.234375 
L 259.98125 59.234375 
Q 261.98125 59.234375 261.98125 57.234375 
L 261.98125 14.2 
Q 261.98125 12.2 259.98125 12.2 
L 198.451562 12.2 
Q 196.451562 12.2 196.451562 14.2 
L 196.451562 57.234375 
Q 196.451562 59.234375 198.451562 59.234375 
z
" style="fill: #ffffff; opacity: 0.8; stroke: #cccccc; stroke-linejoin: miter"/>
    </g>
    <g id="line2d_21">
     <path d="M 200.451562 20.298438 
L 210.451562 20.298438 
L 220.451562 20.298438 
" style="fill: none; stroke: #000000; stroke-width: 1.5; stroke-linecap: square"/>
    </g>
    <g id="text_17">
     <!-- -1.0 V -->
     <g transform="translate(228.451562 23.798438) scale(0.1 -0.1)">
      <defs>
       <path id="DejaVuSans-2d" d="M 313 2009 
L 1997 2009 
L 1997 1497 
L 313 1497 
L 313 2009 
z
" transform="scale(0.015625)"/>
      </defs>
      <use xlink:href="#DejaVuSans-2d"/>
      <use xlink:href="#DejaVuSans-31" x="36.083984"/>
      <use xlink:href="#DejaVuSans-2e" x="99.707031"/>
      <use xlink:href="#DejaVuSans-30" x="131.494141"/>
      <use xlink:href="#DejaVuSans-20" x="195.117188"/>
      <use xlink:href="#DejaVuSans-56" x="226.904297"/>
     </g>
    </g>
    <g id="line2d_22">
     <path d="M 200.451562 34.976563 
L 210.451562 34.976563 
L 220.451562 34.976563 
" style="fill: none; stroke-dasharray: 5.55,2.4; stroke-dashoffset: 0; stroke: #000000; stroke-width: 1.5"/>
    </g>
    <g id="text_18">
     <!-- -1.5 V -->
     <g transform="translate(228.451562 38.476563) scale(0.1 -0.1)">
      <use xlink:href="#DejaVuSans-2d"/>
      <use xlink:href="#DejaVuSans-31" x="36.083984"/>
      <use xlink:href="#DejaVuSans-2e" x="99.707031"/>
      <use xlink:href="#DejaVuSans-35" x="131.494141"/>
      <use xlink:href="#DejaVuSans-20" x="195.117188"/>
      <use xlink:href="#DejaVuSans-56" x="226.904297"/>
     </g>
    </g>
    <g id="line2d_23">
     <path d="M 200.451562 49.654688 
L 210.451562 49.654688 
L 220.451562 49.654688 
" style="fill: none; stroke-dasharray: 1.5,2.475; stroke-dashoffset: 0; stroke: #000000; stroke-width: 1.5"/>
    </g>
    <g id="text_19">
     <!-- -0.5 V -->
     <g transform="translate(228.451562 53.154688) scale(0.1 -0.1)">
      <use xlink:href="#DejaVuSans-2d"/>
      <use xlink:href="#DejaVuSans-30" x="36.083984"/>
      <use xlink:href="#DejaVuSans-2e" x="99.707031"/>
      <use xlink:href="#DejaVuSans-35" x="131.494141"/>
      <use xlink:href="#DejaVuSans-20" x="195.117188"/>
      <use xlink:href="#DejaVuSans-56" x="226.904297"/>
     </g>
    </g>
   </g>
  </g>
 </g>
 <defs>
  <clipPath id="p5b2f332202">
   <rect x="43.78125" y="7.2" width="223.2" height="166.32"/>
  </clipPath>
 </defs>
</svg>
