<?xml version="1.0" encoding="utf-8" standalone="no"?>
<!DOCTYPE svg PUBLIC "-//W3C//DTD SVG 1.1//EN"
  "http://www.w3.org/Graphics/SVG/1.1/DTD/svg11.dtd">
<svg xmlns:xlink="http://www.w3.org/1999/xlink" width="280.54375pt" height="211.07625pt" viewBox="0 0 280.54375 211.07625" xmlns="http://www.w3.org/2000/svg" version="1.1">
 <metadata>
  <rdf:RDF xmlns:dc="http://purl.org/dc/elements/1.1/" xmlns:cc="http://creativecommons.org/ns#" xmlns:rdf="http://www.w3.org/1999/02/22-rdf-syntax-ns#">
   <cc:Work>
    <dc:type rdf:resource="http://purl.org/dc/dcmitype/StillImage"/>
    <dc:date>2025-04-20T16:55:39.478190</dc:date>
    <dc:format>image/svg+xml</dc:format>
    <dc:creator>
     <cc:Agent>
      <dc:title>Matplotlib v3.7.2, https://matplotlib.org/</dc:title>
     </cc:Agent>
    </dc:creator>
   </cc:Work>
  </rdf:RDF>
 </metadata>
 <defs>
  <style type="text/css">*{stroke-linejoin: round; stroke-linecap: butt}</style>
 </defs>
 <g id="figure_1">
  <g id="patch_1">
   <path d="M 0 211.07625 
L 280.54375 211.07625 
L 280.54375 0 
L 0 0 
z
" style="fill: #ffffff"/>
  </g>
  <g id="axes_1">
   <g id="patch_2">
    <path d="M 50.14375 173.52 
L 273.34375 173.52 
L 273.34375 7.2 
L 50.14375 7.2 
z
" style="fill: #ffffff"/>
   </g>
   <g id="matplotlib.axis_1">
    <g id="xtick_1">
     <g id="line2d_1">
      <defs>
       <path id="m2555b27fdc" d="M 0 0 
L 0 3.5 
" style="stroke: #000000; stroke-width: 0.8"/>
      </defs>
      <g>
       <use xlink:href="#m2555b27fdc" x="60.289205" y="173.52" style="stroke: #000000; stroke-width: 0.8"/>
      </g>
     </g>
     <g id="text_1">
      <!-- −2.0 -->
      <g transform="translate(48.147798 188.118438) scale(0.1 -0.1)">
       <defs>
        <path id="DejaVuSans-2212" d="M 678 2272 
L 4684 2272 
L 4684 1741 
L 678 1741 
L 678 2272 
z
" transform="scale(0.015625)"/>
        <path id="DejaVuSans-32" d="M 1228 531 
L 3431 531 
L 3431 0 
L 469 0 
L 469 531 
Q 828 903 1448 1529 
Q 2069 2156 2228 2338 
Q 2531 2678 2651 2914 
Q 2772 3150 2772 3378 
Q 2772 3750 2511 3984 
Q 2250 4219 1831 4219 
Q 1534 4219 1204 4116 
Q 875 4013 500 3803 
L 500 4441 
Q 881 4594 1212 4672 
Q 1544 4750 1819 4750 
Q 2544 4750 2975 4387 
Q 3406 4025 3406 3419 
Q 3406 3131 3298 2873 
Q 3191 2616 2906 2266 
Q 2828 2175 2409 1742 
Q 1991 1309 1228 531 
z
" transform="scale(0.015625)"/>
        <path id="DejaVuSans-2e" d="M 684 794 
L 1344 794 
L 1344 0 
L 684 0 
L 684 794 
z
" transform="scale(0.015625)"/>
        <path id="DejaVuSans-30" d="M 2034 4250 
Q 1547 4250 1301 3770 
Q 1056 3291 1056 2328 
Q 1056 1369 1301 889 
Q 1547 409 2034 409 
Q 2525 409 2770 889 
Q 3016 1369 3016 2328 
Q 3016 3291 2770 3770 
Q 2525 4250 2034 4250 
z
M 2034 4750 
Q 2819 4750 3233 4129 
Q 3647 3509 3647 2328 
Q 3647 1150 3233 529 
Q 2819 -91 2034 -91 
Q 1250 -91 836 529 
Q 422 1150 422 2328 
Q 422 3509 836 4129 
Q 1250 4750 2034 4750 
z
" transform="scale(0.015625)"/>
       </defs>
       <use xlink:href="#DejaVuSans-2212"/>
       <use xlink:href="#DejaVuSans-32" x="83.789062"/>
       <use xlink:href="#DejaVuSans-2e" x="147.412109"/>
       <use xlink:href="#DejaVuSans-30" x="179.199219"/>
      </g>
     </g>
    </g>
    <g id="xtick_2">
     <g id="line2d_2">
      <g>
       <use xlink:href="#m2555b27fdc" x="111.016477" y="173.52" style="stroke: #000000; stroke-width: 0.8"/>
      </g>
     </g>
     <g id="text_2">
      <!-- −1.5 -->
      <g transform="translate(98.875071 188.118438) scale(0.1 -0.1)">
       <defs>
        <path id="DejaVuSans-31" d="M 794 531 
L 1825 531 
L 1825 4091 
L 703 3866 
L 703 4441 
L 1819 4666 
L 2450 4666 
L 2450 531 
L 3481 531 
L 3481 0 
L 794 0 
L 794 531 
z
" transform="scale(0.015625)"/>
        <path id="DejaVuSans-35" d="M 691 4666 
L 3169 4666 
L 3169 4134 
L 1269 4134 
L 1269 2991 
Q 1406 3038 1543 3061 
Q 1681 3084 1819 3084 
Q 2600 3084 3056 2656 
Q 3513 2228 3513 1497 
Q 3513 744 3044 326 
Q 2575 -91 1722 -91 
Q 1428 -91 1123 -41 
Q 819 9 494 109 
L 494 744 
Q 775 591 1075 516 
Q 1375 441 1709 441 
Q 2250 441 2565 725 
Q 2881 1009 2881 1497 
Q 2881 1984 2565 2268 
Q 2250 2553 1709 2553 
Q 1456 2553 1204 2497 
Q 953 2441 691 2322 
L 691 4666 
z
" transform="scale(0.015625)"/>
       </defs>
       <use xlink:href="#DejaVuSans-2212"/>
       <use xlink:href="#DejaVuSans-31" x="83.789062"/>
       <use xlink:href="#DejaVuSans-2e" x="147.412109"/>
       <use xlink:href="#DejaVuSans-35" x="179.199219"/>
      </g>
     </g>
    </g>
    <g id="xtick_3">
     <g id="line2d_3">
      <g>
       <use xlink:href="#m2555b27fdc" x="161.74375" y="173.52" style="stroke: #000000; stroke-width: 0.8"/>
      </g>
     </g>
     <g id="text_3">
      <!-- −1.0 -->
      <g transform="translate(149.602344 188.118438) scale(0.1 -0.1)">
       <use xlink:href="#DejaVuSans-2212"/>
       <use xlink:href="#DejaVuSans-31" x="83.789062"/>
       <use xlink:href="#DejaVuSans-2e" x="147.412109"/>
       <use xlink:href="#DejaVuSans-30" x="179.199219"/>
      </g>
     </g>
    </g>
    <g id="xtick_4">
     <g id="line2d_4">
      <g>
       <use xlink:href="#m2555b27fdc" x="212.471023" y="173.52" style="stroke: #000000; stroke-width: 0.8"/>
      </g>
     </g>
     <g id="text_4">
      <!-- −0.5 -->
      <g transform="translate(200.329616 188.118438) scale(0.1 -0.1)">
       <use xlink:href="#DejaVuSans-2212"/>
       <use xlink:href="#DejaVuSans-30" x="83.789062"/>
       <use xlink:href="#DejaVuSans-2e" x="147.412109"/>
       <use xlink:href="#DejaVuSans-35" x="179.199219"/>
      </g>
     </g>
    </g>
    <g id="xtick_5">
     <g id="line2d_5">
      <g>
       <use xlink:href="#m2555b27fdc" x="263.198295" y="173.52" style="stroke: #000000; stroke-width: 0.8"/>
      </g>
     </g>
     <g id="text_5">
      <!-- 0.0 -->
      <g transform="translate(255.246733 188.118438) scale(0.1 -0.1)">
       <use xlink:href="#DejaVuSans-30"/>
       <use xlink:href="#DejaVuSans-2e" x="63.623047"/>
       <use xlink:href="#DejaVuSans-30" x="95.410156"/>
      </g>
     </g>
    </g>
    <g id="text_6">
     <!-- Potential vs SHE -->
     <g transform="translate(121.007031 201.796563) scale(0.1 -0.1)">
      <defs>
       <path id="DejaVuSans-50" d="M 1259 4147 
L 1259 2394 
L 2053 2394 
Q 2494 2394 2734 2622 
Q 2975 2850 2975 3272 
Q 2975 3691 2734 3919 
Q 2494 4147 2053 4147 
L 1259 4147 
z
M 628 4666 
L 2053 4666 
Q 2838 4666 3239 4311 
Q 3641 3956 3641 3272 
Q 3641 2581 3239 2228 
Q 2838 1875 2053 1875 
L 1259 1875 
L 1259 0 
L 628 0 
L 628 4666 
z
" transform="scale(0.015625)"/>
       <path id="DejaVuSans-6f" d="M 1959 3097 
Q 1497 3097 1228 2736 
Q 959 2375 959 1747 
Q 959 1119 1226 758 
Q 1494 397 1959 397 
Q 2419 397 2687 759 
Q 2956 1122 2956 1747 
Q 2956 2369 2687 2733 
Q 2419 3097 1959 3097 
z
M 1959 3584 
Q 2709 3584 3137 3096 
Q 3566 2609 3566 1747 
Q 3566 888 3137 398 
Q 2709 -91 1959 -91 
Q 1206 -91 779 398 
Q 353 888 353 1747 
Q 353 2609 779 3096 
Q 1206 3584 1959 3584 
z
" transform="scale(0.015625)"/>
       <path id="DejaVuSans-74" d="M 1172 4494 
L 1172 3500 
L 2356 3500 
L 2356 3053 
L 1172 3053 
L 1172 1153 
Q 1172 725 1289 603 
Q 1406 481 1766 481 
L 2356 481 
L 2356 0 
L 1766 0 
Q 1100 0 847 248 
Q 594 497 594 1153 
L 594 3053 
L 172 3053 
L 172 3500 
L 594 3500 
L 594 4494 
L 1172 4494 
z
" transform="scale(0.015625)"/>
       <path id="DejaVuSans-65" d="M 3597 1894 
L 3597 1613 
L 953 1613 
Q 991 1019 1311 708 
Q 1631 397 2203 397 
Q 2534 397 2845 478 
Q 3156 559 3463 722 
L 3463 178 
Q 3153 47 2828 -22 
Q 2503 -91 2169 -91 
Q 1331 -91 842 396 
Q 353 884 353 1716 
Q 353 2575 817 3079 
Q 1281 3584 2069 3584 
Q 2775 3584 3186 3129 
Q 3597 2675 3597 1894 
z
M 3022 2063 
Q 3016 2534 2758 2815 
Q 2500 3097 2075 3097 
Q 1594 3097 1305 2825 
Q 1016 2553 972 2059 
L 3022 2063 
z
" transform="scale(0.015625)"/>
       <path id="DejaVuSans-6e" d="M 3513 2113 
L 3513 0 
L 2938 0 
L 2938 2094 
Q 2938 2591 2744 2837 
Q 2550 3084 2163 3084 
Q 1697 3084 1428 2787 
Q 1159 2491 1159 1978 
L 1159 0 
L 581 0 
L 581 3500 
L 1159 3500 
L 1159 2956 
Q 1366 3272 1645 3428 
Q 1925 3584 2291 3584 
Q 2894 3584 3203 3211 
Q 3513 2838 3513 2113 
z
" transform="scale(0.015625)"/>
       <path id="DejaVuSans-69" d="M 603 3500 
L 1178 3500 
L 1178 0 
L 603 0 
L 603 3500 
z
M 603 4863 
L 1178 4863 
L 1178 4134 
L 603 4134 
L 603 4863 
z
" transform="scale(0.015625)"/>
       <path id="DejaVuSans-61" d="M 2194 1759 
Q 1497 1759 1228 1600 
Q 959 1441 959 1056 
Q 959 750 1161 570 
Q 1363 391 1709 391 
Q 2188 391 2477 730 
Q 2766 1069 2766 1631 
L 2766 1759 
L 2194 1759 
z
M 3341 1997 
L 3341 0 
L 2766 0 
L 2766 531 
Q 2569 213 2275 61 
Q 1981 -91 1556 -91 
Q 1019 -91 701 211 
Q 384 513 384 1019 
Q 384 1609 779 1909 
Q 1175 2209 1959 2209 
L 2766 2209 
L 2766 2266 
Q 2766 2663 2505 2880 
Q 2244 3097 1772 3097 
Q 1472 3097 1187 3025 
Q 903 2953 641 2809 
L 641 3341 
Q 956 3463 1253 3523 
Q 1550 3584 1831 3584 
Q 2591 3584 2966 3190 
Q 3341 2797 3341 1997 
z
" transform="scale(0.015625)"/>
       <path id="DejaVuSans-6c" d="M 603 4863 
L 1178 4863 
L 1178 0 
L 603 0 
L 603 4863 
z
" transform="scale(0.015625)"/>
       <path id="DejaVuSans-20" transform="scale(0.015625)"/>
       <path id="DejaVuSans-76" d="M 191 3500 
L 800 3500 
L 1894 563 
L 2988 3500 
L 3597 3500 
L 2284 0 
L 1503 0 
L 191 3500 
z
" transform="scale(0.015625)"/>
       <path id="DejaVuSans-73" d="M 2834 3397 
L 2834 2853 
Q 2591 2978 2328 3040 
Q 2066 3103 1784 3103 
Q 1356 3103 1142 2972 
Q 928 2841 928 2578 
Q 928 2378 1081 2264 
Q 1234 2150 1697 2047 
L 1894 2003 
Q 2506 1872 2764 1633 
Q 3022 1394 3022 966 
Q 3022 478 2636 193 
Q 2250 -91 1575 -91 
Q 1294 -91 989 -36 
Q 684 19 347 128 
L 347 722 
Q 666 556 975 473 
Q 1284 391 1588 391 
Q 1994 391 2212 530 
Q 2431 669 2431 922 
Q 2431 1156 2273 1281 
Q 2116 1406 1581 1522 
L 1381 1569 
Q 847 1681 609 1914 
Q 372 2147 372 2553 
Q 372 3047 722 3315 
Q 1072 3584 1716 3584 
Q 2034 3584 2315 3537 
Q 2597 3491 2834 3397 
z
" transform="scale(0.015625)"/>
       <path id="DejaVuSans-53" d="M 3425 4513 
L 3425 3897 
Q 3066 4069 2747 4153 
Q 2428 4238 2131 4238 
Q 1616 4238 1336 4038 
Q 1056 3838 1056 3469 
Q 1056 3159 1242 3001 
Q 1428 2844 1947 2747 
L 2328 2669 
Q 3034 2534 3370 2195 
Q 3706 1856 3706 1288 
Q 3706 609 3251 259 
Q 2797 -91 1919 -91 
Q 1588 -91 1214 -16 
Q 841 59 441 206 
L 441 856 
Q 825 641 1194 531 
Q 1563 422 1919 422 
Q 2459 422 2753 634 
Q 3047 847 3047 1241 
Q 3047 1584 2836 1778 
Q 2625 1972 2144 2069 
L 1759 2144 
Q 1053 2284 737 2584 
Q 422 2884 422 3419 
Q 422 4038 858 4394 
Q 1294 4750 2059 4750 
Q 2388 4750 2728 4690 
Q 3069 4631 3425 4513 
z
" transform="scale(0.015625)"/>
       <path id="DejaVuSans-48" d="M 628 4666 
L 1259 4666 
L 1259 2753 
L 3553 2753 
L 3553 4666 
L 4184 4666 
L 4184 0 
L 3553 0 
L 3553 2222 
L 1259 2222 
L 1259 0 
L 628 0 
L 628 4666 
z
" transform="scale(0.015625)"/>
       <path id="DejaVuSans-45" d="M 628 4666 
L 3578 4666 
L 3578 4134 
L 1259 4134 
L 1259 2753 
L 3481 2753 
L 3481 2222 
L 1259 2222 
L 1259 531 
L 3634 531 
L 3634 0 
L 628 0 
L 628 4666 
z
" transform="scale(0.015625)"/>
      </defs>
      <use xlink:href="#DejaVuSans-50"/>
      <use xlink:href="#DejaVuSans-6f" x="56.677734"/>
      <use xlink:href="#DejaVuSans-74" x="117.859375"/>
      <use xlink:href="#DejaVuSans-65" x="157.068359"/>
      <use xlink:href="#DejaVuSans-6e" x="218.591797"/>
      <use xlink:href="#DejaVuSans-74" x="281.970703"/>
      <use xlink:href="#DejaVuSans-69" x="321.179688"/>
      <use xlink:href="#DejaVuSans-61" x="348.962891"/>
      <use xlink:href="#DejaVuSans-6c" x="410.242188"/>
      <use xlink:href="#DejaVuSans-20" x="438.025391"/>
      <use xlink:href="#DejaVuSans-76" x="469.8125"/>
      <use xlink:href="#DejaVuSans-73" x="528.992188"/>
      <use xlink:href="#DejaVuSans-20" x="581.091797"/>
      <use xlink:href="#DejaVuSans-53" x="612.878906"/>
      <use xlink:href="#DejaVuSans-48" x="676.355469"/>
      <use xlink:href="#DejaVuSans-45" x="751.550781"/>
     </g>
    </g>
   </g>
   <g id="matplotlib.axis_2">
    <g id="ytick_1">
     <g id="line2d_6">
      <defs>
       <path id="m55430d0152" d="M 0 0 
L -3.5 0 
" style="stroke: #000000; stroke-width: 0.8"/>
      </defs>
      <g>
       <use xlink:href="#m55430d0152" x="50.14375" y="142.909034" style="stroke: #000000; stroke-width: 0.8"/>
      </g>
     </g>
     <g id="text_7">
      <!-- 0.60 -->
      <g transform="translate(20.878125 146.708252) scale(0.1 -0.1)">
       <defs>
        <path id="DejaVuSans-36" d="M 2113 2584 
Q 1688 2584 1439 2293 
Q 1191 2003 1191 1497 
Q 1191 994 1439 701 
Q 1688 409 2113 409 
Q 2538 409 2786 701 
Q 3034 994 3034 1497 
Q 3034 2003 2786 2293 
Q 2538 2584 2113 2584 
z
M 3366 4563 
L 3366 3988 
Q 3128 4100 2886 4159 
Q 2644 4219 2406 4219 
Q 1781 4219 1451 3797 
Q 1122 3375 1075 2522 
Q 1259 2794 1537 2939 
Q 1816 3084 2150 3084 
Q 2853 3084 3261 2657 
Q 3669 2231 3669 1497 
Q 3669 778 3244 343 
Q 2819 -91 2113 -91 
Q 1303 -91 875 529 
Q 447 1150 447 2328 
Q 447 3434 972 4092 
Q 1497 4750 2381 4750 
Q 2619 4750 2861 4703 
Q 3103 4656 3366 4563 
z
" transform="scale(0.015625)"/>
       </defs>
       <use xlink:href="#DejaVuSans-30"/>
       <use xlink:href="#DejaVuSans-2e" x="63.623047"/>
       <use xlink:href="#DejaVuSans-36" x="95.410156"/>
       <use xlink:href="#DejaVuSans-30" x="159.033203"/>
      </g>
     </g>
    </g>
    <g id="ytick_2">
     <g id="line2d_7">
      <g>
       <use xlink:href="#m55430d0152" x="50.14375" y="111.829396" style="stroke: #000000; stroke-width: 0.8"/>
      </g>
     </g>
     <g id="text_8">
      <!-- 0.65 -->
      <g transform="translate(20.878125 115.628614) scale(0.1 -0.1)">
       <use xlink:href="#DejaVuSans-30"/>
       <use xlink:href="#DejaVuSans-2e" x="63.623047"/>
       <use xlink:href="#DejaVuSans-36" x="95.410156"/>
       <use xlink:href="#DejaVuSans-35" x="159.033203"/>
      </g>
     </g>
    </g>
    <g id="ytick_3">
     <g id="line2d_8">
      <g>
       <use xlink:href="#m55430d0152" x="50.14375" y="80.749758" style="stroke: #000000; stroke-width: 0.8"/>
      </g>
     </g>
     <g id="text_9">
      <!-- 0.70 -->
      <g transform="translate(20.878125 84.548977) scale(0.1 -0.1)">
       <defs>
        <path id="DejaVuSans-37" d="M 525 4666 
L 3525 4666 
L 3525 4397 
L 1831 0 
L 1172 0 
L 2766 4134 
L 525 4134 
L 525 4666 
z
" transform="scale(0.015625)"/>
       </defs>
       <use xlink:href="#DejaVuSans-30"/>
       <use xlink:href="#DejaVuSans-2e" x="63.623047"/>
       <use xlink:href="#DejaVuSans-37" x="95.410156"/>
       <use xlink:href="#DejaVuSans-30" x="159.033203"/>
      </g>
     </g>
    </g>
    <g id="ytick_4">
     <g id="line2d_9">
      <g>
       <use xlink:href="#m55430d0152" x="50.14375" y="49.67012" style="stroke: #000000; stroke-width: 0.8"/>
      </g>
     </g>
     <g id="text_10">
      <!-- 0.75 -->
      <g transform="translate(20.878125 53.469339) scale(0.1 -0.1)">
       <use xlink:href="#DejaVuSans-30"/>
       <use xlink:href="#DejaVuSans-2e" x="63.623047"/>
       <use xlink:href="#DejaVuSans-37" x="95.410156"/>
       <use xlink:href="#DejaVuSans-35" x="159.033203"/>
      </g>
     </g>
    </g>
    <g id="ytick_5">
     <g id="line2d_10">
      <g>
       <use xlink:href="#m55430d0152" x="50.14375" y="18.590482" style="stroke: #000000; stroke-width: 0.8"/>
      </g>
     </g>
     <g id="text_11">
      <!-- 0.80 -->
      <g transform="translate(20.878125 22.389701) scale(0.1 -0.1)">
       <defs>
        <path id="DejaVuSans-38" d="M 2034 2216 
Q 1584 2216 1326 1975 
Q 1069 1734 1069 1313 
Q 1069 891 1326 650 
Q 1584 409 2034 409 
Q 2484 409 2743 651 
Q 3003 894 3003 1313 
Q 3003 1734 2745 1975 
Q 2488 2216 2034 2216 
z
M 1403 2484 
Q 997 2584 770 2862 
Q 544 3141 544 3541 
Q 544 4100 942 4425 
Q 1341 4750 2034 4750 
Q 2731 4750 3128 4425 
Q 3525 4100 3525 3541 
Q 3525 3141 3298 2862 
Q 3072 2584 2669 2484 
Q 3125 2378 3379 2068 
Q 3634 1759 3634 1313 
Q 3634 634 3220 271 
Q 2806 -91 2034 -91 
Q 1263 -91 848 271 
Q 434 634 434 1313 
Q 434 1759 690 2068 
Q 947 2378 1403 2484 
z
M 1172 3481 
Q 1172 3119 1398 2916 
Q 1625 2713 2034 2713 
Q 2441 2713 2670 2916 
Q 2900 3119 2900 3481 
Q 2900 3844 2670 4047 
Q 2441 4250 2034 4250 
Q 1625 4250 1398 4047 
Q 1172 3844 1172 3481 
z
" transform="scale(0.015625)"/>
       </defs>
       <use xlink:href="#DejaVuSans-30"/>
       <use xlink:href="#DejaVuSans-2e" x="63.623047"/>
       <use xlink:href="#DejaVuSans-38" x="95.410156"/>
       <use xlink:href="#DejaVuSans-30" x="159.033203"/>
      </g>
     </g>
    </g>
    <g id="text_12">
     <!-- $R^2$ -->
     <g transform="translate(14.798437 96.56) rotate(-90) scale(0.1 -0.1)">
      <defs>
       <path id="DejaVuSans-Oblique-52" d="M 1613 4147 
L 1294 2491 
L 2106 2491 
Q 2584 2491 2879 2755 
Q 3175 3019 3175 3444 
Q 3175 3784 2976 3965 
Q 2778 4147 2406 4147 
L 1613 4147 
z
M 2772 2241 
Q 2972 2194 3105 2009 
Q 3238 1825 3413 1275 
L 3809 0 
L 3144 0 
L 2778 1197 
Q 2638 1659 2453 1815 
Q 2269 1972 1888 1972 
L 1191 1972 
L 806 0 
L 172 0 
L 1081 4666 
L 2503 4666 
Q 3150 4666 3495 4373 
Q 3841 4081 3841 3531 
Q 3841 3044 3547 2687 
Q 3253 2331 2772 2241 
z
" transform="scale(0.015625)"/>
      </defs>
      <use xlink:href="#DejaVuSans-Oblique-52" transform="translate(0 0.765625)"/>
      <use xlink:href="#DejaVuSans-32" transform="translate(76.499193 39.046875) scale(0.7)"/>
     </g>
    </g>
   </g>
   <g id="line2d_11">
    <path d="M 60.289205 165.96 
L 62.318295 164.374606 
L 64.347386 162.786699 
L 66.376477 161.196618 
L 68.405568 159.60471 
L 70.434659 158.011339 
L 72.46375 156.416882 
L 74.492841 154.821731 
L 76.521932 153.226292 
L 78.551023 151.630985 
L 80.580114 150.036247 
L 82.609205 148.442529 
L 84.638295 146.850299 
L 86.667386 145.260039 
L 88.696477 143.672249 
L 90.725568 142.087447 
L 92.754659 140.506163 
L 94.78375 138.92895 
L 96.812841 137.356374 
L 98.841932 135.78902 
L 100.871023 134.227491 
L 102.900114 132.672408 
L 104.929205 131.124409 
L 106.958295 129.584151 
L 108.987386 128.05231 
L 111.016477 126.52958 
L 113.045568 125.016673 
L 115.074659 123.51432 
L 117.10375 122.023273 
L 119.132841 120.544298 
L 121.161932 119.078185 
L 123.191023 117.625738 
L 125.220114 116.187783 
L 127.249205 114.765164 
L 129.278295 113.358741 
L 131.307386 111.969394 
L 133.336477 110.598022 
L 135.365568 109.245539 
L 137.394659 107.912879 
L 139.42375 106.600992 
L 141.452841 105.310843 
L 143.481932 104.043415 
L 145.511023 102.799706 
L 147.540114 101.58073 
L 149.569205 100.387514 
L 151.598295 99.2211 
L 153.627386 98.082542 
L 155.656477 96.972907 
L 157.685568 95.893273 
L 159.714659 94.844729 
L 161.74375 93.828373 
L 163.772841 92.845312 
L 165.801932 91.89666 
L 167.831023 90.983537 
L 169.860114 90.107069 
L 171.889205 89.268386 
L 173.918295 88.468618 
L 175.947386 87.7089 
L 177.976477 86.990361 
L 180.005568 86.314134 
L 182.034659 85.681343 
L 184.06375 85.093111 
L 186.092841 84.550552 
L 188.121932 84.054771 
L 190.151023 83.606863 
L 192.180114 83.207911 
L 194.209205 82.858983 
L 196.238295 82.561131 
L 198.267386 82.315388 
L 200.296477 82.122767 
L 202.325568 81.984261 
L 204.354659 81.900835 
L 206.38375 81.87343 
L 208.412841 81.902957 
L 210.441932 81.990297 
L 212.471023 82.136299 
L 214.500114 82.341775 
L 216.529205 82.607502 
L 218.558295 82.934218 
L 220.587386 83.322617 
L 222.616477 83.773354 
L 224.645568 84.287036 
L 226.674659 84.864226 
L 228.70375 85.505434 
L 230.732841 86.211124 
L 232.761932 86.981704 
L 234.791023 87.81753 
L 236.820114 88.718904 
L 238.849205 89.686067 
L 240.878295 90.719206 
L 242.907386 91.818446 
L 244.936477 92.983852 
L 246.965568 94.215429 
L 248.994659 95.513117 
L 251.02375 96.876795 
L 253.052841 98.306276 
L 255.081932 99.801312 
L 257.111023 101.361588 
L 259.140114 102.986725 
L 261.169205 104.676279 
L 263.198295 106.429744 
" clip-path="url(#pcca9d89d07)" style="fill: none; stroke: #000000; stroke-width: 1.5; stroke-linecap: square"/>
   </g>
   <g id="line2d_12">
    <path d="M 60.289205 57.43369 
L 62.318295 56.258837 
L 64.347386 55.107091 
L 66.376477 53.978188 
L 68.405568 52.871866 
L 70.434659 51.787859 
L 72.46375 50.725902 
L 74.492841 49.685729 
L 76.521932 48.667075 
L 78.551023 47.669673 
L 80.580114 46.693258 
L 82.609205 45.737564 
L 84.638295 44.802327 
L 86.667386 43.88728 
L 88.696477 42.992161 
L 90.725568 42.116705 
L 92.754659 41.26065 
L 94.78375 40.423735 
L 96.812841 39.605699 
L 98.841932 38.806283 
L 100.871023 38.025229 
L 102.900114 37.262279 
L 104.929205 36.51718 
L 106.958295 35.789677 
L 108.987386 35.079518 
L 111.016477 34.386453 
L 113.045568 33.710232 
L 115.074659 33.05061 
L 117.10375 32.40734 
L 119.132841 31.780181 
L 121.161932 31.168891 
L 123.191023 30.57323 
L 125.220114 29.992962 
L 127.249205 29.427852 
L 129.278295 28.877667 
L 131.307386 28.342177 
L 133.336477 27.821153 
L 135.365568 27.314368 
L 137.394659 26.8216 
L 139.42375 26.342626 
L 141.452841 25.877228 
L 143.481932 25.425189 
L 145.511023 24.986293 
L 147.540114 24.560329 
L 149.569205 24.147087 
L 151.598295 23.74636 
L 153.627386 23.357942 
L 155.656477 22.981632 
L 157.685568 22.617229 
L 159.714659 22.264535 
L 161.74375 21.923354 
L 163.772841 21.593495 
L 165.801932 21.274767 
L 167.831023 20.966981 
L 169.860114 20.669951 
L 171.889205 20.383496 
L 173.918295 20.107433 
L 175.947386 19.841584 
L 177.976477 19.585774 
L 180.005568 19.339828 
L 182.034659 19.103576 
L 184.06375 18.876847 
L 186.092841 18.659477 
L 188.121932 18.451299 
L 190.151023 18.252152 
L 192.180114 18.061877 
L 194.209205 17.880315 
L 196.238295 17.707313 
L 198.267386 17.542715 
L 200.296477 17.386373 
L 202.325568 17.238137 
L 204.354659 17.097861 
L 206.38375 16.965401 
L 208.412841 16.840614 
L 210.441932 16.723361 
L 212.471023 16.613503 
L 214.500114 16.510906 
L 216.529205 16.415435 
L 218.558295 16.326959 
L 220.587386 16.245348 
L 222.616477 16.170475 
L 224.645568 16.102213 
L 226.674659 16.040439 
L 228.70375 15.985032 
L 230.732841 15.935871 
L 232.761932 15.892838 
L 234.791023 15.855818 
L 236.820114 15.824695 
L 238.849205 15.799359 
L 240.878295 15.779697 
L 242.907386 15.765601 
L 244.936477 15.756964 
L 246.965568 15.753681 
L 248.994659 15.755648 
L 251.02375 15.762762 
L 253.052841 15.774924 
L 255.081932 15.792034 
L 257.111023 15.813997 
L 259.140114 15.840715 
L 261.169205 15.872096 
L 263.198295 15.908046 
" clip-path="url(#pcca9d89d07)" style="fill: none; stroke: #ff0000; stroke-width: 1.5; stroke-linecap: square"/>
   </g>
   <g id="line2d_13">
    <path d="M 60.289205 38.069618 
L 62.318295 37.100393 
L 64.347386 36.142364 
L 66.376477 35.196079 
L 68.405568 34.2621 
L 70.434659 33.341005 
L 72.46375 32.433383 
L 74.492841 31.53984 
L 76.521932 30.660995 
L 78.551023 29.797482 
L 80.580114 28.949949 
L 82.609205 28.11906 
L 84.638295 27.305493 
L 86.667386 26.509941 
L 88.696477 25.733112 
L 90.725568 24.975729 
L 92.754659 24.238528 
L 94.78375 23.522263 
L 96.812841 22.8277 
L 98.841932 22.155622 
L 100.871023 21.506823 
L 102.900114 20.882116 
L 104.929205 20.282324 
L 106.958295 19.708287 
L 108.987386 19.160857 
L 111.016477 18.640901 
L 113.045568 18.149296 
L 115.074659 17.686937 
L 117.10375 17.254727 
L 119.132841 16.853583 
L 121.161932 16.484434 
L 123.191023 16.148218 
L 125.220114 15.845885 
L 127.249205 15.578396 
L 129.278295 15.346719 
L 131.307386 15.151833 
L 133.336477 14.994722 
L 135.365568 14.876379 
L 137.394659 14.797804 
L 139.42375 14.76 
L 141.452841 14.763976 
L 143.481932 14.810744 
L 145.511023 14.901318 
L 147.540114 15.036714 
L 149.569205 15.217947 
L 151.598295 15.446031 
L 153.627386 15.721977 
L 155.656477 16.046795 
L 157.685568 16.421486 
L 159.714659 16.847046 
L 161.74375 17.324462 
L 163.772841 17.854714 
L 165.801932 18.438766 
L 167.831023 19.077573 
L 169.860114 19.772074 
L 171.889205 20.523189 
L 173.918295 21.331823 
L 175.947386 22.198859 
L 177.976477 23.125159 
L 180.005568 24.111559 
L 182.034659 25.158872 
L 184.06375 26.26788 
L 186.092841 27.439337 
L 188.121932 28.673964 
L 190.151023 29.97245 
L 192.180114 31.335444 
L 194.209205 32.763561 
L 196.238295 34.257373 
L 198.267386 35.817411 
L 200.296477 37.444163 
L 202.325568 39.138068 
L 204.354659 40.899519 
L 206.38375 42.728859 
L 208.412841 44.626377 
L 210.441932 46.592311 
L 212.471023 48.626842 
L 214.500114 50.730093 
L 216.529205 52.902131 
L 218.558295 55.142959 
L 220.587386 57.45252 
L 222.616477 59.830695 
L 224.645568 62.277299 
L 226.674659 64.792081 
L 228.70375 67.374726 
L 230.732841 70.024849 
L 232.761932 72.741998 
L 234.791023 75.525652 
L 236.820114 78.375222 
L 238.849205 81.290047 
L 240.878295 84.269399 
L 242.907386 87.312479 
L 244.936477 90.418419 
L 246.965568 93.58628 
L 248.994659 96.815058 
L 251.02375 100.103679 
L 253.052841 103.451001 
L 255.081932 106.855817 
L 257.111023 110.316856 
L 259.140114 113.832782 
L 261.169205 117.402198 
L 263.198295 121.023647 
" clip-path="url(#pcca9d89d07)" style="fill: none; stroke-dasharray: 5.55,2.4; stroke-dashoffset: 0; stroke: #000000; stroke-width: 1.5"/>
   </g>
   <g id="line2d_14">
    <path d="M 60.289205 112.335428 
L 62.318295 111.827965 
L 64.347386 111.338254 
L 66.376477 110.866023 
L 68.405568 110.411003 
L 70.434659 109.972923 
L 72.46375 109.551518 
L 74.492841 109.14652 
L 76.521932 108.757666 
L 78.551023 108.384693 
L 80.580114 108.027339 
L 82.609205 107.685346 
L 84.638295 107.358458 
L 86.667386 107.046417 
L 88.696477 106.748973 
L 90.725568 106.465874 
L 92.754659 106.196871 
L 94.78375 105.941719 
L 96.812841 105.700172 
L 98.841932 105.471991 
L 100.871023 105.256935 
L 102.900114 105.054768 
L 104.929205 104.865255 
L 106.958295 104.688166 
L 108.987386 104.523271 
L 111.016477 104.370343 
L 113.045568 104.229159 
L 115.074659 104.099498 
L 117.10375 103.98114 
L 119.132841 103.873871 
L 121.161932 103.777477 
L 123.191023 103.691747 
L 125.220114 103.616474 
L 127.249205 103.551452 
L 129.278295 103.49648 
L 131.307386 103.451357 
L 133.336477 103.415887 
L 135.365568 103.389876 
L 137.394659 103.373132 
L 139.42375 103.365466 
L 141.452841 103.366693 
L 143.481932 103.376629 
L 145.511023 103.395093 
L 147.540114 103.421908 
L 149.569205 103.456897 
L 151.598295 103.499889 
L 153.627386 103.550714 
L 155.656477 103.609203 
L 157.685568 103.675192 
L 159.714659 103.748519 
L 161.74375 103.829024 
L 163.772841 103.91655 
L 165.801932 104.010943 
L 167.831023 104.112049 
L 169.860114 104.21972 
L 171.889205 104.333808 
L 173.918295 104.454169 
L 175.947386 104.58066 
L 177.976477 104.713142 
L 180.005568 104.851475 
L 182.034659 104.995526 
L 184.06375 105.145162 
L 186.092841 105.30025 
L 188.121932 105.460664 
L 190.151023 105.626277 
L 192.180114 105.796965 
L 194.209205 105.972606 
L 196.238295 106.15308 
L 198.267386 106.33827 
L 200.296477 106.52806 
L 202.325568 106.722337 
L 204.354659 106.92099 
L 206.38375 107.123909 
L 208.412841 107.330986 
L 210.441932 107.542118 
L 212.471023 107.757199 
L 214.500114 107.976128 
L 216.529205 108.198806 
L 218.558295 108.425135 
L 220.587386 108.655019 
L 222.616477 108.888363 
L 224.645568 109.125075 
L 226.674659 109.365065 
L 228.70375 109.608243 
L 230.732841 109.854522 
L 232.761932 110.103817 
L 234.791023 110.356043 
L 236.820114 110.611119 
L 238.849205 110.868962 
L 240.878295 111.129495 
L 242.907386 111.392638 
L 244.936477 111.658317 
L 246.965568 111.926457 
L 248.994659 112.196983 
L 251.02375 112.469825 
L 253.052841 112.744912 
L 255.081932 113.022175 
L 257.111023 113.301546 
L 259.140114 113.582959 
L 261.169205 113.86635 
L 263.198295 114.151654 
" clip-path="url(#pcca9d89d07)" style="fill: none; stroke-dasharray: 5.55,2.4; stroke-dashoffset: 0; stroke: #ff0000; stroke-width: 1.5"/>
   </g>
   <g id="patch_3">
    <path d="M 50.14375 173.52 
L 50.14375 7.2 
" style="fill: none; stroke: #000000; stroke-width: 0.8; stroke-linejoin: miter; stroke-linecap: square"/>
   </g>
   <g id="patch_4">
    <path d="M 273.34375 173.52 
L 273.34375 7.2 
" style="fill: none; stroke: #000000; stroke-width: 0.8; stroke-linejoin: miter; stroke-linecap: square"/>
   </g>
   <g id="patch_5">
    <path d="M 50.14375 173.52 
L 273.34375 173.52 
" style="fill: none; stroke: #000000; stroke-width: 0.8; stroke-linejoin: miter; stroke-linecap: square"/>
   </g>
   <g id="patch_6">
    <path d="M 50.14375 7.2 
L 273.34375 7.2 
" style="fill: none; stroke: #000000; stroke-width: 0.8; stroke-linejoin: miter; stroke-linecap: square"/>
   </g>
   <g id="legend_1">
    <g id="patch_7">
     <path d="M 182.271875 168.52 
L 266.34375 168.52 
Q 268.34375 168.52 268.34375 166.52 
L 268.34375 138.16375 
Q 268.34375 136.16375 266.34375 136.16375 
L 182.271875 136.16375 
Q 180.271875 136.16375 180.271875 138.16375 
L 180.271875 166.52 
Q 180.271875 168.52 182.271875 168.52 
z
" style="fill: #ffffff; opacity: 0.8; stroke: #cccccc; stroke-linejoin: miter"/>
    </g>
    <g id="line2d_15">
     <path d="M 184.271875 144.262188 
L 194.271875 144.262188 
L 204.271875 144.262188 
" style="fill: none; stroke: #000000; stroke-width: 1.5; stroke-linecap: square"/>
    </g>
    <g id="text_13">
     <!-- Volmer -->
     <g transform="translate(212.271875 147.762188) scale(0.1 -0.1)">
      <defs>
       <path id="DejaVuSans-56" d="M 1831 0 
L 50 4666 
L 709 4666 
L 2188 738 
L 3669 4666 
L 4325 4666 
L 2547 0 
L 1831 0 
z
" transform="scale(0.015625)"/>
       <path id="DejaVuSans-6d" d="M 3328 2828 
Q 3544 3216 3844 3400 
Q 4144 3584 4550 3584 
Q 5097 3584 5394 3201 
Q 5691 2819 5691 2113 
L 5691 0 
L 5113 0 
L 5113 2094 
Q 5113 2597 4934 2840 
Q 4756 3084 4391 3084 
Q 3944 3084 3684 2787 
Q 3425 2491 3425 1978 
L 3425 0 
L 2847 0 
L 2847 2094 
Q 2847 2600 2669 2842 
Q 2491 3084 2119 3084 
Q 1678 3084 1418 2786 
Q 1159 2488 1159 1978 
L 1159 0 
L 581 0 
L 581 3500 
L 1159 3500 
L 1159 2956 
Q 1356 3278 1631 3431 
Q 1906 3584 2284 3584 
Q 2666 3584 2933 3390 
Q 3200 3197 3328 2828 
z
" transform="scale(0.015625)"/>
       <path id="DejaVuSans-72" d="M 2631 2963 
Q 2534 3019 2420 3045 
Q 2306 3072 2169 3072 
Q 1681 3072 1420 2755 
Q 1159 2438 1159 1844 
L 1159 0 
L 581 0 
L 581 3500 
L 1159 3500 
L 1159 2956 
Q 1341 3275 1631 3429 
Q 1922 3584 2338 3584 
Q 2397 3584 2469 3576 
Q 2541 3569 2628 3553 
L 2631 2963 
z
" transform="scale(0.015625)"/>
      </defs>
      <use xlink:href="#DejaVuSans-56"/>
      <use xlink:href="#DejaVuSans-6f" x="60.658203"/>
      <use xlink:href="#DejaVuSans-6c" x="121.839844"/>
      <use xlink:href="#DejaVuSans-6d" x="149.623047"/>
      <use xlink:href="#DejaVuSans-65" x="247.035156"/>
      <use xlink:href="#DejaVuSans-72" x="308.558594"/>
     </g>
    </g>
    <g id="line2d_16">
     <path d="M 184.271875 158.940313 
L 194.271875 158.940313 
L 204.271875 158.940313 
" style="fill: none; stroke: #ff0000; stroke-width: 1.5; stroke-linecap: square"/>
    </g>
    <g id="text_14">
     <!-- Heyrovsky -->
     <g transform="translate(212.271875 162.440313) scale(0.1 -0.1)">
      <defs>
       <path id="DejaVuSans-79" d="M 2059 -325 
Q 1816 -950 1584 -1140 
Q 1353 -1331 966 -1331 
L 506 -1331 
L 506 -850 
L 844 -850 
Q 1081 -850 1212 -737 
Q 1344 -625 1503 -206 
L 1606 56 
L 191 3500 
L 800 3500 
L 1894 763 
L 2988 3500 
L 3597 3500 
L 2059 -325 
z
" transform="scale(0.015625)"/>
       <path id="DejaVuSans-6b" d="M 581 4863 
L 1159 4863 
L 1159 1991 
L 2875 3500 
L 3609 3500 
L 1753 1863 
L 3688 0 
L 2938 0 
L 1159 1709 
L 1159 0 
L 581 0 
L 581 4863 
z
" transform="scale(0.015625)"/>
      </defs>
      <use xlink:href="#DejaVuSans-48"/>
      <use xlink:href="#DejaVuSans-65" x="75.195312"/>
      <use xlink:href="#DejaVuSans-79" x="136.71875"/>
      <use xlink:href="#DejaVuSans-72" x="195.898438"/>
      <use xlink:href="#DejaVuSans-6f" x="234.761719"/>
      <use xlink:href="#DejaVuSans-76" x="295.943359"/>
      <use xlink:href="#DejaVuSans-73" x="355.123047"/>
      <use xlink:href="#DejaVuSans-6b" x="407.222656"/>
      <use xlink:href="#DejaVuSans-79" x="461.507812"/>
     </g>
    </g>
   </g>
  </g>
 </g>
 <defs>
  <clipPath id="pcca9d89d07">
   <rect x="50.14375" y="7.2" width="223.2" height="166.32"/>
  </clipPath>
 </defs>
</svg>
