<?xml version="1.0" encoding="utf-8" standalone="no"?>
<!DOCTYPE svg PUBLIC "-//W3C//DTD SVG 1.1//EN"
  "http://www.w3.org/Graphics/SVG/1.1/DTD/svg11.dtd">
<svg xmlns:xlink="http://www.w3.org/1999/xlink" width="282.560937pt" height="211.07625pt" viewBox="0 0 282.560937 211.07625" xmlns="http://www.w3.org/2000/svg" version="1.1">
 <metadata>
  <rdf:RDF xmlns:dc="http://purl.org/dc/elements/1.1/" xmlns:cc="http://creativecommons.org/ns#" xmlns:rdf="http://www.w3.org/1999/02/22-rdf-syntax-ns#">
   <cc:Work>
    <dc:type rdf:resource="http://purl.org/dc/dcmitype/StillImage"/>
    <dc:date>2025-04-20T16:55:40.183587</dc:date>
    <dc:format>image/svg+xml</dc:format>
    <dc:creator>
     <cc:Agent>
      <dc:title>Matplotlib v3.7.2, https://matplotlib.org/</dc:title>
     </cc:Agent>
    </dc:creator>
   </cc:Work>
  </rdf:RDF>
 </metadata>
 <defs>
  <style type="text/css">*{stroke-linejoin: round; stroke-linecap: butt}</style>
 </defs>
 <g id="figure_1">
  <g id="patch_1">
   <path d="M 0 211.07625 
L 282.560937 211.07625 
L 282.560937 0 
L 0 0 
z
" style="fill: #ffffff"/>
  </g>
  <g id="axes_1">
   <g id="patch_2">
    <path d="M 52.160938 173.52 
L 275.360937 173.52 
L 275.360937 7.2 
L 52.160938 7.2 
z
" style="fill: #ffffff"/>
   </g>
   <g id="matplotlib.axis_1">
    <g id="xtick_1">
     <g id="line2d_1">
      <defs>
       <path id="m1fd9a422b3" d="M 0 0 
L 0 3.5 
" style="stroke: #000000; stroke-width: 0.8"/>
      </defs>
      <g>
       <use xlink:href="#m1fd9a422b3" x="62.306392" y="173.52" style="stroke: #000000; stroke-width: 0.8"/>
      </g>
     </g>
     <g id="text_1">
      <!-- −2.0 -->
      <g transform="translate(50.164986 188.118438) scale(0.1 -0.1)">
       <defs>
        <path id="DejaVuSans-2212" d="M 678 2272 
L 4684 2272 
L 4684 1741 
L 678 1741 
L 678 2272 
z
" transform="scale(0.015625)"/>
        <path id="DejaVuSans-32" d="M 1228 531 
L 3431 531 
L 3431 0 
L 469 0 
L 469 531 
Q 828 903 1448 1529 
Q 2069 2156 2228 2338 
Q 2531 2678 2651 2914 
Q 2772 3150 2772 3378 
Q 2772 3750 2511 3984 
Q 2250 4219 1831 4219 
Q 1534 4219 1204 4116 
Q 875 4013 500 3803 
L 500 4441 
Q 881 4594 1212 4672 
Q 1544 4750 1819 4750 
Q 2544 4750 2975 4387 
Q 3406 4025 3406 3419 
Q 3406 3131 3298 2873 
Q 3191 2616 2906 2266 
Q 2828 2175 2409 1742 
Q 1991 1309 1228 531 
z
" transform="scale(0.015625)"/>
        <path id="DejaVuSans-2e" d="M 684 794 
L 1344 794 
L 1344 0 
L 684 0 
L 684 794 
z
" transform="scale(0.015625)"/>
        <path id="DejaVuSans-30" d="M 2034 4250 
Q 1547 4250 1301 3770 
Q 1056 3291 1056 2328 
Q 1056 1369 1301 889 
Q 1547 409 2034 409 
Q 2525 409 2770 889 
Q 3016 1369 3016 2328 
Q 3016 3291 2770 3770 
Q 2525 4250 2034 4250 
z
M 2034 4750 
Q 2819 4750 3233 4129 
Q 3647 3509 3647 2328 
Q 3647 1150 3233 529 
Q 2819 -91 2034 -91 
Q 1250 -91 836 529 
Q 422 1150 422 2328 
Q 422 3509 836 4129 
Q 1250 4750 2034 4750 
z
" transform="scale(0.015625)"/>
       </defs>
       <use xlink:href="#DejaVuSans-2212"/>
       <use xlink:href="#DejaVuSans-32" x="83.789062"/>
       <use xlink:href="#DejaVuSans-2e" x="147.412109"/>
       <use xlink:href="#DejaVuSans-30" x="179.199219"/>
      </g>
     </g>
    </g>
    <g id="xtick_2">
     <g id="line2d_2">
      <g>
       <use xlink:href="#m1fd9a422b3" x="113.033665" y="173.52" style="stroke: #000000; stroke-width: 0.8"/>
      </g>
     </g>
     <g id="text_2">
      <!-- −1.5 -->
      <g transform="translate(100.892259 188.118438) scale(0.1 -0.1)">
       <defs>
        <path id="DejaVuSans-31" d="M 794 531 
L 1825 531 
L 1825 4091 
L 703 3866 
L 703 4441 
L 1819 4666 
L 2450 4666 
L 2450 531 
L 3481 531 
L 3481 0 
L 794 0 
L 794 531 
z
" transform="scale(0.015625)"/>
        <path id="DejaVuSans-35" d="M 691 4666 
L 3169 4666 
L 3169 4134 
L 1269 4134 
L 1269 2991 
Q 1406 3038 1543 3061 
Q 1681 3084 1819 3084 
Q 2600 3084 3056 2656 
Q 3513 2228 3513 1497 
Q 3513 744 3044 326 
Q 2575 -91 1722 -91 
Q 1428 -91 1123 -41 
Q 819 9 494 109 
L 494 744 
Q 775 591 1075 516 
Q 1375 441 1709 441 
Q 2250 441 2565 725 
Q 2881 1009 2881 1497 
Q 2881 1984 2565 2268 
Q 2250 2553 1709 2553 
Q 1456 2553 1204 2497 
Q 953 2441 691 2322 
L 691 4666 
z
" transform="scale(0.015625)"/>
       </defs>
       <use xlink:href="#DejaVuSans-2212"/>
       <use xlink:href="#DejaVuSans-31" x="83.789062"/>
       <use xlink:href="#DejaVuSans-2e" x="147.412109"/>
       <use xlink:href="#DejaVuSans-35" x="179.199219"/>
      </g>
     </g>
    </g>
    <g id="xtick_3">
     <g id="line2d_3">
      <g>
       <use xlink:href="#m1fd9a422b3" x="163.760938" y="173.52" style="stroke: #000000; stroke-width: 0.8"/>
      </g>
     </g>
     <g id="text_3">
      <!-- −1.0 -->
      <g transform="translate(151.619531 188.118438) scale(0.1 -0.1)">
       <use xlink:href="#DejaVuSans-2212"/>
       <use xlink:href="#DejaVuSans-31" x="83.789062"/>
       <use xlink:href="#DejaVuSans-2e" x="147.412109"/>
       <use xlink:href="#DejaVuSans-30" x="179.199219"/>
      </g>
     </g>
    </g>
    <g id="xtick_4">
     <g id="line2d_4">
      <g>
       <use xlink:href="#m1fd9a422b3" x="214.48821" y="173.52" style="stroke: #000000; stroke-width: 0.8"/>
      </g>
     </g>
     <g id="text_4">
      <!-- −0.5 -->
      <g transform="translate(202.346804 188.118438) scale(0.1 -0.1)">
       <use xlink:href="#DejaVuSans-2212"/>
       <use xlink:href="#DejaVuSans-30" x="83.789062"/>
       <use xlink:href="#DejaVuSans-2e" x="147.412109"/>
       <use xlink:href="#DejaVuSans-35" x="179.199219"/>
      </g>
     </g>
    </g>
    <g id="xtick_5">
     <g id="line2d_5">
      <g>
       <use xlink:href="#m1fd9a422b3" x="265.215483" y="173.52" style="stroke: #000000; stroke-width: 0.8"/>
      </g>
     </g>
     <g id="text_5">
      <!-- 0.0 -->
      <g transform="translate(257.26392 188.118438) scale(0.1 -0.1)">
       <use xlink:href="#DejaVuSans-30"/>
       <use xlink:href="#DejaVuSans-2e" x="63.623047"/>
       <use xlink:href="#DejaVuSans-30" x="95.410156"/>
      </g>
     </g>
    </g>
    <g id="text_6">
     <!-- Potential vs SHE -->
     <g transform="translate(123.024219 201.796563) scale(0.1 -0.1)">
      <defs>
       <path id="DejaVuSans-50" d="M 1259 4147 
L 1259 2394 
L 2053 2394 
Q 2494 2394 2734 2622 
Q 2975 2850 2975 3272 
Q 2975 3691 2734 3919 
Q 2494 4147 2053 4147 
L 1259 4147 
z
M 628 4666 
L 2053 4666 
Q 2838 4666 3239 4311 
Q 3641 3956 3641 3272 
Q 3641 2581 3239 2228 
Q 2838 1875 2053 1875 
L 1259 1875 
L 1259 0 
L 628 0 
L 628 4666 
z
" transform="scale(0.015625)"/>
       <path id="DejaVuSans-6f" d="M 1959 3097 
Q 1497 3097 1228 2736 
Q 959 2375 959 1747 
Q 959 1119 1226 758 
Q 1494 397 1959 397 
Q 2419 397 2687 759 
Q 2956 1122 2956 1747 
Q 2956 2369 2687 2733 
Q 2419 3097 1959 3097 
z
M 1959 3584 
Q 2709 3584 3137 3096 
Q 3566 2609 3566 1747 
Q 3566 888 3137 398 
Q 2709 -91 1959 -91 
Q 1206 -91 779 398 
Q 353 888 353 1747 
Q 353 2609 779 3096 
Q 1206 3584 1959 3584 
z
" transform="scale(0.015625)"/>
       <path id="DejaVuSans-74" d="M 1172 4494 
L 1172 3500 
L 2356 3500 
L 2356 3053 
L 1172 3053 
L 1172 1153 
Q 1172 725 1289 603 
Q 1406 481 1766 481 
L 2356 481 
L 2356 0 
L 1766 0 
Q 1100 0 847 248 
Q 594 497 594 1153 
L 594 3053 
L 172 3053 
L 172 3500 
L 594 3500 
L 594 4494 
L 1172 4494 
z
" transform="scale(0.015625)"/>
       <path id="DejaVuSans-65" d="M 3597 1894 
L 3597 1613 
L 953 1613 
Q 991 1019 1311 708 
Q 1631 397 2203 397 
Q 2534 397 2845 478 
Q 3156 559 3463 722 
L 3463 178 
Q 3153 47 2828 -22 
Q 2503 -91 2169 -91 
Q 1331 -91 842 396 
Q 353 884 353 1716 
Q 353 2575 817 3079 
Q 1281 3584 2069 3584 
Q 2775 3584 3186 3129 
Q 3597 2675 3597 1894 
z
M 3022 2063 
Q 3016 2534 2758 2815 
Q 2500 3097 2075 3097 
Q 1594 3097 1305 2825 
Q 1016 2553 972 2059 
L 3022 2063 
z
" transform="scale(0.015625)"/>
       <path id="DejaVuSans-6e" d="M 3513 2113 
L 3513 0 
L 2938 0 
L 2938 2094 
Q 2938 2591 2744 2837 
Q 2550 3084 2163 3084 
Q 1697 3084 1428 2787 
Q 1159 2491 1159 1978 
L 1159 0 
L 581 0 
L 581 3500 
L 1159 3500 
L 1159 2956 
Q 1366 3272 1645 3428 
Q 1925 3584 2291 3584 
Q 2894 3584 3203 3211 
Q 3513 2838 3513 2113 
z
" transform="scale(0.015625)"/>
       <path id="DejaVuSans-69" d="M 603 3500 
L 1178 3500 
L 1178 0 
L 603 0 
L 603 3500 
z
M 603 4863 
L 1178 4863 
L 1178 4134 
L 603 4134 
L 603 4863 
z
" transform="scale(0.015625)"/>
       <path id="DejaVuSans-61" d="M 2194 1759 
Q 1497 1759 1228 1600 
Q 959 1441 959 1056 
Q 959 750 1161 570 
Q 1363 391 1709 391 
Q 2188 391 2477 730 
Q 2766 1069 2766 1631 
L 2766 1759 
L 2194 1759 
z
M 3341 1997 
L 3341 0 
L 2766 0 
L 2766 531 
Q 2569 213 2275 61 
Q 1981 -91 1556 -91 
Q 1019 -91 701 211 
Q 384 513 384 1019 
Q 384 1609 779 1909 
Q 1175 2209 1959 2209 
L 2766 2209 
L 2766 2266 
Q 2766 2663 2505 2880 
Q 2244 3097 1772 3097 
Q 1472 3097 1187 3025 
Q 903 2953 641 2809 
L 641 3341 
Q 956 3463 1253 3523 
Q 1550 3584 1831 3584 
Q 2591 3584 2966 3190 
Q 3341 2797 3341 1997 
z
" transform="scale(0.015625)"/>
       <path id="DejaVuSans-6c" d="M 603 4863 
L 1178 4863 
L 1178 0 
L 603 0 
L 603 4863 
z
" transform="scale(0.015625)"/>
       <path id="DejaVuSans-20" transform="scale(0.015625)"/>
       <path id="DejaVuSans-76" d="M 191 3500 
L 800 3500 
L 1894 563 
L 2988 3500 
L 3597 3500 
L 2284 0 
L 1503 0 
L 191 3500 
z
" transform="scale(0.015625)"/>
       <path id="DejaVuSans-73" d="M 2834 3397 
L 2834 2853 
Q 2591 2978 2328 3040 
Q 2066 3103 1784 3103 
Q 1356 3103 1142 2972 
Q 928 2841 928 2578 
Q 928 2378 1081 2264 
Q 1234 2150 1697 2047 
L 1894 2003 
Q 2506 1872 2764 1633 
Q 3022 1394 3022 966 
Q 3022 478 2636 193 
Q 2250 -91 1575 -91 
Q 1294 -91 989 -36 
Q 684 19 347 128 
L 347 722 
Q 666 556 975 473 
Q 1284 391 1588 391 
Q 1994 391 2212 530 
Q 2431 669 2431 922 
Q 2431 1156 2273 1281 
Q 2116 1406 1581 1522 
L 1381 1569 
Q 847 1681 609 1914 
Q 372 2147 372 2553 
Q 372 3047 722 3315 
Q 1072 3584 1716 3584 
Q 2034 3584 2315 3537 
Q 2597 3491 2834 3397 
z
" transform="scale(0.015625)"/>
       <path id="DejaVuSans-53" d="M 3425 4513 
L 3425 3897 
Q 3066 4069 2747 4153 
Q 2428 4238 2131 4238 
Q 1616 4238 1336 4038 
Q 1056 3838 1056 3469 
Q 1056 3159 1242 3001 
Q 1428 2844 1947 2747 
L 2328 2669 
Q 3034 2534 3370 2195 
Q 3706 1856 3706 1288 
Q 3706 609 3251 259 
Q 2797 -91 1919 -91 
Q 1588 -91 1214 -16 
Q 841 59 441 206 
L 441 856 
Q 825 641 1194 531 
Q 1563 422 1919 422 
Q 2459 422 2753 634 
Q 3047 847 3047 1241 
Q 3047 1584 2836 1778 
Q 2625 1972 2144 2069 
L 1759 2144 
Q 1053 2284 737 2584 
Q 422 2884 422 3419 
Q 422 4038 858 4394 
Q 1294 4750 2059 4750 
Q 2388 4750 2728 4690 
Q 3069 4631 3425 4513 
z
" transform="scale(0.015625)"/>
       <path id="DejaVuSans-48" d="M 628 4666 
L 1259 4666 
L 1259 2753 
L 3553 2753 
L 3553 4666 
L 4184 4666 
L 4184 0 
L 3553 0 
L 3553 2222 
L 1259 2222 
L 1259 0 
L 628 0 
L 628 4666 
z
" transform="scale(0.015625)"/>
       <path id="DejaVuSans-45" d="M 628 4666 
L 3578 4666 
L 3578 4134 
L 1259 4134 
L 1259 2753 
L 3481 2753 
L 3481 2222 
L 1259 2222 
L 1259 531 
L 3634 531 
L 3634 0 
L 628 0 
L 628 4666 
z
" transform="scale(0.015625)"/>
      </defs>
      <use xlink:href="#DejaVuSans-50"/>
      <use xlink:href="#DejaVuSans-6f" x="56.677734"/>
      <use xlink:href="#DejaVuSans-74" x="117.859375"/>
      <use xlink:href="#DejaVuSans-65" x="157.068359"/>
      <use xlink:href="#DejaVuSans-6e" x="218.591797"/>
      <use xlink:href="#DejaVuSans-74" x="281.970703"/>
      <use xlink:href="#DejaVuSans-69" x="321.179688"/>
      <use xlink:href="#DejaVuSans-61" x="348.962891"/>
      <use xlink:href="#DejaVuSans-6c" x="410.242188"/>
      <use xlink:href="#DejaVuSans-20" x="438.025391"/>
      <use xlink:href="#DejaVuSans-76" x="469.8125"/>
      <use xlink:href="#DejaVuSans-73" x="528.992188"/>
      <use xlink:href="#DejaVuSans-20" x="581.091797"/>
      <use xlink:href="#DejaVuSans-53" x="612.878906"/>
      <use xlink:href="#DejaVuSans-48" x="676.355469"/>
      <use xlink:href="#DejaVuSans-45" x="751.550781"/>
     </g>
    </g>
   </g>
   <g id="matplotlib.axis_2">
    <g id="ytick_1">
     <g id="line2d_6">
      <defs>
       <path id="mdf11f9f2ff" d="M 0 0 
L -3.5 0 
" style="stroke: #000000; stroke-width: 0.8"/>
      </defs>
      <g>
       <use xlink:href="#mdf11f9f2ff" x="52.160938" y="152.892239" style="stroke: #000000; stroke-width: 0.8"/>
      </g>
     </g>
     <g id="text_7">
      <!-- −1.0 -->
      <g transform="translate(20.878125 156.691458) scale(0.1 -0.1)">
       <use xlink:href="#DejaVuSans-2212"/>
       <use xlink:href="#DejaVuSans-31" x="83.789062"/>
       <use xlink:href="#DejaVuSans-2e" x="147.412109"/>
       <use xlink:href="#DejaVuSans-30" x="179.199219"/>
      </g>
     </g>
    </g>
    <g id="ytick_2">
     <g id="line2d_7">
      <g>
       <use xlink:href="#mdf11f9f2ff" x="52.160938" y="113.083375" style="stroke: #000000; stroke-width: 0.8"/>
      </g>
     </g>
     <g id="text_8">
      <!-- −0.5 -->
      <g transform="translate(20.878125 116.882594) scale(0.1 -0.1)">
       <use xlink:href="#DejaVuSans-2212"/>
       <use xlink:href="#DejaVuSans-30" x="83.789062"/>
       <use xlink:href="#DejaVuSans-2e" x="147.412109"/>
       <use xlink:href="#DejaVuSans-35" x="179.199219"/>
      </g>
     </g>
    </g>
    <g id="ytick_3">
     <g id="line2d_8">
      <g>
       <use xlink:href="#mdf11f9f2ff" x="52.160938" y="73.274511" style="stroke: #000000; stroke-width: 0.8"/>
      </g>
     </g>
     <g id="text_9">
      <!-- 0.0 -->
      <g transform="translate(29.257812 77.07373) scale(0.1 -0.1)">
       <use xlink:href="#DejaVuSans-30"/>
       <use xlink:href="#DejaVuSans-2e" x="63.623047"/>
       <use xlink:href="#DejaVuSans-30" x="95.410156"/>
      </g>
     </g>
    </g>
    <g id="ytick_4">
     <g id="line2d_9">
      <g>
       <use xlink:href="#mdf11f9f2ff" x="52.160938" y="33.465648" style="stroke: #000000; stroke-width: 0.8"/>
      </g>
     </g>
     <g id="text_10">
      <!-- 0.5 -->
      <g transform="translate(29.257812 37.264866) scale(0.1 -0.1)">
       <use xlink:href="#DejaVuSans-30"/>
       <use xlink:href="#DejaVuSans-2e" x="63.623047"/>
       <use xlink:href="#DejaVuSans-35" x="95.410156"/>
      </g>
     </g>
    </g>
    <g id="text_11">
     <!-- Slope -->
     <g transform="translate(14.798438 104.233438) rotate(-90) scale(0.1 -0.1)">
      <defs>
       <path id="DejaVuSans-70" d="M 1159 525 
L 1159 -1331 
L 581 -1331 
L 581 3500 
L 1159 3500 
L 1159 2969 
Q 1341 3281 1617 3432 
Q 1894 3584 2278 3584 
Q 2916 3584 3314 3078 
Q 3713 2572 3713 1747 
Q 3713 922 3314 415 
Q 2916 -91 2278 -91 
Q 1894 -91 1617 61 
Q 1341 213 1159 525 
z
M 3116 1747 
Q 3116 2381 2855 2742 
Q 2594 3103 2138 3103 
Q 1681 3103 1420 2742 
Q 1159 2381 1159 1747 
Q 1159 1113 1420 752 
Q 1681 391 2138 391 
Q 2594 391 2855 752 
Q 3116 1113 3116 1747 
z
" transform="scale(0.015625)"/>
      </defs>
      <use xlink:href="#DejaVuSans-53"/>
      <use xlink:href="#DejaVuSans-6c" x="63.476562"/>
      <use xlink:href="#DejaVuSans-6f" x="91.259766"/>
      <use xlink:href="#DejaVuSans-70" x="152.441406"/>
      <use xlink:href="#DejaVuSans-65" x="215.917969"/>
     </g>
    </g>
   </g>
   <g id="line2d_10">
    <path d="M 62.306392 23.925442 
L 64.335483 24.034475 
L 66.364574 24.143508 
L 68.393665 24.252541 
L 70.422756 24.361574 
L 72.451847 24.470606 
L 74.480938 24.579639 
L 76.510028 24.688672 
L 78.539119 24.797705 
L 80.56821 24.906738 
L 82.597301 25.015771 
L 84.626392 25.124804 
L 86.655483 25.233837 
L 88.684574 25.34287 
L 90.713665 25.451903 
L 92.742756 25.560936 
L 94.771847 25.669969 
L 96.800938 25.779002 
L 98.830028 25.888034 
L 100.859119 25.997067 
L 102.88821 26.1061 
L 104.917301 26.215133 
L 106.946392 26.324166 
L 108.975483 26.433199 
L 111.004574 26.542232 
L 113.033665 26.651265 
L 115.062756 26.760298 
L 117.091847 26.869331 
L 119.120938 26.978364 
L 121.150028 27.087397 
L 123.179119 27.19643 
L 125.20821 27.305463 
L 127.237301 27.414495 
L 129.266392 27.523528 
L 131.295483 27.632561 
L 133.324574 27.741594 
L 135.353665 27.850627 
L 137.382756 27.95966 
L 139.411847 28.068693 
L 141.440938 28.177726 
L 143.470028 28.286759 
L 145.499119 28.395792 
L 147.52821 28.504825 
L 149.557301 28.613858 
L 151.586392 28.722891 
L 153.615483 28.831923 
L 155.644574 28.940956 
L 157.673665 29.049989 
L 159.702756 29.159022 
L 161.731847 29.268055 
L 163.760938 29.377088 
L 165.790028 29.486121 
L 167.819119 29.595154 
L 169.84821 29.704187 
L 171.877301 29.81322 
L 173.906392 29.922253 
L 175.935483 30.031286 
L 177.964574 30.140319 
L 179.993665 30.249351 
L 182.022756 30.358384 
L 184.051847 30.467417 
L 186.080938 30.57645 
L 188.110028 30.685483 
L 190.139119 30.794516 
L 192.16821 30.903549 
L 194.197301 31.012582 
L 196.226392 31.121615 
L 198.255483 31.230648 
L 200.284574 31.339681 
L 202.313665 31.448714 
L 204.342756 31.557747 
L 206.371847 31.66678 
L 208.400937 31.775812 
L 210.430028 31.884845 
L 212.459119 31.993878 
L 214.48821 32.102911 
L 216.517301 32.211944 
L 218.546392 32.320977 
L 220.575483 32.43001 
L 222.604574 32.539043 
L 224.633665 32.648076 
L 226.662756 32.757109 
L 228.691847 32.866142 
L 230.720938 32.975175 
L 232.750028 33.084208 
L 234.779119 33.19324 
L 236.80821 33.302273 
L 238.837301 33.411306 
L 240.866392 33.520339 
L 242.895483 33.629372 
L 244.924574 33.738405 
L 246.953665 33.847438 
L 248.982756 33.956471 
L 251.011847 34.065504 
L 253.040938 34.174537 
L 255.070028 34.28357 
L 257.099119 34.392603 
L 259.12821 34.501636 
L 261.157301 34.610669 
L 263.186392 34.719701 
L 265.215483 34.828734 
" clip-path="url(#pa3a285e0be)" style="fill: none; stroke: #000000; stroke-width: 1.5; stroke-linecap: square"/>
   </g>
   <g id="line2d_11">
    <path d="M 62.306392 136.444905 
L 64.335483 136.740055 
L 66.364574 137.035206 
L 68.393665 137.330357 
L 70.422756 137.625508 
L 72.451847 137.920659 
L 74.480938 138.21581 
L 76.510028 138.510961 
L 78.539119 138.806112 
L 80.56821 139.101263 
L 82.597301 139.396414 
L 84.626392 139.691565 
L 86.655483 139.986716 
L 88.684574 140.281867 
L 90.713665 140.577018 
L 92.742756 140.872169 
L 94.771847 141.16732 
L 96.800938 141.462471 
L 98.830028 141.757622 
L 100.859119 142.052773 
L 102.88821 142.347924 
L 104.917301 142.643075 
L 106.946392 142.938226 
L 108.975483 143.233376 
L 111.004574 143.528527 
L 113.033665 143.823678 
L 115.062756 144.118829 
L 117.091847 144.41398 
L 119.120938 144.709131 
L 121.150028 145.004282 
L 123.179119 145.299433 
L 125.20821 145.594584 
L 127.237301 145.889735 
L 129.266392 146.184886 
L 131.295483 146.480037 
L 133.324574 146.775188 
L 135.353665 147.070339 
L 137.382756 147.36549 
L 139.411847 147.660641 
L 141.440938 147.955792 
L 143.470028 148.250943 
L 145.499119 148.546094 
L 147.52821 148.841245 
L 149.557301 149.136396 
L 151.586392 149.431547 
L 153.615483 149.726697 
L 155.644574 150.021848 
L 157.673665 150.316999 
L 159.702756 150.61215 
L 161.731847 150.907301 
L 163.760938 151.202452 
L 165.790028 151.497603 
L 167.819119 151.792754 
L 169.84821 152.087905 
L 171.877301 152.383056 
L 173.906392 152.678207 
L 175.935483 152.973358 
L 177.964574 153.268509 
L 179.993665 153.56366 
L 182.022756 153.858811 
L 184.051847 154.153962 
L 186.080938 154.449113 
L 188.110028 154.744264 
L 190.139119 155.039415 
L 192.16821 155.334566 
L 194.197301 155.629717 
L 196.226392 155.924868 
L 198.255483 156.220018 
L 200.284574 156.515169 
L 202.313665 156.81032 
L 204.342756 157.105471 
L 206.371847 157.400622 
L 208.400937 157.695773 
L 210.430028 157.990924 
L 212.459119 158.286075 
L 214.48821 158.581226 
L 216.517301 158.876377 
L 218.546392 159.171528 
L 220.575483 159.466679 
L 222.604574 159.76183 
L 224.633665 160.056981 
L 226.662756 160.352132 
L 228.691847 160.647283 
L 230.720938 160.942434 
L 232.750028 161.237585 
L 234.779119 161.532736 
L 236.80821 161.827887 
L 238.837301 162.123038 
L 240.866392 162.418189 
L 242.895483 162.713339 
L 244.924574 163.00849 
L 246.953665 163.303641 
L 248.982756 163.598792 
L 251.011847 163.893943 
L 253.040938 164.189094 
L 255.070028 164.484245 
L 257.099119 164.779396 
L 259.12821 165.074547 
L 261.157301 165.369698 
L 263.186392 165.664849 
L 265.215483 165.96 
" clip-path="url(#pa3a285e0be)" style="fill: none; stroke: #ff0000; stroke-width: 1.5; stroke-linecap: square"/>
   </g>
   <g id="line2d_12">
    <path d="M 62.306392 113.889372 
L 64.335483 113.749129 
L 66.364574 113.608886 
L 68.393665 113.468643 
L 70.422756 113.3284 
L 72.451847 113.188157 
L 74.480938 113.047914 
L 76.510028 112.907671 
L 78.539119 112.767427 
L 80.56821 112.627184 
L 82.597301 112.486941 
L 84.626392 112.346698 
L 86.655483 112.206455 
L 88.684574 112.066212 
L 90.713665 111.925969 
L 92.742756 111.785726 
L 94.771847 111.645483 
L 96.800938 111.50524 
L 98.830028 111.364997 
L 100.859119 111.224754 
L 102.88821 111.084511 
L 104.917301 110.944268 
L 106.946392 110.804025 
L 108.975483 110.663781 
L 111.004574 110.523538 
L 113.033665 110.383295 
L 115.062756 110.243052 
L 117.091847 110.102809 
L 119.120938 109.962566 
L 121.150028 109.822323 
L 123.179119 109.68208 
L 125.20821 109.541837 
L 127.237301 109.401594 
L 129.266392 109.261351 
L 131.295483 109.121108 
L 133.324574 108.980865 
L 135.353665 108.840622 
L 137.382756 108.700378 
L 139.411847 108.560135 
L 141.440938 108.419892 
L 143.470028 108.279649 
L 145.499119 108.139406 
L 147.52821 107.999163 
L 149.557301 107.85892 
L 151.586392 107.718677 
L 153.615483 107.578434 
L 155.644574 107.438191 
L 157.673665 107.297948 
L 159.702756 107.157705 
L 161.731847 107.017462 
L 163.760938 106.877219 
L 165.790028 106.736975 
L 167.819119 106.596732 
L 169.84821 106.456489 
L 171.877301 106.316246 
L 173.906392 106.176003 
L 175.935483 106.03576 
L 177.964574 105.895517 
L 179.993665 105.755274 
L 182.022756 105.615031 
L 184.051847 105.474788 
L 186.080938 105.334545 
L 188.110028 105.194302 
L 190.139119 105.054059 
L 192.16821 104.913816 
L 194.197301 104.773573 
L 196.226392 104.633329 
L 198.255483 104.493086 
L 200.284574 104.352843 
L 202.313665 104.2126 
L 204.342756 104.072357 
L 206.371847 103.932114 
L 208.400937 103.791871 
L 210.430028 103.651628 
L 212.459119 103.511385 
L 214.48821 103.371142 
L 216.517301 103.230899 
L 218.546392 103.090656 
L 220.575483 102.950413 
L 222.604574 102.81017 
L 224.633665 102.669926 
L 226.662756 102.529683 
L 228.691847 102.38944 
L 230.720938 102.249197 
L 232.750028 102.108954 
L 234.779119 101.968711 
L 236.80821 101.828468 
L 238.837301 101.688225 
L 240.866392 101.547982 
L 242.895483 101.407739 
L 244.924574 101.267496 
L 246.953665 101.127253 
L 248.982756 100.98701 
L 251.011847 100.846767 
L 253.040938 100.706523 
L 255.070028 100.56628 
L 257.099119 100.426037 
L 259.12821 100.285794 
L 261.157301 100.145551 
L 263.186392 100.005308 
L 265.215483 99.865065 
" clip-path="url(#pa3a285e0be)" style="fill: none; stroke-dasharray: 5.55,2.4; stroke-dashoffset: 0; stroke: #000000; stroke-width: 1.5"/>
   </g>
   <g id="line2d_13">
    <path d="M 62.306392 31.532425 
L 64.335483 31.3647 
L 66.364574 31.196976 
L 68.393665 31.029252 
L 70.422756 30.861528 
L 72.451847 30.693803 
L 74.480938 30.526079 
L 76.510028 30.358355 
L 78.539119 30.190631 
L 80.56821 30.022906 
L 82.597301 29.855182 
L 84.626392 29.687458 
L 86.655483 29.519734 
L 88.684574 29.352009 
L 90.713665 29.184285 
L 92.742756 29.016561 
L 94.771847 28.848837 
L 96.800938 28.681112 
L 98.830028 28.513388 
L 100.859119 28.345664 
L 102.88821 28.17794 
L 104.917301 28.010216 
L 106.946392 27.842491 
L 108.975483 27.674767 
L 111.004574 27.507043 
L 113.033665 27.339319 
L 115.062756 27.171594 
L 117.091847 27.00387 
L 119.120938 26.836146 
L 121.150028 26.668422 
L 123.179119 26.500697 
L 125.20821 26.332973 
L 127.237301 26.165249 
L 129.266392 25.997525 
L 131.295483 25.8298 
L 133.324574 25.662076 
L 135.353665 25.494352 
L 137.382756 25.326628 
L 139.411847 25.158903 
L 141.440938 24.991179 
L 143.470028 24.823455 
L 145.499119 24.655731 
L 147.52821 24.488006 
L 149.557301 24.320282 
L 151.586392 24.152558 
L 153.615483 23.984834 
L 155.644574 23.817109 
L 157.673665 23.649385 
L 159.702756 23.481661 
L 161.731847 23.313937 
L 163.760938 23.146212 
L 165.790028 22.978488 
L 167.819119 22.810764 
L 169.84821 22.64304 
L 171.877301 22.475315 
L 173.906392 22.307591 
L 175.935483 22.139867 
L 177.964574 21.972143 
L 179.993665 21.804418 
L 182.022756 21.636694 
L 184.051847 21.46897 
L 186.080938 21.301246 
L 188.110028 21.133521 
L 190.139119 20.965797 
L 192.16821 20.798073 
L 194.197301 20.630349 
L 196.226392 20.462624 
L 198.255483 20.2949 
L 200.284574 20.127176 
L 202.313665 19.959452 
L 204.342756 19.791727 
L 206.371847 19.624003 
L 208.400937 19.456279 
L 210.430028 19.288555 
L 212.459119 19.12083 
L 214.48821 18.953106 
L 216.517301 18.785382 
L 218.546392 18.617658 
L 220.575483 18.449933 
L 222.604574 18.282209 
L 224.633665 18.114485 
L 226.662756 17.946761 
L 228.691847 17.779036 
L 230.720938 17.611312 
L 232.750028 17.443588 
L 234.779119 17.275864 
L 236.80821 17.108139 
L 238.837301 16.940415 
L 240.866392 16.772691 
L 242.895483 16.604967 
L 244.924574 16.437242 
L 246.953665 16.269518 
L 248.982756 16.101794 
L 251.011847 15.93407 
L 253.040938 15.766345 
L 255.070028 15.598621 
L 257.099119 15.430897 
L 259.12821 15.263173 
L 261.157301 15.095448 
L 263.186392 14.927724 
L 265.215483 14.76 
" clip-path="url(#pa3a285e0be)" style="fill: none; stroke-dasharray: 5.55,2.4; stroke-dashoffset: 0; stroke: #ff0000; stroke-width: 1.5"/>
   </g>
   <g id="patch_3">
    <path d="M 52.160938 173.52 
L 52.160938 7.2 
" style="fill: none; stroke: #000000; stroke-width: 0.8; stroke-linejoin: miter; stroke-linecap: square"/>
   </g>
   <g id="patch_4">
    <path d="M 275.360937 173.52 
L 275.360937 7.2 
" style="fill: none; stroke: #000000; stroke-width: 0.8; stroke-linejoin: miter; stroke-linecap: square"/>
   </g>
   <g id="patch_5">
    <path d="M 52.160938 173.52 
L 275.360937 173.52 
" style="fill: none; stroke: #000000; stroke-width: 0.8; stroke-linejoin: miter; stroke-linecap: square"/>
   </g>
   <g id="patch_6">
    <path d="M 52.160938 7.2 
L 275.360937 7.2 
" style="fill: none; stroke: #000000; stroke-width: 0.8; stroke-linejoin: miter; stroke-linecap: square"/>
   </g>
   <g id="legend_1">
    <g id="patch_7">
     <path d="M 59.160938 106.538125 
L 143.232813 106.538125 
Q 145.232813 106.538125 145.232813 104.538125 
L 145.232813 76.181875 
Q 145.232813 74.181875 143.232813 74.181875 
L 59.160938 74.181875 
Q 57.160938 74.181875 57.160938 76.181875 
L 57.160938 104.538125 
Q 57.160938 106.538125 59.160938 106.538125 
z
" style="fill: #ffffff; opacity: 0.8; stroke: #cccccc; stroke-linejoin: miter"/>
    </g>
    <g id="line2d_14">
     <path d="M 61.160938 82.280313 
L 71.160938 82.280313 
L 81.160938 82.280313 
" style="fill: none; stroke: #000000; stroke-width: 1.5; stroke-linecap: square"/>
    </g>
    <g id="text_12">
     <!-- Volmer -->
     <g transform="translate(89.160938 85.780313) scale(0.1 -0.1)">
      <defs>
       <path id="DejaVuSans-56" d="M 1831 0 
L 50 4666 
L 709 4666 
L 2188 738 
L 3669 4666 
L 4325 4666 
L 2547 0 
L 1831 0 
z
" transform="scale(0.015625)"/>
       <path id="DejaVuSans-6d" d="M 3328 2828 
Q 3544 3216 3844 3400 
Q 4144 3584 4550 3584 
Q 5097 3584 5394 3201 
Q 5691 2819 5691 2113 
L 5691 0 
L 5113 0 
L 5113 2094 
Q 5113 2597 4934 2840 
Q 4756 3084 4391 3084 
Q 3944 3084 3684 2787 
Q 3425 2491 3425 1978 
L 3425 0 
L 2847 0 
L 2847 2094 
Q 2847 2600 2669 2842 
Q 2491 3084 2119 3084 
Q 1678 3084 1418 2786 
Q 1159 2488 1159 1978 
L 1159 0 
L 581 0 
L 581 3500 
L 1159 3500 
L 1159 2956 
Q 1356 3278 1631 3431 
Q 1906 3584 2284 3584 
Q 2666 3584 2933 3390 
Q 3200 3197 3328 2828 
z
" transform="scale(0.015625)"/>
       <path id="DejaVuSans-72" d="M 2631 2963 
Q 2534 3019 2420 3045 
Q 2306 3072 2169 3072 
Q 1681 3072 1420 2755 
Q 1159 2438 1159 1844 
L 1159 0 
L 581 0 
L 581 3500 
L 1159 3500 
L 1159 2956 
Q 1341 3275 1631 3429 
Q 1922 3584 2338 3584 
Q 2397 3584 2469 3576 
Q 2541 3569 2628 3553 
L 2631 2963 
z
" transform="scale(0.015625)"/>
      </defs>
      <use xlink:href="#DejaVuSans-56"/>
      <use xlink:href="#DejaVuSans-6f" x="60.658203"/>
      <use xlink:href="#DejaVuSans-6c" x="121.839844"/>
      <use xlink:href="#DejaVuSans-6d" x="149.623047"/>
      <use xlink:href="#DejaVuSans-65" x="247.035156"/>
      <use xlink:href="#DejaVuSans-72" x="308.558594"/>
     </g>
    </g>
    <g id="line2d_15">
     <path d="M 61.160938 96.958438 
L 71.160938 96.958438 
L 81.160938 96.958438 
" style="fill: none; stroke: #ff0000; stroke-width: 1.5; stroke-linecap: square"/>
    </g>
    <g id="text_13">
     <!-- Heyrovsky -->
     <g transform="translate(89.160938 100.458438) scale(0.1 -0.1)">
      <defs>
       <path id="DejaVuSans-79" d="M 2059 -325 
Q 1816 -950 1584 -1140 
Q 1353 -1331 966 -1331 
L 506 -1331 
L 506 -850 
L 844 -850 
Q 1081 -850 1212 -737 
Q 1344 -625 1503 -206 
L 1606 56 
L 191 3500 
L 800 3500 
L 1894 763 
L 2988 3500 
L 3597 3500 
L 2059 -325 
z
" transform="scale(0.015625)"/>
       <path id="DejaVuSans-6b" d="M 581 4863 
L 1159 4863 
L 1159 1991 
L 2875 3500 
L 3609 3500 
L 1753 1863 
L 3688 0 
L 2938 0 
L 1159 1709 
L 1159 0 
L 581 0 
L 581 4863 
z
" transform="scale(0.015625)"/>
      </defs>
      <use xlink:href="#DejaVuSans-48"/>
      <use xlink:href="#DejaVuSans-65" x="75.195312"/>
      <use xlink:href="#DejaVuSans-79" x="136.71875"/>
      <use xlink:href="#DejaVuSans-72" x="195.898438"/>
      <use xlink:href="#DejaVuSans-6f" x="234.761719"/>
      <use xlink:href="#DejaVuSans-76" x="295.943359"/>
      <use xlink:href="#DejaVuSans-73" x="355.123047"/>
      <use xlink:href="#DejaVuSans-6b" x="407.222656"/>
      <use xlink:href="#DejaVuSans-79" x="461.507812"/>
     </g>
    </g>
   </g>
  </g>
 </g>
 <defs>
  <clipPath id="pa3a285e0be">
   <rect x="52.160938" y="7.2" width="223.2" height="166.32"/>
  </clipPath>
 </defs>
</svg>
